<?xml version="1.0" encoding="utf-8" ?>
<svg baseProfile="full" height="200mm" version="1.1" viewBox="0,0,200,200" width="200mm" xmlns="http://www.w3.org/2000/svg" xmlns:ev="http://www.w3.org/2001/xml-events" xmlns:xlink="http://www.w3.org/1999/xlink"><defs /><rect fill="#1a1a1a" height="200" width="200" x="0" y="0" /><rect fill="#1a1a1a" height="200" width="180" x="10" y="0" /><text alignment-baseline="middle" fill="#e1ed5e" style="dominant-baseline: central; font-size:9.0px; font-family:Arial;" text-anchor="middle" x="100.0" y="100.0">2022</text><line stroke="#e1ed5e" stroke-width="0.3" x1="100.0" x2="100.0" y1="15.0" y2="10.0" /><path d="M 100.0 14.0 a86.0,86.0 0 0,1 42.46469731375804,11.215312516191453" fill="none" id="id37" stroke="none" /><text fill="#e1ed5e" style="font-size:6.75px; font-family:Arial;" text-anchor="middle"><textPath startOffset="22.20632615414155" xlink:href="#id37">January</textPath></text><path d="M 100.0 79.0 l 0.0 -25.775288996357617 a46.77528899635762,46.77528899635762 0 0,0 0.8051597087863988,0.006930263811516579 l -0.4436792295138704 25.77147010915466" fill="red" stroke="none" /><path d="M 100.36148047927253 79.00311137660856 l 0.13550418439845235 -7.870871128487036 a28.87203745578235,28.87203745578235 0 0,0 0.49683739638932745,0.012831844135637836 l -0.2709682159826476 7.8673724922090384" fill="red" stroke="none" /><path d="M 100.72285384407766 79.0124445844662 l 0.49825106969076344 -14.466371067482937 a35.474948911500704,35.474948911500704 0 0,0 0.6101001438051706,0.026272195571994197 l -0.7471920458852657 14.45565114538675" fill="red" stroke="none" /><path d="M 101.08401301168833 79.027996857942 l 0.5118733856849772 -9.90302711975905 a30.916247299137705,30.916247299137705 0 0,0 0.5312264444280348,0.032045029844391996 l -0.682261878952624 9.892748820534354" fill="red" stroke="none" /><path d="M 101.44485096284872 79.0497635885617 l 0.41753433775836124 -6.054218262542624 a27.06859898936418,27.06859898936418 0 0,0 0.46456136361826034,0.03605890284062177 l -0.5216858907389628 6.046134097513538" fill="red" stroke="none" /><path d="M 102.16513564639614 79.11191278185805 l 0.6571412056570287 -6.339751895566727 a27.37371858976487,27.37371858976487 0 0,0 0.4682643412475404,0.05261495480190231 l -0.7661722504142944 6.327500987294224" fill="red" stroke="none" /><path d="M 102.52436894288641 79.15227682838746 l 1.3759359195334309 -11.363287935048055 a32.446288147232316,32.446288147232316 0 0,0 0.553881734065392,0.07190974559389468 l -1.571332382106669 11.337919866290024" fill="red" stroke="none" /><path d="M 103.2404852339499 79.25152402106235 l 3.2968356910284373 -21.109281852344125 a42.36517975340587,42.36517975340587 0 0,0 0.719543918796025,0.11873091189154694 l -3.6597088159633375 21.049404677512957" fill="red" stroke="none" /><path d="M 103.59715602781102 79.31037775812273 l 3.439349421003191 -19.781972126929812 a41.078733667001586,41.078733667001586 0 0,0 0.6956094338523947,0.1271181778129195 l -3.7793539759584864 19.719838467766152" fill="red" stroke="none" /><path d="M 103.95276090670814 79.375362276772 l 3.310643122062961 -17.274208239503555 a38.588593695443514,38.588593695443514 0 0,0 0.6512901817662045,0.1306426834423816 l -3.6074997132962907 17.214661599983966" fill="red" stroke="none" /><path d="M 104.307194497241 79.44645832069477 l 3.6370294955360287 -17.35557504385887 a38.73256802198756,38.73256802198756 0 0,0 0.6513661051992049,0.14236340168480793 l -3.9352383248887617 17.290398144078193" fill="red" stroke="none" /><path d="M 104.66035177308747 79.52364482259891 l 6.156294704336214 -27.049133430377985 a48.740864871539785,48.740864871539785 0 0,0 0.816470558988958,0.19323220220691534 l -6.620988950287695 26.939155316030202" fill="red" stroke="none" /><path d="M 105.01212808612495 79.60689891045804 l 3.410890244512504 -13.87806304356722 a35.291074350843495,35.291074350843495 0 0,0 0.5886737930407798,0.1500660572148591 l -3.6492729262383095 13.817293990183494" fill="red" stroke="none" /><path d="M 105.36241919743992 79.69619591428918 l 7.572721045659255 -28.67270141435585 a50.65585794463169,50.65585794463169 0 0,0 0.8411335518322346,0.2299135737197487 l -8.065152486715201 28.538101299809806" fill="red" stroke="none" /><path d="M 105.71112130821622 79.79150937346287 l 8.844951331682019 -31.29737689537904 a53.523206554570066,53.523206554570066 0 0,0 0.884432202535495,0.25819001264796904 l -9.382373751940941 31.140488553812368" fill="red" stroke="none" /><path d="M 106.0581310904928 79.89281104454417 l 7.162358682673909 -23.77216624204137 a45.82771172980961,45.82771172980961 0 0,0 0.7533522106822319,0.2340701989896242 l -7.570496266066859 23.645355908169226" fill="red" stroke="none" /><path d="M 106.40334571778207 80.00007090966166 l 5.594960444430498 -17.475053992651876 a39.34887174789884,39.34887174789884 0 0,0 0.6432925522111287,0.21208344036883944 l -5.894935818884044 17.376156828023802" fill="red" stroke="none" /><path d="M 106.74666289553966 80.11325718540242 l 9.055315756035876 -26.69182354795191 a49.186028236637235,49.186028236637235 0 0,0 0.7994322183722026,0.27890620372697494 l -9.513429978471352 26.531996491052727" fill="red" stroke="none" /><path d="M 107.08798089147638 80.2323363322302 l 3.0684004011696944 -8.557459177311404 a30.090939918031,30.090939918031 0 0,0 0.486065650205315,0.17902208104738157 l -3.2152483771475855 8.503373828457697" fill="red" stroke="none" /><path d="M 108.09893153111575 80.62456947434976 l 5.294336119421548 -12.665873426288982 a34.72786744531666,34.72786744531666 0 0,0 0.5495540194944608,0.23529035109358495 l -5.511573896706324 12.572863547232606" fill="red" stroke="none" /><path d="M 108.76106565485865 80.91482961587045 l 2.610583847756229 -5.686915210919967 a27.25748772610531,27.25748772610531 0 0,0 0.42472589948644923,0.19941450476143316 l -2.708087958542276 5.641135723518531" fill="red" stroke="none" /><path d="M 109.41281617654863 81.2277094730956 l 5.5412858986531575 -11.05116968514914 a33.362613025593404,33.362613025593404 0 0,0 0.5111462308390217,0.2618289524630631 l -5.730692617080935 10.954148207373578" fill="red" stroke="none" /><line stroke="#e1ed5e" stroke-width="0.3" x1="143.23703022742887" x2="145.7803849466894" y1="26.81831364943548" y2="22.513508569990506" /><path d="M 143.74570117128098 25.957352633546492 a86.0,86.0 0 0,1 28.547481713284135,27.462654790039103" fill="none" id="id38" stroke="none" /><text fill="#e1ed5e" style="font-size:6.75px; font-family:Arial;" text-anchor="middle"><textPath startOffset="19.985693538727396" xlink:href="#id38">February</textPath></text><path d="M 111.60114157652 82.49532879139004 l 2.827204127352303 -4.265897313854901 a26.11771072551706,26.11771072551706 0 0,0 0.372606834581563,0.2515857979905409 l -2.900215656340408 4.216599603565689" fill="red" stroke="none" /><path d="M 112.19680574252982 82.90503203632743 l 1.8614551715255772 -2.60900412737426 a24.20498329047988,24.20498329047988 0 0,0 0.3370886062323392,0.24490920813384592 l -1.9060890941117052 2.5765756844237395" fill="red" stroke="none" /><path d="M 112.77801427241765 83.33499621200491 l 3.956971947829771 -5.160657289444146 a27.50307701438363,27.50307701438363 0 0,0 0.3732134086686813,0.29129898527890136 l -4.045217911657883 5.09177991494202" fill="red" stroke="none" /><path d="M 113.34407831869373 83.78471172551755 l 8.436610657149224 -10.251893806228594 a34.27696222765253,34.27696222765253 0 0,0 0.45236198749194867,0.37884015529018683 l -8.61183018160029 10.105152493544589" fill="red" stroke="none" /><path d="M 113.6212207817346 84.01681056812373 l 1.8395789040808046 -2.15856849910501 a23.836100934322964,23.836100934322964 0 0,0 0.30998985624977426,0.26882014864903614 l -1.8764625589773432 2.1265833570363024" fill="red" stroke="none" /><path d="M 113.89432698308785 84.25364557470407 l 11.339042956514215 -12.850466917487797 a38.13792272030432,38.13792272030432 0 0,0 0.4885086746511958,0.4385879114492107 l -11.558562618761401 12.653379997269289" fill="red" stroke="none" /><path d="M 114.16331599549186 84.49514656593476 l 3.7016174369097894 -4.052231542848762 a26.48840160029248,26.48840160029248 0 0,0 0.3339961864111149,0.31041305504976824 l -3.770821507115751 3.9879139017243532" fill="red" stroke="none" /><path d="M 114.42810811169701 84.74124197986012 l 10.320645179429558 -10.914821692871014 a36.02161940360793,36.02161940360793 0 0,0 0.44686835461218644,0.42988700308359 l -10.506996777654162 10.735551603025122" fill="red" stroke="none" /><path d="M 114.68862486808459 84.99185889309783 l 12.029512502860767 -12.291186051218222 a38.198326244206,38.198326244206 0 0,0 0.4659544608235521,0.4639535042889357 l -12.239302763851642 12.082296696279167" fill="red" stroke="none" /><path d="M 114.94478906791727 85.2469230424477 l 19.717240557682242 -19.464307325857526 a48.706115478084264,48.706115478084264 0 0,0 0.5838604686684257,0.6017195357469438 l -20.049365290053778 19.122023594560467" fill="red" stroke="none" /><path d="M 115.4437574822437 85.77008943001954 l 7.1092612356582086 -6.550488229199248 a30.666979432982693,30.666979432982693 0 0,0 0.3543589325004996,0.391291983901418 l -7.220963808774743 6.427143458028281" fill="red" stroke="none" /><path d="M 115.68641384162765 86.03803664274999 l 1.9333063174889689 -1.7207726530514713 a23.58819084318227,23.58819084318227 0 0,0 0.26734196876932753,0.3056180850355223 l -1.9626401498361445 1.6872390118130014" fill="red" stroke="none" /><path d="M 116.15771136456269 86.58626213691792 l 21.258594854567644 -17.64836691798111 a48.62956224883666,48.62956224883666 0 0,0 0.52913944302492,0.6486623909965443 l -21.55923278966897 17.27982035737647" fill="red" stroke="none" /><path d="M 116.38621287248628 86.86637796730983 l 11.47243959267018 -9.195211033538722 a35.70267921702635,35.70267921702635 0 0,0 0.38022659613098236,0.48284916447096493 l -11.629020269395125 8.996369475114719" fill="red" stroke="none" /><path d="M 116.60985879189232 87.15038557335679 l 13.938914603589957 -10.783335392921284 a38.62310025286136,38.62310025286136 0 0,0 0.40227625183032883,0.5293483931165048 l -14.1224667956444 10.541802223923746" fill="red" stroke="none" /><path d="M 116.82858285166822 87.43820079747576 l 5.879279589322944 -4.388624419985126 a28.336617257913836,28.336617257913836 0 0,0 0.28840926394799005,0.3933899119042085 l -5.95395146578456 4.286772064409424" fill="red" stroke="none" /><path d="M 117.04232023915458 87.72973835380427 l 5.208167578474474 -3.7498168082942698 a27.41764252831512,27.41764252831512 0 0,0 0.2724626662089394,0.3853791189397446 l -5.271942864487296 3.659611189022732" fill="red" stroke="none" /><path d="M 117.45458315368197 88.32363383020206 l 11.627846356840529 -7.778529606419198 a34.98972243242265,34.98972243242265 0 0,0 0.33057517421356886,0.503488669786347 l -11.760018166412022 7.577222872655177" fill="red" stroke="none" /><path d="M 117.65298651832404 88.62581576622439 l 24.51432937433393 -15.795089311471543 a50.16225627468996,50.16225627468996 0 0,0 0.4614268391575358,0.7298664476521113 l -24.78258380973742 15.370775216105226" fill="red" stroke="none" /><line stroke="#e1ed5e" stroke-width="0.3" x1="172.23445277983987" x2="176.4835382374775" y1="55.19839476539836" y2="52.563006222186495" /><path d="M 173.08426987136738 54.67131705675599 a86.0,86.0 0 0,1 12.851231095245387,41.99856678651699" fill="none" id="id39" stroke="none" /><text fill="#e1ed5e" style="font-size:6.75px; font-family:Arial;" text-anchor="middle"><textPath startOffset="22.20632615414155" xlink:href="#id39">March</textPath></text><path d="M 118.56541770881063 90.18545643968196 l 14.312511665169787 -7.5662595584211125 a37.18938769289994,37.18938769289994 0 0,0 0.2943107343386302,0.5685146615169668 l -14.440631832668535 7.318772174643801" fill="red" stroke="none" /><path d="M 118.73160827565052 90.50648371742162 l 15.97785110851894 -8.097862576835782 a38.912763727557994,38.912763727557994 0 0,0 0.29766408862580984,0.600072638960739 l -16.11487521009816 7.821630349376093" fill="red" stroke="none" /><path d="M 118.89224826269711 90.83032412892265 l 9.145083811984497 -4.438722866844357 a31.165373510937407,31.165373510937407 0 0,0 0.23009218089200112,0.48463281378057194 l -9.220134186718255 4.280647637423245" fill="red" stroke="none" /><path d="M 119.04729006885535 91.15688171328212 l 18.176500929531652 -8.43883550769831 a41.03993839230188,41.03993839230188 0 0,0 0.2919653194179468,0.6433068798677827 l -18.319068565912946 8.124706618988464" fill="red" stroke="none" /><path d="M 119.196687751892 91.48605970444005 l 15.952986943070652 -7.075323624814615 a38.451590093789235,38.451590093789235 0 0,0 0.26313574846660287,0.6073535869578667 l -16.072413401379936 6.799670893270146" fill="red" stroke="none" /><path d="M 119.34039704204932 91.81776055985345 l 26.318859012571213 -11.13458042066639 a49.57728505068122,49.57728505068122 0 0,0 0.3257423885740542,0.7888110315865665 l -26.506623088031464 10.67989481862652" fill="red" stroke="none" /><path d="M 119.47837535516314 92.15188598940014 l 18.85201644790102 -7.595745112983101 a41.32471077219396,41.32471077219396 0 0,0 0.2601615863503437,0.6620828600808836 l -18.979971584133065 7.2701132480064325" fill="red" stroke="none" /><path d="M 119.61058180528143 92.48833698450437 l 45.30551647917006 -17.353884546294104 a69.51543189842234,69.51543189842234 0 0,0 0.41840150572801604,1.1211080192099379 l -45.5975225733997 16.571453390054835" fill="red" stroke="none" /><path d="M 119.7369772167798 92.82701384747503 l 35.269263382379066 -12.817866437849444 a58.52623934734431,58.52623934734431 0 0,0 0.3359598973861933,0.9498038707570955 l -35.48467636057507 12.208864940665734" fill="red" stroke="none" /><path d="M 119.85752413597 93.16781622104841 l 10.975572790272988 -3.7762577987541506 a32.60703756508233,32.60703756508233 0 0,0 0.17803862710942348,0.5323128338729867 l -11.038948711154182 3.58677186195885" fill="red" stroke="none" /><path d="M 119.97218684219823 93.5106431181261 l 28.174368331875414 -9.154407199946977 a50.62428399274192,50.62428399274192 0 0,0 0.26214825106531736,0.8310815943466415 l -28.32777206670894 8.668075439173917" fill="red" stroke="none" /><path d="M 120.18372546131832 94.20196356495316 l 5.559006420507542 -1.5968965605746432 a26.783824946211563,26.783824946211563 0 0,0 0.12347755188704512,0.44421445142718985 l -5.58567074296095 1.5009708057285014" fill="red" stroke="none" /><path d="M 120.28053869075195 94.5502522615342 l 12.871677377899626 -3.4588526345435535 a34.3283059714362,34.3283059714362 0 0,0 0.1484350525183333,0.5719808078218224 l -12.929308762288263 3.2367754011728804" fill="red" stroke="none" /><path d="M 120.37134235888165 94.90015583598534 l 7.960038995489515 -1.9927483275925275 a29.205685023618475,29.205685023618475 0 0,0 0.11788972075793627,0.48872900175253514 l -7.993161516508271 1.8554340941805862" fill="red" stroke="none" /><path d="M 120.53481517161879 95.60439243477599 l 7.272522157741082 -1.556729541885912 a28.437270023430326,28.437270023430326 0 0,0 0.09833974149318395,0.47953950416910207 l -7.298241195149262 1.431314381553398" fill="red" stroke="none" /><path d="M 120.6074358757038 95.95851677861258 l 17.30285358825446 -3.3933960964789573 a38.63246662733745,38.63246662733745 0 0,0 0.12236240720447002,0.6536648721137583 l -17.358701719368792 3.0950531469026363" fill="red" stroke="none" /><path d="M 120.67395015179393 96.31383870115 l 12.285655894288539 -2.190530061067456 a33.47941355598519,33.47941355598519 0 0,0 0.09627426009716934,0.5682161328668816 l -12.321542015905932 1.9787281398847363" fill="red" stroke="none" /><path d="M 120.73433829027371 96.67025291283417 l 32.52238408983538 -5.222800562756138 a53.93908184216893,53.93908184216893 0 0,0 0.1393274906301398,0.9179940822451096 l -32.60746747390482 4.6622073681189455" fill="red" stroke="none" /><path d="M 120.78858239683441 97.02765380044208 l 13.42121940524407 -1.9189625214023616 a34.557711734737794,34.557711734737794 0 0,0 0.07912728779105511,0.5895902026082505 l -13.45226269209296 1.6876539767294467" fill="red" stroke="none" /><path d="M 120.83666639777658 97.38593545837742 l 25.72401889258634 -3.227207479902575 a46.92566327221886,46.92566327221886 0 0,0 0.09364942775291168,0.8023311062452221 l -25.77575867334284 2.7839326353325" fill="red" stroke="none" /><path d="M 120.87857604477298 97.74499172005257 l 28.10553056432577 -3.0355616206277185 a49.26898446451301,49.26898446451301 0 0,0 0.08381093999000125,0.8439647280584943 l -28.153618629997997 2.5513213618647894" fill="red" stroke="none" /><path d="M 120.91429891909075 98.10471618934814 l 13.831300726540535 -1.2534123399824344 a34.88797761670219,34.88797761670219 0 0,0 0.049051692744145024,0.5985548948602226 l -13.850826903104174 1.015143527914443" fill="red" stroke="none" /><path d="M 120.94382443527127 98.46500227214037 l 16.891860902299094 -1.2380245157461975 a37.93716828292762,37.93716828292762 0 0,0 0.042127254443995475,0.6516899802844468 l -16.910668747747508 0.9470754712087154" fill="red" stroke="none" /><line stroke="#e1ed5e" stroke-width="0.3" x1="184.98032266829074" x2="189.97916517819016" y1="98.17113171792111" y2="98.06355123074" /><path d="M 185.9800911702706 98.14961562048488 a86.0,86.0 0 0,1 -9.607161424134198,41.387399972396054" fill="none" id="id40" stroke="none" /><text fill="#e1ed5e" style="font-size:6.75px; font-family:Arial;" text-anchor="middle"><textPath startOffset="21.466115282336823" xlink:href="#id40">April</textPath></text><path d="M 120.99824983174949 100.27111621757518 l 10.491863633204009 0.13546435566491768 a31.492738112113756,31.492738112113756 0 0,0 -0.011664216329214164,0.5419902991606049 l -10.487977354189788 -0.31604447061563745" fill="red" stroke="none" /><path d="M 120.9904718944345 100.63252640178507 l 12.05665777395322 0.36331505064136527 a33.06213059555604,33.06213059555604 0 0,0 -0.022038062463464937,0.5687044682528195 l -12.04861757863855 -0.570796765908191" fill="red" stroke="none" /><path d="M 120.9764740272857 100.99374915477107 l 8.46158790684594 0.4008631679238072 a29.471077923421515,29.471077923421515 0 0,0 -0.028367525148110674,0.5065212177450249 l -8.4534340308103 -0.5464561020042555" fill="red" stroke="none" /><path d="M 120.95626037817324 101.35467743843564 l 3.9727587870227614 0.2568114062341027 a24.981050675165854,24.981050675165854 0 0,0 -0.03143263461992631,0.4288733260444183 l -3.9677495937384974 -0.3251578687752913" fill="red" stroke="none" /><path d="M 119.67450827220406 107.3425965602758 l 3.8571919697601977 1.439517780960116 a25.11705493445046,25.11705493445046 0 0,0 -0.1546561372756468,0.4037583722108462 l -3.8318415528910443 -1.505699720004106" fill="red" stroke="none" /><path d="M 118.97047184881838 109.00673069616215 l 6.068774523487115 2.8813103977792136 a27.718033479023223,27.718033479023223 0 0,0 -0.20834291989086365,0.4292481241096472 l -6.018278346981537 -2.9853474778541362" fill="red" stroke="none" /><path d="M 118.81262510543309 109.33194174019688 l 6.588852936522619 3.2683791546240295 a28.354949715497966,28.354949715497966 0 0,0 -0.22065731431667285,0.43537781491162886 l -6.531616952419677 -3.3813111812383525" fill="red" stroke="none" /><path d="M 118.64920377521936 109.65438752849418 l 12.16901284435186 6.299698756828788 a34.70295873279894,34.70295873279894 0 0,0 -0.27918942071816305,0.5281211687184787 l -12.058770915408804 -6.508234940633401" fill="red" stroke="none" /><line stroke="#e1ed5e" stroke-width="0.3" x1="174.80103733775053" x2="179.2010983576182" y1="140.37084112569926" y2="142.7455964860345" /><path d="M 175.68104954172406 140.8457921977663 a86.0,86.0 0 0,1 -30.038265399797805,32.042727171017184" fill="none" id="id41" stroke="none" /><text fill="#e1ed5e" style="font-size:6.75px; font-family:Arial;" text-anchor="middle"><textPath startOffset="22.206326154141568" xlink:href="#id41">May</textPath></text><path d="M 118.30583269289576 110.29060199501025 l 11.819358382002829 6.644238204623252 a34.55887657153039,34.55887657153039 0 0,0 -0.29596880793362085,0.5160465639173315 l -11.703237577916829 -6.846704614398899" fill="red" stroke="none" /><path d="M 118.12598468904814 110.60418214915192 l 6.00326345360786 3.51206846102371 a27.95512738692407,27.95512738692407 0 0,0 -0.24656305782621818,0.41325386719733015 l -5.941919520083415 -3.6148844221071443" fill="red" stroke="none" /><path d="M 117.55443506779139 111.5257021239791 l 15.03280373983177 9.870076554695942 a38.98342568800112,38.98342568800112 0 0,0 -0.3731213097019119,0.5577657322402587 l -14.860679324719138 -10.127379201142007" fill="red" stroke="none" /><path d="M 117.35343817320211 111.8261652097733 l 11.563796733101853 7.880592263790267 a34.993753224657354,34.993753224657354 0 0,0 -0.34350383546299706,0.49484289471110293 l -11.42643199047672 -8.07847642068839" fill="red" stroke="none" /><path d="M 117.14729908036423 112.12312394758627 l 9.614250247209082 6.797265672207067 a32.7744056510095,32.7744056510095 0 0,0 -0.32964841744630685,0.45785281996755856 l -9.495822037387173 -6.961752097625757" fill="red" stroke="none" /><path d="M 116.93607887273984 112.41649034213515 l 5.552841928252668 4.071001835290723 a27.885282087402175,27.885282087402175 0 0,0 -0.287137051258566,0.38466700342714355 l -5.481943610299011 -4.165981718227181" fill="red" stroke="none" /><path d="M 116.71984013943494 112.70617746262583 l 5.599723694638573 4.255488235077892 a28.033213033541855,28.033213033541855 0 0,0 -0.2952740768806214,0.3816815477143236 l -5.525642800539884 -4.351247776905469" fill="red" stroke="none" /><path d="M 116.498646956653 112.99209946851258 l 10.693538167168919 8.420782134632608 a34.611073811115936,34.611073811115936 0 0,0 -0.3726163730114597,0.46489621771831224 l -10.547003882102606 -8.60360618592917" fill="red" stroke="none" /><path d="M 116.27256486870786 113.27417163493432 l 5.09354044579363 4.155001418182295 a27.573293775424347,27.573293775424347 0 0,0 -0.3031801823264735,0.3652000603775822 l -5.021264263573614 -4.242062735673648" fill="red" stroke="none" /><path d="M 116.0416608686014 113.55231037782055 l 9.292167482506608 7.850205713555912 a33.164296373736505,33.164296373736505 0 0,0 -0.37216261215646035,0.4329091964874033 l -9.15566236077937 -8.008992009204842" fill="red" stroke="none" /><path d="M 115.80600337817218 113.82643327865902 l 10.21183766226675 8.932890162785498 a34.56754049564178,34.56754049564178 0 0,0 -0.3956191641690569,0.4444823248738996 l -10.056559648449356 -9.107346657400264" fill="red" stroke="none" /><path d="M 115.56566222782051 114.09645910891815 l 7.770802917732177 7.037336669010537 a31.483772478418025,31.483772478418025 0 0,0 -0.3672411027825679,0.3985676860717953 l -7.648515406953887 -7.170055609883667" fill="red" stroke="none" /><path d="M 115.32070863581623 114.36230785411682 l 9.782132165810028 9.170202043173123 a34.4083076941869,34.4083076941869 0 0,0 -0.4087927308493524,0.4286175439637456 l -9.62283288358171 -9.337226703719375" fill="red" stroke="none" /><path d="M 115.07121518719521 114.62390073753431 l 4.983671164941373 4.835755545878976 a27.944170935379354,27.944170935379354 0 0,0 -0.3379373420995338,0.34232874337883623 l -4.899693197786304 -4.920824783238477" fill="red" stroke="none" /><path d="M 114.81725581225074 114.88116024355365 l 9.660765555069634 9.702430876676424 a34.69187919997485,34.69187919997485 0 0,0 -0.42679279254698554,0.4177065754826765 l -9.492322810146854 -9.867287555081672" fill="red" stroke="none" /><path d="M 114.55890576462653 115.13401014063108 l 9.598564735811921 9.977726238205916 a34.84512426351439,34.84512426351439 0 0,0 -0.43583645191545867,0.4121105688257742 l -9.425392449505654 -10.141471443777611" fill="red" stroke="none" /><path d="M 114.29624159901734 115.38237550388516 l 9.779987269149679 10.523006033111335 a35.365994812668816,35.365994812668816 0 0,0 -0.4494857118597076,0.4105945405804782 l -9.597402007823106 -10.689793340278397" fill="red" stroke="none" /><path d="M 114.0293411484842 115.62618273729858 l 10.241580967126191 11.40729375794273 a36.330242385109266,36.330242385109266 0 0,0 -0.4689328580590989,0.41377872534865057 l -10.043705756160506 -11.58189562506367" fill="red" stroke="none" /><path d="M 113.75828350139079 115.86535959552629 l 10.736049556404048 12.380271625491822 a37.387003557652676,37.387003557652676 0 0,0 -0.48983120981176226,0.4174447836627366 l -10.521352870015239 -12.563240799377505" fill="red" stroke="none" /><path d="M 113.48314897796784 116.09983520530334 l 8.680527274232121 10.365164609442877 a34.519918311126546,34.519918311126546 0 0,0 -0.45883525527773883,0.3775901777484397 l -8.500821890409691 -10.513049906048495" fill="red" stroke="none" /><line stroke="#e1ed5e" stroke-width="0.3" x1="143.8653032363475" x2="146.44561519142675" y1="172.8068346515853" y2="177.08958963109032" /><path d="M 144.38136562736335 173.6633856474863 a86.0,86.0 0 0,1 -40.68145358897372,12.25698825130547" fill="none" id="id42" stroke="none" /><text fill="#e1ed5e" style="font-size:6.75px; font-family:Arial;" text-anchor="middle"><textPath startOffset="21.466115282336833" xlink:href="#id42">June</textPath></text><path d="M 108.2653958097858 119.30500536409082 l 8.593663282910999 20.071720652188162 a42.834033492681314,42.834033492681314 0 0,0 -0.6803034606976603,0.2843669017458663 l -8.246888362715877 -20.216672596954" fill="red" stroke="none" /><path d="M 107.93186726928326 119.44442032107085 l 7.470730316096368 18.313975188930584 a40.77911774262458,40.77911774262458 0 0,0 -0.6522307708264182,0.2595360842208685 l -7.154378469228084 -18.43985811755752" fill="red" stroke="none" /><path d="M 107.59598834532513 119.57807347666477 l 4.7951742724796125 12.359191453709386 a34.25682125144989,34.25682125144989 0 0,0 -0.5515834003432133,0.2085616448943916 l -4.581720651376124 -12.439901348710407" fill="red" stroke="none" /><path d="M 107.2578585660854 119.70592522655815 l 5.054796993435159 13.724358318791197 a35.62562764148651,35.62562764148651 0 0,0 -0.577271629842214,0.2069890681205969 l -4.81780580296321 -13.809334927951754" fill="red" stroke="none" /><path d="M 106.91757812671514 119.82793768551818 l 1.171403047814699 3.3576066957591713 a24.55608040176771,24.55608040176771 0 0,0 -0.4002995029500984,0.13580332530242098 l -1.1134338119273737 -3.3772730079597153" fill="red" stroke="none" /><path d="M 106.57524785965236 119.94407469862006 l 3.832761902628797 11.625552575305553 a33.241059451021236,33.241059451021236 0 0,0 -0.5449612969309369,0.17447939796673942 l -3.63207926060692 -11.689804819932" fill="red" stroke="none" /><path d="M 106.2309692047433 120.05430185196036 l 7.502091390866684 24.145393811111216 a46.284015059530475,46.284015059530475 0 0,0 -0.7628598045470492,0.22984340127562736 l -7.085356611879389 -24.27095258149257" fill="red" stroke="none" /><path d="M 105.88484417918355 120.15858648285463 l 7.461582192186046 25.559716679019807 a47.62657179440326,47.62657179440326 0 0,0 -0.7889428522524378,0.22296313058368758 l -7.020508171829002 -25.684368602942016" fill="red" stroke="none" /><path d="M 105.53697534728816 120.25689768951611 l 7.6849425646953575 28.115186635079635 a50.146561748309644,50.146561748309644 0 0,0 -0.8346048852941717,0.22042673581195107 l -7.199847236589688 -28.24330472019517" fill="red" stroke="none" /><path d="M 105.18746579009965 120.34920634021253 l 15.562397370298964 61.04761902063758 a84.0,84.0 0 0,0 -1.4041868610271555,0.3451149667438802 l -14.509257224528598 -61.306455245695496" fill="red" stroke="none" /><path d="M 104.48393922423573 120.51570834832081 l 8.895711769911104 40.701227000534956 a62.662015880684535,62.662015880684535 0 0,0 -1.0557312506016239,0.2212387482462503 l -8.193789057880103 -40.848321729507745" fill="red" stroke="none" /><path d="M 104.13013068566511 120.58985236759428 l 9.045564280625799 45.09465857002938 a66.99293929183541,66.99293929183541 0 0,0 -1.132603002077777,0.21706606096607015 l -8.267993663976318 -45.24368182934392" fill="red" stroke="none" /><path d="M 103.7750983002368 120.6578951692458 l 1.2287320321182256 6.723803062028982 a27.83515252380689,27.83515252380689 0 0,0 -0.47207229526600897,0.08207581958851072 l -1.1128107653801667 -6.743957460138499" fill="red" stroke="none" /><path d="M 103.41894727170886 120.7198165907248 l 2.769660092803312 16.78494711410139 a38.01192130985938,38.01192130985938 0 0,0 -0.6464997641531871,0.10096996722155127 l -2.480324465041608 -16.830135388670044" fill="red" stroke="none" /><path d="M 103.06178313531738 120.77559828337769 l 0.4582726903161527 3.109589705563593 a24.143177054452497,24.143177054452497 0 0,0 -0.4116657819577902,0.057053126272201556 l -0.404678317171532 -3.117017397328397" fill="red" stroke="none" /><path d="M 102.70371172650421 120.8252237178851 l 0.9349308701349324 7.201264964919565 a28.261701785870116,28.261701785870116 0 0,0 -0.4829690356594579,0.058480824210799594 l -0.8108344114240942 -7.216291317855715" fill="red" stroke="none" /><line stroke="#e1ed5e" stroke-width="0.3" x1="102.19456741930631" x2="102.32365962044197" y1="184.97166512339345" y2="189.96999836594603" /><path d="M 102.22038585953345 185.97133177190398 a86.0,86.0 0 0,1 -42.740103519485714,-10.115201625700543" fill="none" id="id43" stroke="none" /><text fill="#e1ed5e" style="font-size:6.75px; font-family:Arial;" text-anchor="middle"><textPath startOffset="22.20632615414155" xlink:href="#id43">July</textPath></text><path d="M 99.81925306533755 120.99922214144158 l -0.04476377536184323 5.200666138368706 a26.200858782774198,26.200858782774198 0 0,0 -0.450954596358301,-0.007763592337206744 l 0.13427806161281214 -5.199125068752339" fill="red" stroke="none" /><path d="M 99.45781275523022 120.99299961872073 l -0.7949655155989553 30.780345585133134 a51.79060968073247,51.79060968073247 0 0,0 -0.8909949167624217,-0.030687666471088226 l 1.32468078403602 -30.76210112023595" fill="red" stroke="none" /><path d="M 99.09653310690486 120.98055641714683 l -1.1924752048068217 27.691986836161472 a48.71765018987395,48.71765018987395 0 0,0 -0.8375072855905882,-0.043289560315928545 l 1.668970558810899 -27.667357469083342" fill="red" stroke="none" /><path d="M 98.73552117531835 120.96189622390904 l -1.297038432544478 21.50165308483048 a42.540738011402894,42.540738011402894 0 0,0 -0.7305606814694843,-0.05038374189726595 l 1.6669618747928923 -21.476140998416927" fill="red" stroke="none" /><path d="M 98.37488393609728 120.93702456842531 l -0.7610224259059206 9.804558321853312 a30.834048963644364,30.834048963644364 0 0,0 -0.5288122829186688,-0.04562814889626439 l 0.9296790265661311 -9.790005920678384" fill="red" stroke="none" /><path d="M 96.93821686468263 120.77559828337769 l -0.6509512028264102 4.417001496940188 a25.464710482487416,25.464710482487416 0 0,0 -0.4330991108541314,-0.06764117398233557 l 0.7268861772890587 -4.405142015610747" fill="red" stroke="none" /><path d="M 96.58105272829116 120.7198165907248 l -0.4420721364002168 2.679085946097152 a23.715313845645973,23.715313845645973 0 0,0 -0.40220159133285466,-0.06992790210204106 l 0.4881226992051214 -2.671079465474105" fill="red" stroke="none" /><path d="M 96.22490169976321 120.6578951692458 l -2.1843720868903453 11.953206510881312 a33.15115744716367,33.15115744716367 0 0,0 -0.5604635480083731,-0.10741417289028862 l 2.3898032494704133 -11.913835139642556" fill="red" stroke="none" /><path d="M 95.86986931433489 120.58985236759428 l -0.821288879617838 4.0943539247245475 a25.1759130121078,25.1759130121078 0 0,0 -0.4241644280949879,-0.08888777998079253 l 0.8916447691422127 -4.079610164017214" fill="red" stroke="none" /><path d="M 95.16358092515715 120.4354850818985 l -0.9115058783694999 3.851416614489296 a24.957809104121413,24.957809104121413 0 0,0 -0.41720747171465794,-0.1025394459401068 l 0.9776666348273684 -3.835155910235159" fill="red" stroke="none" /><path d="M 94.81253420990036 120.34920634021253 l -2.939848361785085 11.532332615489189 a32.90115137054252,32.90115137054252 0 0,0 -0.5475841355481181,-0.14462194711301884 l 3.1379229401446924 -11.480019319072587" fill="red" stroke="none" /><path d="M 94.46302465271185 120.25689768951611 l -2.8756451713075712 10.520482099501937 a31.906414569289268,31.906414569289268 0 0,0 -0.5285355793423137,-0.14936943412134335 l 3.0563119187544987 -10.469423872042071" fill="red" stroke="none" /><path d="M 94.11515582081647 120.15858648285463 l -2.959241859444621 10.136909513817299 a31.560021158786043,31.560021158786043 0 0,0 -0.5201768157262476,-0.15672500750283302 l 3.1332936496111143 -10.084469137208739" fill="red" stroke="none" /><path d="M 93.76903079525671 120.05430185196036 l -3.944605124311752 12.69566567421297 a34.29435355698561,34.29435355698561 0 0,0 -0.5622292339797491,-0.18000804610629 l 4.162555703382441 -12.625884781446974" fill="red" stroke="none" /><path d="M 93.42475214034765 119.94407469862007 l -3.9727036825665243 12.050024682229845 a33.6880049413541,33.6880049413541 0 0,0 -0.5491630346850384,-0.18630591767857796 l 4.179536450188789 -11.979855777653144" fill="red" stroke="none" /><path d="M 92.7421414339146 119.70592522655815 l -5.44850907203141 14.793332136752381 a36.76480024663425,36.76480024663425 0 0,0 -0.5919654186279397,-0.22383066885772723 l 5.702344711419633 -14.697353217788022" fill="red" stroke="none" /><path d="M 92.40401165467489 119.57807347666478 l -3.468957757525974 8.940970783096029 a30.590340268607598,30.590340268607598 0 0,0 -0.4892690749015875,-0.19469026226626565 l 3.6223479084694197 -8.879933676423697" fill="red" stroke="none" /><path d="M 92.06813273071674 119.44442032107085 l -9.519388556236956 23.336118218199726 a46.20303894331809,46.20303894331809 0 0,0 -0.7338110545498474,-0.306733080315676 l 9.919671070284265 -23.16880009486408" fill="red" stroke="none" /><path d="M 91.7346041902142 119.30500536409082 l -3.5495518770230836 8.29048234386069 a30.01839320619499,30.01839320619499 0 0,0 -0.4732604462174104,-0.20746347177923288 l 3.6917329978982374 -8.228154318787006" fill="red" stroke="none" /><path d="M 91.40352486487194 119.15986991738527 l -8.467457381154905 18.8723144549077 a41.684827468136945,41.684827468136945 0 0,0 -0.6521333292474456,-0.299362426337542 l 8.79105870616977 -18.72376495823608" fill="red" stroke="none" /><path d="M 91.07499286063937 119.00905698771935 l -6.76397649621041 14.406354266431308 a36.915226083571994,36.915226083571994 0 0,0 -0.5728668827877691,-0.2750109168012689 l 7.010956046998421 -14.287789073130476" fill="red" stroke="none" /><path d="M 90.7491055286396 118.85261126421891 l -3.6905331127929903 7.521022572315916 a29.37769748737128,29.37769748737128 0 0,0 -0.45206134020581024,-0.2266729406186733 l 3.819448360681561 -7.45638179078794" fill="red" stroke="none" /><path d="M 90.42595943632237 118.69057910512821 l -7.539790030098733 14.719286079511377 a37.53801125856654,37.53801125856654 0 0,0 -0.572560309865795,-0.29953649325036946 l 7.792041242491024 -14.58732016731629" fill="red" stroke="none" /><path d="M 90.10565033884886 118.52300852407294 l -4.513156542728522 8.44898755091196 a30.57882939688554,30.57882939688554 0 0,0 -0.4621439471586708,-0.2519977278749678 l 4.657923301755833 -8.370049171277227" fill="red" stroke="none" /><line stroke="#e1ed5e" stroke-width="0.3" x1="58.666819895761336" x2="56.23545636021788" y1="174.27360380694188" y2="178.64263932499728" /><path d="M 58.180547188652646 175.14741091055294 a86.0,86.0 0 0,1 -31.652253787137756,-30.449443065178592" fill="none" id="id44" stroke="none" /><text fill="#e1ed5e" style="font-size:6.75px; font-family:Arial;" text-anchor="middle"><textPath startOffset="22.20632615414155" xlink:href="#id44">August</textPath></text><path d="M 89.7882731507175 118.34994917583269 l -9.519757031692677 17.106514919179467 a40.57699227722614,40.57699227722614 0 0,0 -0.6074013122368899,-0.3448983172885946 l 9.812807110850773 -16.94011343609624" fill="red" stroke="none" /><path d="M 89.4739219176387 118.17145234162733 l -4.561424154871431 7.874509479374861 a30.100246692338022,30.100246692338022 0 0,0 -0.44610304098225056,-0.26356553981416475 l 4.6962950668820636 -7.794825367266948" fill="red" stroke="none" /><path d="M 89.1626897886671 117.98757091392108 l -9.17783820730005 15.233209382312175 a38.78435779680392,38.78435779680392 0 0,0 -0.5688756627944354,-0.34944989532428644 l 9.438693070026794 -15.07297102015951" fill="red" stroke="none" /><path d="M 88.8546689885994 117.79835938074946 l -13.11183868625677 20.9387425857247 a45.705287992769094,45.705287992769094 0 0,0 -0.6632015711468088,-0.423286621002201 l 13.470322059450503 -20.709941535898693" fill="red" stroke="none" /><path d="M 88.54995079064634 117.60387380957326 l -13.571513197917866 20.865517813315154 a45.890877929455016,45.890877929455016 0 0,0 -0.658480124627651,-0.43640472077947173 l 13.928668021285478 -20.628815071444365" fill="red" stroke="none" /><path d="M 88.24862548938628 117.40417183066458 l -3.7882011110695664 5.61045033554343 a27.76961007928138,27.76961007928138 0 0,0 -0.3938565323247978,-0.27089811430859595 l 3.8842145280172544 -5.544411431869733" fill="red" stroke="none" /><path d="M 87.95078237400918 117.19931262002967 l -6.016257075816878 8.58773486058031 a31.48544416026059,31.48544416026059 0 0,0 -0.4412050374716449,-0.3147880795157204 l 6.16318944113741 -8.482902519220369" fill="red" stroke="none" /><path d="M 87.65650970185807 116.9893568818739 l -17.393236785789476 23.93973665043479 a50.591141863380514,50.591141863380514 0 0,0 -0.7001212471040447,-0.517932961072472 l 17.802743003312084 -23.63679374062255" fill="red" stroke="none" /><path d="M 87.36589467227662 116.77436683061367 l -12.301035013653987 16.332147656112426 a41.44638132942355,41.44638132942355 0 0,0 -0.5661798148245498,-0.4341225388616163 l 12.580343556972023 -16.117985775423445" fill="red" stroke="none" /><path d="M 87.07902340077011 116.55440617244103 l -17.45031129132374 22.357407641255616 a49.36136528098349,49.36136528098349 0 0,0 -0.6653030758106627,-0.5285570004808472 l 17.83257185985176 -22.053716726769636" fill="red" stroke="none" /><path d="M 86.79598089348748 116.32954008644616 l -15.405399440667564 19.05200876224267 a45.501129969923674,45.501129969923674 0 0,0 -0.6047964075988669,-0.4977062691240614 l 15.731065976811118 -18.78400737426143" fill="red" stroke="none" /><path d="M 86.51685102203217 116.09983520530335 l -2.0625677378016687 2.46285201866746 a24.212448558167846,24.212448558167846 0 0,0 -0.3172228807120973,-0.27034422094627736 l 2.1046560950908226 -2.426983407498231" fill="red" stroke="none" /><path d="M 85.97065885151581 115.62618273729859 l -7.701589849424426 8.578196871906053 a32.52822396477168,32.52822396477168 0 0,0 -0.41341893482098185,-0.3776483948906297 l 7.848108333712263 -8.444355710428848" fill="red" stroke="none" /><path d="M 85.70375840098266 115.38237550388516 l -23.448669696258815 25.230144568850783 a55.44416213945924,55.44416213945924 0 0,0 -0.6934854564886341,-0.6557337842897288 l 23.87949098713827 -24.822776147815123" fill="red" stroke="none" /><path d="M 85.44109423537348 115.13401014063109 l -21.305029447698313 22.14661849734018 a51.73071737909844,51.73071737909844 0 0,0 -0.6364111094535433,-0.622862217383175 l 21.683090509527652 -21.776606177034438" fill="red" stroke="none" /><path d="M 85.18274418774928 114.88116024355367 l -20.82511056420622 20.914925902774247 a50.51473116140397,50.51473116140397 0 0,0 -0.6108899786303776,-0.6188283231086815 l 21.18204116789213 -20.553357085684897" fill="red" stroke="none" /><path d="M 84.9287848128048 114.62390073753433 l -17.94647516621168 17.413822851012377 a46.00634313884966,46.00634313884966 0 0,0 -0.5465848194359352,-0.5730919979612663 l 18.24356653702657 -17.102323736468612" fill="red" stroke="none" /><path d="M 84.67929136418377 114.36230785411682 l -9.991203357953887 9.366194597850239 a34.69488027639483,34.69488027639483 0 0,0 -0.4046969308505261,-0.43921858982367423 l 10.150946696800142 -9.19282475322522" fill="red" stroke="none" /><path d="M 84.19399662182784 113.82643327865904 l -6.107415516313587 5.342512659333743 a29.114367862258234,29.114367862258234 0 0,0 -0.3267151840882355,-0.38004357021335916 l 6.198473209972601 -5.236591989958854" fill="red" stroke="none" /><path d="M 83.95833913139862 113.55231037782056 l -17.91390141433406 15.134015987080305 a44.45093396391031,44.45093396391031 0 0,0 -0.4887570695588168,-0.5887393758495825 l 18.171754483786412 -14.823415354116962" fill="red" stroke="none" /><path d="M 83.72743513129214 113.27417163493432 l -14.805036420210085 12.077050919074177 a40.106131536908705,40.106131536908705 0 0,0 -0.43177514082222423,-0.5387058766386249 l 15.010729473087169 -11.820417208857291" fill="red" stroke="none" /><path d="M 83.50135304334701 112.99209946851258 l -16.25371248059229 12.799222253513726 a41.68823964711842,41.68823964711842 0 0,0 -0.4391025910534301,-0.5675992905615013 l 16.47162188886379 -12.51754496883897" fill="red" stroke="none" /><path d="M 83.06392112726016 112.41649034213515 l -20.280997071909304 14.868778432388995 a46.14755284917938,46.14755284917938 0 0,0 -0.4641569378172045,-0.6446733903150862 l 20.533933802102116 -14.51747143662277" fill="red" stroke="none" /><path d="M 82.85270091963577 112.12312394758628 l -2.663549047914155 1.8831266135268718 a24.262002356408956,24.262002356408956 0 0,0 -0.2381593883895387,-0.34308636174166335 l 2.695569343465827 -1.8369989895981957" fill="red" stroke="none" /><path d="M 82.44556493220864 111.52570212397912 l -24.760863717505398 16.25722151913805 a50.62089842592896,50.62089842592896 0 0,0 -0.47196789158483116,-0.7325046487719128 l 25.037036472467275 -15.828595270444689" fill="red" stroke="none" /><path d="M 82.24976979558568 111.22182372390057 l -7.291957295419112 4.610028063244716 a29.62699252011498,29.62699252011498 0 0,0 -0.2688090331130897,-0.4334057520377714 l 7.3702309682001586 -4.48382597984168" fill="red" stroke="none" /><path d="M 82.05923443525364 110.91462005526583 l -22.119696109356465 13.456955217450375 a46.89151597907593,46.89151597907593 0 0,0 -0.4135812155631815,-0.6931859064309664 l 22.348058200617878 -13.074207217133297" fill="red" stroke="none" /><line stroke="#e1ed5e" stroke-width="0.3" x1="26.63291911575756" x2="22.317208475507996" y1="142.92168965132927" y2="145.44649492493687" /><path d="M 25.769776987707644 143.4266507060508 a86.0,86.0 0 0,1 -11.730757126820373,-40.83630448921669" fill="none" id="id45" stroke="none" /><text fill="#e1ed5e" style="font-size:6.75px; font-family:Arial;" text-anchor="middle"><textPath startOffset="21.46611528233685" xlink:href="#id45">September</textPath></text><path d="M 81.87401531095188 110.60418214915194 l -27.128721718430345 15.871022265052831 a52.43019073778963,52.43019073778963 0 0,0 -0.44902214978769456,-0.7829079663444971 l 27.39789586437042 -15.401694452850027" fill="red" stroke="none" /><path d="M 81.69416730710424 110.29060199501025 l -30.37582809775548 17.075735502824795 a55.84640118558619,55.84640118558619 0 0,0 -0.4638538006667155,-0.8420293836542564 l 30.66525830787371 -16.550335600772716" fill="red" stroke="none" /><path d="M 81.51974371655577 109.97397251340807 l -2.6614855304458747 1.436429404352018 a24.024373433036974,24.024373433036974 0 0,0 -0.19327893490382284,-0.36561090576963773 l 2.6858169735745836 -1.3904034834962542" fill="red" stroke="none" /><path d="M 81.35079622478065 109.6543875284942 l -8.674108118486613 4.490443787804148 a30.767509255824855,30.767509255824855 0 0,0 -0.23943177571191662,-0.4724216083780658 l 8.750118563984795 -4.340467967723397" fill="red" stroke="none" /><path d="M 81.18737489456691 109.33194174019688 l -19.117933306247224 9.483388884167184 a42.34080688798956,42.34080688798956 0 0,0 -0.31825516569401086,-0.6556999053959689 l 19.278341728555954 -9.15290002280593" fill="red" stroke="none" /><path d="M 81.02952815118164 109.00673069616217 l -18.278408030171676 8.678155187403979 a41.233896747144655,41.233896747144655 0 0,0 -0.29889741578671997,-0.6437984424421704 l 18.425080062798223 -8.362236677682981" fill="red" stroke="none" /><path d="M 80.87730276802145 108.67885076344099 l -20.696371715168574 9.39306413115577 a43.72816437692307,43.72816437692307 0 0,0 -0.3051786827511492,-0.688097364784527 l 20.854991482651002 -9.035418429878547" fill="red" stroke="none" /><path d="M 80.73074385275274 108.34839909993369 l -7.957786113690708 3.4477083039082936 a29.67254589956645,29.67254589956645 0 0,0 -0.1990166178800086,-0.47041649610980163 l 8.015953712763023 -3.3102172821323332" fill="red" stroke="none" /><path d="M 80.58989483394504 108.01547362559985 l -14.412588590566324 5.951730953335453 a36.59313346386203,36.59313346386203 0 0,0 -0.2354112698618219,-0.5842714658593111 l 14.512902474685534 -5.702760119633337" fill="red" stroke="none" /><path d="M 80.45479744820244 107.68017299344265 l -18.446408220807545 7.24840818958078 a40.81941970723305,40.81941970723305 0 0,0 -0.2513421177056515,-0.6561749575575256 l 18.568444618106707 -6.9298096651900964" fill="red" stroke="none" /><path d="M 80.32549172779594 107.34259656027581 l -7.390205546663652 2.758051031106398 a28.888091246437586,28.888091246437586 0 0,0 -0.16985611499058995,-0.4673710781554987 l 7.436585922659467 -2.630432155944782" fill="red" stroke="none" /><path d="M 80.20201598880116 107.00284435728193 l -6.3534183891258085 2.247299527597041 a27.739160214301176,27.739160214301176 0 0,0 -0.15535140872079134,-0.45152391212511866 l 6.391160628789828 -2.1376029123826252" fill="red" stroke="none" /><path d="M 80.0844068197444 106.66101706037122 l -14.928063503494766 4.992875922654666 a36.740898638368684,36.740898638368684 0 0,0 -0.19544014678725316,-0.6015029222702466 l 15.01179590129827 -4.735174100406616" fill="red" stroke="none" /><path d="M 79.97269907076064 106.31721596034903 l -10.38530382851788 3.2758386829252473 a31.889704067933966,31.889704067933966 0 0,0 -0.16062271062332187,-0.5249243118848577 l 10.440153311647334 -3.096587398488342" fill="red" stroke="none" /><path d="M 79.86692584326677 105.97154293290107 l -19.56589052945457 5.803314208625488 a41.408393567712146,41.408393567712146 0 0,0 -0.1968029796559885,-0.6850969903078646 l 19.662886145996662 -5.465659742813028" fill="red" stroke="none" /><path d="M 79.76711848015287 105.62410040840567 l -34.03845939570312 9.461613917972485 a56.32900870341115,56.32900870341115 0 0,0 -0.25163488877275736,-0.9364270315997529 l 34.19628236081765 -8.874295953197192" fill="red" stroke="none" /><path d="M 79.67330655649465 105.27499134158121 l -27.352827076812446 7.098347126598451 a49.25886906837732,49.25886906837732 0 0,0 -0.20592244642022095,-0.8225578116689932 l 27.470960837527723 -6.626461475532066" fill="red" stroke="none" /><path d="M 79.58551787078972 104.9243191809786 l -15.368071227218215 3.7070393184528716 a36.808850488046495,36.808850488046495 0 0,0 -0.14327307655427282,-0.617216663991019 l 15.429604869703043 -3.4419539971132784" fill="red" stroke="none" /><path d="M 79.50377843672027 104.57218783832718 l -14.995054872439217 3.3450169003659282 a36.36361964809064,36.36361964809064 0 0,0 -0.1310232493395996,-0.6120970010289002 l 15.050412160503257 -3.0864060799208644" fill="red" stroke="none" /><path d="M 79.4281124754447 104.21870165774334 l -17.053655192508973 3.4972135320760356 a38.40855128705212,38.40855128705212 0 0,0 -0.12724216606417946,-0.648805063442294 l 17.11132729154882 -3.2031447415657865" fill="red" stroke="none" /><path d="M 79.35854240842038 103.8639653848113 l -30.687159389504156 5.744464561824429 a52.22019577931711,52.22019577931711 0 0,0 -0.1577884382829406,-0.8849613576618827 l 30.781494270126288 -5.215384453429333" fill="red" stroke="none" /><path d="M 79.29508885075956 103.50808413554451 l -22.772199415873942 3.8583498826177762 a44.09675150433554,44.09675150433554 0 0,0 -0.12035944926641076,-0.7494784054740181 l 22.835240619501644 -3.4657922474505445" fill="red" stroke="none" /><path d="M 79.23777060512086 103.15116336523772 l -20.405176937114046 3.096972141213632 a41.63885855076255,41.63885855076255 0 0,0 -0.10145198630168413,-0.7095549559027616 l 20.45546297443233 -2.7452717133304696" fill="red" stroke="none" /><path d="M 79.1416061653843 102.43462659150553 l -33.156906006602185 3.8701294881946255 a54.38200590417007,54.38200590417007 0 0,0 -0.10052306233124239,-0.930718711678201 l 33.21861137043448 -3.2988144546316422" fill="red" stroke="none" /><path d="M 79.10278846688536 102.07522291339032 l -31.026700902429024 3.0811441295695197 a52.17931394427996,52.17931394427996 0 0,0 -0.08106529444844601,-0.8945487691765767 l 31.075140793154546 -2.5466139718443768" fill="red" stroke="none" /><path d="M 79.07016306316243 101.71520430193888 l -32.39769424942188 2.654997490769041 a53.506300994653536,53.506300994653536 0 0,0 -0.06732479073431634,-0.9185932797744141 l 32.43859559882053 -2.096931074497866" fill="red" stroke="none" /><path d="M 79.04373962182676 101.35467743843564 l -9.702998619256217 0.6272318189159845 a30.72325058609253,30.72325058609253 0 0,0 -0.029572809854367263,-0.5280423858397446 l 9.712357779998117 -0.46011771674080226" fill="red" stroke="none" /><path d="M 79.0235259727143 100.99374915477108 l -6.508914541295586 0.3083563193449935 a27.516214554906025,27.516214554906025 0 0,0 -0.0183413483703537,-0.473308703489366 l 6.513258022517141 -0.19627036884163074" fill="red" stroke="none" /><line stroke="#e1ed5e" stroke-width="0.3" x1="15.007084014347285" x2="10.007500721073583" y1="101.09737516637583" y2="101.16192664675087" /><path d="M 14.007167355692545 101.11028546245083 a86.0,86.0 0 0,1 10.666146001902534,-42.60595125391555" fill="none" id="id46" stroke="none" /><text fill="#e1ed5e" style="font-size:6.75px; font-family:Arial;" text-anchor="middle"><textPath startOffset="22.20632615414155" xlink:href="#id46">October</textPath></text><path d="M 79.00486145842228 99.54816195383935 l -2.908218188392971 -0.0625879949041572 a23.90889159103701,23.90889159103701 0 0,0 0.012396538898574732,-0.4113807749438663 l 2.9067099550387514 0.11263891727301795" fill="red" stroke="none" /><path d="M 79.12142395522702 97.74499172005258 l -13.941685644947885 -1.5057835600647858 a35.022766586958056,35.022766586958056 0 0,0 0.06989484688081492,-0.5988163640111476 l 13.913700445063482 1.7455436624007952" fill="red" stroke="none" /><path d="M 79.16333360222342 97.38593545837743 l -32.72855797879213 -4.105962118773855 a53.985109250872036,53.985109250872036 0 0,0 0.123610478289613,-0.9210416402963298 l 32.65303150144469 4.668722101134844" fill="red" stroke="none" /><path d="M 79.21141760316559 97.0276538004421 l -19.219059009245463 -2.7479361466180903 a40.41451473168334,40.41451473168334 0 0,0 0.10439282112877721,-0.6878182589212618 l 19.16891029467738 3.0783535179314443" fill="red" stroke="none" /><path d="M 79.26566170972629 96.67025291283419 l -16.096292419842516 -2.584918893904678 a37.30252849570106,37.30252849570106 0 0,0 0.10726810744972487,-0.633102442267698 l 16.04941245087257 2.861607124488204" fill="red" stroke="none" /><path d="M 79.32604984820605 96.31383870115002 l -18.931841492554454 -3.375543663084677 a40.23041646248457,40.23041646248457 0 0,0 0.12742366799080698,-0.6807023296157801 l 18.870932100653786 3.7009240701630297" fill="red" stroke="none" /><path d="M 79.3925641242962 95.95851677861259 l -24.862407924038383 -4.875958613888387 a46.33602771125811,46.33602771125811 0 0,0 0.1602359503282803,-0.7813674004401752 l 24.77479267779511 5.303201670491965" fill="red" stroke="none" /><path d="M 79.46518482838121 95.60439243477599 l -18.660045714833625 -3.9943012598872376 a40.082760508752855,40.082760508752855 0 0,0 0.15022563030913874,-0.6734320443899424 l 18.58852569752245 4.314911473827139" fill="red" stroke="none" /><path d="M 79.62865764111835 94.90015583598534 l -23.68667657042092 -5.9298183273571645 a45.4176451024088,45.4176451024088 0 0,0 0.19638517967196614,-0.7567522078326656 l 23.58109505887865 6.336666960738694" fill="red" stroke="none" /><path d="M 79.71946130924805 94.55025226153421 l -32.26244759114757 -8.669503482045249 a54.406972553596326,54.406972553596326 0 0,0 0.25082451031528735,-0.9023492169339729 l 32.10843631026592 9.223564002398165" fill="red" stroke="none" /><path d="M 79.81627453868168 94.20196356495316 l -14.000524835283843 -4.021832008185267 a35.56673705280161,35.56673705280161 0 0,0 0.17409765847650252,-0.5869707558006685 l 13.929221279695634 4.262232150732475" fill="red" stroke="none" /><path d="M 79.91906864156998 93.8553929516997 l -21.619051766495414 -6.615259795019921 a43.608517453340795,43.608517453340795 0 0,0 0.22581843495473256,-0.7159061492585732 l 21.501977847772476 6.9864161107049085" fill="red" stroke="none" /><path d="M 80.02781315780177 93.51064311812611 l -16.7403134280757 -5.439257553893995 a38.601807191530206,38.601807191530206 0 0,0 0.21077084180386246,-0.6301779895744328 l 16.644205292500065 5.72660864639075" fill="red" stroke="none" /><path d="M 80.14247586403 93.16781622104843 l -12.964623868374707 -4.460611115827367 a34.71052601379954,34.71052601379954 0 0,0 0.1992498559254522,-0.5633061739754164 l 12.885920931639445 4.683114916229395" fill="red" stroke="none" /><path d="M 80.2630227832202 92.82701384747504 l -10.54074895253991 -3.830811853475235 a32.2152801096182,32.2152801096182 0 0,0 0.19389826599954876,-0.519550952726026 l 10.473246098038736 4.011685943230603" fill="red" stroke="none" /><path d="M 80.38941819471856 92.48833698450439 l -11.061136532082916 -4.2368722673499635 a32.844822834944324,32.844822834944324 0 0,0 0.20677606817965521,-0.5262225393733034 l 10.98656691402157 4.42664381161903" fill="red" stroke="none" /><path d="M 80.65960295795068 91.81776055985345 l -8.782499531781943 -3.7155656058031137 a30.53612740040616,30.53612740040616 0 0,0 0.20896786632694456,-0.4823266466536813 l 8.717240955612318 3.8661913970433943" fill="red" stroke="none" /><path d="M 80.803312248108 91.48605970444005 l -17.077305844417562 -7.57397131461171 a39.68152607198725,39.68152607198725 0 0,0 0.2823013359292023,-0.6220135732598929 l 16.94440219152501 7.8668068967136735" fill="red" stroke="none" /><path d="M 80.95270993114464 91.15688171328213 l -8.702093674750877 -4.040136073411829 a30.59422398194991,30.59422398194991 0 0,0 0.22587541638911973,-0.47575123232847905 l 8.631260064520006 4.18932972138084" fill="red" stroke="none" /><path d="M 81.10775173730289 90.83032412892265 l -9.558094959582395 -4.639184892430385 a31.62446307925952,31.62446307925952 0 0,0 0.24191206378131072,-0.4876799589088953 l 9.47682288284767 4.803024439838242" fill="red" stroke="none" /><path d="M 81.43458229118936 90.18545643968196 l -4.144613518715218 -2.1910355348917965 a25.68811880552056,25.68811880552056 0 0,0 0.21002104501054972,-0.38913709973575317 l 4.106284374486196 2.262053617960022" fill="red" stroke="none" /><path d="M 81.6062741919709 89.86733742301443 l -9.144117100727698 -5.0372748899884385 a31.439780451193826,31.439780451193826 0 0,0 0.265205565065362,-0.4717711078191035 l 9.056053894369905 5.193929507742327" fill="red" stroke="none" /><line stroke="#e1ed5e" stroke-width="0.3" x1="26.266209847984243" x2="21.928928074336255" y1="57.711370442889674" y2="55.22380399835377" /><path d="M 25.398753493254645 57.213857153982495 a86.0,86.0 0 0,1 29.58750427330803,-30.492523968695096" fill="none" id="id47" stroke="none" /><text fill="#e1ed5e" style="font-size:6.75px; font-family:Arial;" text-anchor="middle"><textPath startOffset="21.46611528233685" xlink:href="#id47">November</textPath></text><path d="M 81.78341655067845 89.55222093294921 l -6.545976063489633 -3.754321543323737 a28.546173392815987,28.546173392815987 0 0,0 0.24813465636910373,-0.42414256176543536 l 6.480381732650204 3.8664435174430642" fill="red" stroke="none" /><path d="M 81.96595687620814 89.24020034530311 l -9.025759164587328 -5.385113015194146 a31.510174626691295,31.510174626691295 0 0,0 0.28191733359989507,-0.46339797126642923 l 8.931726032701215 5.539678759667649" fill="red" stroke="none" /><path d="M 82.15384107792192 88.93136811851018 l -9.404681354656555 -5.833017420270901 a32.06671241190483,32.06671241190483 0 0,0 0.294971615099861,-0.4665742575013944 l 9.30288214331073 5.9940393254865105" fill="red" stroke="none" /><path d="M 82.34701348167596 88.62581576622439 l -11.498883269533485 -7.408968258973719 a34.67907625202949,34.67907625202949 0 0,0 0.3276402576705664,-0.49901859053830394 l 11.369646376504997 7.60580491348969" fill="red" stroke="none" /><path d="M 82.54541684631803 88.32363383020206 l -11.896540110830445 -7.958274183044167 a35.31299390697505,35.31299390697505 0 0,0 0.34232674302137917,-0.5023222544824453 l 11.757788902140327 8.161874460797028" fill="red" stroke="none" /><path d="M 82.7489923806493 88.02491185347247 l -17.64118427040094 -12.245936081450603 a42.4749699178652,42.4749699178652 0 0,0 0.422094771241351,-0.5970231199503989 l 17.427776879355715 12.547785701732789" fill="red" stroke="none" /><path d="M 82.95767976084542 87.72973835380427 l -16.07893660059906 -11.57663723679274 a40.81289307290534,40.81289307290534 0 0,0 0.4153924352934865,-0.5665948149129124 l 15.877281552791942 11.851694495377153" fill="red" stroke="none" /><path d="M 83.17141714833178 87.43820079747576 l -22.737732182607463 -16.972720074903627 a49.37389101884018,49.37389101884018 0 0,0 0.5142503757415778,-0.6766932147244408 l 22.44220586664178 17.361598065509092" fill="red" stroke="none" /><path d="M 83.39014120810768 87.1503855733568 l -2.534999844526106 -1.96111062603741 a24.205024040362915,24.205024040362915 0 0,0 0.25777880265485703,-0.3273529015244 l 2.5008669612772776 2.004455921514858" fill="red" stroke="none" /><path d="M 83.6137871275137 86.86637796730984 l -13.364155662636286 -10.711429823654495 a38.12703668012212,38.12703668012212 0 0,0 0.41486120828888556,-0.5085707876207388 l 13.177795962271007 10.939884780883315" fill="red" stroke="none" /><path d="M 83.84228863543731 86.58626213691792 l -10.856946485495595 -9.013172154402431 a35.11065410510124,35.11065410510124 0 0,0 0.3900449026783263,-0.4616901382757833 l 10.700190969330142 9.19872124230733" fill="red" stroke="none" /><path d="M 84.07557802195018 86.31012108654704 l -4.323081321875481 -3.7164589026253183 a26.700973503749307,26.700973503749307 0 0,0 0.3026213782992738,-0.3459485487908373 l 4.258468079998364 3.7903230076190986" fill="red" stroke="none" /><path d="M 84.31358615837235 86.03803664274999 l -21.256541000328934 -18.919751164596352 a49.45694149814611,49.45694149814611 0 0,0 0.5714781604859706,-0.6310404583143275 l 20.927719199226917 19.282844410180235" fill="red" stroke="none" /><path d="M 84.5562425177563 85.77008943001954 l -11.723604439105213 -10.80215374516852 a36.94143740629639,36.94143740629639 0 0,0 0.4349109762009253,-0.4639327061202646 l 11.535926140933832 11.002355868166834" fill="red" stroke="none" /><path d="M 84.80347519578584 85.50635884689758 l -4.356054392695917 -4.1545741559032 a27.01960931365352,27.01960931365352 0 0,0 0.32389529738222134,-0.333802575152813 l 4.283894831610577 4.228940926606136" fill="red" stroke="none" /><path d="M 85.05521093208273 85.24692304244772 l -2.4913319914042544 -2.45937312523884 a24.500750099698827,24.500750099698827 0 0,0 0.2988673830757129,-0.29758395155304423 l 2.4486288081612284 2.5018929274419937" fill="red" stroke="none" /><path d="M 85.83668400450813 84.49514656593479 l -8.805735193932959 -9.639807062454715 a34.05629551239636,34.05629551239636 0 0,0 0.43622710933424996,-0.3916490058995278 l 8.638497097002737 9.78995507712352" fill="red" stroke="none" /><path d="M 86.10567301691215 84.25364557470407 l -1.7170918351393079 -1.9459695061010085 a23.59522671244288,23.59522671244288 0 0,0 0.30685727321445017,-0.2661036035097875 l 1.6833407632780844 1.9752381030304766" fill="red" stroke="none" /><path d="M 86.37877921826538 84.01681056812374 l -6.343743961355861 -7.443771969222845 a30.780226407247774,30.780226407247774 0 0,0 0.4062146552124229,-0.3401930916323153 l 6.214671769184328 7.551866218248972" fill="red" stroke="none" /><path d="M 86.65592168130627 83.78471172551755 l -5.681823153497675 -6.90436597854236 a29.94166561180161,29.94166561180161 0 0,0 0.4007857354664571,-0.32407419196755477 l 5.562134019466717 7.0011462677740495" fill="red" stroke="none" /><path d="M 86.93701828274178 83.55741782278169 l -2.4163980561986333 -3.0415585409129613 a24.88459237550108,24.88459237550108 0 0,0 0.33768089072122764,-0.26356529141345164 l 2.3636846103179803 3.0827022215496345" fill="red" stroke="none" /><path d="M 87.22198572758235 83.33499621200491 l -2.415129924709985 -3.1497968687256033 a24.969140066495925,24.969140066495925 0 0,0 0.3433302491212471,-0.2585892256555977 l 2.3605535218303477 3.1909026838870553" fill="red" stroke="none" /><path d="M 87.51073957382395 83.11751280151077 l -8.896740149097326 -12.026260687191764 a35.95937603634772,35.95937603634772 0 0,0 0.5007851401345464,-0.3638417017008734 l 8.688409692608998 12.177621623709305" fill="red" stroke="none" /><path d="M 87.80319425747018 82.90503203632743 l -4.279963808364677 -5.998770967921995 a28.369080222557987,28.369080222557987 0 0,0 0.39996196440726023,-0.28019891595258056 l 4.176070704373757 6.071554726638518" fill="red" stroke="none" /><path d="M 88.39885842347998 82.49532879139004 l -4.715216451545557 -7.114671699963203 a29.53532773730354,29.53532773730354 0 0,0 0.4261989623176634,-0.2772116605868216 l 4.592050463443607 7.19478228470956" fill="red" stroke="none" /><path d="M 89.00827224532344 82.1063720568725 l -1.9755248661381546 -3.2159918564243117 a24.774294916579475,24.774294916579475 0 0,0 0.3652886423278222,-0.22008231975999976 l 1.9198741575926832 3.2495207856429307" fill="red" stroke="none" /><line stroke="#e1ed5e" stroke-width="0.3" x1="56.762969772571076" x2="54.21961505331055" y1="26.818313649435495" y2="22.513508569990535" /><path d="M 56.25429882871897 25.957352633546506 a86.0,86.0 0 0,1 42.265352541879196,-11.944610805530505" fill="none" id="id48" stroke="none" /><text fill="#e1ed5e" style="font-size:6.75px; font-family:Arial;" text-anchor="middle"><textPath startOffset="22.20632615414155" xlink:href="#id48">December</textPath></text><path d="M 89.63071344664047 81.73862282372117 l -1.9580906346051468 -3.4483984447588414 a24.9655479781669,24.9655479781669 0 0,0 0.37552453378185807,-0.20897899647781934 l 1.898442011751243 3.4815928387968453" fill="red" stroke="none" /><path d="M 90.58718382345135 81.22770947309562 l -6.4166699581908695 -12.796977058845043 a35.31559552365725,35.31559552365725 0 0,0 0.5457583557173695,-0.26780125494799645 l 6.195440335463074 12.90553347392787" fill="red" stroke="none" /><path d="M 90.91171255644093 81.06846463323043 l -4.130898964376213 -8.604950088375995 a30.54512924361564,30.54512924361564 0 0,0 0.47595389653240705,-0.22346673626695718 l 3.982166856544197 8.67478180728296" fill="red" stroke="none" /><path d="M 91.23893434514133 80.91482961587045 l -6.010026205071764 -13.092285648295194 a35.40584459454584,35.40584459454584 0 0,0 0.5560705075270341,-0.2494926276611445 l 5.783773579077955 13.193798606472868" fill="red" stroke="none" /><path d="M 91.56875222667455 80.76684994638697 l -3.0968548589889986 -7.064467300514819 a28.71344334637177,28.71344334637177 0 0,0 0.45437826636986395,-0.19454106062550344 l 2.9747928348288264 7.1167278891031085" fill="red" stroke="none" /><path d="M 91.90106846888425 80.62456947434976 l -1.6703359547909178 -3.9960182552732975 a25.33107193409954,25.33107193409954 0 0,0 0.4037484941409608,-0.1646991482810484 l 1.6013035910615765 4.024178289737923" fill="red" stroke="none" /><path d="M 92.23578459929587 80.48803036053334 l -3.0131104720275346 -7.572139233183624 a29.149609026411063,29.149609026411063 0 0,0 0.4678051893132344,-0.1815011456638612 l 2.8823221177146237 7.622883082738038" fill="red" stroke="none" /><path d="M 92.57280143429618 80.3572730644239 l -1.4013049815849459 -3.706034093909706 a24.96211362237833,24.96211362237833 0 0,0 0.40321857746590656,-0.1485088049822492 l 1.3373040783464698 3.729606166698278" fill="red" stroke="none" /><path d="M 92.91201910852362 80.23233633223022 l -2.6614202983328172 -7.422432726826992 a28.885154759968273,28.885154759968273 0 0,0 0.4694772921425822,-0.16379140880027165 l 2.5332610021269497 7.467144988799473" fill="red" stroke="none" /><path d="M 93.25333710446033 80.11325718540243 l -2.492606104664582 -7.347308930216725 a28.75861029495963,28.75861029495963 0 0,0 0.4701583296521873,-0.15500380927459695 l 2.3657649527699856 7.389126463750556" fill="red" stroke="none" /><path d="M 93.59665428221793 80.00007090966166 l -2.5235045313836704 -7.881803343315676 a29.27592285262593,29.27592285262593 0 0,0 0.4812607998151771,-0.14953007316010733 l 2.3874583588577645 7.924073551358308" fill="red" stroke="none" /><path d="M 93.94186890950719 79.89281104454417 l -3.224307103644202 -10.70160932719576 a32.176788379965586,32.176788379965586 0 0,0 0.5316981109567336,-0.1552172587104718 l 3.039618774964047 10.75552491482493" fill="red" stroke="none" /><path d="M 94.28887869178378 79.79150937346287 l -0.7297050555818414 -2.582021459542089 a23.683151931158122,23.683151931158122 0 0,0 0.39325547943952904,-0.10749157784262237 l 0.6851516869185899 2.5941995782110077" fill="red" stroke="none" /><path d="M 95.33964822691252 79.52364482259891 l -0.8800135849727267 -3.8665473346664743 a24.965427114568236,24.965427114568236 0 0,0 0.4198439157202258,-0.09176161845314688 l 0.81332694509898 3.881122451215489" fill="red" stroke="none" /><path d="M 95.692805502759 79.44645832069477 l -1.427844619471084 -6.813545085244971 a27.96154701815756,27.96154701815756 0 0,0 0.4719291193570985,-0.09466454166438425 l 1.3103490906468491 6.837113582986566" fill="red" stroke="none" /><path d="M 96.04723909329186 79.375362276772 l -2.2922859690303214 -11.960644416679834 a33.17832459027381,33.17832459027381 0 0,0 0.5618273379968198,-0.10267035490895124 l 2.0860635099306086 11.998330252939521" fill="red" stroke="none" /><path d="M 96.40284397218896 79.31037775812273 l -0.6787396435857348 -3.9038803759982392 a24.96244488843429,24.96244488843429 0 0,0 0.42397023976534165,-0.06995872227847447 l 0.6114401976815075 3.9149853612163406" fill="red" stroke="none" /><path d="M 97.11714578562143 79.19881850522333 l -0.5012461502383558 -3.6167323663689626 a24.651301235596648,24.651301235596648 0 0,0 0.42081563886083073,-0.054633947413840804 l 0.43891578286966726 3.62482463694694" fill="red" stroke="none" /><path d="M 97.47563105711357 79.15227682838746 l -0.3017190431242836 -2.491773282342228 a23.50997379898245,23.50997379898245 0 0,0 0.40216978039088686,-0.04518846077748276 l 0.25878255922367877 2.4965976965903094" fill="red" stroke="none" /><path d="M 97.83486435360386 79.11191278185805 l -0.27891469629713195 -2.6908219410517753 a23.70523864497315,23.70523864497315 0 0,0 0.40623427355501573,-0.03857683918236461 l 0.23255529565187985 2.6952243247493204" fill="red" stroke="none" /><path d="M 98.91598698831166 79.02799685794201 l -0.19847834223513006 -3.83988787228908 a24.845013982300866,24.845013982300866 0 0,0 0.42728593186301833,-0.01839983104585742 l 0.13235157798278763 3.84273542985913" fill="red" stroke="none" /><path d="M 99.27714615592234 79.0124445844662 l -0.14476749914538703 -4.2032230105365835 a25.205715314320862,25.205715314320862 0 0,0 0.43374638835505225,-0.011202389534717399 l 0.07239447559545573 4.205092192213661" fill="red" stroke="none" /></svg>