<?xml version="1.0" encoding="utf-8" ?>
<svg baseProfile="full" height="200mm" version="1.1" viewBox="0,0,200,200" width="200mm" xmlns="http://www.w3.org/2000/svg" xmlns:ev="http://www.w3.org/2001/xml-events" xmlns:xlink="http://www.w3.org/1999/xlink"><defs /><rect fill="#1a1a1a" height="200" width="200" x="0" y="0" /><rect fill="#1a1a1a" height="200" width="180" x="10" y="0" /><text alignment-baseline="middle" fill="#e1ed5e" style="dominant-baseline: central; font-size:9.0px; font-family:Arial;" text-anchor="middle" x="100.0" y="100.0">2023</text><line stroke="#e1ed5e" stroke-width="0.3" x1="100.0" x2="100.0" y1="15.0" y2="10.0" /><path d="M 100.0 14.0 a86.0,86.0 0 0,1 42.46469731375804,11.215312516191453" fill="none" id="id49" stroke="none" /><text fill="#e1ed5e" style="font-size:6.75px; font-family:Arial;" text-anchor="middle"><textPath startOffset="22.20632615414155" xlink:href="#id49">January</textPath></text><path d="M 100.36148047927253 79.00311137660856 l 0.00830992078426577 -0.48268853003508305 a21.48276005614681,21.48276005614681 0 0,0 0.3696808231805268,0.00954776499808723 l -0.01661737915966038 0.48247397289463617" fill="#ff0100" stroke="none" /><path d="M 100.72285384407766 79.0124445844662 l 0.048109511434634544 -1.396825991202962 a22.397654240071777,22.397654240071777 0 0,0 0.3851961029417087,0.016587354474196424 l -0.07214644676567475 1.3957909102045707" fill="#ff0e01" stroke="none" /><path d="M 101.08401301168833 79.027996857942 l 0.0974381518809814 -1.885100275892073 a22.88761681588461,22.88761681588461 0 0,0 0.3932724170851356,0.023723266178961082 l -0.12987261780572892 1.8831437403328077" fill="#ff1502" stroke="none" /><path d="M 101.44485096284872 79.0497635885617 l 0.08849603108618913 -1.2831861696477127 a22.28623415189194,22.28623415189194 0 0,0 0.3824846395480904,0.02968816939074594 l -0.11057085999662072 1.2814727380685023" fill="#ff0d01" stroke="none" /><path d="M 101.80526077348638 79.07773832637324 l 0.1006724526303336 -1.1667540934764185 a22.17108926105681,22.17108926105681 0 0,0 0.3799437109568415,0.03608023347628554 l -0.12074129067741929 1.1648483154849547" fill="#ff0b01" stroke="none" /><path d="M 102.52436894288641 79.15227682838746 l 0.07671599759306529 -0.6335658205434863 a21.6381935390206,21.6381935390206 0 0,0 0.36937969930645576,0.04795608623833152 l -0.08761042540736713 0.632151411141018" fill="#ff0300" stroke="none" /><path d="M 102.88285421437855 79.19881850522331 l 0.40685578123939115 -2.9356603970985287 a23.963719553841187,23.963719553841187 0 0,0 0.4081033074648563,0.06014381907176546 l -0.4573280691329032 2.9282220938657946" fill="#ff2503" stroke="none" /><path d="M 103.2404852339499 79.25152402106235 l 0.174308929647904 -1.116081197292004 a22.129610925010798,22.129610925010798 0 0,0 0.3758564712600677,0.06201953822042833 l -0.19349460704684693 1.112915396131951" fill="#ff0a01" stroke="none" /><path d="M 103.59715602781102 79.31037775812273 l 0.44716887084084295 -2.5719637804128843 a23.610547392177512,23.610547392177512 0 0,0 0.39981075457569065,0.07306285987267767 l -0.49137474651943447 2.563885439189468" fill="#ff1f03" stroke="none" /><path d="M 103.95276090670814 79.375362276772 l 0.4243952578361776 -2.214401187148107 a23.254702630618233,23.254702630618233 0 0,0 0.39248798810210983,0.07872939807799491 l -0.4624496554054128 2.2067678329929037" fill="#ff1a02" stroke="none" /><path d="M 104.307194497241 79.44645832069477 l 0.19379957744403103 -0.924794014985656 a21.944882133586393,21.944882133586393 0 0,0 0.3690473710985374,0.0806594612661887 l -0.2096896726960964 0.9213210556235968" fill="#ff0801" stroke="none" /><path d="M 104.66035177308747 79.52364482259891 l 0.1482947876302371 -0.6515681412740867 a21.66823078854664,21.66823078854664 0 0,0 0.3629700160400033,0.08590327570579034 l -0.1594884906327639 0.6489189534274278" fill="#ff0400" stroke="none" /><path d="M 106.0581310904928 79.89281104454417 l 0.6227543468876573 -2.0669475682611944 a23.158725370793686,23.158725370793686 0 0,0 0.38070146416063694,0.11828579807447998 l -0.6582411837590124 2.055921635304194" fill="#ff1902" stroke="none" /><path d="M 107.08798089147638 80.2323363322302 l 0.15721081930465652 -0.43844511554568666 a21.46577823162135,21.46577823162135 0 0,0 0.34674149367677387,0.1277078183929953 l -0.16473463875400685 0.4356740293463666" fill="#ff0100" stroke="none" /><path d="M 107.4271985657038 80.35727306442388 l 0.6714028869922994 -1.7756605611496117 a22.898355147248203,22.898355147248203 0 0,0 0.36748243706853206,0.14257747640038834 l -0.7018684890604985 1.7638403808586764" fill="#ff1502" stroke="none" /><path d="M 108.76106565485865 80.91482961587045 l 1.2031469114431645 -2.6209441529864326 a23.88390546717277,23.88390546717277 0 0,0 0.3721587746723612,0.17473353481302942 l -1.2480838974151236 2.5998456355334003" fill="#ff2303" stroke="none" /><path d="M 109.08828744355905 81.06846463323043 l 1.0135973310664796 -2.111393795576709 a23.342085248137845,23.342085248137845 0 0,0 0.36072273099584123,0.17700507749803865 l -1.0497913290727527 2.0936335579438383" fill="#ff1c02" stroke="none" /><path d="M 109.41281617654863 81.2277094730956 l 0.21722069107393605 -0.43321040640889774 a21.484619525867046,21.484619525867046 0 0,0 0.3291643338377888,0.16861075660380428 l -0.22464551250048043 0.42940712449259294" fill="#ff0100" stroke="none" /><path d="M 109.73455568895987 81.39251694778311 l 1.3043691142403182 -2.493285462898742 a23.81386765603613,23.81386765603613 0 0,0 0.36157950778315984,0.19314325076641722 l -1.3470936685517891 2.4704634856305705" fill="#ff2203" stroke="none" /><path d="M 110.05341064243156 81.56283822128135 l 0.4394551757930688 -0.8059261139095776 a21.917953023096885,21.917953023096885 0 0,0 0.3296834941355748,0.18346850754570185 l -0.4532627590006787 0.7982422088036958" fill="#ff0701" stroke="none" /><path d="M 110.36928655335952 81.73862282372117 l 0.7111919652483155 -1.2524819962594955 a22.44031425820476,22.44031425820476 0 0,0 0.3342573154510158,0.1936234119260713 l -0.7326460131646596 1.2400544269433746" fill="#ff0f01" stroke="none" /><line stroke="#e1ed5e" stroke-width="0.3" x1="143.23703022742887" x2="145.7803849466894" y1="26.81831364943548" y2="22.513508569990506" /><path d="M 143.74570117128098 25.957352633546492 a86.0,86.0 0 0,1 28.547481713284135,27.462654790039103" fill="none" id="id50" stroke="none" /><text fill="#e1ed5e" style="font-size:6.75px; font-family:Arial;" text-anchor="middle"><textPath startOffset="19.985693538727396" xlink:href="#id50">February</textPath></text><path d="M 110.68208982089419 81.91981866633111 l 0.696134225734259 -1.178255682631491 a22.36853546314739,22.36853546314739 0 0,0 0.32981652869268846,0.19871076819501735 l -0.716312820644585 1.166098304977859" fill="#ff0e01" stroke="none" /><path d="M 110.99172775467656 82.1063720568725 l 0.8926840338667392 -1.4532161211858263 a22.705497545936367,22.705497545936367 0 0,0 0.331263313520642,0.2074370565364712 l -0.9175664997596444 1.437634723326411" fill="#ff1302" stroke="none" /><path d="M 111.2981086023043 82.29822771554956 l 0.4936691601577881 -0.7734762839141716 a21.917591849063935,21.917591849063935 0 0,0 0.316273954555622,0.20571337777537435 l -0.5069101404976903 0.7648639819792692" fill="#ff0701" stroke="none" /><path d="M 111.90073688211348 82.69761687909136 l 0.399742034385155 -0.5811816442105118 a21.705383440138494,21.705383440138494 0 0,0 0.30601372095341417,0.21438216757644735 l -0.4096868949222201 0.5742146338701288" fill="#ff0400" stroke="none" /><path d="M 112.19680574252982 82.90503203632743 l 0.6619183791153033 -0.9277407318282967 a22.139666094127545,22.139666094127545 0 0,0 0.3083261449328963,0.2240120567896924 l -0.6777898404019883 0.9162094402219295" fill="#ff0a01" stroke="none" /><path d="M 112.48926042617603 83.11751280151076 l 1.0070612804490564 -1.3613055213134808 a22.693317792069244,22.693317792069244 0 0,0 0.31203727602111025,0.2350200070879454 l -1.0303447102285497 1.343768924719688" fill="#ff1202" stroke="none" /><path d="M 112.77801427241765 83.33499621200491 l 0.9294529789569537 -1.212186579609315 a22.527507493885672,22.527507493885672 0 0,0 0.30569553567425645,0.23860021445599722 l -0.9501810697906404 1.1960079759300937" fill="#ff1001" stroke="none" /><path d="M 113.06298171725822 83.55741782278167 l 0.473284383781299 -0.5957305569246029 a21.760850185243417,21.760850185243417 0 0,0 0.29128100149615177,0.23552897930736016 l -0.483468783841942 0.587495480353113" fill="#ff0500" stroke="none" /><path d="M 113.89432698308785 84.25364557470407 l 0.37190165357763727 -0.42147383286107615 a21.56209521588463,21.56209521588463 0 0,0 0.27618889035628735,0.24796511274509178 l -0.37910153152991466 0.4150097113466869" fill="#ff0200" stroke="none" /><path d="M 114.16331599549186 84.49514656593476 l 1.2604906593787502 -1.3798832797980702 a22.868934072739687,22.868934072739687 0 0,0 0.2883577832608036,0.267997133174411 l -1.2840563264344005 1.3579815605490186" fill="#ff1502" stroke="none" /><path d="M 114.42810811169701 84.74124197986012 l 2.1178201673051293 -2.2397465567147217 a24.08247090811248,24.08247090811248 0 0,0 0.2987565336561792,0.28740354867275303 l -2.1560599445737267 2.2029599212796667" fill="#ff2603" stroke="none" /><path d="M 114.68862486808459 84.99185889309783 l 1.1327137499942574 -1.1573532543934415 a22.619415633764582,22.619415633764582 0 0,0 0.27591830983362187,0.2747334289246462 l -1.1524678599952018 1.1376839748186767" fill="#ff1101" stroke="none" /><path d="M 114.94478906791727 85.2469230424477 l 0.6845055547445599 -0.6757247011734421 a21.961848078571713,21.961848078571713 0 0,0 0.263265809357129,0.2713185582604966 l -0.696035627804798 0.6638419473628312" fill="#ff0801" stroke="none" /><path d="M 115.19652480421416 85.50635884689758 l 0.640491372684612 -0.6108667762496895 a21.885091756152494,21.885091756152494 0 0,0 0.2576528497045584,0.2748460957393987 l -0.6509115443596333 0.599751263632236" fill="#ff0701" stroke="none" /><path d="M 115.68641384162765 86.03803664274999 l 1.9432640268221084 -1.7296356840944553 a23.601521608142775,23.601521608142775 0 0,0 0.2674930559372004,0.30579080378645884 l -1.972748946337157 1.6959293241050488" fill="#ff1f03" stroke="none" /><path d="M 115.9244219780498 86.31012108654704 l 0.3846884287621561 -0.330708267868027 a21.50729985773679,21.50729985773679 0 0,0 0.23892498996952508,0.282811827302724 l -0.39032403221879836 0.32403749093619644" fill="#ff0100" stroke="none" /><path d="M 116.15771136456269 86.58626213691792 l 1.1403687919732417 -0.9467063557229619 a22.482124794230486,22.482124794230486 0 0,0 0.24462854365752487,0.29988566931953226 l -1.1564958277071755 0.9269365167953287" fill="#ff0f01" stroke="none" /><path d="M 116.38621287248628 86.86637796730983 l 1.2457287470080312 -0.9984570959609259 a22.59648259733607,22.59648259733607 0 0,0 0.2406481488487484,0.30559871083577367 l -1.2627309764507437 0.9768659911721139" fill="#ff1101" stroke="none" /><path d="M 116.82858285166822 87.43820079747576 l 0.9929046307482343 -0.7411597701751452 a22.239022764394328,22.239022764394328 0 0,0 0.22634812504341115,0.30873858818407357 l -1.0055153683052718 0.7239587383195779" fill="#ff0c01" stroke="none" /><path d="M 117.04232023915458 87.72973835380427 l 0.782574035252561 -0.5634437116142629 a21.96430852781106,21.96430852781106 0 0,0 0.21827019068991066,0.30872770552124906 l -0.7921568457463546 0.5498895057612206" fill="#ff0801" stroke="none" /><path d="M 117.2510076193507 88.02491185347247 l 4.270751996032259 -2.9646170666041143 a26.198872662723517,26.198872662723517 0 0,0 0.2539737857709883,0.37267519189979426 l -4.321150247471981 2.890663851433914" fill="#ff4406" stroke="none" /><path d="M 117.45458315368197 88.32363383020206 l 2.2628628481909625 -1.5137580184454853 a23.722500984045904,23.722500984045904 0 0,0 0.2241249529980783,0.3413576797452631 l -2.288584436546966 1.4745822747225483" fill="#ff2103" stroke="none" /><path d="M 117.65298651832404 88.62581576622439 l 2.304318163060272 -1.4847198400495496 a23.74121783155703,23.74121783155703 0 0,0 0.21838800555096435,0.3454373787886516 l -2.329533764857192 1.4448348135466917" fill="#ff2103" stroke="none" /><line stroke="#e1ed5e" stroke-width="0.3" x1="172.23445277983987" x2="176.4835382374775" y1="55.19839476539836" y2="52.563006222186495" /><path d="M 173.08426987136738 54.67131705675599 a86.0,86.0 0 0,1 12.851231095245387,41.99856678651699" fill="none" id="id51" stroke="none" /><text fill="#e1ed5e" style="font-size:6.75px; font-family:Arial;" text-anchor="middle"><textPath startOffset="22.20632615414155" xlink:href="#id51">March</textPath></text><path d="M 117.84615892207809 88.93136811851018 l 2.638504826269277 -1.6364663548624365 a24.10479143403273,24.10479143403273 0 0,0 0.2156623569552527,0.35449221023577127 l -2.666282981510754 1.5908063714195837" fill="#ff2603" stroke="none" /><path d="M 118.03404312379186 89.2402003453031 l 2.5156698594333378 -1.50094482413386 a23.92940782527042,23.92940782527042 0 0,0 0.20800389972176953,0.3555460900792463 l -2.5411334336254345 1.4574193217007185" fill="#ff2403" stroke="none" /><path d="M 118.21658344932153 89.55222093294921 l 2.454851935619168 -1.4079341901308229 a23.829942880969952,23.829942880969952 0 0,0 0.20101391856198153,0.3575813313859808 l -2.4787234954735826 1.3654693488100482" fill="#ff2303" stroke="none" /><path d="M 118.3937258080291 89.86733742301442 l 1.9587692045335572 -1.0790389953005222 a23.23631436743768,23.23631436743768 0 0,0 0.18997557051917477,0.3519958798831969 l -1.9770528742711968 1.0451621320848663" fill="#ff1a02" stroke="none" /><path d="M 118.56541770881063 90.18545643968196 l 1.6162258926271453 -0.8544122020467723 a22.828170218279695,22.828170218279695 0 0,0 0.18065840707110728,0.3489745400453238 l -1.6306937328583688 0.8264649397411036" fill="#ff1402" stroke="none" /><path d="M 118.73160827565052 90.50648371742162 l 3.775998464004195 -1.913743997498255 a25.233270660862903,25.233270660862903 0 0,0 0.19302248914781733,0.389121559730058 l -3.8083809661054207 1.8484628492692472" fill="#ff3605" stroke="none" /><path d="M 118.89224826269711 90.83032412892265 l 4.624482033424486 -2.244571462775671 a26.140421687855266,26.140421687855266 0 0,0 0.19299324724872421,0.40649299812017353 l -4.662433474514966 2.164636049014957" fill="#ff4306" stroke="none" /><path d="M 119.04729006885535 91.15688171328212 l 2.2448957738390405 -1.0422416416008677 a23.475040338032343,23.475040338032343 0 0,0 0.16700555408066667,0.3679746009916681 l -2.262503644883054 1.0034450317671368" fill="#ff1e03" stroke="none" /><path d="M 119.196687751892 91.48605970444005 l 2.8274883315533024 -1.254021899630294 a24.093098962177326,24.093098962177326 0 0,0 0.1648762928354547,0.3805572159673263 l -2.8486553342314376 1.2051655390763651" fill="#ff2603" stroke="none" /><path d="M 119.34039704204932 91.81776055985345 l 0.7941717872678571 -0.3359860558139911 a21.86231981155118,21.86231981155118 0 0,0 0.14364409563582375,0.3478455713296095 l -0.7998375697898782 0.32226591403107846" fill="#ff0601" stroke="none" /><path d="M 119.61058180528143 92.48833698450437 l 1.873372348909779 -0.717579005420835 a23.00610158932206,23.00610158932206 0 0,0 0.13846979415979882,0.3710302054979079 l -1.8854467315712031 0.6852256628935939" fill="#ff1702" stroke="none" /><path d="M 119.7369772167798 92.82701384747503 l 1.9720353616147992 -0.7166944657121319 a23.098231261000944,23.098231261000944 0 0,0 0.1325914579645815,0.3748539066236235 l -1.9840799003891902 0.6826429326618939" fill="#ff1802" stroke="none" /><path d="M 119.85752413597 93.16781622104841 l 2.3657872031778644 -0.8139732246239311 a23.501899578545235,23.501899578545235 0 0,0 0.1283234003419092,0.3836706337116209 l -2.3794478972915436 0.7731294879899961" fill="#ff1e03" stroke="none" /><path d="M 119.97218684219823 93.5106431181261 l 0.7011163354056705 -0.22780650672393898 a21.73719734147543,21.73719734147543 0 0,0 0.1125619528158943,0.35685215075379706 l -0.704933771989771 0.21570418954372275" fill="#ff0500" stroke="none" /><path d="M 120.08093135843002 93.85539295169968 l 2.704234338957699 -0.8274744374562883 a23.828002352304818,23.828002352304818 0 0,0 0.11663705359168673,0.39324216132587664 l -2.7180772896610876 0.7808028893838819" fill="#ff2303" stroke="none" /><path d="M 120.18372546131832 94.20196356495316 l 3.7834438022991397 -1.086843212256504 a24.93645464513232,24.93645464513232 0 0,0 0.11496089070574647,0.41357548979550274 l -3.801591463571249 1.0215564190420494" fill="#ff3204" stroke="none" /><path d="M 120.28053869075195 94.5502522615342 l 3.7519320277052737 -1.0082120299984045 a24.88503351825362,24.88503351825362 0 0,0 0.10760249166609027,0.4146362942082671 l -3.7687308512416666 0.943479310241287" fill="#ff3104" stroke="none" /><path d="M 120.37134235888165 94.90015583598534 l 18.416879005437956 -4.610555910386402 a39.98522209782494,39.98522209782494 0 0,0 0.16140168134199157,0.669114169550207 l -18.49351348704077 4.292856509176789" fill="#fff717" stroke="none" /><path d="M 120.45610955862082 95.25157060432595 l 1.957368153370702 -0.4543593419358045 a23.00941098320731,23.00941098320731 0 0,0 0.08623665695978001,0.38658202384154133 l -1.9648991973325194 0.42059914854429925" fill="#ff1702" stroke="none" /><path d="M 120.53481517161879 95.60439243477599 l 3.2718503906715046 -0.7003603494514962 a24.345969156764763,24.345969156764763 0 0,0 0.08419149627600125,0.4105476358431017 l -3.2834211828625026 0.6439370574449826" fill="#ff2a04" stroke="none" /><path d="M 120.6074358757038 95.95851677861258 l 0.5845301617630319 -0.11463671926042049 a21.595665247780587,21.595665247780587 0 0,0 0.06840095431624453,0.36540063306268183 l -0.5864168399891357 0.10455800873517586" fill="#ff0300" stroke="none" /><path d="M 120.67395015179393 96.31383870115 l 1.539937446935045 -0.2745705478567803 a22.564223873434745,22.564223873434745 0 0,0 0.0648862607598889,0.38296238400548555 l -1.544435569215157 0.2480223755354569" fill="#ff1101" stroke="none" /><path d="M 120.73433829027371 96.67025291283417 l 0.7503942303931134 -0.12050652246035723 a21.760008765056536,21.760008765056536 0 0,0 0.056207249248261676,0.3703355450946323 l -0.752357373080675 0.10757186497364277" fill="#ff0500" stroke="none" /><path d="M 120.78858239683441 97.02765380044208 l 0.6532794194146972 -0.09340572447317806 a21.659923199467304,21.659923199467304 0 0,0 0.04959503654906579,0.36954062831700885 l -0.6547904550215993 0.08214675409150488" fill="#ff0400" stroke="none" /><path d="M 120.83666639777658 97.38593545837742 l 13.445374180573888 -1.686789778332121 a34.55076922583839,34.55076922583839 0 0,0 0.06895288293854049,0.5907461922014406 l -13.472417416516016 1.4550998478058277" fill="#ffb310" stroke="none" /><path d="M 120.87857604477298 97.74499172005257 l 3.888368392546846 -0.4199665198371698 a24.910982054924503,24.910982054924503 0 0,0 0.04237580386096785,0.4267185618732886 l -3.8950213220900425 0.3529724272594463" fill="#ff3204" stroke="none" /><path d="M 120.91429891909075 98.10471618934814 l 1.8332935013856217 -0.16613569055273394 a22.84080583709912,22.84080583709912 0 0,0 0.03211364677709756,0.3918678315650653 l -1.835881631982214 0.13455394177989985" fill="#ff1502" stroke="none" /><path d="M 120.94382443527127 98.46500227214037 l 3.2521494898722114 -0.23835389248234276 a24.260872411263215,24.260872411263215 0 0,0 0.026940438397520902,0.41675665788937205 l -3.255770519274148 0.18233817033993546" fill="#ff2904" stroke="none" /><path d="M 120.96714384426684 98.82574320788733 l 3.04537237014636 -0.17055490326759198 a24.050144561800224,24.050144561800224 0 0,0 0.019591009281676137,0.4135352421608249 l -3.047856987661533 0.11810855448376731" fill="#ff2603" stroke="none" /><path d="M 120.98425023603335 99.18683210126433 l 2.8884466688532453 -0.11193119038812156 a23.890614597311636,23.890614597311636 0 0,0 0.0123870624465693,0.41106629763679897 l -2.8899454257554598 0.06219474532632351" fill="#ff2303" stroke="none" /><line stroke="#e1ed5e" stroke-width="0.3" x1="184.98032266829074" x2="189.97916517819016" y1="98.17113171792111" y2="98.06355123074" /><path d="M 185.9800911702706 98.14961562048488 a86.0,86.0 0 0,1 -9.607161424134198,41.387399972396054" fill="none" id="id52" stroke="none" /><text fill="#e1ed5e" style="font-size:6.75px; font-family:Arial;" text-anchor="middle"><textPath startOffset="21.466115282336823" xlink:href="#id52">April</textPath></text><path d="M 120.99513854157772 99.54816195383933 l 1.833675780864841 -0.03946268230034957 a22.834100371469518,22.834100371469518 0 0,0 0.0050745992336674725,0.3930333030521119 l -1.834083387216224 0.007893121187774944" fill="#ff1402" stroke="none" /><path d="M 120.99980553446 99.90962569577887 l 1.1033489450165228 -0.004748348409958277 a22.103359162413444,22.103359162413444 0 0,0 -0.0016374407504788095,0.3804835636701049 l -1.103267206976541 -0.014244693463831302" fill="#ff0a01" stroke="none" /><path d="M 120.99824983174949 100.27111621757518 l 0.4847459804394758 0.006258735740100287 a21.484786383188816,21.484786383188816 0 0,0 -0.007957491510211809,0.369753362117062 l -0.48456642624425655 -0.014601913647277134" fill="#ff0100" stroke="none" /><path d="M 120.9904718944345 100.63252640178507 l 1.1566944803866916 0.03485580511592193 a22.15721953323789,22.15721953323789 0 0,0 -0.014769229305380454,0.3811281827767251 l -1.155923118230108 -0.05476123490665322" fill="#ff0b01" stroke="none" /><path d="M 120.9764740272857 100.99374915477107 l 3.326844729137183 0.15760747651555806 a24.33057592143483,24.33057592143483 0 0,0 -0.023419510684772004,0.41817109561400706 l -3.3236388675648816 -0.21485028846498846" fill="#ff2a04" stroke="none" /><path d="M 120.95626037817324 101.35467743843564 l 2.4489630654721073 0.15830854133749034 a23.454074507896397,23.454074507896397 0 0,0 -0.02951130294484065,0.40265828184299735 l -2.445875203862929 -0.20043995967725797" fill="#ff1d03" stroke="none" /><path d="M 120.92983693683757 101.71520430193887 l 3.39670437196521 0.2783605992149499 a24.408091139292328,24.408091139292328 0 0,0 -0.037920182263112015,0.41844605143561725 l -3.3914095934250224 -0.3367880391991377" fill="#ff2b04" stroke="none" /><path d="M 120.89721153311464 102.0752229133903 l 0.9237668932321157 0.09173579070245133 a21.928310685238255,21.928310685238255 0 0,0 -0.04053364537004005,0.375291215006079 l -0.9220509463610238 -0.10762332759332173" fill="#ff0701" stroke="none" /><path d="M 120.8583938346157 102.4346265915055 l 11.161193857571535 1.3027532020943957 a32.23696641589089,32.23696641589089 0 0,0 -0.06907689691310161,0.5506108337625512 l -11.137115451411585 -1.4946817901443419" fill="#ff950d" stroke="none" /><path d="M 120.81339534386255 102.79330883721812 l 2.782161801140072 0.37338632247654235 a23.807105561523386,23.807105561523386 0 0,0 -0.05800538802872819,0.4056895487729297 l -2.7753223620947423 -0.42122134322988136" fill="#ff2203" stroke="none" /><path d="M 120.76222939487914 103.15116336523771 l 4.514454469779723 0.6851761084342973 a25.566154340282782,25.566154340282782 0 0,0 -0.06978129116731145,0.4345281667102925 l -4.501991424251123 -0.7627835048377947" fill="#ff3b05" stroke="none" /><path d="M 120.70491114924044 103.5080841355445 l 1.8497527840831496 0.3134081740195934 a22.87611568027285,22.87611568027285 0 0,0 -0.06912242501778965,0.38767526793651974 l -1.8440839167261713 -0.3452021926893315" fill="#ff1502" stroke="none" /><path d="M 120.64145759157962 103.86396538481128 l 3.3901360682722146 0.6346145062424149 a24.44902277941644,24.44902277941644 0 0,0 -0.08099619778302458,0.4129978675048143 l -3.3787099375135257 -0.6928761008151741" fill="#ff2b04" stroke="none" /><path d="M 120.5718875245553 104.21870165774334 l 1.5545079989147852 0.31878482050658824 a22.586858179068145,22.586858179068145 0 0,0 -0.08138363506256506,0.3801972490051172 l -1.548790325127777 -0.34549588892787453" fill="#ff1101" stroke="none" /><path d="M 120.49622156327973 104.57218783832717 l 5.204306890357585 1.1609490362675228 a26.33222400821964,26.33222400821964 0 0,0 -0.10249433753437062,0.441542923572035 l -5.183551986892661 -1.2503606171881227" fill="#ff4606" stroke="none" /><path d="M 120.41448212921028 104.9243191809786 l 10.689083303064395 2.5783881071880175 a31.995662194299108,31.995662194299108 0 0,0 -0.13375510153793943,0.5342851424564725 l -10.643116887231395 -2.7620010890418856" fill="#ff920d" stroke="none" /><path d="M 120.32669344350535 105.2749913415812 l 2.278558300861255 0.5913099118524591 a23.354033844760668,23.354033844760668 0 0,0 -0.1043279447693447,0.3882430934348124 l -2.268042279750133 -0.6304439384628197" fill="#ff1c02" stroke="none" /><path d="M 120.23288151984713 105.62410040840565 l 2.9891815859121107 0.8308978314154631 a24.102514747717883,24.102514747717883 0 0,0 -0.11455278292302966,0.3987732652683402 l -2.974436166102982 -0.8822285721883854" fill="#ff2603" stroke="none" /><path d="M 120.13307415673323 105.97154293290107 l 0.4692409072011476 0.13917855770118356 a21.489446319747874,21.489446319747874 0 0,0 -0.10823848068075911,0.35372961750130005 l -0.4667756540142558 -0.14723514775454077" fill="#ff0100" stroke="none" /><path d="M 120.02730092923936 106.31721596034902 l 1.350256000166068 0.42591154868765824 a22.415836118090645,22.415836118090645 0 0,0 -0.11923917115907688,0.3669804340627158 l -1.342724577990744 -0.44909088272816927" fill="#ff0e01" stroke="none" /><path d="M 119.9155931802556 106.66101706037122 l 1.2874578058002966 0.43060622555023553 a22.357560062464543,22.357560062464543 0 0,0 -0.1252120981468221,0.36392496769861277 l -1.2798548767102438 -0.45270389633814867" fill="#ff0e01" stroke="none" /><path d="M 119.67450827220406 107.3425965602758 l 1.2493335355798918 0.46625572512763247 a22.333502412573313,22.333502412573313 0 0,0 -0.1375166485075213,0.3590125754552322 l -1.241122607478864 -0.4876918674160085" fill="#ff0d01" stroke="none" /><path d="M 119.54520255179757 107.68017299344265 l 2.821066020033094 1.1085213879138982 a24.031044895221434,24.031044895221434 0 0,0 -0.15459673057179285,0.3836964068935941 l -2.8015666752039086 -1.1569171626503059" fill="#ff2503" stroke="none" /><path d="M 119.41010516605496 108.01547362559984 l 1.6153237241653517 0.6670538153753153 a22.747635982250934,22.747635982250934 0 0,0 -0.15257058134736057,0.36063178568401616 l -1.6036021616256821 -0.6947601267254949" fill="#ff1302" stroke="none" /><line stroke="#e1ed5e" stroke-width="0.3" x1="174.80103733775053" x2="179.2010983576182" y1="140.37084112569926" y2="142.7455964860345" /><path d="M 175.68104954172406 140.8457921977663 a86.0,86.0 0 0,1 -30.038265399797805,32.042727171017184" fill="none" id="id53" stroke="none" /><text fill="#e1ed5e" style="font-size:6.75px; font-family:Arial;" text-anchor="middle"><textPath startOffset="22.206326154141568" xlink:href="#id53">May</textPath></text><path d="M 117.94076556474637 110.91462005526583 l 0.5214534534184802 0.31723653597886076 a21.61037097231268,21.61037097231268 0 0,0 -0.196073324767552,0.3161326306310408 l -0.5159154889829654 -0.3261654979751751" fill="#ff0300" stroke="none" /><path d="M 117.75023020441432 111.22182372390056 l 2.384142344640538 1.507272008088632 a23.820638868390567,23.820638868390567 0 0,0 -0.22209358293726078,0.34469417277025605 l -2.357843898326227 -1.548087780780341" fill="#ff2203" stroke="none" /><path d="M 117.55443506779139 111.5257021239791 l 3.0968344548721247 2.0332862502434295 a24.70467766699238,24.70467766699238 0 0,0 -0.23645540442355148,0.35346874692263897 l -3.0613759450378524 -2.0862919113718754" fill="#ff2f04" stroke="none" /><path d="M 117.35343817320211 111.8261652097733 l 0.9145062240826194 0.6232252988383673 a22.1066758364571,22.1066758364571 0 0,0 -0.21700238583752335,0.31260812160166734 l -0.9036429310829598 -0.6388746826270543" fill="#ff0a01" stroke="none" /><path d="M 117.14729908036423 112.12312394758627 l 2.472718589168298 1.748209662845116 a24.028295600908784,24.028295600908784 0 0,0 -0.24167912312782586,0.3356711641710979 l -2.442259673664869 -1.7905144324673452" fill="#ff2503" stroke="none" /><path d="M 116.93607887273984 112.41649034213515 l 0.9053294331783953 0.6637318028557166 a22.122569057430862,22.122569057430862 0 0,0 -0.22779791954424766,0.30517253943349876 l -0.8937702469390556 -0.6792172217985304" fill="#ff0a01" stroke="none" /><path d="M 116.71984013943494 112.70617746262583 l 0.3856502425430926 0.2930734013837786 a21.48437395488631,21.48437395488631 0 0,0 -0.22629509786469224,0.2925169188762897 l -0.3805483274603319 -0.299668314373321" fill="#ff0100" stroke="none" /><path d="M 116.498646956653 112.99209946851258 l 1.111392688556127 0.8751823344202312 a22.41461578764598,22.41461578764598 0 0,0 -0.24131157798853514,0.3010732968920217 l -1.0961631985127378 -0.8941834648905032" fill="#ff0e01" stroke="none" /><path d="M 116.27256486870786 113.27417163493432 l 6.659287262657756 5.4322427228935215 a29.593914582250946,29.593914582250946 0 0,0 -0.325397774088121,0.39196258090427305 l -6.564793488676092 -5.546066560911565" fill="#ff720a" stroke="none" /><path d="M 116.0416608686014 113.55231037782055 l 0.9114512014059151 0.7700118882245971 a22.193172913098305,22.193172913098305 0 0,0 -0.2490470206363103,0.28969794941658616 l -0.8980616711988261 -0.7855869368027113" fill="#ff0b01" stroke="none" /><path d="M 115.80600337817218 113.82643327865902 l 1.258051481173995 1.10049102542846 a22.671458652295254,22.671458652295254 0 0,0 -0.25947068822108454,0.2915180688462687 l -1.2389219433045722 -1.1219832640155951" fill="#ff1202" stroke="none" /><path d="M 115.56566222782051 114.09645910891815 l 3.312046634169433 2.999431007949904 a25.46835979732658,25.46835979732658 0 0,0 -0.2970745816577377,0.32241578544701915 l -3.2599256445159734 -3.0559980481982576" fill="#ff3a05" stroke="none" /><path d="M 115.32070863581623 114.36230785411682 l 2.499773549165859 2.3433979545023527 a24.426424049979087,24.426424049979087 0 0,0 -0.2902015606528135,0.3042751761339249 l -2.4590654371340808 -2.3860802472187848" fill="#ff2b04" stroke="none" /><path d="M 115.07121518719521 114.62390073753431 l 2.5312636626943004 2.4561356256938933 a24.527023949717282,24.527023949717282 0 0,0 -0.2966127462627671,0.30046714597279406 l -2.488610291375998 -2.499343265647352" fill="#ff2c04" stroke="none" /><path d="M 114.81725581225074 114.88116024355365 l 1.4444009205728097 1.4506303884697125 a23.04710100955067,23.04710100955067 0 0,0 -0.283534268734157,0.27749795800942734 l -1.4192166994628586 -1.4752784494017117" fill="#ff1702" stroke="none" /><path d="M 114.55890576462653 115.13401014063108 l 1.0101283147390314 1.0500302980009868 a22.457025339161113,22.457025339161113 0 0,0 -0.28088837251310683,0.26559748837937125 l -0.9919041078351168 -1.0672624231262795" fill="#ff0f01" stroke="none" /><path d="M 114.29624159901734 115.38237550388516 l 2.06050573988857 2.217049341209742 a24.02671301670183,24.02671301670183 0 0,0 -0.30536859661848015,0.2789469727914385 l -2.022037593803226 -2.2521890805877636" fill="#ff2503" stroke="none" /><path d="M 114.0293411484842 115.62618273729858 l 1.222858825913276 1.3620465332902552 a22.830451984336655,22.830451984336655 0 0,0 -0.29468421890254376,0.2600245608348693 l -1.1992322541041445 -1.3828942358974132" fill="#ff1402" stroke="none" /><path d="M 113.75828350139079 115.86535959552629 l 1.3450001049508702 1.5509863798713737 a23.052945209416063,23.052945209416063 0 0,0 -0.30203148065181573,0.2573977802445156 l -1.3181031477220073 -1.5739085503388361" fill="#ff1802" stroke="none" /><path d="M 113.48314897796784 116.09983520530334 l 1.4331706389254768 1.7113072877473408 a23.232162788278494,23.232162788278494 0 0,0 -0.30879955298671363,0.25412100914153307 l -1.403500957394072 -1.7357234157460524" fill="#ff1a02" stroke="none" /><path d="M 113.20401910651253 116.32954008644616 l 2.2121962309372663 2.7358448015542427 a24.51833184085362,24.51833184085362 0 0,0 -0.33046333898205776,0.2625400626750594 l -2.1647753992378576 -2.7735187782344277" fill="#ff2c04" stroke="none" /><path d="M 112.92097659922987 116.55440617244103 l 1.2748126697571063 1.6332950196807032 a23.0719073252168,23.0719073252168 0 0,0 -0.3151746376412009,0.24166247240726557 l -1.2465093036224115 -1.6549968339153402" fill="#ff1802" stroke="none" /><path d="M 112.63410532772338 116.77436683061366 l 0.4409007604588792 0.5853862145351031 a21.732850940328902,21.732850940328902 0 0,0 -0.3007568151863151,0.22249270179486996 l -0.43075897485399983 -0.592888865069742" fill="#ff0500" stroke="none" /><path d="M 112.04921762599082 117.19931262002967 l 7.200481271253976 10.278121969664568 a33.54937136915554,33.54937136915554 0 0,0 -0.47583091845395853,0.3272808445705959 l -7.022493468177133 -10.400543603600257" fill="#ffa60f" stroke="none" /><path d="M 111.7513745106137 117.40417183066458 l 1.2471009248753715 1.846997452690168 a23.228600526579175,23.228600526579175 0 0,0 -0.3333030976914523,0.22089511868748116 l -1.215123128443955 -1.8681905924689677" fill="#ff1a02" stroke="none" /><path d="M 111.45004920935366 117.60387380957326 l 1.5329277883233914 2.356799246136732 a23.81147119686557,23.81147119686557 0 0,0 -0.34551374255810935,0.22052321791751542 l -1.4921322437183515 -2.382836892878056" fill="#ff2203" stroke="none" /><line stroke="#e1ed5e" stroke-width="0.3" x1="143.8653032363475" x2="146.44561519142675" y1="172.8068346515853" y2="177.08958963109032" /><path d="M 144.38136562736335 173.6633856474863 a86.0,86.0 0 0,1 -40.68145358897372,12.25698825130547" fill="none" id="id54" stroke="none" /><text fill="#e1ed5e" style="font-size:6.75px; font-family:Arial;" text-anchor="middle"><textPath startOffset="21.466115282336833" xlink:href="#id54">June</textPath></text><path d="M 110.8373102113329 117.98757091392108 l 0.5860502868489023 0.9727156359144098 a22.135619058957737,22.135619058957737 0 0,0 -0.3280626593249589,0.1938252017010875 l -0.5692197564955612 -0.9826594099092468" fill="#ff0a01" stroke="none" /><path d="M 110.5260780823613 118.17145234162733 l 0.5387881056062672 0.9301244306429903 a22.074906544412926,22.074906544412926 0 0,0 -0.3304416234445474,0.1876333777884355 l -0.5226977152405208 -0.9392609742260543" fill="#ff0a01" stroke="none" /><path d="M 109.89434966115114 118.52300852407294 l 2.750010664661176 5.148238411546503 a26.83668719376609,26.83668719376609 0 0,0 -0.4093350025816176,0.21414472698372675 l -2.6609847595530627 -5.194812557474946" fill="#ff4d07" stroke="none" /><path d="M 109.57404056367764 118.69057910512821 l 1.4007572951800245 2.7345784529025323 a24.072464859860705,24.072464859860705 0 0,0 -0.370424902471812,0.18573873599419927 l -1.353478485025452 -2.7582850298060335" fill="#ff2603" stroke="none" /><path d="M 109.2508944713604 118.85261126421891 l 0.9147717746712823 1.864234503674026 a23.076578359808266,23.076578359808266 0 0,0 -0.35811259777911814,0.17191580940070478 l -0.8825465088919314 -1.8797045895742908" fill="#ff1802" stroke="none" /><path d="M 108.92500713936063 119.00905698771935 l 0.7375933051731571 1.5709738886327937 a22.73551227094547,22.73551227094547 0 0,0 -0.3556830196965783,0.1632766291922328 l -0.7104422897091595 -1.583437588159101" fill="#ff1302" stroke="none" /><path d="M 108.59647513512805 119.15986991738527 l 1.0506472124953126 2.3416881459023475 a23.566585852408554,23.566585852408554 0 0,0 -0.3715433021255023,0.16287366500066205 l -1.0101832357120564 -2.359426364197464" fill="#ff1f03" stroke="none" /><path d="M 108.2653958097858 119.30500536409082 l 0.20276674982186965 0.4735905313011135 a21.51517215197582,21.51517215197582 0 0,0 -0.3417106650718745,0.14283508571359904 l -0.1945846252525341 -0.47701066003468573" fill="#ff0100" stroke="none" /><path d="M 107.93186726928326 119.44442032107085 l 0.6201278625315491 1.5202002759887667 a22.641818334958003,22.641818334958003 0 0,0 -0.3621385513714875,0.14410240327865065 l -0.5938682351181953 -1.5306495236734863" fill="#ff1202" stroke="none" /><path d="M 107.59598834532513 119.57807347666477 l 0.5572872800523537 1.436364936393098 a22.540685997537363,22.540685997537363 0 0,0 -0.3629370085837749,0.13723172136105305 l -0.532480050708304 -1.4457449078607818" fill="#ff1001" stroke="none" /><path d="M 107.2578585660854 119.70592522655815 l 0.428578186205824 1.1636393316577207 a22.240054739062877,22.240054739062877 0 0,0 -0.3603740761060507,0.12921732219614046 l -0.4084845494700385 -1.1708441948938213" fill="#ff0c01" stroke="none" /><path d="M 106.91757812671514 119.82793768551818 l 0.5844102011027089 1.6751020137373052 a22.774120074735553,22.774120074735553 0 0,0 -0.37125098130018486,0.12594848959539437 l -0.5554894868652971 -1.6849134902308225" fill="#ff1402" stroke="none" /><path d="M 106.2309692047433 120.05430185196036 l 0.36675684335526093 1.180402630993511 a22.236066726922264,22.236066726922264 0 0,0 -0.3664980554383032,0.11042285767416882 l -0.3463838134767118 -1.1865408577734053" fill="#ff0c01" stroke="none" /><path d="M 105.88484417918355 120.15858648285463 l 0.1725907959270775 0.5912113184147894 a21.615888306319007,21.615888306319007 0 0,0 -0.35807113407145263,0.10119447916447703 l -0.1623884937510191 -0.5940945909177854" fill="#ff0300" stroke="none" /><path d="M 105.18746579009965 120.34920634021253 l 0.5320295353273053 2.087026542734028 a23.15377232235372,23.15377232235372 0 0,0 -0.38705027236027745,0.09512754005981522 l -0.4960259782238168 -2.0958753411078734" fill="#ff1902" stroke="none" /><path d="M 104.83641907484287 120.43548508189849 l 0.4368648217285282 1.84589970577139 a22.896891297947988,22.896891297947988 0 0,0 -0.3843187059080278,0.0874696862303848 l -0.40502596642763833 -1.8531461255794592" fill="#ff1502" stroke="none" /><path d="M 104.48393922423573 120.51570834832081 l 0.26253282799389804 1.2011864259602492 a22.22954150628827,22.22954150628827 0 0,0 -0.3745238854016589,0.07848512161344716 l -0.24181748116286114 -1.2055275283002373" fill="#ff0c01" stroke="none" /><path d="M 103.7750983002368 120.6578951692458 l 0.40346031384339737 2.2077943951300782 a23.244356548326135,23.244356548326135 0 0,0 -0.3942143567693687,0.06853921899223393 l -0.3653969856019787 -2.2144121926433185" fill="#ff1a02" stroke="none" /><path d="M 103.41894727170886 120.7198165907248 l 0.2497274833267987 1.5134213080766024 a22.533886525030137,22.533886525030137 0 0,0 -0.3832521962026696,0.05985611106735362 l -0.22363942351561195 -1.5174957264910618" fill="#ff1001" stroke="none" /><path d="M 103.06178313531738 120.77559828337769 l 0.0899681449063128 0.6104749925995385 a21.61706886462314,21.61706886462314 0 0,0 -0.36859306203651954,0.05108363977063122 l -0.07944649168296279 -0.6119331978627723" fill="#ff0300" stroke="none" /><path d="M 102.70371172650421 120.8252237178851 l 0.06670998501768692 0.513830801039702 a21.518143140645673,21.518143140645673 0 0,0 -0.36772721333489417,0.0445266444280464 l -0.05785534863141246 -0.5149029741930993" fill="#ff0100" stroke="none" /><path d="M 102.34483914955558 120.86867818915974 l 0.1764090952332997 1.5700115885400057 a22.57989131177779,22.57989131177779 0 0,0 -0.38661870894779293,0.040074609970966284 l -0.1493577896799041 -1.5728155669667303" fill="#ff1101" stroke="none" /><path d="M 101.98527174616119 120.90594882070398 l 0.06001820224744003 0.6320230300571485 a21.634866360050392,21.634866360050392 0 0,0 -0.37104381211783416,0.03201522138046465 l -0.04913007238806418 -0.6329625037162766" fill="#ff0300" stroke="none" /><path d="M 101.26447882468166 120.96189622390904 l 0.05793250932262344 0.9603761049278137 a21.96212184184371,21.96212184184371 0 0,0 -0.3775518108505956,0.019515116070517625 l -0.04139263005854826 -0.9612310277605332" fill="#ff0801" stroke="none" /><path d="M 100.90346689309514 120.98055641714683 l 0.03563426761979858 0.8275087531095192 a21.828275641016727,21.828275641016727 0 0,0 -0.37552913081596556,0.012933982562474192 l -0.02138478512918071 -0.8279995340980871" fill="#ff0601" stroke="none" /><line stroke="#e1ed5e" stroke-width="0.3" x1="102.19456741930631" x2="102.32365962044197" y1="184.97166512339345" y2="189.96999836594603" /><path d="M 102.22038585953345 185.97133177190398 a86.0,86.0 0 0,1 -42.740103519485714,-10.115201625700543" fill="none" id="id55" stroke="none" /><text fill="#e1ed5e" style="font-size:6.75px; font-family:Arial;" text-anchor="middle"><textPath startOffset="22.20632615414155" xlink:href="#id55">July</textPath></text><path d="M 100.18074693466247 120.99922214144158 l 0.03682006321719329 4.277763759610469 a25.277922217629957,25.277922217629957 0 0,0 -0.4351339957592945,0.0 l 0.03682006321719035 -4.277763759610469" fill="#ff3705" stroke="none" /><path d="M 99.81925306533755 120.99922214144158 l -0.011558853154792463 1.3429103268118572 a22.342960071239716,22.342960071239716 0 0,0 -0.38455459127926767,-0.006620456033053221 l 0.03467313432672807 -1.3425123934996444" fill="#ff0d01" stroke="none" /><path d="M 99.45781275523022 120.99299961872073 l -0.017213374883208912 0.6664863031101739 a21.666708551398838,21.666708551398838 0 0,0 -0.37274956408654175,-0.012838248664196823 l 0.02868329064439368 -0.6660912560198833" fill="#ff0400" stroke="none" /><path d="M 99.09653310690486 120.98055641714683 l -0.048671034117469675 1.1302521265435255 a22.13129957973926,22.13129957973926 0 0,0 -0.38046015284768625,-0.019665444131501647 l 0.06811925537864483 -1.129246875649822" fill="#ff0a01" stroke="none" /><path d="M 98.37488393609728 120.93702456842531 l -0.11335796234853761 1.4604362700214117 a22.464829043411505,22.464829043411505 0 0,0 -0.38527789671188095,-0.03324339809314339 l 0.13848017680196026 -1.4582686196496049" fill="#ff0f01" stroke="none" /><path d="M 98.01472825383883 120.90594882070398 l -0.29367484500012264 3.0925495672683043 a24.106462254816115,24.106462254816115 0 0,0 -0.4127570494280716,-0.04278395583496965 l 0.3468644910337876 -3.087036242977574" fill="#ff2703" stroke="none" /><path d="M 97.2962882734958 120.8252237178851 l -0.21816041010909545 1.6803712105734454 a22.694473773731254,22.694473773731254 0 0,0 -0.38696391411587927,-0.053629672473242664 l 0.24705291541180577 -1.676366972607598" fill="#ff1202" stroke="none" /><path d="M 96.93821686468263 120.77559828337769 l -0.26351964803500355 1.7881012813093429 a22.807414948793056,22.807414948793056 0 0,0 -0.3879043173098985,-0.060582676708599986 l 0.2942598289534192 -1.7833002972536371" fill="#ff1402" stroke="none" /><path d="M 96.58105272829116 120.7198165907248 l -0.3062668517521828 1.8560663537089883 a22.881164983156122,22.881164983156122 0 0,0 -0.388054782984227,-0.0674682981358288 l 0.33817060620845985 -1.8505194770521534" fill="#ff1502" stroke="none" /><path d="M 96.22490169976321 120.6578951692458 l -0.24375756738046161 1.333877391574172 a22.355967052478768,22.355967052478768 0 0,0 -0.3779567767237204,-0.07243631580380926 l 0.2666819586758771 -1.3294838774218944" fill="#ff0e01" stroke="none" /><path d="M 95.16358092515715 120.4354850818985 l -0.794088333627003 3.355288291693693 a24.447975609249475,24.447975609249475 0 0,0 -0.40868483487167306,-0.10044478915882532 l 0.8517264532418867 -3.3411222442208377" fill="#ff2b04" stroke="none" /><path d="M 94.46302465271185 120.25689768951611 l -0.2600696701285552 0.9514589409397607 a21.986362179736727,21.986362179736727 0 0,0 -0.36420810138542425,-0.10292884742791501 l 0.2764089396185934 -0.9468413001733244" fill="#ff0801" stroke="none" /><path d="M 94.11515582081647 120.15858648285463 l -0.15950037640661016 0.5463699690153239 a21.569175292081145,21.569175292081145 0 0,0 -0.3555062547273526,-0.10711111828707552 l 0.1688816055742086 -0.5435434816225228" fill="#ff0200" stroke="none" /><path d="M 93.76903079525671 120.05430185196036 l -0.16854335165421977 0.5424548153185871 a21.568035287679525,21.568035287679525 0 0,0 -0.3535911513273066,-0.11320872061447193 l 0.1778558480724668 -0.5394732480444085" fill="#ff0200" stroke="none" /><path d="M 93.42475214034765 119.94407469862007 l -0.19638887836645263 0.5956877282381006 a21.627226004817643,21.627226004817643 0 0,0 -0.35255495495505706,-0.11960578237517909 l 0.20661356625873553 -0.5922189589647984" fill="#ff0300" stroke="none" /><path d="M 92.7421414339146 119.70592522655815 l -1.0559003068553523 2.8668914259118874 a24.05515824565346,24.05515824565346 0 0,0 -0.3873221593894887,-0.1464520988413641 l 1.1050926870051239 -2.84829107696389" fill="#ff2603" stroke="none" /><path d="M 92.40401165467489 119.57807347666478 l -0.642075255861799 1.65489939759414 a22.775092293473058,22.775092293473058 0 0,0 -0.3642701663132905,-0.14495061685551183 l 0.6704664982169477 -1.6436019363325614" fill="#ff1402" stroke="none" /><path d="M 92.06813273071674 119.44442032107085 l -0.8331901586327606 2.0425076595235367 a23.20591100900621,23.20591100900621 0 0,0 -0.36856350618407685,-0.1540595754763301 l 0.8682251243142998 -2.0278630410272336" fill="#ff1a02" stroke="none" /><path d="M 91.7346041902142 119.30500536409082 l -0.3460562279062033 0.8082634503839234 a21.87922961625459,21.87922961625459 0 0,0 -0.3449409800170425,-0.15121198875849337 l 0.35991788258098906 -0.8021869083309778" fill="#ff0701" stroke="none" /><path d="M 91.40352486487194 119.15986991738527 l -0.23876587864871346 0.5321626717589992 a21.58327202403387,21.58327202403387 0 0,0 -0.3376569340929921,-0.15500173741529336 l 0.24789080850912498 -0.5279738640096315" fill="#ff0200" stroke="none" /><path d="M 91.07499286063937 119.00905698771935 l -0.6684457459069271 1.4236989482177165 a22.57281226164387,22.57281226164387 0 0,0 -0.3502949316037401,-0.1681628545577345 l 0.6928533455109092 -1.4119818171604195" fill="#ff1101" stroke="none" /><path d="M 90.7491055286396 118.85261126421891 l -1.0078310958102996 2.053882241130923 a23.287827742229553,23.287827742229553 0 0,0 -0.35835097778373726,-0.17968461950503367 l 1.0430359812767973 -2.036229780716587" fill="#ff1b02" stroke="none" /><path d="M 90.42595943632237 118.69057910512821 l -1.08955318956837 2.1270413409497717 a23.3898600417196,23.3898600417196 0 0,0 -0.35676118857118044,-0.1866405922853669 l 1.126005280666046 -2.107971329719688" fill="#ff1c02" stroke="none" /><path d="M 90.10565033884886 118.52300852407294 l -0.24445111950559034 0.4576319137072445 a21.51882879475882,21.51882879475882 0 0,0 -0.32521835117908027,-0.17733497552924501 l 0.25229228255331115 -0.45335628641823367" fill="#ff0200" stroke="none" /><line stroke="#e1ed5e" stroke-width="0.3" x1="58.666819895761336" x2="56.23545636021788" y1="174.27360380694188" y2="178.64263932499728" /><path d="M 58.180547188652646 175.14741091055294 a86.0,86.0 0 0,1 -31.652253787137756,-30.449443065178592" fill="none" id="id56" stroke="none" /><text fill="#e1ed5e" style="font-size:6.75px; font-family:Arial;" text-anchor="middle"><textPath startOffset="22.20632615414155" xlink:href="#id56">August</textPath></text><path d="M 89.7882731507175 118.34994917583269 l -0.5549911549681831 0.9972906284130004 a22.141316686819795,22.141316686819795 0 0,0 -0.33143572392808823,-0.18819785398741887 l 0.5720756458174786 -0.9875896086309484" fill="#ff0a01" stroke="none" /><path d="M 89.4739219176387 118.17145234162733 l -0.28435846858802033 0.49089568968181146 a21.567307955881024,21.567307955881024 0 0,0 -0.31963996053787447,-0.18884892279560844 l 0.2927663001542769 -0.4859281945924535" fill="#ff0200" stroke="none" /><path d="M 89.1626897886671 117.98757091392108 l -0.8364120052580432 1.3882614748907849 a22.620757528196528,22.620757528196528 0 0,0 -0.33179351580820693,-0.20381467682921772 l 0.8601847209985588 -1.373658331233189" fill="#ff1101" stroke="none" /><path d="M 87.95078237400918 117.19931262002967 l -0.322594461256583 0.4604782784131822 a21.56223432065625,21.56223432065625 0 0,0 -0.30215125290895023,-0.21557689633720437 l 0.3304730420144201 -0.4548571202317585" fill="#ff0200" stroke="none" /><path d="M 86.24171649860922 115.8653595955263 l -3.5757840874671385 4.12341411469623 a26.457909471717105,26.457909471717105 0 0,0 -0.341505651829245,-0.3013390315580238 l 3.6462320922029714 -4.061251941365917" fill="#ff4706" stroke="none" /><path d="M 85.70375840098266 115.38237550388516 l -0.4043114143186019 0.4350283221279019 a21.59390012695884,21.59390012695884 0 0,0 -0.27009255995693693,-0.25538937376686777 l 0.41173980866635573 -0.42800431161510333" fill="#ff0300" stroke="none" /><path d="M 84.19399662182784 113.82643327865904 l -0.37109248534646283 0.3246162465041791 a21.493036854783774,21.493036854783774 0 0,0 -0.24119024413814794,-0.28055874335530795 l 0.3766252390553895 -0.3181804039873408" fill="#ff0100" stroke="none" /><path d="M 83.72743513129214 113.27417163493432 l -1.8025115532445772 1.470379618994908 a23.326169409895975,23.326169409895975 0 0,0 -0.2511251944738721,-0.3133172923699946 l 1.82755465977331 -1.4391344930466539" fill="#ff1b02" stroke="none" /><path d="M 83.50135304334701 112.99209946851258 l -1.87449536865507 1.4760986368650288 a23.385917029752733,23.385917029752733 0 0,0 -0.2463240676231039,-0.31840706222133075 l 1.8996262534962423 -1.4436135805304453" fill="#ff1c02" stroke="none" /><path d="M 83.06392112726016 112.41649034213515 l -0.3344691468624458 0.24521218653771526 a21.414727171318084,21.414727171318084 0 0,0 -0.2153915771116917,-0.2991600619284349 l 0.33864051634974496 -0.2394185191581422" fill="#ff0000" stroke="none" /><path d="M 82.85270091963577 112.12312394758628 l -1.8257160482616428 1.2907794890869293 a23.235922802407906,23.235922802407906 0 0,0 -0.22808724036852637,-0.32857668130109835 l 1.847664195792303 -1.2591615455988185" fill="#ff1a02" stroke="none" /><path d="M 82.6465618267979 111.8261652097733 l -0.4044631678845955 0.2756369197233774 a21.489454967989737,21.489454967989737 0 0,0 -0.20568160547532807,-0.30746609293891664 l 0.409147878770654 -0.26863391257863994" fill="#ff0100" stroke="none" /><path d="M 82.05923443525364 110.91462005526583 l -0.40507775294141934 0.2464370737269002 a21.474151048965567,21.474151048965567 0 0,0 -0.1894011167815856,-0.31744716605782103 l 0.40925974542123683 -0.2394278137829681" fill="#ff0100" stroke="none" /><line stroke="#e1ed5e" stroke-width="0.3" x1="26.63291911575756" x2="22.317208475507996" y1="142.92168965132927" y2="145.44649492493687" /><path d="M 25.769776987707644 143.4266507060508 a86.0,86.0 0 0,1 -11.730757126820373,-40.83630448921669" fill="none" id="id57" stroke="none" /><text fill="#e1ed5e" style="font-size:6.75px; font-family:Arial;" text-anchor="middle"><textPath startOffset="21.46611528233685" xlink:href="#id57">September</textPath></text><path d="M 81.87401531095188 110.60418214915194 l -2.6535701422737383 1.5524089651925796 a24.07431424795465,24.07431424795465 0 0,0 -0.20617701721404894,-0.35948700822519886 l 2.6798991556401646 -1.5065021111090737" fill="#ff2603" stroke="none" /><path d="M 81.69416730710424 110.29060199501025 l -0.6718279315410534 0.37766726969503067 a21.77070444153231,21.77070444153231 0 0,0 -0.18082497321247054,-0.3282498505445999 l 0.6782293142050404 -0.36604690075260826" fill="#ff0500" stroke="none" /><path d="M 81.51974371655577 109.97397251340807 l -1.1096604314354832 0.5988944348282227 a22.26096027580642,22.26096027580642 0 0,0 -0.17909206681442583,-0.3387746978053304 l 1.119805006474795 -0.5797047219367661" fill="#ff0c01" stroke="none" /><path d="M 81.35079622478065 109.6543875284942 l -0.7919247906691178 0.4099665012347896 a21.891749632021803,21.891749632021803 0 0,0 -0.17036089740814328,-0.33613821272879646 l 0.7988643578635278 -0.3962740768033081" fill="#ff0701" stroke="none" /><path d="M 81.18737489456691 109.33194174019688 l -0.967981800174335 0.4801642362069406 a22.08053063778911,22.08053063778911 0 0,0 -0.16596856444733016,-0.34194440102647206 l 0.9761036212363841 -0.4634308792151838" fill="#ff0a01" stroke="none" /><path d="M 81.02952815118164 109.00673069616217 l -2.8009078762349984 1.3298047168805387 a24.10055890384185,24.10055890384185 0 0,0 -0.174700800643412,-0.37628998247306333 l 2.823383293718237 -1.2813946671286482" fill="#ff2603" stroke="none" /><path d="M 80.87730276802145 108.67885076344099 l -2.057869660007059 0.933965719017266 a23.259893692605253,23.259893692605253 0 0,0 -0.16233070423114146,-0.3660128839868789 l 2.07364144896948 -0.8984044985376912" fill="#ff1b02" stroke="none" /><path d="M 80.73074385275274 108.34839909993369 l -1.510861805796304 0.6545803970453702 a22.646565787452825,22.646565787452825 0 0,0 -0.15189269383460044,-0.35902945984858436 l 1.521905480823211 -0.6284764115306269" fill="#ff1202" stroke="none" /><path d="M 80.58989483394504 108.01547362559985 l -8.299549365969485 3.4273291400622177 a29.97937106441671,29.97937106441671 0 0,0 -0.19286355509573386,-0.47867152712257294 l 8.357315535322606 -3.2839582450968394" fill="#ff770b" stroke="none" /><path d="M 80.32549172779594 107.34259656027581 l -0.48326436816537904 0.1803559834025504 a21.515822382499426,21.515822382499426 0 0,0 -0.1265086699409262,-0.3480975263656797 l 0.48629729911152964 -0.17201066003075358" fill="#ff0100" stroke="none" /><path d="M 80.20201598880116 107.00284435728193 l -0.9954632927097583 0.3521103208433038 a22.055901910774352,22.055901910774352 0 0,0 -0.12352268078684911,-0.3590147300517909 l 1.001376804439836 -0.334922887702216" fill="#ff0901" stroke="none" /><path d="M 80.0844068197444 106.66101706037122 l -1.1114106962604045 0.3717250870643965 a22.1719271633148,22.1719271633148 0 0,0 -0.11794171781169395,-0.3629872832552214 l 1.1176446650883476 -0.3525389038313717" fill="#ff0b01" stroke="none" /><path d="M 79.86692584326677 105.97154293290107 l -2.05226286660947 0.6087086215523879 a23.1406328642755,23.1406328642755 0 0,0 -0.10998121652238564,-0.38285904289453293 l 2.06243672001796 -0.573292103153259" fill="#ff1902" stroke="none" /><path d="M 79.67330655649465 105.27499134158121 l -2.180190132648744 0.5657823346766455 a23.252407304359295,23.252407304359295 0 0,0 -0.09720467984408017,-0.38828437660150195 l 2.189606126787883 -0.5281701186777517" fill="#ff1a02" stroke="none" /><path d="M 79.58551787078972 104.9243191809786 l -2.498570698274946 0.6026976112679071 a23.570233441714233,23.570233441714233 0 0,0 -0.0917436924957345,-0.3952294261161128 l 2.5085749567012354 -0.55959952780322" fill="#ff1f03" stroke="none" /><path d="M 79.50377843672027 104.57218783832718 l -1.9597698396828511 0.4371750080498503 a23.00793919534281,23.00793919534281 0 0,0 -0.08290084934215385,-0.3872851690127082 l 1.9670047277494456 -0.40337601962097835" fill="#ff1702" stroke="none" /><path d="M 79.4281124754447 104.21870165774334 l -0.7418489167958794 0.15213184747127537 a21.757287207317173,21.757287207317173 0 0,0 -0.07207885377527289,-0.3675285225255123 l 0.7443577035468187 -0.1393395978778082" fill="#ff0500" stroke="none" /><path d="M 79.23777060512086 103.15116336523772 l -0.45367573832861663 0.06885611073495385 a21.45887126684241,21.45887126684241 0 0,0 -0.05228397678479182,-0.365674011858535 l 0.45479376613000744 -0.06103662689601828" fill="#ff0100" stroke="none" /><path d="M 79.1416061653843 102.43462659150553 l -3.7120556867826875 0.4332773441640681 a24.737256571168423,24.737256571168423 0 0,0 -0.04572587463193995,-0.4233648094360845 l 3.7189638629156794 -0.3693162128432015" fill="#ff2f04" stroke="none" /><path d="M 79.10278846688536 102.07522291339032 l -1.0884826761746513 0.10809309112110875 a22.09383666636315,22.09383666636315 0 0,0 -0.03432477814421208,-0.37877106658375415 l 1.0901820505959388 -0.08934063598878844" fill="#ff0a01" stroke="none" /><path d="M 79.07016306316243 101.71520430193888 l -1.100500090992163 0.09018620145251331 a22.104189295911798,22.104189295911798 0 0,0 -0.027812797577759618,-0.37948352557795034 l 1.101889447234258 -0.07122953937780233" fill="#ff0a01" stroke="none" /><path d="M 79.04373962182676 101.35467743843564 l -0.5263303110660131 0.03402361798809135 a21.527428860537462,21.527428860537462 0 0,0 -0.02072132825145376,-0.3699932357307025 l 0.5268379902049986 -0.02495866592195125" fill="#ff0200" stroke="none" /><path d="M 79.0235259727143 100.99374915477108 l -62.92942208185711 2.9812474643132365 a84.0,84.0 0 0,0 -0.05599146859519655,-1.4448910119440128 l 62.97141568330351 -1.8975792053552267" fill="#4dd2ff" stroke="none" /><path d="M 79.0095281055655 100.63252640178507 l -0.5768679629637471 0.017383326051630694 a21.577129817908034,21.577129817908034 0 0,0 -0.007991693483864056,-0.3713425934385927 l 0.5770817191326186 -0.0074509168229091715" fill="#ff0200" stroke="none" /><line stroke="#e1ed5e" stroke-width="0.3" x1="15.007084014347285" x2="10.007500721073583" y1="101.09737516637583" y2="101.16192664675087" /><path d="M 14.007167355692545 101.11028546245083 a86.0,86.0 0 0,1 10.666146001902534,-42.60595125391555" fill="none" id="id58" stroke="none" /><text fill="#e1ed5e" style="font-size:6.75px; font-family:Arial;" text-anchor="middle"><textPath startOffset="22.20632615414155" xlink:href="#id58">October</textPath></text><path d="M 79.00019446554 99.90962569577889 l -3.0694171082124773 -0.013209476395574574 a24.069445532087855,24.069445532087855 0 0,0 0.00534913957041844,-0.41429675468753 l 3.0687349615243433 0.06604248914357655" fill="#ff2603" stroke="none" /><path d="M 79.00486145842228 99.54816195383935 l -1.6673233481494592 -0.03588259836694889 a22.66770941957821,22.66770941957821 0 0,0 0.01175299743576286,-0.39002476679948855 l 1.6664586562580512 0.06457751259143187" fill="#ff1202" stroke="none" /><path d="M 79.12142395522702 97.74499172005258 l -1.1948883380655797 -0.12905492645534467 a22.201837474239973,22.201837474239973 0 0,0 0.04430815101033754,-0.37960517932474275 l 1.1924898340516532 0.1496038441049492" fill="#ff0b01" stroke="none" /><path d="M 79.16333360222342 97.38593545837743 l -1.0185301467128458 -0.12777972686551167 a22.026514158870064,22.026514158870064 0 0,0 0.05043442512227352,-0.3757950481607724 l 1.0161797225327382 0.1452931170909435" fill="#ff0901" stroke="none" /><path d="M 79.21141760316559 97.0276538004421 l -0.5253359868375136 -0.07511240517320021 a21.530678596211914,21.530678596211914 0 0,0 0.05561487733795495,-0.366432554337463 l 0.5239652160602564 0.08414407190275529" fill="#ff0200" stroke="none" /><path d="M 79.26566170972629 96.67025291283419 l -0.5018666099932854 -0.08059523575704436 a21.50829684855691,21.50829684855691 0 0,0 0.06184980993118121,-0.3650410793308368 l 0.5004049385418812 0.08922210340370912" fill="#ff0100" stroke="none" /><path d="M 79.32604984820605 96.31383870115002 l -0.5491737149942638 -0.09791756677820315 a21.557834759695346,21.557834759695346 0 0,0 0.06828113205295039,-0.36476053774091083 l 0.5474068590314518 0.10735618198168669" fill="#ff0200" stroke="none" /><path d="M 79.3925641242962 95.95851677861259 l -2.1196628980883276 -0.41570344264525416 a23.160041701856546,23.160041701856546 0 0,0 0.08009040642985284,-0.3905492652808659 l 2.11219319574348 0.45212836408952256" fill="#ff1902" stroke="none" /><path d="M 79.62865764111835 94.90015583598534 l -2.4926927437605384 -0.6240307741137358 a23.569616999055974,23.569616999055974 0 0,0 0.1019146514250591,-0.3927187255435213 l 2.481581760465172 0.6668459252061208" fill="#ff1f03" stroke="none" /><path d="M 80.02781315780177 93.51064311812611 l -0.7875234682912443 -0.2558818860934758 a21.828051177609346,21.828051177609346 0 0,0 0.11918397236728277,-0.35634490735583635 l 0.7830022021521892 0.2693998963716343" fill="#ff0601" stroke="none" /><path d="M 80.14247586403 93.16781622104843 l -2.912686551301321 -1.0021395251850311 a24.080264042914123,24.080264042914123 0 0,0 0.13822864969807702,-0.3907910067666221 l 2.8950048207934342 1.0521281583782645" fill="#ff2603" stroke="none" /><path d="M 80.38941819471856 92.48833698450439 l -1.1456632360820658 -0.4388363509119852 a22.226833971404353,22.226833971404353 0 0,0 0.13993003889182873,-0.356106686080745 l 1.137939647308546 0.45849204188849363" fill="#ff0c01" stroke="none" /><path d="M 80.52162464483688 92.15188598940014 l -0.5831913812149211 -0.23497608842211223 a21.628749512328657,21.628749512328657 0 0,0 0.1421094463081923,-0.34412929625545463 l 0.5790602480205291 0.24497995513087814" fill="#ff0300" stroke="none" /><path d="M 80.65960295795068 91.81776055985345 l -1.173080382413083 -0.4962889102314654 a22.27374262157673,22.27374262157673 0 0,0 0.1524258924425533,-0.3518199752778535 l 1.164363780127849 0.5164080300959182" fill="#ff0c01" stroke="none" /><path d="M 80.803312248108 91.48605970444005 l -1.0212645604013673 -0.4529419661145211 a22.11720084452147,22.11720084452147 0 0,0 0.1573456457822719,-0.3466902735255252 l 1.0133165976557437 0.47045424848211725" fill="#ff0a01" stroke="none" /><path d="M 80.95270993114464 91.15688171328213 l -1.2850580840760282 -0.5966161381334111 a22.416801007809628,22.416801007809628 0 0,0 0.16550196745432616,-0.3485893517227236 l 1.2745979227799504 0.6186479054966668" fill="#ff0e01" stroke="none" /><path d="M 81.26839172434947 90.50648371742162 l -1.2635162711201744 -0.6403727921630112 a22.416527684278737,22.416527684278737 0 0,0 0.1774007353539181,-0.34268175518380134 l 1.2523061026061424 0.6620272696071481" fill="#ff0e01" stroke="none" /><path d="M 81.43458229118936 90.18545643968196 l -1.0397022216012315 -0.549634966673661 a22.17604392188085,22.17604392188085 0 0,0 0.18130700632201802,-0.3359343469526015 l 1.0300871160607417 0.5674502969587352" fill="#ff0b01" stroke="none" /><path d="M 81.6062741919709 89.86733742301443 l -1.0437848028057315 -0.5749960241985989 a22.191682483890904,22.191682483890904 0 0,0 0.18719461804218504,-0.3329983377602582 l 1.0337325434711158 0.5928778718936417" fill="#ff0b01" stroke="none" /><line stroke="#e1ed5e" stroke-width="0.3" x1="26.266209847984243" x2="21.928928074336255" y1="57.711370442889674" y2="55.22380399835377" /><path d="M 25.398753493254645 57.213857153982495 a86.0,86.0 0 0,1 29.58750427330803,-30.492523968695096" fill="none" id="id59" stroke="none" /><text fill="#e1ed5e" style="font-size:6.75px; font-family:Arial;" text-anchor="middle"><textPath startOffset="21.46611528233685" xlink:href="#id59">November</textPath></text><path d="M 81.78341655067845 89.55222093294921 l -0.4123726126510311 -0.23650856167768092 a21.475381395735553,21.475381395735553 0 0,0 0.18667252908816642,-0.31908386300103364 l 0.4082404090925397 0.24357183703260635" fill="#ff0100" stroke="none" /><path d="M 81.96595687620814 89.24020034530311 l -0.49728071484925807 -0.2966966878804623 a21.57906565600131,21.57906565600131 0 0,0 0.19306502497652944,-0.3173481380311251 l 0.49209989158651174 0.30521259911866183" fill="#ff0200" stroke="none" /><path d="M 82.15384107792192 88.93136811851018 l -0.5413534873260498 -0.3357609049171838 a21.637023534503147,21.637023534503147 0 0,0 0.19903218315441187,-0.31482111606811025 l 0.5354937079256753 0.3450296686995096" fill="#ff0300" stroke="none" /><path d="M 82.54541684631803 88.32363383020206 l -1.127716056744908 -0.754393588101044 a22.356780450333897,22.356780450333897 0 0,0 0.21672826314778013,-0.31802198330633646 l 1.1145633279283875 0.7736935946777963" fill="#ff0e01" stroke="none" /><path d="M 82.7489923806493 88.02491185347247 l -0.48669322234437845 -0.33784659809400813 a21.592461489482353,21.592461489482353 0 0,0 0.2145749628678915,-0.3035010678238876 l 0.4808056396726087 0.3461741662496819" fill="#ff0300" stroke="none" /><path d="M 82.95767976084542 87.72973835380427 l -0.5292312742878904 -0.38104002951091914 a21.65213284365539,21.65213284365539 0 0,0 0.22037477654812654,-0.30059094754949206 l 0.5225938852261305 0.3900934207319119" fill="#ff0300" stroke="none" /><path d="M 84.31358615837235 86.03803664274999 l -0.9160380969911924 -0.8153355172930323 a22.226335109543367,22.226335109543367 0 0,0 0.25682674095855107,-0.2835945019911882 l 0.9018677154165964 0.8309828065537765" fill="#ff0c01" stroke="none" /><path d="M 84.5562425177563 85.77008943001954 l -0.4658870695223476 -0.42926932403824075 a21.633500524157927,21.633500524157927 0 0,0 0.2546908699876719,-0.27168646229548465 l 0.45842887756421974 0.43722520321177555" fill="#ff0300" stroke="none" /><path d="M 84.80347519578584 85.50635884689758 l -0.855273901116759 -0.8157149855052881 a22.181898635039982,22.181898635039982 0 0,0 0.2659036469216468,-0.2740370817432006 l 0.8411059904919939 0.8303162627986123" fill="#ff0b01" stroke="none" /><path d="M 86.10567301691215 84.25364557470407 l -0.29892512082245626 -0.3387699817935865 a21.451797884482815,21.451797884482815 0 0,0 0.27898185868706105,-0.2419303187205319 l 0.2930494634886217 0.343865293933799" fill="#ff0100" stroke="none" /><path d="M 86.37877921826538 84.01681056812374 l -0.7184826821099172 -0.8430701620433564 a22.10769339738922,22.10769339738922 0 0,0 0.2917609809669172,-0.24434143096316638 l 0.7038641641838895 0.8553127504003352" fill="#ff0a01" stroke="none" /><path d="M 86.93701828274178 83.55741782278169 l -0.7718968798915613 -0.9715988397340658 a22.24089850453569,22.24089850453569 0 0,0 0.30180628656171843,-0.2355645938334127 l 0.7550580381704172 0.9847418227907002" fill="#ff0c01" stroke="none" /><path d="M 87.22198572758235 83.33499621200491 l -0.3848815787249063 -0.5019600722488885 a21.632532800551786,21.632532800551786 0 0,0 0.2974512881003389,-0.22403414338526068 l 0.37618413686617747 0.5085108051400035" fill="#ff0300" stroke="none" /><path d="M 87.51073957382395 83.11751280151077 l -1.5100710630354686 -2.041254207260613 a23.5391008948201,23.5391008948201 0 0,0 0.3278152526433822,-0.23817172237423967 l 1.4747104940383047 2.0669451644515204" fill="#ff1e03" stroke="none" /><path d="M 87.80319425747018 82.90503203632743 l -0.8477917475013185 -1.18825970252724 a22.459695847696178,22.459695847696178 0 0,0 0.3166484073773812,-0.22183244503447277 l 0.827212200540277 1.2026769903256553" fill="#ff0f01" stroke="none" /><path d="M 88.09926311788651 82.69761687909137 l -0.6264211570304598 -0.9107485495519184 a22.105380652303225,22.105380652303225 0 0,0 0.3153651557993597,-0.2129359609554523 l 0.6106513068245605 0.9213964228060362" fill="#ff0a01" stroke="none" /><path d="M 88.39885842347998 82.49532879139004 l -0.6206198246040645 -0.9364376689641357 a22.12342533109529,22.12342533109529 0 0,0 0.31924416085338325,-0.20764528257309892 l 0.6044086379663941 0.9469818756967696" fill="#ff0a01" stroke="none" /><path d="M 88.70189139769569 82.29822771554957 l -0.289695032703761 -0.45389150355772717 a21.538461427564805,21.538461427564805 0 0,0 0.31423676517976523,-0.1967750335274336 l 0.2818391151517535 0.45881087840809104" fill="#ff0200" stroke="none" /><path d="M 89.00827224532344 82.1063720568725 l -0.24833418947052663 -0.40426761753202567 a21.474449340019568,21.474449340019568 0 0,0 0.31663352965511554,-0.19076815878046507 l 0.2413385935977619 0.40848238577111" fill="#ff0100" stroke="none" /><line stroke="#e1ed5e" stroke-width="0.3" x1="56.762969772571076" x2="54.21961505331055" y1="26.818313649435495" y2="22.513508569990535" /><path d="M 56.25429882871897 25.957352633546506 a86.0,86.0 0 0,1 42.265352541879196,-11.944610805530505" fill="none" id="id60" stroke="none" /><text fill="#e1ed5e" style="font-size:6.75px; font-family:Arial;" text-anchor="middle"><textPath startOffset="22.20632615414155" xlink:href="#id60">December</textPath></text><path d="M 89.94658935756843 81.56283822128135 l -3.458838715169232 -6.343237258101937 a28.224972260855132,28.224972260855132 0 0,0 0.4285558198559446,-0.2289196771391258 l 3.349137848784982 6.401835661742812" fill="#ff6008" stroke="none" /><path d="M 91.23893434514133 80.91482961587045 l -0.1975332363285181 -0.4303078666882917 a21.47348098123182,21.47348098123182 0 0,0 0.33725419077970903,-0.1513161246791565 l 0.19009692708203468 0.43364432188397717" fill="#ff0100" stroke="none" /><path d="M 91.56875222667455 80.76684994638697 l -0.1743853205447345 -0.3978034007962038 a21.434347540233066,21.434347540233066 0 0,0 0.33918961089460964,-0.1452232898016216 l 0.1675119518598166 0.4007462185606116" fill="#ff0000" stroke="none" /><path d="M 92.57280143429618 80.3572730644239 l -0.41295165732865163 -1.0921340759564897 a22.167598351812735,22.167598351812735 0 0,0 0.3580781502909399,-0.1318832046979732 l 0.39409118126514225 1.0990805484607853" fill="#ff0b01" stroke="none" /><path d="M 92.91201910852362 80.23233633223022 l -0.3195035162476074 -0.891063075162576 a21.946612856881192,21.946612856881192 0 0,0 0.35670351990045834,-0.12444685403605826 l 0.30411799228386377 0.8964307823708441" fill="#ff0801" stroke="none" /><path d="M 93.25333710446033 80.11325718540243 l -0.18241224453326768 -0.5376858825516293 a21.56778546586804,21.56778546586804 0 0,0 0.3525995826963333,-0.11624653870749657 l 0.17312983959452508 0.5407461455183598" fill="#ff0200" stroke="none" /><path d="M 93.59665428221793 80.00007090966166 l -0.1484494948707672 -0.46366063957269094 a21.486845397653447,21.486845397653447 0 0,0 0.3532177774082442,-0.10974648281677819 l 0.14044634475179427 0.46614725727199435" fill="#ff0100" stroke="none" /><path d="M 93.94186890950719 79.89281104454417 l -0.13028978815403103 -0.4324372236663342 a21.451638551620064,21.451638551620064 0 0,0 0.3544727820606448,-0.10348032536719884 l 0.12282678836996494 0.4346158779522319" fill="#ff0100" stroke="none" /><path d="M 94.63758080256005 79.69619591428918 l -0.1399521081533021 -0.5299026578681941 a21.54807245815889,21.54807245815889 0 0,0 0.35943324990783976,-0.09162753851665849 l 0.13080996956046295 0.5322331925537158" fill="#ff0200" stroke="none" /><path d="M 95.33964822691252 79.52364482259891 l -0.11653526764617451 -0.5120251962086754 a21.525119291359495,21.525119291359495 0 0,0 0.3619882138670006,-0.07911660291281826 l 0.10770432962565295 0.5139552972173619" fill="#ff0200" stroke="none" /><path d="M 95.692805502759 79.44645832069477 l -0.21720767651514725 -1.0364953417308669 a22.059009805510268,22.059009805510268 0 0,0 0.3723073356650785,-0.07468134904884756 l 0.19933393138293232 1.0400806468569253" fill="#ff0901" stroke="none" /><path d="M 96.04723909329186 79.375362276772 l -0.09231127505262048 -0.48165994621595004 a21.490426014084278,21.490426014084278 0 0,0 0.3639095400088415,-0.06650214238537541 l 0.0840066139408857 0.4831775699520617" fill="#ff0100" stroke="none" /><path d="M 96.40284397218896 79.31037775812273 l -0.09313365006519922 -0.5356731881960458 a21.543709151409633,21.543709151409633 0 0,0 0.3659053259879156,-0.06037751398581972 l 0.08389911793839795 0.5371969651214925" fill="#ff0200" stroke="none" /><path d="M 97.47563105711357 79.15227682838746 l -0.12978816984020541 -1.0718670277590125 a22.07969620459989,22.07969620459989 0 0,0 0.3777029549086851,-0.042439327855119995 l 0.11131851142180232 1.073942309084731" fill="#ff0a01" stroke="none" /><path d="M 97.83486435360386 79.11191278185805 l -0.10182032490553317 -0.9823088131898001 a21.98757176095422,21.98757176095422 0 0,0 0.37679879014608136,-0.03578158535066683 l 0.08489640766921547 0.9839159430556474" fill="#ff0801" stroke="none" /><path d="M 98.19473922651362 79.07773832637324 l -0.089869407872606 -1.0415510576531901 a22.045421023401506,22.045421023401506 0 0,0 0.3783517150700835,-0.02936737490831527 l 0.0719275034401883 1.0429436947499675" fill="#ff0901" stroke="none" /><path d="M 98.55514903715128 79.0497635885617 l -0.08837018939290063 -1.2813614740267827 a22.284405122028648,22.284405122028648 0 0,0 0.38290757557431565,-0.023098030633872266 l 0.06630056497896199 1.2826927740409613" fill="#ff0d01" stroke="none" /><path d="M 98.91598698831166 79.02799685794201 l -0.02902717843821778 -0.5615782014122207 a21.56232788779276,21.56232788779276 0 0,0 0.37083011389065224,-0.015968724765999292 l 0.019356232158241428 0.5619946527024124" fill="#ff0200" stroke="none" /><path d="M 99.27714615592234 79.0124445844662 l -0.031096367426351936 -0.9028612629363614 a21.903396615102224,21.903396615102224 0 0,0 0.37691924454574227,-0.009734712066527871 l 0.015550487685730627 0.9032627671452489" fill="#ff0701" stroke="none" /><path d="M 99.63851952072746 79.00311137660856 l -0.007554488426165017 -0.4388086250469234 a21.438873648913845,21.438873648913845 0 0,0 0.36903496769870064,-0.0031764004754799837 l 1.0749304187449179e-16 0.4388736489138445" fill="#ff0000" stroke="none" /></svg>