<?xml version="1.0" encoding="utf-8" ?>
<svg baseProfile="full" height="200mm" version="1.1" viewBox="0,0,200,200" width="200mm" xmlns="http://www.w3.org/2000/svg" xmlns:ev="http://www.w3.org/2001/xml-events" xmlns:xlink="http://www.w3.org/1999/xlink"><defs /><rect fill="#1a1a1a" height="200" width="200" x="0" y="0" /><rect fill="#1a1a1a" height="200" width="180" x="10" y="0" /><text alignment-baseline="middle" fill="#e1ed5e" style="dominant-baseline: central; font-size:9.0px; font-family:Arial;" text-anchor="middle" x="100.0" y="100.0">2019</text><line stroke="#e1ed5e" stroke-width="0.3" x1="100.0" x2="100.0" y1="15.0" y2="10.0" /><path d="M 100.0 14.0 a86.0,86.0 0 0,1 42.46469731375804,11.215312516191453" fill="none" id="id1" stroke="none" /><text fill="#e1ed5e" style="font-size:6.75px; font-family:Arial;" text-anchor="middle"><textPath startOffset="22.20632615414155" xlink:href="#id1">January</textPath></text><line stroke="#e1ed5e" stroke-width="0.3" x1="143.23703022742887" x2="145.7803849466894" y1="26.81831364943548" y2="22.513508569990506" /><path d="M 143.74570117128098 25.957352633546492 a86.0,86.0 0 0,1 28.547481713284135,27.462654790039103" fill="none" id="id2" stroke="none" /><text fill="#e1ed5e" style="font-size:6.75px; font-family:Arial;" text-anchor="middle"><textPath startOffset="19.985693538727396" xlink:href="#id2">February</textPath></text><line stroke="#e1ed5e" stroke-width="0.3" x1="172.23445277983987" x2="176.4835382374775" y1="55.19839476539836" y2="52.563006222186495" /><path d="M 173.08426987136738 54.67131705675599 a86.0,86.0 0 0,1 12.851231095245387,41.99856678651699" fill="none" id="id3" stroke="none" /><text fill="#e1ed5e" style="font-size:6.75px; font-family:Arial;" text-anchor="middle"><textPath startOffset="22.20632615414155" xlink:href="#id3">March</textPath></text><line stroke="#e1ed5e" stroke-width="0.3" x1="184.98032266829074" x2="189.97916517819016" y1="98.17113171792111" y2="98.06355123074" /><path d="M 185.9800911702706 98.14961562048488 a86.0,86.0 0 0,1 -9.607161424134198,41.387399972396054" fill="none" id="id4" stroke="none" /><text fill="#e1ed5e" style="font-size:6.75px; font-family:Arial;" text-anchor="middle"><textPath startOffset="21.466115282336823" xlink:href="#id4">April</textPath></text><line stroke="#e1ed5e" stroke-width="0.3" x1="174.80103733775053" x2="179.2010983576182" y1="140.37084112569926" y2="142.7455964860345" /><path d="M 175.68104954172406 140.8457921977663 a86.0,86.0 0 0,1 -30.038265399797805,32.042727171017184" fill="none" id="id5" stroke="none" /><text fill="#e1ed5e" style="font-size:6.75px; font-family:Arial;" text-anchor="middle"><textPath startOffset="22.206326154141568" xlink:href="#id5">May</textPath></text><line stroke="#e1ed5e" stroke-width="0.3" x1="143.8653032363475" x2="146.44561519142675" y1="172.8068346515853" y2="177.08958963109032" /><path d="M 144.38136562736335 173.6633856474863 a86.0,86.0 0 0,1 -40.68145358897372,12.25698825130547" fill="none" id="id6" stroke="none" /><text fill="#e1ed5e" style="font-size:6.75px; font-family:Arial;" text-anchor="middle"><textPath startOffset="21.466115282336833" xlink:href="#id6">June</textPath></text><line stroke="#e1ed5e" stroke-width="0.3" x1="102.19456741930631" x2="102.32365962044197" y1="184.97166512339345" y2="189.96999836594603" /><path d="M 102.22038585953345 185.97133177190398 a86.0,86.0 0 0,1 -42.740103519485714,-10.115201625700543" fill="none" id="id7" stroke="none" /><text fill="#e1ed5e" style="font-size:6.75px; font-family:Arial;" text-anchor="middle"><textPath startOffset="22.20632615414155" xlink:href="#id7">July</textPath></text><line stroke="#e1ed5e" stroke-width="0.3" x1="58.666819895761336" x2="56.23545636021788" y1="174.27360380694188" y2="178.64263932499728" /><path d="M 58.180547188652646 175.14741091055294 a86.0,86.0 0 0,1 -31.652253787137756,-30.449443065178592" fill="none" id="id8" stroke="none" /><text fill="#e1ed5e" style="font-size:6.75px; font-family:Arial;" text-anchor="middle"><textPath startOffset="22.20632615414155" xlink:href="#id8">August</textPath></text><path d="M 85.44109423537348 115.13401014063109 l -3.9166902401359844 4.071406929217761 a26.64949704137093,26.64949704137093 0 0,0 -0.3278523252285386,-0.3208725040036154 l 3.9861925177403172 -4.003384322291575" fill="red" stroke="none" /><path d="M 85.18274418774928 114.88116024355367 l -7.42921023472674 7.461251218637379 a31.529170644423345,31.529170644423345 0 0,0 -0.3812918318750087,-0.38624661262779425 l 7.556542691657282 -7.332264112028921" fill="red" stroke="none" /><path d="M 84.9287848128048 114.62390073753433 l -18.58413403868086 18.032555975022184 a46.89484722797114,46.89484722797114 0 0,0 -0.5571408170220693,-0.5841599192280058 l 18.891781407081883 -17.709988939211676" fill="red" stroke="none" /><path d="M 84.67929136418377 114.36230785411682 l -8.023910757320836 7.521967764675909 a31.998324549415358,31.998324549415358 0 0,0 -0.373243073166559,-0.40508163952006754 l 8.152200238483125 -7.382734870354497" fill="red" stroke="none" /><path d="M 84.43433777217949 114.09645910891817 l -5.3271622059884205 4.824344965489124 a28.186999479264742,28.186999479264742 0 0,0 -0.3225950418956275,-0.3624389493762996 l 5.409416097532387 -4.73193184637196" fill="red" stroke="none" /><path d="M 83.95833913139862 113.55231037782056 l -33.852364628587154 28.599142958304327 a65.31583880393495,65.31583880393495 0 0,0 -0.7181756404827407,-0.8650888235946042 l 34.33963626896343 -28.012192877595965" fill="red" stroke="none" /><path d="M 83.72743513129214 113.27417163493432 l -8.588167382090397 7.005706155065703 a32.08316460736404,32.08316460736404 0 0,0 -0.34540137344383093,-0.43094132126021334 l 8.70748666758909 -6.85683700022723" fill="red" stroke="none" /><path d="M 83.50135304334701 112.99209946851258 l -9.440399603141238 7.433979949310904 a33.01603938715856,33.01603938715856 0 0,0 -0.34775823023329594,-0.4495243908577253 l 9.566964650592602 -7.270377564339926" fill="red" stroke="none" /><path d="M 83.06392112726016 112.41649034213515 l -4.697209959244076 3.4437051534880987 a26.824335720524893,26.824335720524893 0 0,0 -0.26980198858455606,-0.37473136459517303 l 4.75579174020424 -3.3623401834417876" fill="red" stroke="none" /><path d="M 82.85270091963577 112.12312394758628 l -27.378796625741405 19.356782865571258 a54.530337719423315,54.530337719423315 0 0,0 -0.5352778261725903,-0.7711076315083756 l 27.707935359076128 -18.882633971875872" fill="red" stroke="none" /><path d="M 82.6465618267979 111.8261652097733 l -24.145410029276228 16.454814614483272 a50.21920172555858,50.21920172555858 0 0,0 -0.4806620759804459,-0.7185245865038903 l 24.425075210667405 -16.03675311377356" fill="red" stroke="none" /><path d="M 82.44556493220864 111.52570212397912 l -34.511190509060526 22.65898618868925 a62.285008483127136,62.285008483127136 0 0,0 -0.5807191307388451,-0.9012889869872236 l 34.89611450317641 -22.06157560178058" fill="red" stroke="none" /><line stroke="#e1ed5e" stroke-width="0.3" x1="26.63291911575756" x2="22.317208475507996" y1="142.92168965132927" y2="145.44649492493687" /><path d="M 25.769776987707644 143.4266507060508 a86.0,86.0 0 0,1 -11.730757126820373,-40.83630448921669" fill="none" id="id9" stroke="none" /><text fill="#e1ed5e" style="font-size:6.75px; font-family:Arial;" text-anchor="middle"><textPath startOffset="21.46611528233685" xlink:href="#id9">September</textPath></text><path d="M 81.87401531095188 110.60418214915194 l -4.9809765086548 2.9140034643379216 a26.770748926261163,26.770748926261163 0 0,0 -0.22926979789971244,-0.39975121784693046 l 5.03039830270689 -2.8278324006326843" fill="red" stroke="none" /><path d="M 81.69416730710424 110.29060199501025 l -31.84019371129191 17.898926884330784 a57.526285318701824,57.526285318701824 0 0,0 -0.47780672553354675,-0.8673579951885482 l 32.14357684627697 -17.348198370744417" fill="red" stroke="none" /><path d="M 81.51974371655577 109.97397251340807 l -34.66581681655757 18.70947560358966 a60.39242735501892,60.39242735501892 0 0,0 -0.4858642439924392,-0.9190720469126639 l 34.9827335687749 -18.10998854159087" fill="red" stroke="none" /><path d="M 81.18737489456691 109.33194174019688 l -35.614432474430636 17.666423856263382 a60.75538117469044,60.75538117469044 0 0,0 -0.456668526740776,-0.9408724258356268 l 35.91325425778613 -17.05076247446247" fill="red" stroke="none" /><path d="M 81.02952815118164 109.00673069616217 l -29.589150736941253 14.048227916501613 a53.75470269942022,53.75470269942022 0 0,0 -0.38965858167049744,-0.8392899192634549 l 29.826583935451577 -13.53681792995933" fill="red" stroke="none" /><path d="M 80.87730276802145 108.67885076344099 l -29.610226012765917 13.438623721281653 a53.51710460741044,53.51710460741044 0 0,0 -0.3734956571230808,-0.8421341068387234 l 29.837162754620277 -12.926941277950235" fill="red" stroke="none" /><path d="M 80.73074385275274 108.34839909993369 l -57.80776844174178 25.045197299801067 a84.0,84.0 0 0,0 -0.5633960752307736,-1.3317018973353647 l 58.23031549816486 -24.046420876799544" fill="red" stroke="none" /><path d="M 80.58989483394504 108.01547362559985 l -4.942210002501549 2.0409036215066725 a26.34702976437437,26.34702976437437 0 0,0 -0.16949594491665568,-0.4206750350218642 l 4.976608561675594 -1.955529218642003" fill="red" stroke="none" /><path d="M 80.32549172779594 107.34259656027581 l -27.306290192568458 10.190804754450168 a50.14594286730289,50.14594286730289 0 0,0 -0.29484796919666767,-0.8112949790653117 l 27.477662422770347 -9.71926197837874" fill="red" stroke="none" /><path d="M 80.20201598880116 107.00284435728193 l -14.135697778184822 5.000008655740403 a35.99393338099307,35.99393338099307 0 0,0 -0.2015817426677803,-0.5858909025147041 l 14.21967035179583 -4.755945050136402" fill="red" stroke="none" /><path d="M 80.0844068197444 106.66101706037122 l -4.957172239410013 1.657987716411314 a26.227090957592768,26.227090957592768 0 0,0 -0.1395128234887986,-0.42937632007631427 l 4.984977313915061 -1.5724124963571962" fill="red" stroke="none" /><path d="M 79.4281124754447 104.21870165774334 l -5.008141555208018 1.0270255977216707 a26.11236377964019,26.11236377964019 0 0,0 -0.08650661420539751,-0.44109536212549016 l 5.025078102389082 -0.9406665085282258" fill="red" stroke="none" /><path d="M 79.29508885075956 103.50808413554451 l -19.937388094240713 3.378040812320301 a41.221538115338134,41.221538115338134 0 0,0 -0.11251172606192222,-0.7006106255884305 l 19.992581574663927 -3.034350957038657" fill="red" stroke="none" /><path d="M 79.23777060512086 103.15116336523772 l -7.315862041359222 1.1103565041791907 a28.39964384106247,28.39964384106247 0 0,0 -0.06919498704374097,-0.48394957822229207 l 7.333891079419561 -0.9842614539764981" fill="red" stroke="none" /><path d="M 79.1416061653843 102.43462659150553 l -6.04408300957408 0.705475471076556 a27.08511586306397,27.08511586306397 0 0,0 -0.05006580292292829,-0.4635471553981917 l 6.05533111399806 -0.6013319937935823" fill="red" stroke="none" /><path d="M 79.10278846688536 102.07522291339032 l -28.21886811329472 2.8023088920668218 a49.3576700862761,49.3576700862761 0 0,0 -0.07668161492322284,-0.8461752309018616 l 28.26292432449502 -2.316152272616394" fill="red" stroke="none" /><path d="M 79.07016306316243 101.71520430193888 l -43.204018787558155 3.5405779370904544 a64.34885155946222,64.34885155946222 0 0,0 -0.08096752877137348,-1.1047376010842118 l 43.25856287499386 -2.7963671995094823" fill="red" stroke="none" /><line stroke="#e1ed5e" stroke-width="0.3" x1="15.007084014347285" x2="10.007500721073583" y1="101.09737516637583" y2="101.16192664675087" /><path d="M 14.007167355692545 101.11028546245083 a86.0,86.0 0 0,1 10.666146001902534,-42.60595125391555" fill="none" id="id10" stroke="none" /><text fill="#e1ed5e" style="font-size:6.75px; font-family:Arial;" text-anchor="middle"><textPath startOffset="22.20632615414155" xlink:href="#id10">October</textPath></text><path d="M 80.2630227832202 92.82701384747504 l -18.28072122485905 -6.643740769615033 a40.45055423156001,40.45055423156001 0 0,0 0.2434649736873932,-0.6523650863128211 l 18.16365166267003 6.957428992957196" fill="red" stroke="none" /><path d="M 81.10775173730289 90.83032412892265 l -17.566309592957957 -8.526108855792959 a40.52613031136681,40.52613031136681 0 0,0 0.31000557372696524,-0.6249523198370351 l 17.41694400627758 8.827220764128956" fill="red" stroke="none" /><line stroke="#e1ed5e" stroke-width="0.3" x1="26.266209847984243" x2="21.928928074336255" y1="57.711370442889674" y2="55.22380399835377" /><path d="M 25.398753493254645 57.213857153982495 a86.0,86.0 0 0,1 29.58750427330803,-30.492523968695096" fill="none" id="id11" stroke="none" /><text fill="#e1ed5e" style="font-size:6.75px; font-family:Arial;" text-anchor="middle"><textPath startOffset="21.46611528233685" xlink:href="#id11">November</textPath></text><path d="M 84.5562425177563 85.77008943001954 l -14.339398845023407 -13.21235220292514 a40.498323260496,40.498323260496 0 0,0 0.4767861388285049,-0.5086022099500874 l 14.109845384224446 13.457223829753278" fill="red" stroke="none" /><path d="M 85.31137513191541 84.99185889309783 l -13.598425404361674 -13.894226936367835 a40.44136609493475,40.44136609493475 0 0,0 0.5016977866159403,-0.48263287322989407 l 13.357244374133305 14.126242896360042" fill="red" stroke="none" /><path d="M 87.80319425747018 82.90503203632743 l -18.506420263114627 -25.93848489502839 a52.86365624978772,52.86365624978772 0 0,0 0.7452991649197983,-0.5221296939582194 l 18.057189958611172 26.253199431750556" fill="red" stroke="none" /><line stroke="#e1ed5e" stroke-width="0.3" x1="56.762969772571076" x2="54.21961505331055" y1="26.818313649435495" y2="22.513508569990535" /><path d="M 56.25429882871897 25.957352633546506 a86.0,86.0 0 0,1 42.265352541879196,-11.944610805530505" fill="none" id="id12" stroke="none" /><text fill="#e1ed5e" style="font-size:6.75px; font-family:Arial;" text-anchor="middle"><textPath startOffset="22.20632615414155" xlink:href="#id12">December</textPath></text><path d="M 95.33964822691252 79.52364482259891 l -4.335857147935592 -19.05061147364505 a40.53779554420305,40.53779554420305 0 0,0 0.681724640152966,-0.1489986015696159 l 4.007289783629104 19.122423573310535" fill="red" stroke="none" /><path d="M 97.83486435360386 79.11191278185805 l -2.208980323554165 -21.31107754766352 a42.4252565985189,42.4252565985189 0 0,0 0.7270373250741,-0.06904095443133938 l 1.841817871389829 21.34594404661004" fill="red" stroke="none" /></svg>