<?xml version="1.0" encoding="utf-8" ?>
<svg baseProfile="full" height="200mm" version="1.1" viewBox="0,0,200,200" width="200mm" xmlns="http://www.w3.org/2000/svg" xmlns:ev="http://www.w3.org/2001/xml-events" xmlns:xlink="http://www.w3.org/1999/xlink"><defs /><rect fill="#1a1a1a" height="200" width="200" x="0" y="0" /><rect fill="#1a1a1a" height="200" width="180" x="10" y="0" /><text alignment-baseline="middle" fill="#e1ed5e" style="dominant-baseline: central; font-size:9.0px; font-family:Arial;" text-anchor="middle" x="100.0" y="100.0">2025</text><line stroke="#e1ed5e" stroke-width="0.3" x1="100.0" x2="100.0" y1="15.0" y2="10.0" /><path d="M 100.0 14.0 a86.0,86.0 0 0,1 42.46469731375804,11.215312516191453" fill="none" id="id73" stroke="none" /><text fill="#e1ed5e" style="font-size:6.75px; font-family:Arial;" text-anchor="middle"><textPath startOffset="22.20632615414155" xlink:href="#id73">January</textPath></text><path d="M 100.0 79.0 l 0.0 -7.7059603743942375 a28.705960374394238,28.705960374394238 0 0,0 0.4941259197197256,0.004253097792148001 l -0.1326454404471972 7.704818653210649" fill="#ff5e08" stroke="none" /><path d="M 100.36148047927253 79.00311137660856 l 0.04095235077783671 -2.3787507139493917 a23.379103203761655,23.379103203761655 0 0,0 0.4023135805176093,0.010390572844092054 l -0.08189256649031383 2.37769334896294" fill="#ff1302" stroke="none" /><path d="M 100.72285384407766 79.0124445844662 l 0.31544991789874166 -9.158867573254748 a30.164298329666032,30.164298329666032 0 0,0 0.5187672798239077,0.02233921032517815 l -0.4730580301119809 9.152080636405374" fill="#ff720a" stroke="none" /><path d="M 101.08401301168833 79.027996857942 l 0.40995724160857866 -7.931292767172516 a28.94188075323159,28.94188075323159 0 0,0 0.4973013787487789,0.029998577237283525 l -0.5464206691969694 7.923060920554928" fill="#ff6109" stroke="none" /><path d="M 101.44485096284872 79.0497635885617 l 0.3862489555670257 -5.600582441282277 a26.613885636284014,26.613885636284014 0 0,0 0.45675740392882996,0.035453165372439775 l -0.48259654885819686 5.593104013721373" fill="#ff4106" stroke="none" /><path d="M 101.80526077348638 79.07773832637324 l 0.1921640498212991 -2.2271056867094843 a23.235380674922606,23.235380674922606 0 0,0 0.39818236511416993,0.03781221345466814 l -0.2304715420257132 2.223467928739638" fill="#ff1101" stroke="none" /><path d="M 102.16513564639614 79.11191278185805 l 0.8484336238664121 -8.185240293662144 a29.22909462086185,29.22909462086185 0 0,0 0.5000030482894456,0.05618116834707995 l -0.989203375665583 8.169423171844464" fill="#ff6509" stroke="none" /><path d="M 102.52436894288641 79.15227682838746 l 0.15230632146178397 -1.2578351655250832 a22.26702269876618,22.26702269876618 0 0,0 0.38011427035662604,0.049349741644895626 l -0.17393532032625614 1.255027100716051" fill="#ff0300" stroke="none" /><path d="M 102.88285421437855 79.19881850522331 l 0.37128502082794335 -2.679000230401462 a23.704606219245658,23.704606219245658 0 0,0 0.4036905947964787,0.059493499930783136 l -0.4173445960530778 2.67221224630971" fill="#ff1802" stroke="none" /><path d="M 104.307194497241 79.44645832069477 l 0.31141802242983546 -1.4860585719540786 a22.5183383232904,22.5183383232904 0 0,0 0.37869119137345003,0.08276722685088028 l -0.33695193795681344 1.4804778470073279" fill="#ff0601" stroke="none" /><path d="M 104.66035177308747 79.52364482259891 l 1.1785976247657848 -5.178446767754868 a26.31087594353082,26.31087594353082 0 0,0 0.4407401396286527,0.10430895130730573 l -1.2675614513569609 5.157391904306693" fill="#ff3d05" stroke="none" /><path d="M 105.01212808612495 79.60689891045804 l 1.9876036001689892 -8.087064106839597 a29.327735222708395,29.327735222708395 0 0,0 0.4892021411197075,0.12470851831145813 l -2.126514629973722 8.05165259235927" fill="#ff6709" stroke="none" /><path d="M 105.36241919743992 79.69619591428918 l 0.335029491255137 -1.2685269284108174 a22.312023371786516,22.312023371786516 0 0,0 0.37048807835389785,0.10126838708235983 l -0.3568154588327457 1.262572000502164" fill="#ff0300" stroke="none" /><path d="M 105.71112130821622 79.79150937346287 l 2.0787286665220504 -7.355467780397302 a28.643560632158508,28.643560632158508 0 0,0 0.47331408279005416,0.13817335989314736 l -2.2050329670355318 7.3185960915854515" fill="#ff5d08" stroke="none" /><path d="M 106.0581310904928 79.89281104454417 l 1.5714426181879049 -5.2156833823135695 a26.447273175341877,26.447273175341877 0 0,0 0.43476121676397456,0.13508242635772863 l -1.6609892076625976 5.187860821073321" fill="#ff3f05" stroke="none" /><path d="M 106.40334571778207 80.00007090966166 l 1.0018116212331916 -3.129014466749839 a24.28547683868988,24.28547683868988 0 0,0 0.39702958898838797,0.130894413236185 l -1.0555240324639972 3.111306329254418" fill="#ff2003" stroke="none" /><path d="M 106.74666289553966 80.11325718540242 l 0.7728749338684525 -2.2781581465782743 a23.405689132914542,23.405689132914542 0 0,0 0.38041823373163836,0.1327204520411428 l -0.8119751716633645 2.264516841364924" fill="#ff1302" stroke="none" /><path d="M 107.08798089147638 80.2323363322302 l 0.538186570447192 -1.5009480524847483 a22.594518686271023,22.594518686271023 0 0,0 0.36497428947832944,0.13442311095960166 l -0.5639431856980978 1.491461673718822" fill="#ff0701" stroke="none" /><path d="M 107.4271985657038 80.35727306442388 l 0.8828610221563288 -2.334904315115354 a23.496241523808788,23.496241523808788 0 0,0 0.37707756917892565,0.14630023858989977 l -0.9229217563349215 2.3193613726349076" fill="#ff1402" stroke="none" /><path d="M 107.76421540070413 80.48803036053334 l 0.589214222225795 -1.4807330067335636 a22.593657314764805,22.593657314764805 0 0,0 0.36011721658305235,0.1469008546490418 l -0.6146153083972349 1.4703712659009425" fill="#ff0701" stroke="none" /><path d="M 109.08828744355905 81.06846463323043 l 0.49603090173994246 -1.0332668962792912 a22.146161914577334,22.146161914577334 0 0,0 0.342241231748553,0.1679362860816643 l -0.5137434004989272 1.024575450062795" fill="#ff0100" stroke="none" /><path d="M 109.41281617654863 81.2277094730956 l 0.5056481626112697 -1.008430849481927 a22.128101432735104,22.128101432735104 0 0,0 0.3390230745502263,0.17366078651228148 l -0.5229317247502515 0.999577537657145" fill="#ff0100" stroke="none" /><line stroke="#e1ed5e" stroke-width="0.3" x1="143.23703022742887" x2="145.7803849466894" y1="26.81831364943548" y2="22.513508569990506" /><path d="M 143.74570117128098 25.957352633546492 a86.0,86.0 0 0,1 28.547481713284135,27.462654790039103" fill="none" id="id74" stroke="none" /><text fill="#e1ed5e" style="font-size:6.75px; font-family:Arial;" text-anchor="middle"><textPath startOffset="19.985693538727396" xlink:href="#id74">February</textPath></text><path d="M 110.68208982089419 81.91981866633111 l 2.055029081795056 -3.478279912245431 a25.039996989473323,25.039996989473323 0 0,0 0.3692063299874808,0.22244268273963486 l -2.114597478000174 3.4423906200471817" fill="#ff2b04" stroke="none" /><path d="M 110.99172775467656 82.1063720568725 l 0.6053703731407376 -0.9854931332486748 a22.156576847579462,22.156576847579462 0 0,0 0.32325479976621346,0.20242212595815057 l -0.6222443252792142 0.97492666596758" fill="#ff0100" stroke="none" /><path d="M 111.2981086023043 82.29822771554956 l 2.1505991206800474 -3.369538853755853 a24.997357710393217,24.997357710393217 0 0,0 0.3607154121197483,0.2346193379946486 l -2.208281558584076 3.3320205916016765" fill="#ff2a04" stroke="none" /><path d="M 111.60114157652 82.49532879139004 l 2.9404582526415877 -4.436783619580197 a26.322719570154263,26.322719570154263 0 0,0 0.37553158160339367,0.2535606002354704 l -3.0163945286515235 4.385511107046057" fill="#ff3d05" stroke="none" /><path d="M 111.90073688211348 82.69761687909136 l 3.5525121073358283 -5.1649680294313844 a27.268750833923452,27.268750833923452 0 0,0 0.38444895163700404,0.26933105913568073 l -3.6408921985564833 5.103052127531768" fill="#ff4a06" stroke="none" /><path d="M 112.77801427241765 83.33499621200491 l 5.0234294738612135 -6.551524315583978 a29.25574433570624,29.25574433570624 0 0,0 0.3969968909645322,0.30986237045815807 l -5.135458919985176 6.4640835559025955" fill="#ff6609" stroke="none" /><path d="M 113.34407831869373 83.78471172551755 l 0.7042225494933042 -0.8557482485266734 a22.108257399736775,22.108257399736775 0 0,0 0.29176842425261285,0.2443476645008778 l -0.7188485107050344 0.8434994266319762" fill="#ff0000" stroke="none" /><path d="M 113.89432698308785 84.25364557470407 l 3.5966109678124134 -4.076016859112006 a26.43594737737166,26.43594737737166 0 0,0 0.33861806557159907,0.3040146426551404 l -3.6662400209800023 4.013503207687568" fill="#ff3e05" stroke="none" /><path d="M 114.16331599549186 84.49514656593476 l 1.3676319066091922 -1.4971728563054156 a23.0277927886333,23.0277927886333 0 0,0 0.29036085638266557,0.26985877133838665 l -1.3932006467867046 1.4734094988923885" fill="#ff0e01" stroke="none" /><path d="M 114.94478906791727 85.2469230424477 l 2.600985199048176 -2.567619698921578 a24.65483172306986,24.65483172306986 0 0,0 0.29554772462299694,0.30458790960243765 l -2.644797187374282 2.5224675937690257" fill="#ff2503" stroke="none" /><path d="M 115.19652480421416 85.50635884689758 l 1.1377714149173779 -1.0851461643057425 a22.572280506306225,22.572280506306225 0 0,0 0.2657431123241906,0.28347622382477417 l -1.1562818492120315 1.0654005236029136" fill="#ff0701" stroke="none" /><path d="M 115.68641384162765 86.03803664274999 l 0.9494766807702266 -0.8450981058715804 a22.271100615952246,22.271100615952246 0 0,0 0.25241443588919193,0.2885533344685502 l -0.9638829802372668 0.8286292152000824" fill="#ff0300" stroke="none" /><path d="M 115.9244219780498 86.31012108654704 l 2.65325530320276 -2.2809458250597667 a24.498925200805406,24.498925200805406 0 0,0 0.27215901096766176,0.3221504256146836 l -2.6921249276575385 2.2349364498159767" fill="#ff2303" stroke="none" /><path d="M 116.38621287248628 86.86637796730983 l 2.7025676322362058 -2.166119900661778 a24.46351659889971,24.46351659889971 0 0,0 0.2605316981745594,0.33084879927350547 l -2.7394534110047295 2.1192787074352344" fill="#ff2203" stroke="none" /><path d="M 117.04232023915458 87.72973835380427 l 2.1722107123137016 -1.5639650832004632 a23.67665577916934,23.67665577916934 0 0,0 0.23528663173143358,0.33279625460842327 l -2.198809963849018 1.5263423282602469" fill="#ff1702" stroke="none" /><path d="M 117.45458315368197 88.32363383020206 l 3.087456488262298 -2.065375733860731 a24.714588064501058,24.714588064501058 0 0,0 0.2334979727495181,0.35563343187262864 l -3.122551096369741 2.0119242380104283" fill="#ff2603" stroke="none" /><path d="M 117.65298651832404 88.62581576622439 l 0.9244337285635487 -0.5956317663123766 a22.09970674252107,22.09970674252107 0 0,0 0.20328826065296457,0.3215532085715967 l -0.934549585462469 0.5796309100265736" fill="#ff0000" stroke="none" /><line stroke="#e1ed5e" stroke-width="0.3" x1="172.23445277983987" x2="176.4835382374775" y1="55.19839476539836" y2="52.563006222186495" /><path d="M 173.08426987136738 54.67131705675599 a86.0,86.0 0 0,1 12.851231095245387,41.99856678651699" fill="none" id="id75" stroke="none" /><text fill="#e1ed5e" style="font-size:6.75px; font-family:Arial;" text-anchor="middle"><textPath startOffset="22.20632615414155" xlink:href="#id75">March</textPath></text><path d="M 117.84615892207809 88.93136811851018 l 8.127373771479576 -5.040799470214947 a30.563674174722465,30.563674174722465 0 0,0 0.2734491201789373,0.4494784549691789 l -8.212938689944735 4.900153242038686" fill="#ff770b" stroke="none" /><path d="M 118.03404312379186 89.2402003453031 l 2.7945586604111634 -1.6673405460394584 a24.25416388692183,24.25416388692183 0 0,0 0.21082680816041632,0.3603713556601086 l -2.822845143041907 1.6189897780254545" fill="#ff1f03" stroke="none" /><path d="M 118.3937258080291 89.86733742301442 l 1.8625470437194027 -1.026032513735342 a23.126458137210783,23.126458137210783 0 0,0 0.18907740742487242,0.3503317200767882 l -1.87993255036274 0.993819810326095" fill="#ff0f01" stroke="none" /><path d="M 118.73160827565052 90.50648371742162 l 3.6939409098735245 -1.872155751855689 a25.141275963376938,25.141275963376938 0 0,0 0.19231877357579347,0.3877029120781642 l -3.725619696402726 1.808293251278575" fill="#ff2c04" stroke="none" /><path d="M 118.89224826269711 90.83032412892265 l 2.582962311947631 -1.2536849430744783 a23.871135705854655,23.871135705854655 0 0,0 0.17623923785163095,0.3712047815247972 l -2.604159743641018 1.2090377459091408" fill="#ff1a02" stroke="none" /><path d="M 119.04729006885535 91.15688171328212 l 1.1789009727250142 -0.5473303925360218 a22.299760771098136,22.299760771098136 0 0,0 0.15864440911779565,0.34955192637774557 l -1.1881476988061568 0.5269564573162134" fill="#ff0300" stroke="none" /><path d="M 119.34039704204932 91.81776055985345 l 1.2510522139124416 -0.529276040409167 a22.358405229998187,22.358405229998187 0 0,0 0.1469035732166653,0.35573865483105993 l -1.2599774740153042 0.5076628151248039" fill="#ff0400" stroke="none" /><path d="M 119.47837535516314 92.15188598940014 l 3.53520210535465 -1.4243831257714028 a24.811367368109018,24.811367368109018 0 0,0 0.1562010858247005,0.3975147257569782 l -3.5591967410610508 1.3633193951186402" fill="#ff2703" stroke="none" /><path d="M 119.61058180528143 92.48833698450437 l 1.265433331401244 -0.48471324555512046 a22.355089829730055,22.355089829730055 0 0,0 0.1345514656243744,0.3605310330933539 l -1.2735893855272435 0.4628590754324333" fill="#ff0400" stroke="none" /><path d="M 119.7369772167798 92.82701384747503 l 1.946490824285057 -0.7074108448959149 a23.071052059341405,23.071052059341405 0 0,0 0.13243544039190977,0.37441282393612824 l -1.9583793454867764 0.6738003945331721" fill="#ff0e01" stroke="none" /><path d="M 120.28053869075195 94.5502522615342 l 3.2279264956118014 -0.8674022612336239 a24.34243865222174,24.34243865222174 0 0,0 0.10525632004018377,0.40559553787001007 l -3.242379147522288 0.8117102978147634" fill="#ff2103" stroke="none" /><path d="M 120.37134235888165 94.90015583598534 l 6.2393855357946135 -1.5619929875601197 a27.431932365741265,27.431932365741265 0 0,0 0.11072990905135628,0.4590469598781812 l -6.2653482451067894 1.4543607960225324" fill="#ff4c07" stroke="none" /><path d="M 120.45610955862082 95.25157060432595 l 1.1256598641227868 -0.261296820542228 a22.155589095709374,22.155589095709374 0 0,0 0.08303662957660848,0.3722369285450972 l -1.1299908807014327 0.2418817224471669" fill="#ff0100" stroke="none" /><path d="M 120.53481517161879 95.60439243477599 l 6.651304628817095 -1.4237539856431631 a27.801979761581073,27.801979761581073 0 0,0 0.09614282596395353,0.46882656382990484 l -6.674826750696045 1.3090517656498464" fill="#ff5207" stroke="none" /><path d="M 120.6074358757038 95.95851677861258 l 61.822307627111385 -12.124449664162288 a84.0,84.0 0 0,0 0.26605710436056285,1.4212876901497489 l -62.02185045538181 11.058483896549978" fill="#4dd2ff" stroke="none" /><path d="M 120.67395015179393 96.31383870115 l 3.21148386988223 -0.5726069505886693 a24.262132334283237,24.262132334283237 0 0,0 0.06976880986749384,0.41177946522382763 l -3.2208645412699473 0.5172416970490037" fill="#ff2003" stroke="none" /><path d="M 120.83666639777658 97.38593545837742 l 1.3366866914894924 -0.16769406472113663 a22.34716465606392,22.34716465606392 0 0,0 0.04459818010030064,0.3820899714497757 l -1.3393752245933819 0.14466035494650822" fill="#ff0400" stroke="none" /><path d="M 120.87857604477298 97.74499172005257 l 1.1780579524303787 -0.1272371464074768 a22.184909207792046,22.184909207792046 0 0,0 0.03773851063719633,0.3800216519592042 l -1.1800735887498037 0.10693996374383766" fill="#ff0100" stroke="none" /><path d="M 120.91429891909075 98.10471618934814 l 4.65268015271988 -0.42163255883953854 a25.671745564367463,25.671745564367463 0 0,0 0.03609388281154978,0.44043679275356146 l -4.659248519350924 0.3414818488782083" fill="#ff3404" stroke="none" /><path d="M 120.94382443527127 98.46500227214037 l 1.2366471301266875 -0.09063533457202681 a22.239964067351774,22.239964067351774 0 0,0 0.024696324673032323,0.3820412118397786 l -1.2380240458041354 0.06933505847921292" fill="#ff0200" stroke="none" /><path d="M 120.96714384426684 98.82574320788733 l 5.4448416066862775 -0.3049362510276888 a26.453373840027183,26.453373840027183 0 0,0 0.0215486560215848,0.45485807076111917 l -5.4492838709413585 0.21116707364356985" fill="#ff3f05" stroke="none" /><line stroke="#e1ed5e" stroke-width="0.3" x1="184.98032266829074" x2="189.97916517819016" y1="98.17113171792111" y2="98.06355123074" /><path d="M 185.9800911702706 98.14961562048488 a86.0,86.0 0 0,1 -9.607161424134198,41.387399972396054" fill="none" id="id76" stroke="none" /><text fill="#e1ed5e" style="font-size:6.75px; font-family:Arial;" text-anchor="middle"><textPath startOffset="21.466115282336823" xlink:href="#id76">April</textPath></text><path d="M 120.99513854157772 99.54816195383933 l 7.205104405049224 -0.15506162487634706 a28.206772758674234,28.206772758674234 0 0,0 0.006268609890330835,0.4855107442565997 l -7.20670602205727 0.031014622559284662" fill="#ff5708" stroke="none" /><path d="M 120.99980553446 99.90962569577887 l 1.2235984556401105 -0.005265851576247363 a22.223609786589535,22.223609786589535 0 0,0 -0.001646349046763081,0.3825535379977119 l -1.2235078093038443 -0.015797164625149247" fill="#ff0200" stroke="none" /><path d="M 120.99824983174949 100.27111621757518 l 4.645788223690412 0.059983500575264005 a25.64617544220209,25.64617544220209 0 0,0 -0.009498778331369003,0.4413709043259662 l -4.644067382674036 -0.13994422069134504" fill="#ff3304" stroke="none" /><path d="M 120.9904718944345 100.63252640178507 l 16.849377197063482 0.5077387485320803 a37.85702555511155,37.85702555511155 0 0,0 -0.02523417211281224,0.6511818567085007 l -16.838140892099467 -0.7976978522545871" fill="#ffd714" stroke="none" /><path d="M 120.9764740272857 100.99374915477107 l 8.161810613465379 0.3866613801720152 a29.170964417557613,29.170964417557613 0 0,0 -0.02807864947661323,0.5013631485747384 l -8.153945613101236 -0.5270962450821769" fill="#ff6409" stroke="none" /><path d="M 120.95626037817324 101.35467743843564 l 2.584919226657449 0.16709716778373976 a23.590314434933468,23.590314434933468 0 0,0 -0.029682728074347266,0.40499724153721567 l -2.5816599399187643 -0.2115675458177257" fill="#ff1602" stroke="none" /><path d="M 120.89721153311464 102.0752229133903 l 1.4951656331687886 0.14847923496150423 a22.502520001139345,22.502520001139345 0 0,0 -0.041595049374798895,0.38511849787002517 l -1.4923882822929377 -0.1741940547163208" fill="#ff0601" stroke="none" /><path d="M 120.8583938346157 102.4346265915055 l 5.822368270280989 0.6795965561278893 a26.861895918035028,26.861895918035028 0 0,0 -0.0575592750038013,0.4588040548561459 l -5.80980748603034 -0.7797183652714301" fill="#ff4406" stroke="none" /><path d="M 120.81339534386255 102.79330883721812 l 5.510700920525529 0.7395760915630263 a26.56010768157349,26.56010768157349 0 0,0 -0.0647130054585221,0.4526026094542374 l -5.4971538640504045 -0.834324172997673" fill="#ff4006" stroke="none" /><path d="M 120.76222939487914 103.15116336523771 l 5.740640797341222 0.8712791208266061 a26.806383045449795,26.806383045449795 0 0,0 -0.07316642133735642,0.4556073755105215 l -5.724792621642577 -0.9699657260303326" fill="#ff4406" stroke="none" /><path d="M 120.70491114924044 103.5080841355445 l 5.510140322734529 0.9335966578884919 a26.58867149650483,26.58867149650483 0 0,0 -0.08034027618703994,0.45059093469143846 l -5.4932536042083 -1.0283063433131487" fill="#ff4106" stroke="none" /><path d="M 120.64145759157962 103.86396538481128 l 5.748881113261057 1.0761583829282348 a26.848739258981922,26.848739258981922 0 0,0 -0.0889461233222043,0.45353436655503776 l -5.7295050569631885 -1.1749564765512175" fill="#ff4406" stroke="none" /><path d="M 120.5718875245553 104.21870165774334 l 4.288691975887829 0.8794872092622743 a25.37794205252886,25.37794205252886 0 0,0 -0.0914403038380941,0.4271786574869626 l -4.272917633325292 -0.9531796861654058" fill="#ff2f04" stroke="none" /><path d="M 120.49622156327973 104.57218783832717 l 7.111637178108106 1.5864261086343447 a28.286434735260183,28.286434735260183 0 0,0 -0.11010081748107238,0.47431144010235043 l -7.083275794696481 -1.7086062060852603" fill="#ff5808" stroke="none" /><path d="M 120.41448212921028 104.9243191809786 l 6.5847053642060756 1.588342565871741 a27.77356455937081,27.77356455937081 0 0,0 -0.11610498714325908,0.4637817091271654 l -6.556389062767756 -1.7014521143963024" fill="#ff5107" stroke="none" /><path d="M 120.32669344350535 105.2749913415812 l 5.276216820913617 1.36923391519525 a26.450987567020558,26.450987567020558 0 0,0 -0.11816276315818726,0.43972759933846295 l -5.251865981413652 -1.4598524477092611" fill="#ff3f05" stroke="none" /><path d="M 120.23288151984713 105.62410040840565 l 5.247255533761709 1.45857088924727 a26.44620231680319,26.44620231680319 0 0,0 -0.12569170083889786,0.43754929982222257 l -5.221371196036712 -1.5486776645740745" fill="#ff3f05" stroke="none" /><path d="M 120.13307415673323 105.97154293290107 l 4.1670506956462265 1.2359623740969892 a25.346483002413464,25.346483002413464 0 0,0 -0.12766568156112953,0.4172188340286708 l -4.145158241578964 -1.3075081806777171" fill="#ff2f04" stroke="none" /><path d="M 120.02730092923936 106.31721596034902 l 4.31678678867351 1.3616450112365595 a25.52644731721154,25.52644731721154 0 0,0 -0.13578580806466964,0.4179057460626755 l -4.292708729592593 -1.4357496572770303" fill="#ff3204" stroke="none" /><path d="M 119.9155931802556 106.66101706037122 l 4.125840445193608 1.3799384906621954 a25.35049303150878,25.35049303150878 0 0,0 -0.14197382955310314,0.4126424051578178 l -4.101475784697275 -1.4507535989093137" fill="#ff2f04" stroke="none" /><path d="M 119.79798401119884 107.00284435728193 l 5.145610553567447 1.820079752031183 a26.458021461366616,26.458021461366616 0 0,0 -0.15556779772770543,0.42805576563611286 l -5.113518494834514 -1.9083833146734273" fill="#ff3f05" stroke="none" /><path d="M 119.67450827220406 107.3425965602758 l 9.099362336259516 3.3959144323477117 a30.712395675546055,30.712395675546055 0 0,0 -0.18910897372551191,0.4937038564838102 l -9.039559082940496 -3.552041855664666" fill="#ff790b" stroke="none" /><path d="M 119.54520255179757 107.68017299344265 l 1.462713940696638 0.5747648853829459 a22.5715873331691,22.5715873331691 0 0,0 -0.14520773527486192,0.3603936905525115 l -1.4526035911643838 -0.599857943778271" fill="#ff0701" stroke="none" /><path d="M 119.41010516605496 108.01547362559984 l 2.3078221415096456 0.953023559099325 a23.49685741303754,23.49685741303754 0 0,0 -0.15759568150907427,0.37250963807571646 l -2.291075478808262 -0.9926077228412049" fill="#ff1502" stroke="none" /><path d="M 119.26925614724726 108.34839909993367 l 2.249442990156566 0.9745704603681813 a23.45148553905316,23.45148553905316 0 0,0 -0.16366782295447005,0.36902773371894265 l -2.232334082470823 -1.0131465305798115" fill="#ff1402" stroke="none" /><path d="M 119.12269723197855 108.67885076344098 l 4.7600622693387695 2.160357901352551 a26.227364447780445,26.227364447780445 0 0,0 -0.19011764773070303,0.40949649955199247 l -4.722170004768236 -2.241974468183374" fill="#ff3b05" stroke="none" /><path d="M 118.81262510543309 109.33194174019688 l 3.032617523558832 1.5043200984203977 a24.38522495599741,24.38522495599741 0 0,0 -0.18976504285096024,0.3744244325592246 l -3.0062738109216025 -1.5562987426823167" fill="#ff2103" stroke="none" /><path d="M 118.64920377521936 109.65438752849418 l 1.2183880152370434 0.6307395318829335 a22.37197001160855,22.37197001160855 0 0,0 -0.17998515331091305,0.34046408088825586 l -1.2073503537012373 -0.6516186278573237" fill="#ff0400" stroke="none" /><line stroke="#e1ed5e" stroke-width="0.3" x1="174.80103733775053" x2="179.2010983576182" y1="140.37084112569926" y2="142.7455964860345" /><path d="M 175.68104954172406 140.8457921977663 a86.0,86.0 0 0,1 -30.038265399797805,32.042727171017184" fill="none" id="id77" stroke="none" /><text fill="#e1ed5e" style="font-size:6.75px; font-family:Arial;" text-anchor="middle"><textPath startOffset="22.206326154141568" xlink:href="#id77">May</textPath></text><path d="M 118.48025628344425 109.97397251340804 l 1.2948869853299287 0.6988629920257503 a22.471442077147454,22.471442077147454 0 0,0 -0.18664521961421368,0.33881528836861663 l -1.2826653562642054 -0.721048798792172" fill="#ff0600" stroke="none" /><path d="M 118.30583269289576 110.29060199501025 l 5.4750159108911 3.0777736582938413 a27.280803285902063,27.280803285902063 0 0,0 -0.23363800068233767,0.4073675475953406 l -5.421225914056383 -3.171561051747497" fill="#ff4a06" stroke="none" /><path d="M 118.12598468904814 110.60418214915192 l 3.136251744336066 1.834790513898507 a24.63352875779771,24.63352875779771 0 0,0 -0.21726669642770613,0.3641514803698647 l -3.1042041722101326 -1.888504088154476" fill="#ff2503" stroke="none" /><path d="M 117.94076556474637 110.91462005526583 l 3.0208221742685333 1.8377769982932814 a24.535928577334154,24.535928577334154 0 0,0 -0.22261723774111855,0.35892987011031796 l -2.988740296859452 -1.8895031997688732" fill="#ff2303" stroke="none" /><path d="M 117.75023020441432 111.22182372390056 l 1.3916091072676666 0.8797853275417636 a22.646389422338494,22.646389422338494 0 0,0 -0.21114537671253752,0.32770231358171203 l -1.3762588671780787 -0.9036092410449287" fill="#ff0801" stroke="none" /><path d="M 117.35343817320211 111.8261652097733 l 5.352299754298123 3.647529700731278 a27.4770043675743,27.4770043675743 0 0,0 -0.26971832163018034,0.38854935885126735 l -5.288720525505806 -3.7391203217695645" fill="#ff4d07" stroke="none" /><path d="M 116.93607887273984 112.41649034213515 l 3.7730293666552113 2.7661528411439122 a25.678392046655684,25.678392046655684 0 0,0 -0.2644125223559832,0.3542237833726949 l -3.724855577604136 -2.8306895040259223" fill="#ff3404" stroke="none" /><path d="M 116.498646956653 112.99209946851258 l 6.812182779148904 5.364352391860954 a29.670761835075233,29.670761835075233 0 0,0 -0.3194298945998553,0.39853790810492573 l -6.718834972494195 -5.48081813354413" fill="#ff6b09" stroke="none" /><path d="M 116.0416608686014 113.55231037782055 l 7.270672240725416 6.1424068036856365 a30.517974373469322,30.517974373469322 0 0,0 -0.3424661549445269,0.3983655077604553 l -7.16386357621011 -6.266649410607619" fill="#ff770a" stroke="none" /><path d="M 115.80600337817218 113.82643327865902 l 6.813319545705141 5.960008096352146 a30.052238382879167,30.052238382879167 0 0,0 -0.3439423592182638,0.3864228866896356 l -6.709718336838539 -6.076405152782648" fill="#ff700a" stroke="none" /><path d="M 115.56566222782051 114.09645910891815 l 1.1224698443307628 1.0165227813643638 a22.51435039421683,22.51435039421683 0 0,0 -0.2626176667003022,0.285019609584077 l -1.1048057696347386 -1.0356936457497756" fill="#ff0601" stroke="none" /><path d="M 115.32070863581623 114.36230785411682 l 2.398431549627907 2.2483954953789413 a24.287515201773346,24.287515201773346 0 0,0 -0.2885512345774408,0.30254481584181336 l -2.359373763671502 -2.289347427803262" fill="#ff2003" stroke="none" /><path d="M 115.07121518719521 114.62390073753431 l 4.824058613022503 4.680880302792457 a27.721769254515287,27.721769254515287 0 0,0 -0.33524777105863685,0.3396042221142191 l -4.742770216908331 -4.763225018887341" fill="#ff5007" stroke="none" /><path d="M 114.81725581225074 114.88116024355365 l 6.847016534954906 6.876546611463821 a30.704047028409356,30.704047028409356 0 0,0 -0.37773295295454334,0.3696911967139912 l -6.7276336296245685 -6.993387911100385" fill="#ff790b" stroke="none" /><path d="M 114.29624159901734 115.38237550388516 l 4.146606396919898 4.461638132124069 a27.091022856056327,27.091022856056327 0 0,0 -0.3443145812230914,0.31452320632736863 l -4.069192266229943 -4.532354105038021" fill="#ff4806" stroke="none" /><path d="M 114.0293411484842 115.62618273729858 l 2.335603999398543 2.6014461057218132 a24.496078929741383,24.496078929741383 0 0,0 -0.31618331036715297,0.2789950093958847 l -2.290478336124802 -2.6412642568899867" fill="#ff2303" stroke="none" /><path d="M 113.75828350139079 115.86535959552629 l 0.7499704902755904 0.8648281969951117 a22.144719855074605,22.144719855074605 0 0,0 -0.29013223541241673,0.24725698530288737 l -0.7349727782861264 -0.877609572520946" fill="#ff0100" stroke="none" /><path d="M 113.20401910651253 116.32954008644616 l 3.765151198223235 4.656399458903553 a26.988189999186663,26.988189999186663 0 0,0 -0.3637526173519192,0.28898707872395746 l -3.6844410881539646 -4.720520451632636" fill="#ff4606" stroke="none" /><path d="M 112.92097659922987 116.55440617244103 l 2.8624180679255082 3.6673413164912834 a25.652185457097602,25.652185457097602 0 0,0 -0.3504226218570618,0.26868912365283426 l -2.798866717574953 -3.7160697819714894" fill="#ff3304" stroke="none" /><path d="M 112.63410532772338 116.77436683061366 l 0.9938458010531581 1.3195341979102249 a22.65193824815747,22.65193824815747 0 0,0 -0.3134758906697685,0.2319019697673791 l -0.9709849399648254 -1.336446116417373" fill="#ff0801" stroke="none" /><path d="M 112.34349029814194 116.9893568818739 l 0.6565927301793496 0.903722362931664 a22.117062273370273,22.117062273370273 0 0,0 -0.30992604834844256,0.22112400644965835 l -0.6409393539820224 -0.9148906312255416" fill="#ff0000" stroke="none" /><path d="M 112.04921762599082 117.19931262002967 l 4.287893064048258 6.120630864093838 a28.47316192138316,28.47316192138316 0 0,0 -0.4038350119667548,0.2777614035949721 l -4.181901167458619 -6.193533057053903" fill="#ff5b08" stroke="none" /><path d="M 111.45004920935366 117.60387380957326 l 0.7990943550215005 1.22856731272816 a22.465581601321237,22.465581601321237 0 0,0 -0.32598435912010676,0.2080586414065853 l -0.7778281938544633 -1.2421403829585542" fill="#ff0600" stroke="none" /><line stroke="#e1ed5e" stroke-width="0.3" x1="143.8653032363475" x2="146.44561519142675" y1="172.8068346515853" y2="177.08958963109032" /><path d="M 144.38136562736335 173.6633856474863 a86.0,86.0 0 0,1 -40.68145358897372,12.25698825130547" fill="none" id="id78" stroke="none" /><text fill="#e1ed5e" style="font-size:6.75px; font-family:Arial;" text-anchor="middle"><textPath startOffset="21.466115282336833" xlink:href="#id78">June</textPath></text><path d="M 110.8373102113329 117.98757091392108 l 0.5611856775560314 0.9314458084220909 a22.087437657395174,22.087437657395174 0 0,0 -0.32734858312566595,0.19340331289593454 l -0.5450692234019834 -0.9409676936117749" fill="#ff0000" stroke="none" /><path d="M 109.89434966115114 118.52300852407294 l 2.9218264290546454 5.469891170689045 a27.201353005651605,27.201353005651605 0 0,0 -0.4148971824427839,0.217054596602234 l -2.827238344085366 -5.519375186235996" fill="#ff4906" stroke="none" /><path d="M 108.59647513512805 119.15986991738527 l 1.4613554018572963 3.2570767625720607 a24.569889164641445,24.569889164641445 0 0,0 -0.3873610632553931,0.16980770663885605 l -1.4050736639441492 -3.281749022505371" fill="#ff2403" stroke="none" /><path d="M 107.59598834532513 119.57807347666477 l 1.5376293893807724 3.9631210313405814 a25.25095665093653,25.25095665093653 0 0,0 -0.4065762094272876,0.15373233306208775 l -1.4691829591932102 -3.9890016145093" fill="#ff2e04" stroke="none" /><path d="M 106.57524785965236 119.94407469862006 l 0.38300361945978584 1.1617284944071566 a22.223235409574468,22.223235409574468 0 0,0 -0.364332647358842,0.11664780843850492 l -0.36294962701000344 -1.168149149505368" fill="#ff0200" stroke="none" /><path d="M 105.53697534728816 120.25689768951611 l 0.9415719072417758 3.4447192909502014 a24.571085080189405,24.571085080189405 0 0,0 -0.4089442412389534,0.1080058909475773 l -0.8821372231913249 -3.4604165312013624" fill="#ff2403" stroke="none" /><path d="M 105.18746579009965 120.34920634021253 l 1.8869848058323846 7.4021968969922405 a28.638928626403303,28.638928626403303 0 0,0 -0.4787429439415476,0.11766336786287541 l -1.7592885771476259 -7.433581523169146" fill="#ff5d08" stroke="none" /><path d="M 104.83641907484287 120.43548508189849 l 1.2632390124703956 5.337606521421985 a26.485053890360028,26.485053890360028 0 0,0 -0.44454513517124283,0.10117702545027325 l -1.1711737279062908 -5.358560280449942" fill="#ff3f05" stroke="none" /><path d="M 104.48393922423573 120.51570834832081 l 1.7143265604768845 7.843688767775045 a29.028846059159243,29.028846059159243 0 0,0 -0.48907874288489,0.10249120579507486 l -1.5790563561626165 -7.872035954296661" fill="#ff6209" stroke="none" /><path d="M 103.7750983002368 120.6578951692458 l 2.931237315068661 16.04016328980664 a37.30579622591033,37.30579622591033 0 0,0 -0.6326903664720038,0.11000133008162145 l -2.654697977124607 -16.088243198409266" fill="#ffd013" stroke="none" /><path d="M 103.06178313531738 120.77559828337769 l 0.8169362445370006 5.543285885880555 a26.60316011195832,26.60316011195832 0 0,0 -0.4536110009605349,0.06286635142027597 l -0.7213966523896354 -5.556526802793433" fill="#ff4106" stroke="none" /><path d="M 102.70371172650421 120.8252237178851 l 0.7917392569715616 6.0983377003669705 a27.149518172893465,27.149518172893465 0 0,0 -0.463962740458079,0.05617942655069343 l -0.6866490934621022 -6.111062655643015" fill="#ff4806" stroke="none" /><path d="M 102.34483914955558 120.86867818915974 l 0.6149575010352063 5.473019414378962 a26.507459871687537,26.507459871687537 0 0,0 -0.453867548411613,0.04704522714530646 l -0.5206573560179907 -5.482794009980027" fill="#ff3f05" stroke="none" /><path d="M 101.98527174616119 120.90594882070398 l 0.5179872012729287 5.454675885319478 a26.47921524988464,26.47921524988464 0 0,0 -0.45412570638051314,0.03918387680782779 l -0.4240171771508739 -5.462784014405969" fill="#ff3f05" stroke="none" /><path d="M 101.62511606390274 120.93702456842531 l 0.16902813696101543 2.1776575439228165 a23.184207611397888,23.184207611397888 0 0,0 -0.3981470774525068,0.027458553541600362 l -0.13151829872957824 -2.1802444419807023" fill="#ff1001" stroke="none" /><path d="M 101.26447882468166 120.96189622390904 l 0.6690009462009144 11.0903623961366 a32.11052205540579,32.11052205540579 0 0,0 -0.5520134091177908,0.02853278792954524 l -0.47799946866964393 -11.100234990828348" fill="#ff8c0c" stroke="none" /><path d="M 100.90346689309514 120.98055641714683 l 0.4676897375625436 10.860819582481609 a31.870884770516028,31.870884770516028 0 0,0 -0.548300097224272,0.018884563978012792 l -0.2806692886636194 -10.867260944885716" fill="#ff890c" stroke="none" /><line stroke="#e1ed5e" stroke-width="0.3" x1="102.19456741930631" x2="102.32365962044197" y1="184.97166512339345" y2="189.96999836594603" /><path d="M 102.22038585953345 185.97133177190398 a86.0,86.0 0 0,1 -42.740103519485714,-10.115201625700543" fill="none" id="id79" stroke="none" /><text fill="#e1ed5e" style="font-size:6.75px; font-family:Arial;" text-anchor="middle"><textPath startOffset="22.20632615414155" xlink:href="#id79">July</textPath></text><path d="M 100.54218724476979 120.99299961872073 l 0.1406958710100967 5.4476168426363705 a26.449433419383592,26.449433419383592 0 0,0 -0.45523292463167797,0.007837247638355629 l -0.046903256485750784 -5.449231567553886" fill="#ff3f05" stroke="none" /><path d="M 100.18074693466247 120.99922214144158 l 0.04685451593180497 5.443568878327557 a26.44377052039848,26.44377052039848 0 0,0 -0.4552029011885171,0.0 l 0.046854515931801226 -5.443568878327557" fill="#ff3f05" stroke="none" /><path d="M 99.81925306533755 120.99922214144158 l -0.046940055649536516 5.453506903212982 a26.453708913410765,26.453708913410765 0 0,0 -0.4553065120548705,-0.007838514512580719 l 0.14080625759707496 -5.451890911421241" fill="#ff3f05" stroke="none" /><path d="M 98.73552117531835 120.96189622390904 l -0.6544497159905724 10.849139394497145 a31.868860567326735,31.868860567326735 0 0,0 -0.5472903758153302,-0.037744348604242646 l 0.8411028525848327 -10.836266701376617" fill="#ff890c" stroke="none" /><path d="M 98.01472825383883 120.90594882070398 l -0.5149982273089864 5.423200427696437 a26.447598191230536,26.447598191230536 0 0,0 -0.4528425813161605,-0.04693898511502105 l 0.6082734052307402 -5.413532074125655" fill="#ff3f05" stroke="none" /><path d="M 97.65516085044442 120.86867818915974 l -1.2126564677532128 10.792440745601379 a31.86035510267047,31.86035510267047 0 0,0 -0.5444670351520556,-0.06592737550519939 l 1.3982509259566578 -10.769967841370832" fill="#ff890c" stroke="none" /><path d="M 97.2962882734958 120.8252237178851 l -0.7038311401001394 5.421229197075345 a26.466727017237723,26.466727017237723 0 0,0 -0.4512846776064701,-0.06254394420090642 l 0.7970444088934405 -5.408310687381833" fill="#ff3f05" stroke="none" /><path d="M 96.58105272829116 120.7198165907248 l -3.723631436789481 22.566291402082022 a43.871443739316675,43.871443739316675 0 0,0 -0.7440409433697014,-0.12936105517496155 l 4.111521351631232 -22.498851768386057" fill="#deff1b" stroke="none" /><path d="M 95.16358092515715 120.4354850818985 l -1.2543334557905534 5.299977571601761 a26.44638546907921,26.44638546907921 0 0,0 -0.442091273777864,-0.10865527906734652 l 1.345378014311628 -5.2776010342203845" fill="#ff3f05" stroke="none" /><path d="M 94.11515582081647 120.15858648285463 l -1.523345311364717 5.218233018135284 a26.436040541535185,26.436040541535185 0 0,0 -0.4357226289589316,-0.13127965381809864 l 1.6129429147638945 -5.19123799521146" fill="#ff3e05" stroke="none" /><path d="M 93.76903079525671 120.05430185196036 l -1.6182010534459874 5.208161253350802 a26.453761847594585,26.453761847594585 0 0,0 -0.4336888355321173,-0.13885346969535298 l 1.707611234069045 -5.179534936995743" fill="#ff3f05" stroke="none" /><path d="M 92.7421414339146 119.70592522655815 l -2.4005707251022104 6.517827094479099 a27.945848388767466,27.945848388767466 0 0,0 -0.44996778792193076,-0.1701393151789831 l 2.512408733784424 -6.475539529193482" fill="#ff5407" stroke="none" /><path d="M 92.40401165467489 119.57807347666478 l -1.9727746433768136 5.084674326113557 a26.45396670288597,26.45396670288597 0 0,0 -0.4231109462185645,-0.16836457751512154 l 2.060006665637236 -5.049962904192369" fill="#ff3f05" stroke="none" /><path d="M 92.06813273071674 119.44442032107085 l -2.0604765167144588 5.051114711392825 a26.45521065620575,26.45521065620575 0 0,0 -0.42016989518340414,-0.17563105026345102 l 2.147117871395325 -5.014898618109401" fill="#ff3f05" stroke="none" /><path d="M 90.42595943632237 118.69057910512821 l -1.495667776108156 2.9198640530516515 a24.280644477048913,24.280644477048913 0 0,0 -0.3703481580246936,-0.19374865254361143 l 1.5457068366593454 -2.8936859815633236" fill="#ff2003" stroke="none" /><path d="M 90.10565033884886 118.52300852407294 l -2.5737847345264195 4.818329471814432 a26.462661142578476,26.462661142578476 0 0,0 -0.3999354754240259,-0.2180767090493715 l 2.656343021819086 -4.7733121110052945" fill="#ff3f05" stroke="none" /><line stroke="#e1ed5e" stroke-width="0.3" x1="58.666819895761336" x2="56.23545636021788" y1="174.27360380694188" y2="178.64263932499728" /><path d="M 58.180547188652646 175.14741091055294 a86.0,86.0 0 0,1 -31.652253787137756,-30.449443065178592" fill="none" id="id80" stroke="none" /><text fill="#e1ed5e" style="font-size:6.75px; font-family:Arial;" text-anchor="middle"><textPath startOffset="22.20632615414155" xlink:href="#id80">August</textPath></text><path d="M 89.7882731507175 118.34994917583269 l -2.6547347585740044 4.770422144475228 a26.459353814773376,26.459353814773376 0 0,0 -0.3960728808639081,-0.22490051862174976 l 2.7364564063591197 -4.724018460058845" fill="#ff3f05" stroke="none" /><path d="M 89.4739219176387 118.17145234162733 l -3.6540143398407743 6.308023454937588 a28.28992323030941,28.28992323030941 0 0,0 -0.4192730016863251,-0.24771387968045314 l 3.7620552125554814 -6.244191002963386" fill="#ff5808" stroke="none" /><path d="M 89.1626897886671 117.98757091392108 l -2.8109533444499952 4.6655693740448125 a26.44692539775418,26.44692539775418 0 0,0 -0.38791443430222794,-0.2382887286754559 l 2.890846978684532 -4.6164921785409785" fill="#ff3f05" stroke="none" /><path d="M 88.54995079064634 117.60387380957326 l -2.973706168371672 4.571923419508123 a26.453935471717518,26.453935471717518 0 0,0 -0.37958286073947106,-0.25156682207735975 l 3.051963727851105 -4.520058576339445" fill="#ff3f05" stroke="none" /><path d="M 88.24862548938628 117.40417183066458 l -3.053471753369923 4.5222920116904195 a26.456630351015814,26.456630351015814 0 0,0 -0.3752345336251022,-0.2580897337984956 l 3.1308631716179156 -4.4690614885268225" fill="#ff3f05" stroke="none" /><path d="M 87.95078237400918 117.19931262002967 l -3.139070338503674 4.480776575213317 a26.47093422616777,26.47093422616777 0 0,0 -0.37093678805098795,-0.26465354929181784 l 3.2157344544035484 -4.426078764077279" fill="#ff3f05" stroke="none" /><path d="M 87.07902340077011 116.55440617244103 l -0.8096164498752434 1.0372837882798545 a22.31584058811727,22.31584058811727 0 0,0 -0.30077768915145037,-0.23895598708263682 l 0.8273516317440518 -1.0231938871920871" fill="#ff0300" stroke="none" /><path d="M 86.51685102203217 116.09983520530335 l -3.504892870225009 4.185090420277331 a26.45886946699142,26.45886946699142 0 0,0 -0.3466546876719311,-0.29542664534686397 l 3.5764130344739966 -4.124139384707516" fill="#ff3f05" stroke="none" /><path d="M 86.24171649860922 115.8653595955263 l -3.5746460799631232 4.12210182175854 a26.456172470325768,26.456172470325768 0 0,0 -0.34148323147161963,-0.3013192481991896 l 3.6450716643413306 -4.059959431787061" fill="#ff3f05" stroke="none" /><path d="M 85.97065885151581 115.62618273729859 l -3.6434205464766762 4.058120381100301 a26.453700973283194,26.453700973283194 0 0,0 -0.33621450990659,-0.30712398323057993 l 3.712734605850121 -3.994803631283146" fill="#ff3f05" stroke="none" /><path d="M 85.70375840098266 115.38237550388516 l -3.71602939422614 3.9983487358936642 a26.458540745709897,26.458540745709897 0 0,0 -0.3309385965813553,-0.31292309921337286 l 3.7843038251983123 -3.9337909999343608" fill="#ff3f05" stroke="none" /><path d="M 85.44109423537348 115.13401014063109 l -3.783083240541766 3.9325221998701037 a26.456780154756025,26.456780154756025 0 0,0 -0.32548144823639813,-0.3185521018633458 l 3.850214641153958 -3.866819995084188" fill="#ff3f05" stroke="none" /><path d="M 85.18274418774928 114.88116024355367 l -3.844510626656597 3.8610913800935087 a26.448696046202972,26.448696046202972 0 0,0 -0.31985211028523314,-0.32400849903341544 l 3.9104033619973633 -3.794342387079429" fill="#ff3f05" stroke="none" /><path d="M 84.67929136418377 114.36230785411682 l -3.9830742414695632 3.7339094307983998 a26.459575079661747,26.459575079661747 0 0,0 -0.3086365694604686,-0.33496403968655714 l 4.046757218925761 -3.6647941363104986" fill="#ff3f05" stroke="none" /><path d="M 84.43433777217949 114.09645910891817 l -4.049244387835769 3.6670465476967764 a26.46293057757412,26.46293057757412 0 0,0 -0.30286338936620605,-0.3402702285856821 l 4.111766626850313 -3.59680214937023" fill="#ff3f05" stroke="none" /><path d="M 84.19399662182784 113.82643327865904 l -4.108595219235668 3.5940279341094716 a26.458717016542018,26.458717016542018 0 0,0 -0.29691404057596305,-0.34537810766850846 l 4.16985176938241 -3.522772727279433" fill="#ff3f05" stroke="none" /><path d="M 83.95833913139862 113.55231037782056 l -3.726900811343695 3.148559052357317 a25.878853734615898,25.878853734615898 0 0,0 -0.28454908788061456,-0.34275770690871016 l 3.780545899117846 -3.0839400883348453" fill="#ff3705" stroke="none" /><path d="M 83.72743513129214 113.27417163493432 l -1.6232816858828194 1.3241747618834425 a23.0948704570287,23.0948704570287 0 0,0 -0.24863507303559795,-0.3102104830020731 l 1.6458346709732783 -1.29603644530311" fill="#ff0f01" stroke="none" /><path d="M 83.50135304334701 112.99209946851258 l -6.359833933816641 5.00814371556986 a29.094997908679627,29.094997908679627 0 0,0 -0.3064578662121185,-0.39613810301525704 l 6.445098617246828 -4.897927618441351" fill="#ff6309" stroke="none" /><path d="M 83.06392112726016 112.41649034213515 l -1.761921780363747 1.2917325748108592 a23.184706251409477,23.184706251409477 0 0,0 -0.23319421276825053,-0.3238863657928788 l 1.783895785507605 -1.261212603566842" fill="#ff1001" stroke="none" /><path d="M 82.85270091963577 112.12312394758628 l -4.451444905129779 3.147167263941691 a26.451607426313096,26.451607426313096 0 0,0 -0.25965287423635924,-0.37404933116393246 l 4.504958686528272 -3.0700766705907463" fill="#ff3f05" stroke="none" /><path d="M 82.6465618267979 111.8261652097733 l -4.49806226210034 3.0653768379796276 a26.44326182289197,26.44326182289197 0 0,0 -0.2530958813910607,-0.3783440021795015 l 4.550161248902131 -2.9874959215943053" fill="#ff3f05" stroke="none" /><path d="M 82.44556493220864 111.52570212397912 l -4.575722145297815 3.0042784199624295 a26.473839783517672,26.473839783517672 0 0,0 -0.24683090844514508,-0.38308705130244103 l 4.626757917120006 -2.92506976873854" fill="#ff3f05" stroke="none" /><line stroke="#e1ed5e" stroke-width="0.3" x1="26.63291911575756" x2="22.317208475507996" y1="142.92168965132927" y2="145.44649492493687" /><path d="M 25.769776987707644 143.4266507060508 a86.0,86.0 0 0,1 -11.730757126820373,-40.83630448921669" fill="none" id="id81" stroke="none" /><text fill="#e1ed5e" style="font-size:6.75px; font-family:Arial;" text-anchor="middle"><textPath startOffset="21.46611528233685" xlink:href="#id81">September</textPath></text><path d="M 81.69416730710424 110.29060199501025 l -4.786211423083152 2.690563037759803 a26.490623757517074,26.490623757517074 0 0,0 -0.22002808150738506,-0.39941487941242654 l 4.831815914042053 -2.607777639949554" fill="#ff3f05" stroke="none" /><path d="M 81.35079622478065 109.6543875284942 l -4.885707071950482 2.529250577764135 a26.50156723834465,26.50156723834465 0 0,0 -0.20623435099233223,-0.4069199399658256 l 4.928520092729081 -2.444776426095624" fill="#ff3f05" stroke="none" /><path d="M 81.02952815118164 109.00673069616217 l -3.13061364220192 1.4863412050976677 a24.465537758373433,24.465537758373433 0 0,0 -0.17734646949943256,-0.38198851781918075 l 3.155734728541179 -1.4322326199996598" fill="#ff2203" stroke="none" /><path d="M 80.87730276802145 108.67885076344099 l -5.081539524698076 2.30626059955761 a26.580401588966566,26.580401588966566 0 0,0 -0.18550451544218594,-0.4182637105602949 l 5.120485124871542 -2.2184485525046194" fill="#ff4006" stroke="none" /><path d="M 80.32549172779594 107.34259656027581 l -5.427089581015967 2.0254091608568783 a26.792718152064282,26.792718152064282 0 0,0 -0.15753574635737502,-0.4334707150646683 l 5.461149588378567 -1.931690648786093" fill="#ff4306" stroke="none" /><path d="M 80.0844068197444 106.66101706037122 l -9.89079223181406 3.308098091801606 a31.42934724505301,31.42934724505301 0 0,0 -0.16718579203683417,-0.5145449598013723 l 9.946270274867144 -3.1373542320224304" fill="#ff830c" stroke="none" /><path d="M 79.76711848015287 105.62410040840567 l -3.2162633271506342 0.8940193651618212 a24.338206167218917,24.338206167218917 0 0,0 -0.10872447328272783,-0.4046042115818638 l 3.231175876775137 -0.8385242204044185" fill="#ff2103" stroke="none" /><line stroke="#e1ed5e" stroke-width="0.3" x1="15.007084014347285" x2="10.007500721073583" y1="101.09737516637583" y2="101.16192664675087" /><path d="M 14.007167355692545 101.11028546245083 a86.0,86.0 0 0,1 10.666146001902534,-42.60595125391555" fill="none" id="id82" stroke="none" /><text fill="#e1ed5e" style="font-size:6.75px; font-family:Arial;" text-anchor="middle"><textPath startOffset="22.20632615414155" xlink:href="#id82">October</textPath></text><path d="M 79.46518482838121 95.60439243477599 l -3.7775362275451436 -0.8086056134877899 a24.863110532793485,24.863110532793485 0 0,0 0.09318411216760034,-0.41772610327913745 l 3.7630577283755056 0.8735098863168866" fill="#ff2803" stroke="none" /><path d="M 79.81627453868168 94.20196356495316 l -5.3182847693736885 -1.5277461499305047 a26.533367978616607,26.533367978616607 0 0,0 0.12987970276032645,-0.43788979104899506 l 5.291199169501655 1.619065327726039" fill="#ff4006" stroke="none" /><path d="M 79.91906864156998 93.8553929516997 l -5.2107107481881165 -1.5944365038890354 a26.449195744898237,26.449195744898237 0 0,0 0.13696214266662096,-0.43420742053375494 l 5.182493121753292 1.6838940908492048" fill="#ff3f05" stroke="none" /><path d="M 80.38941819471856 92.48833698450439 l -3.5858059390370447 -1.3735118172656655 a24.839861839259555,24.839861839259555 0 0,0 0.15638047405703587,-0.39797124924145855 l 3.561631915098318 1.4350320714028875" fill="#ff2803" stroke="none" /><line stroke="#e1ed5e" stroke-width="0.3" x1="26.266209847984243" x2="21.928928074336255" y1="57.711370442889674" y2="55.22380399835377" /><path d="M 25.398753493254645 57.213857153982495 a86.0,86.0 0 0,1 29.58750427330803,-30.492523968695096" fill="none" id="id83" stroke="none" /><text fill="#e1ed5e" style="font-size:6.75px; font-family:Arial;" text-anchor="middle"><textPath startOffset="21.46611528233685" xlink:href="#id83">November</textPath></text><line stroke="#e1ed5e" stroke-width="0.3" x1="56.762969772571076" x2="54.21961505331055" y1="26.818313649435495" y2="22.513508569990535" /><path d="M 56.25429882871897 25.957352633546506 a86.0,86.0 0 0,1 42.265352541879196,-11.944610805530505" fill="none" id="id84" stroke="none" /><text fill="#e1ed5e" style="font-size:6.75px; font-family:Arial;" text-anchor="middle"><textPath startOffset="22.20632615414155" xlink:href="#id84">December</textPath></text></svg>