<?xml version="1.0" encoding="utf-8" ?>
<svg baseProfile="full" height="200mm" version="1.1" viewBox="0,0,200,200" width="200mm" xmlns="http://www.w3.org/2000/svg" xmlns:ev="http://www.w3.org/2001/xml-events" xmlns:xlink="http://www.w3.org/1999/xlink"><defs /><rect fill="#1a1a1a" height="200" width="200" x="0" y="0" /><rect fill="#1a1a1a" height="200" width="180" x="10" y="0" /><text alignment-baseline="middle" fill="#e1ed5e" style="dominant-baseline: central; font-size:9.0px; font-family:Arial;" text-anchor="middle" x="100.0" y="100.0">2024</text><line stroke="#e1ed5e" stroke-width="0.3" x1="100.0" x2="100.0" y1="15.0" y2="10.0" /><path d="M 100.0 14.0 a86.0,86.0 0 0,1 42.35913384403234,11.155469271406648" fill="none" id="id61" stroke="none" /><text fill="#e1ed5e" style="font-size:6.75px; font-family:Arial;" text-anchor="middle"><textPath startOffset="22.145653131862478" xlink:href="#id61">January</textPath></text><path d="M 100.36049292484886 79.00309439819443 l 0.017775938052182833 -1.0353592748643154 a22.035511859913345,22.035511859913345 0 0,0 0.37815738533090687,0.009739992829530907 l -0.03554663745383108 1.0349015646847395" fill="#ff0400" stroke="none" /><path d="M 101.80034050326958 79.07731436759882 l 0.152998820292038 -1.77807820980808 a22.784648637464826,22.784648637464826 0 0,0 0.3894009687669141,0.036876676600887504 l -0.18349935244396506 1.7751897777020087" fill="#ff0e01" stroke="none" /><path d="M 102.15924093988457 79.11130261209362 l 0.21985298689634747 -2.12687821367015 a23.138210997921387,23.138210997921387 0 0,0 0.3947423953209922,0.04423170874956176 l -0.25633128381813636 2.1227907444136176" fill="#ff1402" stroke="none" /><path d="M 102.51750503828377 79.15144685158666 l 0.2220573084836658 -1.8389530616675098 a22.852311477928946,22.852311477928946 0 0,0 0.3890575321152009,0.050371286735460805 l -0.2535926624896584 1.834870178731652" fill="#ff0f01" stroke="none" /><path d="M 102.87502721639298 79.19773525538626 l 0.23368780271386322 -1.6908485289888044 a22.706920835047963,22.706920835047963 0 0,0 0.38566612337216466,0.05667963899335519 l -0.2626790316937099 1.6865878166965667" fill="#ff0d01" stroke="none" /><path d="M 103.23170211078529 79.25015418208739 l 0.310372205575616 -1.9928122057928666 a23.016836977435435,23.016836977435435 0 0,0 0.3898860343539881,0.06415559858391247 l -0.34453574298267464 1.9871906087132858" fill="#ff1202" stroke="none" /><path d="M 103.58742460773223 79.30868818359171 l 0.3432532672820012 -1.9797936296764562 a23.00932964483363,23.00932964483363 0 0,0 0.38860047758555044,0.07081595197908346 l -0.3771884784186053 1.9736095037660069" fill="#ff1202" stroke="none" /><path d="M 103.94208987418118 79.37332000966035 l 1.0797397499599106 -5.649654626379749 a26.751907103302138,26.751907103302138 0 0,0 0.4503282466555554,0.09007826150922087 l -1.176564482146423 5.630286968207669" fill="#ff4706" stroke="none" /><path d="M 104.29559338865022 79.4440306129975 l 3.0201352617270665 -14.452440528635805 a35.76462848272458,35.76462848272458 0 0,0 0.5998879193937805,0.13074277995276365 l -3.267785597739981 14.398466290549322" fill="#ffbf11" stroke="none" /><path d="M 104.64783097203109 79.52079915486377 l 1.3551647205339672 -5.971105803344267 a27.12295483688321,27.12295483688321 0 0,0 0.45317013084893243,0.10694691696205413 l -1.4574670051227845 5.946962742735986" fill="#ff4c07" stroke="none" /><path d="M 106.04205211174951 79.88797359093562 l 0.9368062556478933 -3.118323345329709 a24.25600160421479,24.25600160421479 0 0,0 0.3977514934043871,0.12322442939548027 l -0.9901983819239106 3.101782328127582" fill="#ff2403" stroke="none" /><path d="M 106.72888874123014 80.10723608172694 l 0.6007211043328032 -1.7759252038148732 a22.874773632931646,22.874773632931646 0 0,0 0.37089182799000153,0.1290154306534811 l -0.6311187043678231 1.7653513405928019" fill="#ff1001" stroke="none" /><path d="M 109.06512990194946 81.05736502329252 l 0.629687188858277 -1.315804042199804 a22.45871389699337,22.45871389699337 0 0,0 0.34633449096651825,0.1694095545743878 l -0.6521819290868623 1.3048007375281951" fill="#ff0a01" stroke="none" /><path d="M 109.71004243097381 81.37971332152246 l 0.36692450503388413 -0.7036261192119424 a21.79355107462067,21.79355107462067 0 0,0 0.3302357950319591,0.17583196024939016 l -0.3789491158524028 0.6972236912399791" fill="#ff0000" stroke="none" /><path d="M 110.02825361518725 81.54914285379988 l 1.002038810593847 -1.8436385495093124 a23.09835289671998,23.09835289671998 0 0,0 0.34675666641487385,0.19234007758789376 l -1.033539665164821 1.8261655564882724" fill="#ff1302" stroke="none" /><path d="M 110.34350942703115 81.72400993836675 l 1.0291202926805467 -1.8183569487646523 a23.08938042728642,23.08938042728642 0 0,0 0.3432704038969303,0.19818726009472432 l -1.0601831644378743 1.8004227913937563" fill="#ff1302" stroke="none" /><line stroke="#e1ed5e" stroke-width="0.3" x1="143.13028292997686" x2="145.6673583964461" y1="26.7553504044142" y2="22.446841604673864" /><path d="M 143.63769802327073 25.89364864446614 a86.0,86.0 0 0,1 29.32050498858742,28.57503671076993" fill="none" id="id62" stroke="none" /><text fill="#e1ed5e" style="font-size:6.75px; font-family:Arial;" text-anchor="middle"><textPath startOffset="20.669276256404974" xlink:href="#id62">February</textPath></text><path d="M 111.8722381534696 82.67804972795209 l 1.4402853004119454 -2.1014192967487113 a23.547623364496914,23.547623364496914 0 0,0 0.3314663360827015,0.2313892455586792 l -1.4761467276684077 2.0763852353849055" fill="#ff1902" stroke="none" /><path d="M 112.7482090630111 83.31218511350987 l 2.9255461796651474 -3.829633860475688 a25.819223584215123,25.819223584215123 0 0,0 0.34989972710986955,0.2720841441502134 l -2.990855851410243 3.7788486647046837" fill="#ff3a05" stroke="none" /><path d="M 113.86319453409587 84.22622945171908 l 2.232628237086339 -2.5403210958915996 a24.381990555171193,24.381990555171193 0 0,0 0.3120139798969829,0.27900482479755606 l -2.2759072438066976 2.5016207412106564" fill="#ff2503" stroke="none" /><path d="M 114.13192950727249 84.46653392183569 l 1.323454010846586 -1.4547077929391445 a22.96664823536488,22.96664823536488 0 0,0 0.2893472083705814,0.26781545636481263 l -1.3482309905311325 1.431774590441957" fill="#ff1101" stroke="none" /><path d="M 114.65682725009322 84.96080404539774 l 0.9024742253048128 -0.9260180588026397 a22.293046469608935,22.293046469608935 0 0,0 0.2717714295780048,0.2694486108041981 l -0.9182375750127801 0.9103894377697821" fill="#ff0701" stroke="none" /><path d="M 115.16444852881244 85.47280134310134 l 0.9296306021489497 -0.8905650877637101 a22.2873691125685,22.2873691125685 0 0,0 0.26229491702561775,0.2785481123315661 l -0.9447813529108274 0.8744755154876492" fill="#ff0701" stroke="none" /><path d="M 115.6541949942343 86.00192230759917 l 1.5288174676102215 -1.3670780066933832 a23.0508986141823,23.0508986141823 0 0,0 0.26123137314226924,0.2972333490541494 l -1.552059904711081 1.340632379827936" fill="#ff1202" stroke="none" /><path d="M 115.8921839302757 86.27271002978787 l 0.9356507595832496 -0.8081928414621408 a22.236372926304746,22.236372926304746 0 0,0 0.24704127102810294,0.2910139960946668 l -0.9493865941184648 0.7920120629179219" fill="#ff0601" stroke="none" /><path d="M 116.35404254752997 86.82634096563983 l 1.562215255506459 -1.2584100264204252 a23.006019017639805,23.006019017639805 0 0,0 0.2451056548354629,0.3096829879145904 l -1.5835873409834813 1.2314070945911566" fill="#ff1202" stroke="none" /><path d="M 117.21940702142032 87.97951657250589 l 0.7411973653661769 -0.5174133253138896 a21.903930353311658,21.903930353311658 0 0,0 0.2125831338136781,0.31016514535808204 l -0.74997023599518 0.5046134448857589" fill="#ff0200" stroke="none" /><path d="M 117.42321728460499 88.27688183743584 l 2.36422577122689 -1.590756610925235 a23.849573668557408,23.849573668557408 0 0,0 0.22563463952867435,0.34163960250176295 l -2.391184849676289 1.5499371300844134" fill="#ff1e03" stroke="none" /><line stroke="#e1ed5e" stroke-width="0.3" x1="172.87174338648825" x2="177.1583165268699" y1="56.24261187166439" y2="53.66864786411523" /><path d="M 173.72905801456457 55.72781907015455 a86.0,86.0 0 0,1 12.242430191666344,42.057860355516425" fill="none" id="id63" stroke="none" /><text fill="#e1ed5e" style="font-size:6.75px; font-family:Arial;" text-anchor="middle"><textPath startOffset="22.145653131862474" xlink:href="#id63">March</textPath></text><path d="M 118.8641267826498 90.77261029715802 l 1.8206077610856328 -0.8905504877653263 a23.026744382250584,23.026744382250584 0 0,0 0.17063995464444115,0.35657187577383337 l -1.835626973689986 0.8591661099263894" fill="#ff1202" stroke="none" /><path d="M 119.0197475246899 91.09779779509293 l 0.8188767091661084 -0.3832756473987125 a21.904134551216586,21.904134551216586 0 0,0 0.1564743079327483,0.3419246019495624 l -0.8253354819539082 0.3691620632344659" fill="#ff0200" stroke="none" /><path d="M 119.16976305983485 91.42560881287824 l 1.9027954489168193 -0.8510962017194764 a23.084465222784942,23.084465222784942 0 0,0 0.1586959347584627,0.36312735533457924 l -1.9171252656922522 0.8183067766090478" fill="#ff1302" stroke="none" /><path d="M 119.31412917781788 91.75594674310238 l 5.0198688166516385 -2.1426834979774783 a26.458037697643405,26.458037697643405 0 0,0 0.17471647775917093,0.4192559433215651 l -5.055911138947293 2.0561950452146354" fill="#ff4306" stroke="none" /><path d="M 119.58574465831526 92.42381321644754 l 2.5075259199259663 -0.9699648936193391 a23.688590361872656,23.688590361872656 0 0,0 0.14345056370091325,0.3805196631688858 l -2.52380716744132 0.9267769502562956" fill="#ff1b02" stroke="none" /><path d="M 119.71291397450082 92.76114493625339 l 0.7796573901603069 -0.2863009930469865 a21.83056240262323,21.83056240262323 0 0,0 0.12615968290606863,0.35289108658264823 l -0.7844572431103187 0.27287495008342144" fill="#ff0100" stroke="none" /><path d="M 119.83427380445688 93.10060997987247 l 5.468479215956316 -1.9022209383519666 a26.78987991530488,26.78987991530488 0 0,0 0.14736293735921,0.43565233962451927 l -5.500327574887891 1.8080669242532859" fill="#ff4706" stroke="none" /><path d="M 120.05942366710727 93.78553927170692 l 1.97270608349249 -0.6111493873291732 a23.065205284101584,23.065205284101584 0 0,0 0.11392418913994269,0.37921657381242 l -1.98290659263606 0.5771952099260297" fill="#ff1202" stroke="none" /><path d="M 120.16314734710363 94.1308016681162 l 23.42673560948057 -6.819181311016754 a45.39904045385853,45.39904045385853 0 0,0 0.2113898397116828,0.7501479666616888 l -23.540343941266837 6.416025420452052" fill="#caff1d" stroke="none" /><path d="M 120.43855184770803 95.1765574152323 l 1.3133294017401553 -0.3099421628001172 a22.349406633211935,22.349406633211935 0 0,0 0.08491618571244551,0.37415638233679516 l -1.3184564490102673 0.2873514465242958" fill="#ff0801" stroke="none" /><path d="M 120.51834098615036 95.52812308129327 l 2.0489895544124415 -0.4465677367011781 a23.097088681375613,23.097088681375613 0 0,0 0.08110629488844023,0.3881229818504545 l -2.0563535601252485 0.4113283035653192" fill="#ff1302" stroke="none" /><path d="M 120.592083275326 95.88100663000786 l 2.5220635440892245 -0.5044833433268993 a23.57202409866591,23.57202409866591 0 0,0 0.0759622032938605,0.39746634620526167 l -2.530352039665242 0.4611144320883231" fill="#ff1a02" stroke="none" /><path d="M 120.65975698304385 96.23510406497455 l 5.215793223240894 -0.9504912724883268 a26.30169148543011,26.30169148543011 0 0,0 0.0771330700187219,0.444883050552281 l -5.23134111075185 0.8608151890154531" fill="#ff4006" stroke="none" /><path d="M 120.7213421655516 96.59031103205396 l 3.7475950225605974 -0.6166653348351876 a24.79799217854755,24.79799217854755 0 0,0 0.06551217162060897,0.42063513706525346 l -3.7576286863194714 0.5522420158384929" fill="#ff2b04" stroke="none" /><path d="M 120.77682067341334 96.94652285012252 l 1.8102489628821585 -0.26604425819698746 a22.82969419710932,22.82969419710932 0 0,0 0.05365574257118997,0.388226224666876 l -1.814549222008561 0.23492972533002582" fill="#ff0f01" stroke="none" /><path d="M 120.82617615685814 97.30363454192243 l 2.865676892911789 -0.37101924663754976 a23.889595012444488,23.889595012444488 0 0,0 0.04916468840663787,0.4071541481282276 l -2.8716236675780906 0.32177142158590927" fill="#ff1e03" stroke="none" /><path d="M 120.86939407059847 97.66154086499901 l 0.9295981986998945 -0.10416341712061453 a21.93541585858501,21.93541585858501 0 0,0 0.03871873265702224,0.3745686156538978 l -0.9312493238385828 0.08819027918378532" fill="#ff0200" stroke="none" /><path d="M 120.9064616781168 98.02013634271609 l 1.5663581534457156 -0.14833574566774133 a22.573366250530587,22.573366250530587 0 0,0 0.03322195115814202,0.3860894308129122 l -1.5686737273015983 0.12142526747916713" fill="#ff0b01" stroke="none" /><path d="M 120.96210409425399 98.7389718711861 l 9.687194137972108 -0.5827575439152879 a30.704706931265434,30.704706931265434 0 0,0 0.027134788421240123,0.5264076462550744 l -9.695770515849922 0.4163781042834828" fill="#ff7d0b" stroke="none" /><path d="M 120.99303781780057 99.45929381324524 l 28.474662960372545 -0.7334063112759718 a49.484106366958954,49.484106366958954 0 0,0 0.014582656049086255,0.8493666071659578 l -28.483057048020296 0.2444927881409476" fill="#9cff22" stroke="none" /><line stroke="#e1ed5e" stroke-width="0.3" x1="184.99686870605535" x2="189.99668451229388" y1="99.2704041080226" y2="99.22748670261217" /><path d="M 185.99683186730306 99.26182062694052 a86.0,86.0 0 0,1 -10.086455211305974,41.156179273409016" fill="none" id="id64" stroke="none" /><text fill="#e1ed5e" style="font-size:6.75px; font-family:Arial;" text-anchor="middle"><textPath startOffset="21.40746469413373" xlink:href="#id64">April</textPath></text><path d="M 120.99922638620191 100.18025310272382 l 1.0602530204883607 0.009100997012961928 a22.060292080325663,22.060292080325663 0 0,0 -0.006501029832973811,0.37865239595126016 l -1.0599405590567186 -0.027300308933293105" fill="#ff0400" stroke="none" /><path d="M 120.99303781780057 100.54070618675476 l 6.955037413278341 0.17913709254987578 a27.95734399882805,27.95734399882805 0 0,0 -0.016475280129635797,0.47965980486685245 l -6.95093744615186 -0.2985031619808389" fill="#ff5708" stroke="none" /><path d="M 120.98066250479742 100.90099992219065 l 46.230508006359216 1.9853369314262168 a67.27311782511882,67.27311782511882 0 0,0 -0.0594515304349959,1.153343807834925 l -46.18961488646765 -2.778652532637872" fill="#38ff83" stroke="none" /><path d="M 120.96210409425399 101.26102812881392 l 3.178249465272835 0.1911955955411668 a24.183995197744714,24.183995197744714 0 0,0 -0.028486487828346122,0.41418728109946024 l -3.1744990162794227 -0.24572630079497051" fill="#ff2303" stroke="none" /><path d="M 120.93736805541906 101.62068470465957 l 0.8529333971398987 0.06602243926643782 a21.855484858102876,21.855484858102876 0 0,0 -0.03216542195944478,0.3738109600205034 l -0.8516743524827132 -0.08065444666259856" fill="#ff0100" stroke="none" /><path d="M 120.86939407059847 102.33845913500097 l 1.0786090688910388 0.12086039593246424 a22.085359276368404,22.085359276368404 0 0,0 -0.04545157867287747,0.3764042729728812 l -1.0763754039584978 -0.13935834582875403" fill="#ff0400" stroke="none" /><path d="M 120.82617615685814 102.69636545807757 l 5.092236450681085 0.6592919586660898 a26.13473835325685,26.13473835325685 0 0,0 -0.06142345933943245,0.44442955371807985 l -5.080168474786443 -0.7466098205842547" fill="#ff3e05" stroke="none" /><path d="M 120.77682067341334 103.0534771498775 l 21.481276645851423 3.1570079185521642 a42.71202305943421,42.71202305943421 0 0,0 -0.11283806224253902,0.7245013041612793 l -21.423917091470614 -3.525297404644894" fill="#e9ff1a" stroke="none" /><path d="M 120.7213421655516 103.40968896794604 l 1.084504543115129 0.17845480986721474 a22.09908881497452,22.09908881497452 0 0,0 -0.06480840085359663,0.37379763396122173 l -1.081281324769298 -0.1970454767490245" fill="#ff0400" stroke="none" /><path d="M 120.592083275326 104.11899336999214 l 3.423884315774499 0.6848727546276857 a24.491709394814798,24.491709394814798 0 0,0 -0.08600355793324105,0.41155815834898724 l -3.4116230470168936 -0.743547364262082" fill="#ff2703" stroke="none" /><path d="M 120.51834098615036 104.47187691870673 l 32.040195865567846 6.98301156310774 a53.79232534594714,53.79232534594714 0 0,0 -0.20438301400775963,0.9005492709150956 l -31.915601990002422 -7.531995167961853" fill="#6eff28" stroke="none" /><path d="M 120.35273937422433 105.17358676015961 l 1.9273346244151681 0.4899209247429143 a22.988627986067407,22.988627986067407 0 0,0 -0.1005046605232265,0.3816325663649562 l -1.9186404830872115 -0.5229339954806738" fill="#ff1101" stroke="none" /><path d="M 120.16314734710363 105.8691983318838 l 1.0588748701272555 0.30822304248633514 a22.102822485491906,22.102822485491906 0 0,0 -0.10917076602389243,0.36339397422617986 l -1.0534277840997333 -0.3263546203032385" fill="#ff0500" stroke="none" /><path d="M 120.05942366710727 106.21446072829308 l 0.7668531129642702 0.23757305463866224 a21.802810471502045,21.802810471502045 0 0,0 -0.11382653918560814,0.35656001278436045 l -0.7626618580014072 -0.2507021011144062" fill="#ff0000" stroke="none" /><path d="M 119.94978838288452 106.5578916946017 l 1.4341504101201452 0.47143372565321656 a22.5096480240543,22.5096480240543 0 0,0 -0.1238186905739562,0.3660479575424079 l -1.425846297973824 -0.4959833576697849" fill="#ff0a01" stroke="none" /><path d="M 119.58574465831526 107.57618678355244 l 3.9771785553490435 1.5384581047354229 a25.264364266939964,25.264364266939964 0 0,0 -0.15993705056121416,0.4031458460284552 l -3.950182829821705 -1.6065049679774424" fill="#ff3204" stroke="none" /><path d="M 119.4528033332814 107.91128576633889 l 1.685386194225549 0.6854318928084016 a22.819434940679383,22.819434940679383 0 0,0 -0.15068885088349177,0.3615983857703763 l -1.673371498805572 -0.7142627880200556" fill="#ff0f01" stroke="none" /><path d="M 119.31412917781788 108.2440532568976 l 3.5792992799382315 1.5277900243142029 a24.891725284980986,24.891725284980986 0 0,0 -0.17112008329965925,0.39155623858804245 l -3.5525453146216064 -1.5890083326780902" fill="#ff2d04" stroke="none" /><path d="M 119.16976305983485 108.57439118712176 l 1.7483202165514986 0.7820013951281009 a22.915241436891176,22.915241436891176 0 0,0 -0.16369724795861065,0.35770802943921104 l -1.7346385037378318 -0.8118984067820008" fill="#ff1001" stroke="none" /><path d="M 118.70294669586154 109.54985784667822 l 1.0275646425215132 0.5246818281594391 a22.15376779091856,22.15376779091856 0 0,0 -0.17585020631184703,0.33721595732178933 l -1.018406367234717 -0.5422440285857313" fill="#ff0500" stroke="none" /><line stroke="#e1ed5e" stroke-width="0.3" x1="174.33088141563837" x2="178.70328620479359" y1="141.23008692659167" y2="143.65538615756765" /><path d="M 175.20536237346943 141.71514677278685 a86.0,86.0 0 0,1 -30.301960400862466,31.631185727798858" fill="none" id="id65" stroke="none" /><text fill="#e1ed5e" style="font-size:6.75px; font-family:Arial;" text-anchor="middle"><textPath startOffset="22.145653131862474" xlink:href="#id65">May</textPath></text><path d="M 118.36410011445183 110.18625677009912 l 21.053583831552206 11.678068051384042 a45.07552004765324,45.07552004765324 0 0,0 -0.38113849594158034,0.6734352023434511 l -20.850011970589247 -12.037760023826616" fill="#ceff1d" stroke="none" /><path d="M 117.423217284605 111.72311816256416 l 0.7794423855586267 0.52444362241229 a21.9394527904553,21.9394527904553 0 0,0 -0.21292788796907375,0.31066815197390485 l -0.7703247607742325 -0.5377465094562389" fill="#ff0200" stroke="none" /><path d="M 117.21940702142032 112.02048342749411 l 12.110983156221828 8.454406829394806 a35.77000026564679,35.77000026564679 0 0,0 -0.35580061814632913,0.500478127554958 l -11.964067439545538 -8.661062183659267" fill="#ffbf11" stroke="none" /><path d="M 117.01052211995028 112.31430620078461 l 0.8365923107376434 0.6056283168147337 a22.03279831163359,22.03279831163359 0 0,0 -0.22441766960834608,0.3044656694851143 l -0.8260726215454692 -0.6199002955687254" fill="#ff0400" stroke="none" /><path d="M 116.79662413953412 112.60449989151573 l 1.5642247149886832 1.1738233877589141 a22.955673874814316,22.955673874814316 0 0,0 -0.2392287540953603,0.3131581184570027 l -1.5438439835390185 -1.2005024194567941" fill="#ff1101" stroke="none" /><path d="M 116.57777611688842 112.89097897827486 l 1.6168129645993836 1.2572435404782702 a23.048107780994687,23.048107780994687 0 0,0 -0.24555406765713989,0.31024954286628625 l -1.594992466300682 -1.2848130272592393" fill="#ff1202" stroke="none" /><path d="M 116.35404254752997 113.17365903436017 l 1.2011510478181986 0.9675622591009646 a22.542381458949542,22.542381458949542 0 0,0 -0.24533966592281453,0.2992745007541586 l -1.1843645626567565 -0.9880390415536161" fill="#ff0b01" stroke="none" /><path d="M 115.89218393027572 113.72728997021213 l 0.6831715621202021 0.5901073240639303 a21.902745832005692,21.902745832005692 0 0,0 -0.24821957985450285,0.2824283168346197 l -0.6729409183071137 -0.6017479187098431" fill="#ff0200" stroke="none" /><path d="M 115.6541949942343 113.99807769240083 l 0.6637757974645093 0.5935524111374466 a21.89045088245603,21.89045088245603 0 0,0 -0.2528892244615111,0.2779695573548299 l -0.6534888721611183 -0.6048595440499482" fill="#ff0100" stroke="none" /><path d="M 115.41159269507618 114.26474011684316 l 1.9147719935020917 1.7722843712994982 a23.609088668453495,23.609088668453495 0 0,0 -0.2778499302481739,0.2950669973315819 l -1.884066229517658 -1.8048928285755772" fill="#ff1a02" stroke="none" /><path d="M 115.16444852881244 114.52719865689866 l 1.3884628541216073 1.3301160059480701 a22.922768235267778,22.922768235267778 0 0,0 -0.27465100200735204,0.28181612349221996 l -1.3654250509634482 -1.3537548215080273" fill="#ff1001" stroke="none" /><path d="M 114.91283532996324 114.78537596483092 l 1.5283255841867953 1.5152630508478435 a23.152161983807126,23.152161983807126 0 0,0 -0.2822447873483089,0.27983245323401384 l -1.5020888767085216 -1.5412755143105192" fill="#ff1402" stroke="none" /><path d="M 113.86319453409587 115.77377054828091 l 10.151967001740532 11.551074877102138 a36.37822372125106,36.37822372125106 0 0,0 -0.47260599623499727,0.4082258033535241 l -9.95218152574268 -11.723644812920378" fill="#ffc712" stroke="none" /><path d="M 113.59037401385872 116.0094264158162 l 1.385036032340785 1.6315689634738788 a23.140173379297465,23.140173379297465 0 0,0 -0.30503780492062915,0.25447338591026836 l -1.356823893258261 -1.6551045332960173" fill="#ff1402" stroke="none" /><path d="M 113.31354834802062 116.24036423190432 l 19.588610776635765 23.89492008393601 a51.89791057622213,51.89791057622213 0 0,0 -0.693823734021255,0.558895286922381 l -19.175536272259258 -24.227663664651796" fill="#82ff25" stroke="none" /><path d="M 113.03279911837588 116.46651593811092 l 0.6567834308185739 0.82982440941735 a22.058287780078118,22.058287780078118 0 0,0 -0.2989318733611641,0.2324512327989141 l -0.6424416128221792 -0.8409766938370573" fill="#ff0400" stroke="none" /><path d="M 112.7482090630111 116.68781488649013 l 0.6993843613879818 0.9155165795964784 a22.15208901239015,22.15208901239015 0 0,0 -0.30416612648120733,0.22825193183976705 l -0.6835652459960081 -0.9273875387002604" fill="#ff0500" stroke="none" /><path d="M 112.16784306229584 117.11559508785304 l 2.225474403191585 3.1304084518839654 a24.840858419010978,24.840858419010978 0 0,0 -0.34967046133891977,0.24409713879113787 l -2.1714088506789073 -3.1681504064802253" fill="#ff2c04" stroke="none" /><path d="M 111.8722381534696 117.32195027204791 l 1.3331247590015642 1.9450688642993863 a23.358074322393144,23.358074322393144 0 0,0 -0.3326898444158982,0.223848574799029 l -1.2995386264886626 -1.9676671131555366" fill="#ff1702" stroke="none" /><path d="M 111.5731344415666 117.5232005979908 l 0.47873774570469224 0.7248699645000967 a21.868692289937457,21.868692289937457 0 0,0 -0.31502826768840175,0.20419751705207115 l -0.46622384575928083 -0.7329813232560625" fill="#ff0100" stroke="none" /><path d="M 110.96478420261333 117.91015095944535 l 0.5214952476066236 0.8518232950760553 a21.99877936467997,21.99877936467997 0 0,0 -0.3237667665401326,0.19441264073256365 l -0.5067957245090544 -0.8606499363445422" fill="#ff0300" stroke="none" /><line stroke="#e1ed5e" stroke-width="0.3" x1="143.1302829299769" x2="145.66735839644613" y1="173.24464959558577" y2="177.55315839532614" /><path d="M 143.63769802327073 174.10635135553383 a86.0,86.0 0 0,1 -40.68552437913181,11.842963189579606" fill="none" id="id66" stroke="none" /><text fill="#e1ed5e" style="font-size:6.75px; font-family:Arial;" text-anchor="middle"><textPath startOffset="21.407464694133747" xlink:href="#id66">June</textPath></text><path d="M 109.71004243097381 118.62028667847754 l 0.40514851962363607 0.7769257072130334 a21.87621851012273,21.87621851012273 0 0,0 -0.3344694407355172,0.17078247962867307 l -0.39175185717453653 -0.7837661385145428" fill="#ff0100" stroke="none" /><path d="M 108.73861861582097 119.09545874513695 l 0.9589994138489154 2.0955867910985693 a23.30459624984277,23.30459624984277 0 0,0 -0.36520144179448927,0.16334995973986788 l -0.9228845691987991 -2.1117405017482875" fill="#ff1602" stroke="none" /><path d="M 108.4095320186766 119.2426549942271 l 1.4163292063918569 3.240838398179369 a24.53680957134992,24.53680957134992 0 0,0 -0.3874069248134325,0.1653609795631328 l -1.3604872064079931 -3.264674027401906" fill="#ff2803" stroke="none" /><path d="M 108.07796709384702 119.3841803445677 l 0.7382481564764891 1.7715268257387502 a22.919197132879514,22.919197132879514 0 0,0 -0.36446493502961674,0.1482247161722099 l -0.7077287602564315 -1.7839387984902515" fill="#ff1001" stroke="none" /><path d="M 107.74402155503746 119.51999308798841 l 0.30558053293711934 0.770262562980111 a21.828663911389185,21.828663911389185 0 0,0 -0.34949534665312054,0.1351923081005902 l -0.29231292379046947 -0.7753947592187417" fill="#ff0100" stroke="none" /><path d="M 107.407793817531 119.65005319985036 l 0.3750984687016489 0.9949932526100532 a22.06334868879491,22.06334868879491 0 0,0 -0.35554650224409,0.13056160045624154 l -0.3579628148034319 -1.0012857020750168" fill="#ff0400" stroke="none" /><path d="M 107.06938296918513 119.77432235084164 l 0.527936328964588 1.4767318725228282 a22.56826457932499,22.56826457932499 0 0,0 -0.3659220868676639,0.12728669671342915 l -0.5025084700519022 -1.485577001804848" fill="#ff0b01" stroke="none" /><path d="M 106.72888874123015 119.89276391827305 l 0.6752923510208821 1.996381844205994 a23.107500943587603,23.107500943587603 0 0,0 -0.3768473172839181,0.12387719833005065 l -0.6409222960892298 -2.0076799639380636" fill="#ff1302" stroke="none" /><path d="M 106.38641147887787 120.00534299687104 l 1.3432630715769724 4.207752439817654 a25.41696007161643,25.41696007161643 0 0,0 -0.41678896593281084,0.12912228704868178 l -1.2708334727725372 -4.23019131467298" fill="#ff3404" stroke="none" /><path d="M 106.0420521117495 120.11202640906438 l 18.126156335248506 60.33607922719317 a84.0,84.0 0 0,0 -1.3845599504735728,0.4030252227899269 l -17.08773637239333 -60.63834814428561" fill="#4dd2ff" stroke="none" /><path d="M 105.3480935250658 120.30758222061773 l 1.2873806946775423 4.888394188296937 a26.05507139348236,26.05507139348236 0 0,0 -0.433500191881767,0.11019405358702973 l -1.203275209570378 -4.909773473719237" fill="#ff3d05" stroke="none" /><path d="M 104.9986988182912 120.39639698878246 l 0.5497475072037186 2.243157431188001 a23.309540556641224,23.309540556641224 0 0,0 -0.3894556329724593,0.0919104689487909 l -0.5111597204913801 -2.252264043783017" fill="#ff1602" stroke="none" /><path d="M 104.64783097203109 120.47920084513623 l 1.1105449238187808 4.893265843635597 a26.017704718724534,26.017704718724534 0 0,0 -0.4364006397733541,0.09511148828399749 l -1.0263818674262908 -4.911608790053314" fill="#ff3c05" stroke="none" /><path d="M 104.29559338865022 120.5559693870025 l 0.3857839820993894 1.8461160097191671 a22.885994062075987,22.885994062075987 0 0,0 -0.3852513968124511,0.07706106895712203 l -0.35403609975597966 -1.8524664753391507" fill="#ff1001" stroke="none" /><path d="M 103.94208987418118 120.62667999033965 l 0.18559232507296564 0.9710974686335153 a21.988673254777538,21.988673254777538 0 0,0 -0.3713627932744961,0.06767467168013612 l -0.16889479824741235 -0.9741403142450151" fill="#ff0300" stroke="none" /><path d="M 103.58742460773223 120.69131181640829 l 0.6894038876000085 3.9762984217229826 a25.035619761428805,25.035619761428805 0 0,0 -0.4240825321023477,0.06978261927510905 l -0.6210438524445885 -3.987547039493762" fill="#ff2f04" stroke="none" /><path d="M 103.2317021107853 120.74984581791261 l 0.6135332028094664 3.9393232810597665 a24.986814631212383,24.986814631212383 0 0,0 -0.4243890223708579,0.06237057164990163 l -0.5458190748309231 -3.9492749260085507" fill="#ff2e04" stroke="none" /><path d="M 102.875027216393 120.80226474461374 l 0.6779579835509324 4.905366244582784 a25.95199404492298,25.95199404492298 0 0,0 -0.4418292112961186,0.05720363713125463 l -0.5936509503640385 -4.916281477914434" fill="#ff3c05" stroke="none" /><path d="M 102.51750503828377 120.84855314841334 l 0.6043060664235596 5.004521123949414 a26.040874676281113,26.040874676281113 0 0,0 -0.4442624041630681,0.0497805290291708 l -0.5183077606596921 -5.014157413485555" fill="#ff3d05" stroke="none" /><path d="M 102.15924093988457 120.88869738790638 l 0.4100364155302529 3.9667303652047203 a24.9878665539732,24.9878665539732 0 0,0 -0.4270550579189502,0.04044255799239447 l -0.3418817942262874 -3.9731846787022986" fill="#ff2e04" stroke="none" /><path d="M 101.80034050326958 120.92268563240118 l 0.34103770651554327 3.9633751000220436 a24.97802072653476,24.97802072653476 0 0,0 -0.42751786182206586,0.03309258631695378 l -0.27295084991824164 -3.968645453334051" fill="#ff2e04" stroke="none" /><path d="M 101.44090949804482 120.95050786540614 l 0.3852095770563111 5.600862708517593 a26.61409382696076,26.61409382696076 0 0,0 -0.4560586655480155,0.027435356825799104 l -0.2890065593758305 -5.6066500431680835" fill="#ff4506" stroke="none" /><line stroke="#e1ed5e" stroke-width="0.3" x1="101.45913802915013" x2="101.54496967792366" y1="184.9874750549273" y2="189.98673829345242" /><path d="M 101.47630435890484 185.9873277026323 a86.0,86.0 0 0,1 -42.54439059252881,-10.42667462771756" fill="none" id="id67" stroke="none" /><text fill="#e1ed5e" style="font-size:6.75px; font-family:Arial;" text-anchor="middle"><textPath startOffset="22.145653131862474" xlink:href="#id67">July</textPath></text><path d="M 100.36049292484886 120.99690560180557 l 0.08566131707832088 4.989342271208106 a25.990077570590227,25.990077570590227 0 0,0 -0.4461542419271725,0.0038296975765551274 l -6.111082524320321e-16 -4.990077570590227" fill="#ff3c05" stroke="none" /><path d="M 100.0 121.0 l 1.143273310884968e-16 0.9335535043091276 a21.933553504309128,21.933553504309128 0 0,0 -0.37651861214748517,-0.0032319594457750323 l 0.016025687298632883 -0.9334159430577875" fill="#ff0200" stroke="none" /><path d="M 99.63950707515114 120.99690560180557 l -0.018197998470455515 1.059942178299802 a22.06009838622991,22.06009838622991 0 0,0 -0.37857932136603467,-0.009750860405083262 l 0.03639063390723408 -1.0594736005446712" fill="#ff0400" stroke="none" /><path d="M 98.91894614982273 120.97215588758144 l -1.433146887557779 27.80266675035235 a48.83957953045385,48.83957953045385 0 0,0 -0.8369142158814468,-0.05034668098609505 l 1.910205455571672 -27.773968091541565" fill="#a3ff21" stroke="none" /><path d="M 97.84075906011543 120.88869738790638 l -0.09416387985694802 0.9109501190303066 a21.915803994111755,21.915803994111755 0 0,0 -0.37388789326876426,-0.04189491829628128 l 0.10978767472651159 -0.9091994402270545" fill="#ff0200" stroke="none" /><path d="M 97.48249496171623 120.84855314841334 l -0.336172781146799 2.783992877157035 a23.80421619688017,23.80421619688017 0 0,0 -0.40526358204243035,-0.05246948435496374 l 0.38391418508002334 -2.7778117966016747" fill="#ff1d02" stroke="none" /><path d="M 97.12497278360702 120.80226474461374 l -0.2864647201937936 2.072716013081549 a23.0924181481722,23.0924181481722 0 0,0 -0.3922136097267857,-0.057641894012409337 l 0.32200343552826427 -2.067493045770257" fill="#ff1302" stroke="none" /><path d="M 96.41257539226777 120.69131181640829 l -3.8522815289442525 22.218936154971377 a43.55041456020131,43.55041456020131 0 0,0 -0.735515208759796,-0.13403537233675422 l 4.233131471255105 -22.149532608703257" fill="#e0ff1b" stroke="none" /><path d="M 96.05791012581884 120.62667999033965 l -0.7681619108043054 4.019347711654951 a25.092093443263046,25.092093443263046 0 0,0 -0.4223877722656709,-0.08448938411261846 l 0.8370461686009344 -4.005568930879471" fill="#ff2f04" stroke="none" /><path d="M 95.70440661134978 120.55596938700252 l -0.3995910361615743 1.9121877616165586 a22.953493033480495,22.953493033480495 0 0,0 -0.38500394839345986,-0.08390981861514962 l 0.4323574011741706 -1.9050464848676902" fill="#ff1101" stroke="none" /><path d="M 95.35216902796893 120.47920084513623 l -0.5919785439080244 2.608366691830435 a23.67469912242441,23.67469912242441 0 0,0 -0.3955566996162485,-0.09335030406438168 l 0.6366673972641609 -2.5978202441198257" fill="#ff1b02" stroke="none" /><path d="M 94.6519064749342 120.30758222061772 l -5.148501903931488 19.549700325371376 a41.21627697343435,41.21627697343435 0 0,0 -0.6826565578851199,-0.18606108049045983 l 5.483339862751303 -19.45843875073677" fill="#fbff18" stroke="none" /><path d="M 93.61358852112213 120.00534299687104 l -4.018362007010394 12.587461754024458 a34.21330490938634,34.21330490938634 0 0,0 -0.5579656667328404,-0.18341439726144793 l 4.233850411390978 -12.516626435360989" fill="#ffab0f" stroke="none" /><path d="M 92.93061703081489 119.77432235084164 l -1.6878789241594503 4.721297754133147 a26.013939344049184,26.013939344049184 0 0,0 -0.41920948963037996,-0.15393953124874565 l 1.7686775654439493 -4.691627373875682" fill="#ff3c05" stroke="none" /><path d="M 92.59220618246901 119.65005319985036 l -0.32977841315180817 0.8747764209175973 a21.934873033290792,21.934873033290792 0 0,0 -0.3511958444035754,-0.135850097161318 l 0.34474652004891176 -0.8689864356182389" fill="#ff0200" stroke="none" /><path d="M 92.25597844496254 119.51999308798841 l -0.3330651163501708 0.8395416674397336 a21.903195761226126,21.903195761226126 0 0,0 -0.3483083100063767,-0.1416539574291885 l 0.34742788754698833 -0.8337004534312538" fill="#ff0200" stroke="none" /><path d="M 91.92203290615298 119.3841803445677 l -0.32881531919311924 0.7890370650495648 a21.854809337898285,21.854809337898285 0 0,0 -0.3450613435849907,-0.14728616896061839 l 0.34231173794854103 -0.7832762464295425" fill="#ff0100" stroke="none" /><path d="M 91.26138138417905 119.09545874513695 l -0.3327426969425461 0.7271028433153653 a21.79962256541814,21.79962256541814 0 0,0 -0.3389439429024175,-0.15864287956130407 l 0.3451753537164535 -0.7212837321835347" fill="#ff0000" stroke="none" /><path d="M 90.6110303473126 118.78422872680471 l -1.0538866886745792 2.1084793480541073 a23.35719373699663,23.35719373699663 0 0,0 -0.3571123374338868,-0.18234410401988704 l 1.0899262478220484 -2.0900772923613844" fill="#ff1702" stroke="none" /><path d="M 89.97174638481275 118.45085714620012 l -13.25232660635182 24.382788315033924 a48.751477915548485,48.751477915548485 0 0,0 -0.731866035659813,-0.4059537529246294 l 13.668936830167736 -24.151701646676145" fill="#a4ff21" stroke="none" /><line stroke="#e1ed5e" stroke-width="0.3" x1="58.13341422392154" x2="55.67067388415222" y1="173.97424548756322" y2="178.32567169271397" /><path d="M 57.64086615596768 174.84453072859336 a86.0,86.0 0 0,1 -31.369924170532247,-30.572349798747897" fill="none" id="id68" stroke="none" /><text fill="#e1ed5e" style="font-size:6.75px; font-family:Arial;" text-anchor="middle"><textPath startOffset="22.145653131862474" xlink:href="#id68">August</textPath></text><path d="M 89.65649057296885 118.27599006163327 l -2.115122378966033 3.737218576521042 a25.29424561089569,25.29424561089569 0 0,0 -0.37605019045288857,-0.21711267868678688 l 2.1789650372793217 -3.7003590005580835" fill="#ff3204" stroke="none" /><path d="M 89.34428304082925 118.09573695890944 l -2.190036135006909 3.7191601448726743 a25.31606423212692,25.31606423212692 0 0,0 -0.3725888660494561,-0.22372890871505494 l 2.2535577576137924 -3.6810172356217006" fill="#ff3304" stroke="none" /><path d="M 88.4268655584334 117.5232005979908 l -3.05803416945449 4.630253494195775 a26.548947684206745,26.548947684206745 0 0,0 -0.3781375618792687,-0.2544278273755736 l 3.1370680194307647 -4.5770759927630795" fill="#ff4406" stroke="none" /><path d="M 87.83215693770417 117.11559508785305 l -14.328652405520598 20.155044034666368 a45.729255544750465,45.729255544750465 0 0,0 -0.6358957619299666,-0.4603394927544867 l 14.672529177824519 -19.906103770538817" fill="#c6ff1e" stroke="none" /><path d="M 87.54013794807813 116.9041958592261 l -0.511701026571054 0.6942207175712637 a21.862427008679013,21.862427008679013 0 0,0 -0.30018883252900613,-0.22526729630987802 l 0.5235428480108265 -0.6853343939973708" fill="#ff0100" stroke="none" /><path d="M 87.2517909369889 116.68781488649013 l -2.466628317124601 3.228895646948815 a25.06325268150111,25.06325268150111 0 0,0 -0.33965487944046013,-0.2641176886370729 l 2.521693141200289 -3.186076906690949" fill="#ff2f04" stroke="none" /><path d="M 86.68645165197938 116.24036423190432 l -2.0209040736051027 2.4651743753922366 a24.187653992484787,24.187653992484787 0 0,0 -0.31884587721577884,-0.26599257091998907 l 2.0629242849827745 -2.4301196205603772" fill="#ff2303" stroke="none" /><path d="M 86.40962598614128 116.0094264158162 l -0.7560891290192387 0.890671092825591 a22.168317493927145,22.168317493927145 0 0,0 -0.2879986624512018,-0.24876638527756542 l 0.7712672712333032 -0.8775605750833032" fill="#ff0600" stroke="none" /><path d="M 85.86807049272751 115.53346607816431 l -25.238677704674497 27.741727963016768 a58.504590687733945,58.504590687733945 0 0,0 -0.7370749017826911,-0.6822255252007153 l 25.711182377771156 -27.304384691683673" fill="#3eff2d" stroke="none" /><path d="M 85.60350026404147 115.28858382429668 l -0.612492969126781 0.6504463079242839 a21.893436084295946,21.893436084295946 0 0,0 -0.2714030376995899,-0.2599979707311169 l 0.6235684926916852 -0.6398362068875845" fill="#ff0200" stroke="none" /><path d="M 85.34317274990678 115.03919595460226 l -2.8526253895939107 2.9270449523039592 a25.087182864292213,25.087182864292213 0 0,0 -0.3058343578302837,-0.3032204046669714 l 2.902451667554157 -2.8776445374083286" fill="#ff2f04" stroke="none" /><path d="M 85.08716467003676 114.78537596483092 l -0.6108370008975254 0.6056162032013758 a21.860170231550438,21.860170231550438 0 0,0 -0.26191939806420267,-0.26875237625346093 l 0.6211432001125374 -0.5950411348801775" fill="#ff0100" stroke="none" /><path d="M 84.83555147118756 114.52719865689866 l -2.920387924092112 2.7976655694327714 a25.04420551722741,25.04420551722741 0 0,0 -0.2947394901091953,-0.3130031246143643 l 2.9679832479375605 -2.747120984873917" fill="#ff2f04" stroke="none" /><path d="M 84.58840730492382 114.26474011684316 l -2.404541478105864 2.2256076944149012 a24.27645377342186,24.27645377342186 0 0,0 -0.2804535000399031,-0.308267524765844 l 2.4423926789876464 -2.184002594091383" fill="#ff2403" stroke="none" /><path d="M 84.1078160697243 113.72728997021213 l -3.0128250335460396 2.602406506648268 a24.98115991999906,24.98115991999906 0 0,0 -0.27753525805876267,-0.3269358361407417 l 3.057054855111914 -2.550303888057972" fill="#ff2e04" stroke="none" /><path d="M 83.8745106332314 113.45245675266167 l -24.45755330925255 20.403360833604822 a52.85073071659753,52.85073071659753 0 0,0 -0.5752001243257624,-0.7016506254454593 l 24.80420025281694 -19.980507926460866" fill="#78ff26" stroke="none" /><path d="M 83.64595745247003 113.17365903436017 l -3.092464019552088 2.491070110109207 a24.970990305415484,24.970990305415484 0 0,0 -0.26604041864026506,-0.33613337809718175 l 3.1347708688339146 -2.437616788097345" fill="#ff2e04" stroke="none" /><path d="M 83.4222238831116 112.89097897827486 l -23.020449352870173 17.900840654734967 a50.16129600265175,50.16129600265175 0 0,0 -0.5227476401679161,-0.6842934414044789 l 23.324348970392386 -17.50302630008962" fill="#95ff23" stroke="none" /><path d="M 83.20337586046588 112.60449989151573 l -4.750409901219534 3.564796151129309 a26.939205824747187,26.939205824747187 0 0,0 -0.27439246285375885,-0.37226607445946097 l 4.810904383657124 -3.482723767400968" fill="#ff4906" stroke="none" /><path d="M 82.78059297857968 112.02048342749411 l -0.9582000682713112 0.6688980652208877 a22.168576909104143,22.168576909104143 0 0,0 -0.21515159496543926,-0.3139126069378906 l 0.9695414000520755 -0.652350723212946" fill="#ff0600" stroke="none" /><path d="M 82.576782715395 111.72311816256416 l -18.851099329125578 12.683860926468569 a43.721009526835616,43.721009526835616 0 0,0 -0.4136331475569676,-0.6262933050000838 l 19.06605691560327 -12.358387743129423" fill="#deff1b" stroke="none" /><path d="M 82.37810715431573 111.42229804090323 l -0.7667634722393226 0.4970068189320714 a21.913751607618547,21.913751607618547 0 0,0 -0.2019011069609001,-0.31742207502503955 l 0.7751822708261126 -0.48377106922835983" fill="#ff0200" stroke="none" /><path d="M 82.18462484594161 111.11811171558189 l -28.75050320658762 17.942440378934112 a54.88985986078447,54.88985986078447 0 0,0 -0.4920014310644304,-0.8036473623007482 l 29.054272602107456 -17.446255900508806" fill="#63ff29" stroke="none" /><line stroke="#e1ed5e" stroke-width="0.3" x1="26.387840678322732" x2="22.057713659400548" y1="142.50000000000003" y2="145.00000000000006" /><path d="M 25.521815274538298 143.00000000000003 a86.0,86.0 0 0,1 -11.493303480769221,-40.785679425670985" fill="none" id="id69" stroke="none" /><text fill="#e1ed5e" style="font-size:6.75px; font-family:Arial;" text-anchor="middle"><textPath startOffset="21.40746469413373" xlink:href="#id69">September</textPath></text><path d="M 81.81346652052679 110.50000000000001 l -19.735301799646813 11.394181806564607 a43.78836361312919,43.78836361312919 0 0,0 -0.37025487514303196,-0.6542048872408215 l 19.92799003981122 -11.053720149224663" fill="#ddff1b" stroke="none" /><path d="M 81.4637452351635 109.86951160357371 l -4.384965238869918 2.3347470055489277 a25.96779264120567,25.96779264120567 0 0,0 -0.2061248333247941,-0.395271546478316 l 4.424398141169661 -2.2591292159661087" fill="#ff3c05" stroke="none" /><path d="M 81.29705330413844 109.54985784667822 l -27.763784144059674 14.176386008751066 a52.1736688611888,52.1736688611888 0 0,0 -0.4004455464337384,-0.801159340704503 l 28.003049603705147 -13.69769481188281" fill="#7fff26" stroke="none" /><path d="M 81.1358732173502 109.22738970284198 l -0.7502502222203196 0.3669849792060313 a21.835196606138034,21.835196606138034 0 0,0 -0.1618099761161149,-0.33812061672697835 l 0.7564394562963463 -0.35405186041394826" fill="#ff0100" stroke="none" /><path d="M 80.9802524753101 108.90220220490708 l -21.74815349925022 10.179233966295222 a45.012475606807556,45.012475606807556 0 0,0 -0.32155098173114144,-0.7026469257954322 l 21.919688945836416 -9.8043980582851" fill="#cfff1d" stroke="none" /><path d="M 80.68587082218212 108.24405325689762 l -2.3102254751374787 0.9860978808378645 a23.511877938230104,23.511877938230104 0 0,0 -0.15526141983072844,-0.37257088665846344 l 2.3268127395046925 -0.9462944847381197" fill="#ff1902" stroke="none" /><path d="M 80.41425534168474 107.57618678355246 l -2.1284704218772843 0.8233380839345693 a23.282163871693598,23.282163871693598 0 0,0 -0.14098937423254854,-0.37399106569714985 l 2.142290479924269 -0.7866787380432746" fill="#ff1602" stroke="none" /><path d="M 80.28708602549918 107.23885506374661 l -22.635634455037337 8.312118508096589 a45.11354932967595,45.11354932967595 0 0,0 -0.2607129845411263,-0.7292606186195189 l 22.774987609622407 -7.922322933096148" fill="#cdff1d" stroke="none" /><path d="M 80.16572619554312 106.89939002012753 l -5.728725114540763 1.9927479711626763 a27.065421330339966,27.065421330339966 0 0,0 -0.14887860642573708,-0.44013314590297176 l 5.762089142538867 -1.8941131507855429" fill="#ff4b07" stroke="none" /><path d="M 80.05021161711548 106.5578916946017 l -3.773955957724997 1.2405742835944242 a24.97262735780287,24.97262735780287 0 0,0 -0.13037529038863901,-0.4083987402264299 l 3.794695963890891 -1.1756065096766026" fill="#ff2e04" stroke="none" /><path d="M 79.94057633289273 106.21446072829308 l -32.31853495875463 10.01236474338402 a54.83393488252297,54.83393488252297 0 0,0 -0.2708370245093629,-0.9015283696233382 l 32.485648303267624 -9.456098770169959" fill="#63ff29" stroke="none" /><path d="M 79.83685265289637 105.86919833188381 l -3.8199387379109067 1.1119284942221868 a24.978481737755697,24.978481737755697 0 0,0 -0.11630636238121148,-0.4127302493302361 l 3.838463592366693 -1.0461903209889551" fill="#ff2e04" stroke="none" /><path d="M 79.56144815229197 104.8234425847677 l -0.8721935121334081 0.20583529400367745 a21.896152716262797,21.896152716262797 0 0,0 -0.08319405525868434,-0.36656835780312996 l 0.8755984289497588 -0.19083260226152118" fill="#ff0200" stroke="none" /><path d="M 79.34024301695615 103.76489593502545 l -2.389498271331129 0.43544618341195446 a23.428850626807357,23.428850626807357 0 0,0 -0.06870809722852911,-0.3962900463478434 l 2.3966211860518922 -0.39436310414351833" fill="#ff1802" stroke="none" /><path d="M 79.2786578344484 103.40968896794605 l -33.796544060712904 5.561208464096981 a55.251035459221555,55.251035459221555 0 0,0 -0.1459640478615849,-0.9371938948142492 l 33.88702960071275 -4.980226387351282" fill="#5fff29" stroke="none" /><path d="M 79.22317932658666 103.0534771498775 l -3.156137186489839 0.46384347886091265 a24.190039609914866,24.190039609914866 0 0,0 -0.05685290949980505,-0.41135933189541135 l 3.1636346125448562 -0.40959583876541567" fill="#ff2303" stroke="none" /><path d="M 79.13060592940153 102.33845913500099 l -4.837663392200144 0.5420702734962468 a25.867938709314416,25.867938709314416 0 0,0 -0.04566012378024688,-0.4417202780486883 l 4.846255908462057 -0.45894547316462714" fill="#ff3a05" stroke="none" /><path d="M 79.0935383218832 101.97986365728391 l -1.0062568785876262 0.09529357260358026 a22.01075900722401,22.01075900722401 0 0,0 -0.03239394393268407,-0.37646673174673495 l 1.007744445218051 -0.07800579348118333" fill="#ff0300" stroke="none" /><path d="M 79.06263194458094 101.62068470465958 l -25.598798754740166 1.981508921735177 a46.67537488124765,46.67537488124765 0 0,0 -0.05497923265226861,-0.799385976481043 l 25.6290419485575 -1.5417795210997907" fill="#bbff1f" stroke="none" /><path d="M 79.03789590574601 101.26102812881392 l -5.228933838740396 0.314559675150456 a26.238386858485647,26.238386858485647 0 0,0 -0.023187750253192623,-0.44983616025467343 l 5.233563178450161 -0.22475172151905176" fill="#ff4006" stroke="none" /><line stroke="#e1ed5e" stroke-width="0.3" x1="15.003131293944662" x2="10.003315487706104" y1="100.72959589197737" y2="100.7725132973878" /><path d="M 14.003168132696942 100.73817937305945 a86.0,86.0 0 0,1 10.791469493833604,-42.45332614584628" fill="none" id="id70" stroke="none" /><text fill="#e1ed5e" style="font-size:6.75px; font-family:Arial;" text-anchor="middle"><textPath startOffset="22.145653131862435" xlink:href="#id70">October</textPath></text><path d="M 79.00696218219943 99.45929381324524 l -2.1301671997317277 -0.054865550841830625 a23.13087365357078,23.13087365357078 0 0,0 0.013631038166630641,-0.39685280345428425 l 2.1289114745682465 0.09142461886025341" fill="#ff1302" stroke="none" /><path d="M 79.13060592940154 97.66154086499901 l -1.8321308487204195 -0.20529408305837435 a22.843596785463617,22.843596785463617 0 0,0 0.047012028352051656,-0.38932703482518544 l 1.8283367341086996 0.23671479480699603" fill="#ff0f01" stroke="none" /><path d="M 79.17382384314186 97.30363454192245 l -6.436394399034907 -0.8333201160601225 a27.490115197418177,27.490115197418177 0 0,0 0.06460894883436197,-0.467478168853574 l 6.421140933645338 0.9436865931137635" fill="#ff5107" stroke="none" /><path d="M 79.22317932658666 96.9465228501225 l -2.696534488319769 -0.3962977095180512 a23.725499976383638,23.725499976383638 0 0,0 0.06267882556968253,-0.4024430229129979 l 2.6893341706118186 0.4425289143624991" fill="#ff1c02" stroke="none" /><path d="M 79.2786578344484 96.59031103205396 l -3.9414922073305934 -0.6485710428025573 a24.994496866691698,24.994496866691698 0 0,0 0.07329955482023741,-0.4227723536044432 l 3.929777835018122 0.7161364293275931" fill="#ff2e04" stroke="none" /><path d="M 79.34024301695615 96.23510406497455 l -3.0009106670973744 -0.5468658891390712 a24.05033229871807,24.05033229871807 0 0,0 0.07750357897620914,-0.40553147509869036 l 2.991080795839006 0.598299929271076" fill="#ff2103" stroke="none" /><path d="M 79.407916724674 95.88100663000787 l -2.0356265349381393 -0.40718231803370125 a23.07595106634611,23.07595106634611 0 0,0 0.08103206935891695,-0.3877677858217364 l 2.0283367547548554 0.4420665551408467" fill="#ff1302" stroke="none" /><path d="M 79.48165901384962 95.52812308129327 l -0.7865922714805651 -0.17143412450554996 a21.805057178464946,21.805057178464946 0 0,0 0.082847939331221,-0.3650433071640495 l 0.7835334705916823 0.18491176560860764" fill="#ff0000" stroke="none" /><path d="M 79.64726062577567 94.8264132398404 l -3.936668616494319 -1.000685768089978 a25.06186309500322,25.06186309500322 0 0,0 0.1095686982263396,-0.4160501938884927 l 3.918910437463254 1.068116466351255" fill="#ff2f04" stroke="none" /><path d="M 79.83685265289637 94.1308016681162 l -3.803008503254327 -1.1070003496575387 a24.96084882947666,24.96084882947666 0 0,0 0.12328719506792439,-0.41038297539403795 l 3.7834449881827728 1.1721209286423" fill="#ff2e04" stroke="none" /><path d="M 80.05021161711548 93.44210830539832 l -0.9376453342767085 -0.3082226453795682 a21.987005558249628,21.987005558249628 0 0,0 0.12094379418796541,-0.35754883721283565 l 0.9322161185163781 0.3242731570665655" fill="#ff0300" stroke="none" /><path d="M 80.28708602549916 92.7611449362534 l -0.7839248846785428 -0.28786807614504056 a21.83510852832534,21.83510852832534 0 0,0 0.1322264676373672,-0.350746414857499 l 0.7788677332267396 0.3012827711966845" fill="#ff0100" stroke="none" /><path d="M 80.41425534168474 92.42381321644754 l -5.566228367633888 -2.153136708805132 a26.96815682832283,26.96815682832283 0 0,0 0.1707229763084956,-0.43033342479978814 l 5.528446716359261 2.2483711508185027" fill="#ff4a06" stroke="none" /><path d="M 80.5471966667186 92.08871423366112 l -4.202978763184064 -1.7093148733228725 a25.53726655817564,25.53726655817564 0 0,0 0.16863613680008746,-0.4046653384901734 l 4.1730167818474975 1.7812127212543096" fill="#ff3605" stroke="none" /><path d="M 80.83023694016515 91.42560881287825 l -0.887322549696734 -0.3968880901921598 a21.972039846578674,21.972039846578674 0 0,0 0.15695939599098743,-0.34298460690127386 l 0.8803786888506997 0.41206167930810506" fill="#ff0300" stroke="none" /><path d="M 80.9802524753101 91.09779779509293 l -0.7156407383002443 -0.33495600034373374 a21.790150105031437,21.790150105031437 0 0,0 0.16147615850047842,-0.3374230662991119 l 0.709785321839861 0.34719156870793283" fill="#ff0000" stroke="none" /><path d="M 81.1358732173502 90.77261029715801 l -1.4611456418714817 -0.7147195523811828 a22.62658249877342,22.62658249877342 0 0,0 0.17366450147018736,-0.34744533617794215 l 1.4486612271895505 0.7396967447228953" fill="#ff0c01" stroke="none" /><path d="M 81.46374523516351 90.13048839642627 l -0.7374787845738987 -0.3926659141278665 a21.835500734777934,21.835500734777934 0 0,0 0.17900395214140238,-0.3293471103048715 l 0.7306294828171457 0.40526785790735764" fill="#ff0100" stroke="none" /><line stroke="#e1ed5e" stroke-width="0.3" x1="26.387840678322718" x2="22.05771365940052" y1="57.49999999999999" y2="54.99999999999999" /><path d="M 25.521815274538284 56.99999999999999 a86.0,86.0 0 0,1 29.574782752854787,-30.34633250058573" fill="none" id="id71" stroke="none" /><text fill="#e1ed5e" style="font-size:6.75px; font-family:Arial;" text-anchor="middle"><textPath startOffset="21.40746469413373" xlink:href="#id71">November</textPath></text><path d="M 81.99639281039701 89.18935116829357 l -0.7713827416965261 -0.46319317276239375 a21.89976621934864,21.89976621934864 0 0,0 0.19629702730566745,-0.32063644180948786 l 0.7633177499354656 0.4763667306964247" fill="#ff0200" stroke="none" /><path d="M 82.18462484594161 88.88188828441811 l -2.3135265548824377 -1.443811677930829 a23.727085858838265,23.727085858838265 0 0,0 0.218608159188511,-0.34368833609446 l 2.288400704068037 1.4833136887039609" fill="#ff1c02" stroke="none" /><path d="M 82.576782715395 88.27688183743585 l -0.728278936035165 -0.49001857022070056 a21.87778608318522,21.87778608318522 0 0,0 0.21232939711963117,-0.3097949359384515 l 0.7197598021002205 0.5024482412291867" fill="#ff0100" stroke="none" /><path d="M 82.78059297857968 87.97951657250589 l -1.47704900981548 -1.0310949222581938 a22.801341310275074,22.801341310275074 0 0,0 0.2268026634752991,-0.31902634945370484 l 1.4591312478102085 1.0562984984214188" fill="#ff0f01" stroke="none" /><path d="M 82.98947788004972 87.6856937992154 l -1.852612068812068 -1.3411482684511216 a23.287105191170177,23.287105191170177 0 0,0 0.2371935604824034,-0.3217986191366612 l 1.8293164887458457 1.3727531968566462" fill="#ff1602" stroke="none" /><path d="M 83.2033758604659 87.39550010848427 l -4.266489861831643 -3.2016535319162984 a26.334184200001374,26.334184200001374 0 0,0 0.2744373400075123,-0.3592472876267966 l 4.210900544469824 3.2744217327839795" fill="#ff4106" stroke="none" /><path d="M 83.42222388311158 87.10902102172516 l -2.6493168501514783 -2.060124806927499 a24.35603843729696,24.35603843729696 0 0,0 0.25948873404798906,-0.3278555386414878 l 2.6135616854619275 2.10530028948367" fill="#ff2503" stroke="none" /><path d="M 84.10781606972428 86.27271002978789 l -0.6586496317077633 -0.5689258646196037 a21.870342447995004,21.870342447995004 0 0,0 0.24785235857426485,-0.2820104864275905 l 0.6487862091749059 0.5801486288584943" fill="#ff0100" stroke="none" /><path d="M 84.34580500576568 86.00192230759919 l -3.4424803614229216 -3.0782871665716796 a25.618064845653684,25.618064845653684 0 0,0 0.29595244912084545,-0.32530358482205474 l 3.3891302114602104 3.136928326951392" fill="#ff3705" stroke="none" /><path d="M 84.58840730492382 85.73525988315684 l -2.1661185513181724 -2.004926992827836 a23.951576159433195,23.951576159433195 0 0,0 0.28188058669644334,-0.29934741480155663 l 2.1313821308854575 2.041815867573904" fill="#ff1f03" stroke="none" /><path d="M 84.83555147118756 85.47280134310135 l -1.9618585674552576 -1.8794161285859188 a23.716816891711048,23.716816891711048 0 0,0 0.28416496022114757,-0.2915782827535494 l 1.9293068060833076 1.9128171034071986" fill="#ff1c02" stroke="none" /><path d="M 85.08716467003674 85.21462403516908 l -2.6429434513830166 -2.620354326851004 a24.72174782668777,24.72174782668777 0 0,0 0.3013793901019649,-0.29880351335710503 l 2.597572141151075 2.6653378504367824" fill="#ff2a04" stroke="none" /><path d="M 85.34317274990677 84.96080404539775 l -3.936393197091884 -4.039086197529653 a26.639983041923603,26.639983041923603 0 0,0 0.3302438362806916,-0.3163661247391004 l 3.866476874945892 4.106064452574322" fill="#ff4506" stroke="none" /><path d="M 85.60350026404147 84.71141617570332 l -1.2282363673782604 -1.304344458938854 a22.791613530233302,22.791613530233302 0 0,0 0.28714201922942006,-0.26577436621731443 l 1.205664576834887 1.3252365712885341" fill="#ff0f01" stroke="none" /><path d="M 85.86807049272753 84.46653392183569 l -3.3225620378531544 -3.652077706800674 a25.937316079804226,25.937316079804226 0 0,0 0.33191733052282835,-0.29680252365733806 l 3.2593796805069344 3.7085757603414127" fill="#ff3b05" stroke="none" /><path d="M 86.13680546590413 84.22622945171909 l -1.931868894519823 -2.1981121736819196 a23.926399588863745,23.926399588863745 0 0,0 0.31083870396360824,-0.2684950691480798 l 1.8938507107933664 2.23095137529471" fill="#ff1f03" stroke="none" /><path d="M 86.40962598614128 83.9905735841838 l -4.211363782423913 -4.960975946371765 a27.50744706074441,27.50744706074441 0 0,0 0.36260796895698144,-0.3025004643032304 l 4.125581479305023 5.032538594586877" fill="#ff5107" stroke="none" /><path d="M 86.68645165197937 83.75963576809568 l -0.6827298198306 -0.8328193698774387 a22.07689744624499,22.07689744624499 0 0,0 0.2951462833799775,-0.23774895358173612 l 0.668332766095377 0.8444166172525737" fill="#ff0400" stroke="none" /><path d="M 86.96720088162412 83.53348406188908 l -1.311471527688858 -1.6570014328401947 a23.113199308246386,23.113199308246386 0 0,0 0.3132279367043078,-0.24356793812350794 l 1.2828336463493055 1.6792704225845076" fill="#ff1302" stroke="none" /><path d="M 87.25179093698888 83.31218511350988 l -0.5905385735916042 -0.7730339493742906 a21.972788411621366,21.972788411621366 0 0,0 0.3017041839898799,-0.22640444429661521 l 0.577181400690972 0.7830574209349067" fill="#ff0300" stroke="none" /><path d="M 87.83215693770416 82.88440491214696 l -1.6897002156034282 -2.376774960201496 a23.916186899026037,23.916186899026037 0 0,0 0.33665439275037035,-0.2350109120375016 l 1.6486507316792924 2.4054306880441243" fill="#ff1f03" stroke="none" /><path d="M 88.12776184653039 82.6780497279521 l -0.6238470773792811 -0.9102115297921526 a22.103480949052244,22.103480949052244 0 0,0 0.31482062846852416,-0.2118253688318683 l 0.6081301608137677 0.9207865726811304" fill="#ff0500" stroke="none" /><path d="M 88.4268655584334 82.4767994020092 l -2.869918547760211 -4.345422466680435 a26.207602988391987,26.207602988391987 0 0,0 0.377532211813918,-0.2447118184830004 l 2.794900703689267 4.394048126867341" fill="#ff3f05" stroke="none" /><path d="M 88.72937992617638 82.28071324371311 l -1.7102029647094013 -2.6887231176853263 a24.186538275947164,24.186538275947164 0 0,0 0.3522433811993144,-0.21982592167620688 l 1.6637954547203884 2.717684836203069" fill="#ff2303" stroke="none" /><path d="M 89.03521579738668 82.08984904055464 l -4.0996410587725 -6.696455569518266 a28.851724269566876,28.851724269566876 0 0,0 0.4246248994552385,-0.2549750516585488 l 3.9840834027598273 6.765844621712738" fill="#ff6409" stroke="none" /><line stroke="#e1ed5e" stroke-width="0.3" x1="56.869717070023135" x2="54.33264160355391" y1="26.7553504044142" y2="22.446841604673864" /><path d="M 56.362301976729285 25.89364864446614 a86.0,86.0 0 0,1 42.16139366436587,-11.88097634709845" fill="none" id="id72" stroke="none" /><text fill="#e1ed5e" style="font-size:6.75px; font-family:Arial;" text-anchor="middle"><textPath startOffset="22.145653131862474" xlink:href="#id72">December</textPath></text><path d="M 89.34428304082924 81.90426304109057 l -2.0054342200674027 -3.40566573547197 a24.9522557499212,24.9522557499212 0 0,0 0.37096581852376426,-0.214177215184844 l 1.9466759336832389 3.439589847932988" fill="#ff2d04" stroke="none" /><path d="M 89.97174638481275 81.54914285379989 l -2.33800183563443 -4.301660042932508 a25.895970966865722,25.895970966865722 0 0,0 0.3923994089391978,-0.20893058327551545 l 2.26381361090867 4.341161093930599" fill="#ff3b05" stroke="none" /><path d="M 90.28995756902619 81.37971332152246 l -0.9005886363340435 -1.72699745723328 a22.947711505635326,22.947711505635326 0 0,0 0.35085168992521554,-0.17914737279308246 l 0.8708097246952456 1.7422027816991963" fill="#ff1101" stroke="none" /><path d="M 90.61103034731259 81.2157712731953 l -2.1545165172340806 -4.310476287866119 a25.818936319489037,25.818936319489037 0 0,0 0.3981522810486788,-0.19475623232614733 l 2.0802039869233484 4.34682627028948" fill="#ff3a05" stroke="none" /><path d="M 90.93487009805054 81.0573650232925 l -2.6499371153634708 -5.537349385006012 a27.138762491496745,27.138762491496745 0 0,0 0.42195772595399456,-0.1974975216410731 l 2.5544906755379535 5.582023138217628" fill="#ff4c07" stroke="none" /><path d="M 91.5904679813234 80.7573450057729 l -1.4774012774919598 -3.3805832485886693 a24.689316689493218,24.689316689493218 0 0,0 0.3898148301069161,-0.16638877115002162 l 1.4191513722146125 3.405446669398095" fill="#ff2a04" stroke="none" /><path d="M 92.25597844496254 80.48000691201159 l -2.0534676098415505 -5.176079801126174 a26.568530446383026,26.568530446383026 0 0,0 0.425384613374245,-0.16454790675545006 l 1.9643107339737764 5.210567596019664" fill="#ff4406" stroke="none" /><path d="M 92.93061703081487 80.22567764915836 l -2.0177927079412274 -5.644125324364307 a26.993966807494957,26.993966807494957 0 0,0 0.43768047083622735,-0.15224798761291766 l 1.9206064650599959 5.67793174454581" fill="#ff4a06" stroke="none" /><path d="M 93.27111125876988 80.10723608172694 l -1.8414487125405585 -5.443915914632953 a26.746925599528083,26.746925599528083 0 0,0 0.4362006597935903,-0.1433878209201603 l 1.7477253150992071 5.474724656955142" fill="#ff4706" stroke="none" /><path d="M 94.30408787586887 79.78721728523814 l -1.3517414972154866 -4.7968537039028405 a25.983674400674744,25.983674400674744 0 0,0 0.4303621537434366,-0.11729711873826344 l 1.2691979425373723 4.819351316785244" fill="#ff3c05" stroke="none" /><path d="M 94.6519064749342 79.69241777938228 l -0.5214027987753589 -1.9798513538636198 a23.047357385012784,23.047357385012784 0 0,0 0.38345831787935514,-0.0974736049028452 l 0.48733918767062556 1.988510190601728" fill="#ff1202" stroke="none" /><path d="M 95.00130118170881 79.60360301121753 l -1.3491745587470627 -5.505092606635115 a26.6680081684485,26.6680081684485 0 0,0 0.4455688852433391,-0.10515304369625322 l 1.2544735197638177 5.527441793977601" fill="#ff4606" stroke="none" /><path d="M 95.35216902796891 79.52079915486377 l -0.8018425604254265 -3.533066271115838 a24.622914402495038,24.622914402495038 0 0,0 0.4130055173775789,-0.09001263024656735 l 0.7410746264287291 3.5463103594961196" fill="#ff2904" stroke="none" /><path d="M 95.70440661134978 79.44403061299748 l -0.8151817480591017 -3.90093976357747 a24.985204175626205,24.985204175626205 0 0,0 0.42058845170523707,-0.08412946960761929 l 0.7480968108228879 3.914358629847955" fill="#ff2e04" stroke="none" /><path d="M 96.05791012581881 79.37332000966035 l -0.6049317137423892 -3.1652583461110884 a24.222546008347624,24.222546008347624 0 0,0 0.4090902730534685,-0.07454987526433916 l 0.5505067071378822 3.1751763953067886" fill="#ff2303" stroke="none" /><path d="M 96.76829788921471 79.25015418208739 l -0.17295767364787243 -1.1105123362827887 a22.12390035408391,22.12390035408391 0 0,0 0.375763801063761,-0.0552243386192144 l 0.15386876697642649 1.1133177482008878" fill="#ff0500" stroke="none" /><path d="M 98.5590905019552 79.04949213459386 l -0.06030863843560806 -0.8768743669269983 a21.878945838629196,21.878945838629196 0 0,0 0.37491724901991463,-0.02255409069937915 l 0.04524703728320964 0.8777804354510715" fill="#ff0100" stroke="none" /><path d="M 98.9189461498227 79.02784411241856 l -0.06132464245859346 -1.189681680686762 a22.191261185943013,22.191261185943013 0 0,0 0.38060574375978895,-0.016344848282768543 l 0.04089313809798442 1.1905590973953593" fill="#ff0600" stroke="none" /><path d="M 99.63950707515114 79.00309439819443 l -0.09021459349064259 -5.2545477951404225 a26.25532217892431,26.25532217892431 0 0,0 0.45070751833949346,-0.003868781978322393 l 1.28718269698155e-15 5.25532217892431" fill="#ff4006" stroke="none" /></svg>