<?xml version="1.0" encoding="utf-8" ?>
<svg baseProfile="full" height="200mm" version="1.1" viewBox="0,0,200,200" width="200mm" xmlns="http://www.w3.org/2000/svg" xmlns:ev="http://www.w3.org/2001/xml-events" xmlns:xlink="http://www.w3.org/1999/xlink"><defs /><rect fill="#1a1a1a" height="200" width="200" x="0" y="0" /><rect fill="#1a1a1a" height="200" width="180" x="10" y="0" /><text alignment-baseline="middle" fill="#e1ed5e" style="dominant-baseline: central; font-size:9.0px; font-family:Arial;" text-anchor="middle" x="100.0" y="100.0">2020</text><line stroke="#e1ed5e" stroke-width="0.3" x1="100.0" x2="100.0" y1="15.0" y2="10.0" /><path d="M 100.0 14.0 a86.0,86.0 0 0,1 42.35913384403234,11.155469271406648" fill="none" id="id13" stroke="none" /><text fill="#e1ed5e" style="font-size:6.75px; font-family:Arial;" text-anchor="middle"><textPath startOffset="22.145653131862478" xlink:href="#id13">January</textPath></text><line stroke="#e1ed5e" stroke-width="0.3" x1="143.13028292997686" x2="145.6673583964461" y1="26.7553504044142" y2="22.446841604673864" /><path d="M 143.63769802327073 25.89364864446614 a86.0,86.0 0 0,1 29.32050498858742,28.57503671076993" fill="none" id="id14" stroke="none" /><text fill="#e1ed5e" style="font-size:6.75px; font-family:Arial;" text-anchor="middle"><textPath startOffset="20.669276256404974" xlink:href="#id14">February</textPath></text><line stroke="#e1ed5e" stroke-width="0.3" x1="172.87174338648825" x2="177.1583165268699" y1="56.24261187166439" y2="53.66864786411523" /><path d="M 173.72905801456457 55.72781907015455 a86.0,86.0 0 0,1 12.242430191666344,42.057860355516425" fill="none" id="id15" stroke="none" /><text fill="#e1ed5e" style="font-size:6.75px; font-family:Arial;" text-anchor="middle"><textPath startOffset="22.145653131862474" xlink:href="#id15">March</textPath></text><path d="M 119.16976305983485 91.42560881287824 l 22.964615440307885 -10.271780388333744 a46.15716666612886,46.15716666612886 0 0,0 0.31731099850879635,0.7260696619761984 l -23.137560320833654 9.876048656581695" fill="red" stroke="none" /><path d="M 119.4528033332814 92.08871423366111 l 5.786178172805409 -2.3531882904351784 a27.246387194025917,27.246387194025917 0 0,0 0.17248432456951546,0.4347731730154012 l -5.825721172341049 2.253514100206212" fill="red" stroke="none" /><path d="M 119.94978838288452 93.4421083053983 l 29.45363602985297 -9.681995186560767 a52.00415627253286,52.00415627253286 0 0,0 0.2714995454144321,0.8504684590828608 l -29.615500291044658 9.174957693786519" fill="red" stroke="none" /><path d="M 120.05942366710727 93.78553927170692 l 25.227294764922185 -7.81548040459183 a47.41018998626911,47.41018998626911 0 0,0 0.23416949403347662,0.7794740861370647 l -25.357740578959287 7.381268714864042" fill="red" stroke="none" /><path d="M 120.16314734710363 94.1308016681162 l 30.06045620419692 -8.75016069525883 a52.308087443938405,52.308087443938405 0 0,0 0.24356017461728183,0.864309136134996 l -30.206234870888785 8.232843635220819" fill="red" stroke="none" /><path d="M 120.98066250479742 99.09900007780936 l 29.138208987174917 -1.2513200679061565 a50.165065144666244,50.165065144666244 0 0,0 0.029562303951845174,0.8606742242550508 l -29.15539597812361 0.7509395790869857" fill="red" stroke="none" /><line stroke="#e1ed5e" stroke-width="0.3" x1="184.99686870605535" x2="189.99668451229388" y1="99.2704041080226" y2="99.22748670261217" /><path d="M 185.99683186730306 99.26182062694052 a86.0,86.0 0 0,1 -10.086455211305974,41.156179273409016" fill="none" id="id16" stroke="none" /><text fill="#e1ed5e" style="font-size:6.75px; font-family:Arial;" text-anchor="middle"><textPath startOffset="21.40746469413373" xlink:href="#id16">April</textPath></text><path d="M 120.93736805541906 101.62068470465957 l 34.938548784540046 2.7044646427491443 a56.043063795472634,56.043063795472634 0 0,0 -0.08248038451606952,0.9585470931389085 l -34.88697477732624 -3.30383278326371" fill="red" stroke="none" /><path d="M 120.9064616781168 101.97986365728391 l 36.98720171495572 3.5027264578549357 a58.1526874309434,58.1526874309434 0 0,0 -0.102646713991741,0.9930138442776438 l -36.92162260848231 -4.137144824415511" fill="red" stroke="none" /><path d="M 120.82617615685814 102.69636545807757 l 37.2319801494601 4.8204252405583805 a58.54273358919943,58.54273358919943 0 0,0 -0.13759071040354628,0.9955378397443198 l -37.14374492250134 -5.458851388502785" fill="red" stroke="none" /><path d="M 120.65975698304385 103.76489593502545 l 36.966733997546626 6.736570361052973 a58.57553462926092,58.57553462926092 0 0,0 -0.18876302904366016,0.9876879316201691 l -36.8456446762208 -7.370160857706456" fill="red" stroke="none" /><path d="M 119.94978838288452 106.5578916946017 l 23.902078550335837 7.857087975100649 a46.16034956980717,46.16034956980717 0 0,0 -0.253913967648978,0.7506515277988836 l -23.763679161114496 -8.266241177373693" fill="red" stroke="none" /><path d="M 118.70294669586154 109.54985784667822 l 22.348160642718454 11.41113006112105 a46.09291081928461,46.09291081928461 0 0,0 -0.3658722052872384,0.7016081956968301 l -22.148980368456268 -11.793084499922383" fill="red" stroke="none" /><line stroke="#e1ed5e" stroke-width="0.3" x1="174.33088141563837" x2="178.70328620479359" y1="141.23008692659167" y2="143.65538615756765" /><path d="M 175.20536237346943 141.71514677278685 a86.0,86.0 0 0,1 -30.301960400862466,31.631185727798858" fill="none" id="id17" stroke="none" /><text fill="#e1ed5e" style="font-size:6.75px; font-family:Arial;" text-anchor="middle"><textPath startOffset="22.145653131862474" xlink:href="#id17">May</textPath></text><path d="M 117.81537515405839 111.11811171558189 l 34.133617980031076 21.30190213101007 a61.23524463459657,61.23524463459657 0 0,0 -0.564187451702623,0.8869963831214523 l -33.76291283670256 -21.884712188810195" fill="red" stroke="none" /><path d="M 117.62189284568427 111.42229804090321 l 20.157309802145424 13.0657246800427 a45.021454990785735,45.021454990785735 0 0,0 -0.4259363252809336,0.6449218841752692 l -19.930049037943764 -13.40982644255703" fill="red" stroke="none" /><path d="M 117.423217284605 111.72311816256416 l 25.252530321230438 16.991029384744888 a51.43657942637324,51.43657942637324 0 0,0 -0.49920489477184804,0.7283548603911525 l -24.95713568964327 -17.422018980206087" fill="red" stroke="none" /><path d="M 116.79662413953412 112.60449989151573 l 37.34336590922388 28.023157965639893 a67.68858918191243,67.68858918191243 0 0,0 -0.7054054237208741,0.9233983434689385 l -36.856808508148696 -28.66007722234971" fill="red" stroke="none" /><path d="M 116.35404254752997 113.17365903436017 l 19.81799732552524 15.963975803020196 a46.44801645382091,46.44801645382091 0 0,0 -0.505516280979873,0.616647666997911 l -19.541034225306742 -16.3018257517166" fill="red" stroke="none" /><path d="M 116.1254893667686 113.45245675266167 l 20.383434204128754 17.00458577504339 a47.545062202504894,47.545062202504894 0 0,0 -0.528215309058895,0.6222363058928756 l -20.088524331562745 -17.351988863385824" fill="red" stroke="none" /><path d="M 114.91283532996324 114.78537596483092 l 16.361726436630793 16.221883461238203 a44.040303709307665,44.040303709307665 0 0,0 -0.5368892185482401,0.5323004493820525 l -16.08084529795259 -16.50036392084892" fill="red" stroke="none" /><path d="M 112.7482090630111 116.68781488649013 l 26.399553784032474 34.55786334035979 a64.48772652883807,64.48772652883807 0 0,0 -0.8854687236443018,0.6644722378972464 l -25.802432071477405 -35.00595460552105" fill="red" stroke="none" /><path d="M 112.16784306229584 117.11559508785304 l 11.837690548150395 16.651194230575385 a41.43020280903046,41.43020280903046 0 0,0 -0.5831891106674356,0.40711129199469676 l -11.5501063463092 -16.851950338375204" fill="red" stroke="none" /><path d="M 111.8722381534696 117.32195027204791 l 23.314511901279776 34.01656962659679 a62.23946501054571,62.23946501054571 0 0,0 -0.8864788100719478,0.5964625057087013 l -22.727136803110824 -34.41178180636262" fill="red" stroke="none" /><path d="M 111.5731344415666 117.5232005979908 l 3.5954979169502503 5.44404211032812 a27.52420108287746,27.52420108287746 0 0,0 -0.3964983946770288,0.25700546907194965 l -3.501513890016212 -5.504961421103964" fill="red" stroke="none" /><path d="M 111.27062007382361 117.71928675628689 l 16.89637748858406 26.56391182576005 a52.48220106224285,52.48220106224285 0 0,0 -0.7643304611859234,0.47699873741650767 l -16.43788289860842 -26.850046360018105" fill="red" stroke="none" /><path d="M 110.96478420261333 117.91015095944535 l 19.52091943276264 31.88595483936846 a58.38690160361855,58.38690160361855 0 0,0 -0.8593085110372652,0.5159900709389641 l -18.97067816516794 -32.21635891084335" fill="red" stroke="none" /><line stroke="#e1ed5e" stroke-width="0.3" x1="143.1302829299769" x2="145.66735839644613" y1="173.24464959558577" y2="177.55315839532614" /><path d="M 143.63769802327073 174.10635135553383 a86.0,86.0 0 0,1 -40.68552437913181,11.842963189579606" fill="none" id="id18" stroke="none" /><text fill="#e1ed5e" style="font-size:6.75px; font-family:Arial;" text-anchor="middle"><textPath startOffset="21.407464694133747" xlink:href="#id18">June</textPath></text><path d="M 110.65571695917076 118.09573695890943 l 21.132006845157004 35.886767521046586 a62.646389956554536,62.646389956554536 0 0,0 -0.9313654669424288,0.5377241030531349 l -20.512848910354176 -36.24423852137589" fill="red" stroke="none" /><path d="M 110.34350942703117 118.27599006163325 l 16.68930208401948 29.488397644423234 a54.88360074855213,54.88360074855213 0 0,0 -0.8239225767095993,0.45701596444907827 l -16.180635319153787 -29.770546524305455" fill="red" stroke="none" /><path d="M 110.02825361518725 118.45085714620011 l 7.051421886134214 12.973822052287808 a35.76626592137234,35.76626592137234 0 0,0 -0.5419631349396629,0.28856484316039777 l -6.827669935407998 -13.092957363170774" fill="red" stroke="none" /><path d="M 109.71004243097381 118.62028667847754 l 12.602201079155492 24.16638223177784 a48.254898682839666,48.254898682839666 0 0,0 -0.7377778279061394,0.3767146158040234 l -12.18549602953577 -24.379154799254696" fill="red" stroke="none" /><path d="M 108.73861861582097 119.09545874513695 l 11.688700045956795 25.5419190749154 a49.08941684681043,49.08941684681043 0 0,0 -0.7692699593294525,0.3440846680892048 l -11.248516683771715 -25.738807493914454" fill="red" stroke="none" /><path d="M 103.58742460773223 120.69131181640829 l 4.26540378085681 24.601715521036713 a45.96874197855723,45.96874197855723 0 0,0 -0.7786721751486397,0.12813021010119022 l -3.8424541026550982 -24.671311729633572" fill="red" stroke="none" /><path d="M 103.2317021107853 120.74984581791261 l 3.8207952960307168 24.53224665412552 a45.828000374436584,45.828000374436584 0 0,0 -0.778366533036339,0.11439307583268479 l -3.3991036573866924 -24.594220803257084" fill="red" stroke="none" /><line stroke="#e1ed5e" stroke-width="0.3" x1="101.45913802915013" x2="101.54496967792366" y1="184.9874750549273" y2="189.98673829345242" /><path d="M 101.47630435890484 185.9873277026323 a86.0,86.0 0 0,1 -42.54439059252881,-10.42667462771756" fill="none" id="id19" stroke="none" /><text fill="#e1ed5e" style="font-size:6.75px; font-family:Arial;" text-anchor="middle"><textPath startOffset="22.145653131862474" xlink:href="#id19">July</textPath></text><path d="M 91.59046798132341 119.24265499422711 l -10.615008553185199 24.289216914338734 a47.50744168900488,47.50744168900488 0 0,0 -0.7444791583080455,-0.3329960581185859 l 11.030401114348878 -24.103417105310292" fill="red" stroke="none" /><line stroke="#e1ed5e" stroke-width="0.3" x1="58.13341422392154" x2="55.67067388415222" y1="173.97424548756322" y2="178.32567169271397" /><path d="M 57.64086615596768 174.84453072859336 a86.0,86.0 0 0,1 -31.369924170532247,-30.572349798747897" fill="none" id="id20" stroke="none" /><text fill="#e1ed5e" style="font-size:6.75px; font-family:Arial;" text-anchor="middle"><textPath startOffset="22.145653131862474" xlink:href="#id20">August</textPath></text><path d="M 89.65649057296885 118.27599006163327 l -4.63603588483388 8.191431192122797 a30.412352187458232,30.412352187458232 0 0,0 -0.4521412106193671,-0.26104384966281685 l 4.775969563313646 -8.11064044518381" fill="red" stroke="none" /><path d="M 89.03521579738668 117.91015095944536 l -14.820728811519519 24.208546692606227 a49.384991377005925,49.384991377005925 0 0,0 -0.7192238982142447,-0.44884890605520356 l 15.234116838523477 -23.950561989709474" fill="red" stroke="none" /><path d="M 88.72937992617639 117.7192867562869 l -14.171193454475748 22.279469883105 a47.40449776451654,47.40449776451654 0 0,0 -0.6828829366384153,-0.4426364691714458 l 14.551562023371174 -22.032919572229662" fill="red" stroke="none" /><path d="M 88.4268655584334 117.5232005979908 l -6.74411062803178 10.211443061232195 a33.23750781637823,33.23750781637823 0 0,0 -0.4734029505849294,-0.31852663245595725 l 6.9184098667137155 -10.094166754719117" fill="red" stroke="none" /><path d="M 88.1277618465304 117.32195027204791 l -15.741990034380258 22.968033915232656 a48.844942667813214,48.844942667813214 0 0,0 -0.6875621344734086,-0.4799717686287861 l 16.133947260027433 -22.69441733079874" fill="red" stroke="none" /><path d="M 87.83215693770417 117.11559508785305 l -13.561279411337875 19.07563781759549 a44.404876787123996,44.404876787123996 0 0,0 -0.6174793930402389,-0.4470074619081946 l 13.886739814752067 -18.840029584314227" fill="red" stroke="none" /><path d="M 87.54013794807813 116.9041958592261 l -14.534768625246 19.71920512328587 a45.4970722675927,45.4970722675927 0 0,0 -0.6247116572224389,-0.4687952739952914 l 14.871133271379206 -19.466790822026564" fill="red" stroke="none" /><path d="M 87.2517909369889 116.68781488649013 l -16.304566952961522 21.343201525057165 a47.85835353968682,47.85835353968682 0 0,0 -0.6485719754060136,-0.5043334909282373 l 16.668548873002763 -21.060166982508132" fill="red" stroke="none" /><path d="M 86.96720088162412 116.46651593811092 l -10.708136148303312 13.529380216171973 a38.25422582454355,38.25422582454355 0 0,0 -0.5114211633760214,-0.41196468761108096 l 10.938808082034596 -13.343567234767482" fill="red" stroke="none" /><path d="M 86.68645165197938 116.24036423190432 l -13.617709972963356 16.611391958346047 a42.47976647223031,42.47976647223031 0 0,0 -0.5599756970629743,-0.46715164271574405 l 13.900860004188223 -16.37517813171843" fill="red" stroke="none" /><path d="M 86.40962598614128 116.0094264158162 l -13.991032972084264 16.481401661163265 a42.61910276451232,42.61910276451232 0 0,0 -0.5536840851549654,-0.47825912550220484 l 14.271896537002092 -16.238798403196338" fill="red" stroke="none" /><path d="M 85.60350026404147 115.28858382429668 l -6.5516857687682375 6.9576632447731415 a30.556864770433208,30.556864770433208 0 0,0 -0.37879964978269653,-0.36288149569708256 l 6.670157904416249 -6.844169618770476" fill="red" stroke="none" /><path d="M 84.83555147118756 114.52719865689866 l -29.216540567239832 27.98878495853025 a61.4595888037931,61.4595888037931 0 0,0 -0.7233037539917223,-0.7681235214216903 l 29.69270015496781 -27.48311997716407" fill="red" stroke="none" /><path d="M 84.58840730492382 114.26474011684316 l -35.27322852503026 32.648373724042806 a69.06367607043575,69.06367607043575 0 0,0 -0.7978574572856837,-0.8769851096115164 l 35.82848368315783 -32.03805103887362" fill="red" stroke="none" /><path d="M 84.3458050057657 113.99807769240083 l -20.174670195959198 18.040314492416584 a48.06418785962402,48.06418785962402 0 0,0 -0.5447021395431549,-0.6197710452074928 l 20.481383399460945 -17.691331169397788" fill="red" stroke="none" /><path d="M 83.4222238831116 112.89097897827486 l -24.521998729739042 19.06845453222841 a52.06339292397058,52.06339292397058 0 0,0 -0.542570028268445,-0.7102415837352775 l 24.845720735361784 -18.644692035252266" fill="red" stroke="none" /><path d="M 83.20337586046588 112.60449989151573 l -25.104801796634515 18.839111293644773 a52.38730933964614,52.38730933964614 0 0,0 -0.533597127008926,-0.7239269830830859 l 25.424500943227272 -18.40537800129281" fill="red" stroke="none" /><path d="M 82.98947788004972 112.3143062007846 l -19.007155970882707 13.759715132847736 a44.46490440292867,44.46490440292867 0 0,0 -0.44228796071811777,-0.6221334059888232 l 19.240559030130786 -13.43140450014941" fill="red" stroke="none" /><path d="M 82.78059297857968 112.02048342749411 l -12.222958285055212 8.532574165747258 a35.90656000330651,35.90656000330651 0 0,0 -0.34848216401572496,-0.5084458918145881 l 12.367630185886261 -8.32149353886262" fill="red" stroke="none" /><path d="M 82.576782715395 111.72311816256416 l -24.785680574665594 16.676912040413857 a50.873890887412976,50.873890887412976 0 0,0 -0.48130470554011917,-0.7287566688627098 l 25.06830971912644 -16.248975493212086" fill="red" stroke="none" /><path d="M 82.37810715431573 111.42229804090323 l -23.11362894486674 14.981975031120083 a48.54449888515104,48.54449888515104 0 0,0 -0.44726198586492555,-0.7031701300209239 l 23.367408622357555 -14.582991226420486" fill="red" stroke="none" /><path d="M 82.18462484594161 111.11811171558189 l -33.60186097288268 20.97004642997128 a60.60843228551324,60.60843228551324 0 0,0 -0.5432594562032822,-0.8873734941749241 l 33.95688839354137 -20.390135819671798" fill="red" stroke="none" /><path d="M 81.99639281039703 110.81064883170644 l -17.47576252117033 10.493693274521819 a41.38430460516341,41.38430460516341 0 0,0 -0.3604893952515245,-0.612189803646548 l 17.653325626551627 -10.192152302581713" fill="red" stroke="none" /><line stroke="#e1ed5e" stroke-width="0.3" x1="26.387840678322732" x2="22.057713659400548" y1="142.50000000000003" y2="145.00000000000006" /><path d="M 25.521815274538298 143.00000000000003 a86.0,86.0 0 0,1 -11.493303480769221,-40.785679425670985" fill="none" id="id21" stroke="none" /><text fill="#e1ed5e" style="font-size:6.75px; font-family:Arial;" text-anchor="middle"><textPath startOffset="21.40746469413373" xlink:href="#id21">September</textPath></text><path d="M 81.81346652052679 110.50000000000001 l -19.218021018578195 11.095529608368022 a43.19105921673602,43.19105921673602 0 0,0 -0.3652043355370571,-0.6452810676904221 l 19.405658719136632 -10.763991770578476" fill="red" stroke="none" /><path d="M 81.4637452351635 109.86951160357371 l -24.256379634751557 12.915155909488892 a48.48041493776242,48.48041493776242 0 0,0 -0.384823522993873,-0.7379498462242065 l 24.47451122672038 -12.496859820160182" fill="red" stroke="none" /><path d="M 80.9802524753101 108.90220220490708 l -25.740729576170324 12.047961167278238 a49.420741148002705,49.420741148002705 0 0,0 -0.3530418538370179,-0.7714601645443415 l 25.9437558948624 -11.604312020519208" fill="red" stroke="none" /><path d="M 80.83023694016515 108.57439118712176 l -17.783679527881496 7.9544136535498 a40.481579867202015,40.481579867202015 0 0,0 -0.2782937397737152,-0.6367905383588172 l 17.91760714967218 -7.647961045415133" fill="red" stroke="none" /><path d="M 80.68587082218212 108.24405325689762 l -23.868570153999446 10.188073285828567 a46.95198409512858,46.95198409512858 0 0,0 -0.3100488924632533,-0.7440044725756576 l 24.039944890999184 -9.776836303811628" fill="red" stroke="none" /><path d="M 79.407916724674 104.11899336999214 l -21.644681046175226 4.329542403881855 a43.073449096542845,43.073449096542845 0 0,0 -0.13880666688375395,-0.7262951352501865 l 21.715814005341137 -3.957344703598354" fill="red" stroke="none" /><line stroke="#e1ed5e" stroke-width="0.3" x1="15.003131293944662" x2="10.003315487706104" y1="100.72959589197737" y2="100.7725132973878" /><path d="M 14.003168132696942 100.73817937305945 a86.0,86.0 0 0,1 10.791469493833604,-42.45332614584628" fill="none" id="id22" stroke="none" /><text fill="#e1ed5e" style="font-size:6.75px; font-family:Arial;" text-anchor="middle"><textPath startOffset="22.145653131862435" xlink:href="#id22">October</textPath></text><path d="M 79.06263194458094 98.37931529534042 l -23.47615455689387 -1.8172028362817456 a44.54638101550553,44.54638101550553 0 0,0 0.06556034567215746,-0.7619105941120543 l 23.44150058852397 2.2199344777694807" fill="red" stroke="none" /><path d="M 79.0935383218832 98.0201363427161 l -23.1609818182243 -2.1933690585678365 a44.26460716649218,44.26460716649218 0 0,0 0.07813252787623176,-0.7558613310870222 l 23.119916897866407 2.5906349119377716" fill="red" stroke="none" /><path d="M 79.17382384314186 97.30363454192245 l -21.11633038848026 -2.733931732451131 a42.29257597833475,42.29257597833475 0 0,0 0.09939859683506257,-0.7191987313428729 l 21.06628727508999 3.096018771994071" fill="red" stroke="none" /><path d="M 79.22317932658666 96.9465228501225 l -23.346329557680754 -3.431106469966758 a44.59710989558013,44.59710989558013 0 0,0 0.11781814818821379,-0.7564770284051201 l 23.283989917354273 3.831371680303328" fill="red" stroke="none" /><path d="M 79.2786578344484 96.59031103205396 l -24.824166465534162 -4.084807145200415 a46.15799853172011,46.15799853172011 0 0,0 0.13536422684615063,-0.7807448888051446 l 24.75038742119578 4.510345066926152" fill="red" stroke="none" /><path d="M 79.34024301695615 96.23510406497455 l -22.2072394433799 -4.046898788651657 a43.57296776015946,43.57296776015946 0 0,0 0.14041639450475854,-0.7347179103694546 l 22.13449675659298 4.4275192640544265" fill="red" stroke="none" /><path d="M 79.407916724674 95.88100663000787 l -21.966312924641784 -4.393877787401263 a43.40145230814071,43.40145230814071 0 0,0 0.15240583079758882,-0.7293170718982747 l 21.887649383019827 4.7703113105849475" fill="red" stroke="none" /><path d="M 79.94057633289273 93.78553927170692 l -23.300667908991386 -7.2186064797497345 a45.39322456163977,45.39322456163977 0 0,0 0.23698567031438889,-0.7423542369079809 l 23.173317522899737 7.6175297503491075" fill="red" stroke="none" /><path d="M 80.05021161711548 93.44210830539832 l -24.031101923135502 -7.89950052046971 a46.296165087084404,46.296165087084404 0 0,0 0.2546610472786071,-0.7528601359765287 l 23.891955454284528 8.3108623309204" fill="red" stroke="none" /><path d="M 80.41425534168474 92.42381321644754 l -21.673456464437425 -8.383758559318151 a44.23846214138975,44.23846214138975 0 0,0 0.2800533225969993,-0.7059173173150064 l 21.526344466874296 8.754576893846739" fill="red" stroke="none" /><path d="M 80.68587082218212 91.75594674310238 l -16.003116458592896 -6.830778812046866 a38.39997918292994,38.39997918292994 0 0,0 0.26398361548897514,-0.6040461735208988 l 15.883498961086945 7.104487055343631" fill="red" stroke="none" /><path d="M 80.83023694016515 91.42560881287825 l -19.74523247925052 -8.831791338750861 a42.630412476670074,42.630412476670074 0 0,0 0.30453448291132157,-0.6654628048850281 l 19.590713531484152 9.16944312585056" fill="red" stroke="none" /><path d="M 80.9802524753101 91.09779779509293 l -20.954535279243906 -9.807780567199169 a44.13622934757103,44.13622934757103 0 0,0 0.3270720362819439,-0.6834547614199091 l 20.783083985002055 10.166047830684164" fill="red" stroke="none" /><path d="M 81.29705330413844 90.45014215332179 l -10.445063547022283 -5.333323871133901 a32.72790245592708,32.72790245592708 0 0,0 0.2597846313703948,-0.498171284540333 l 10.351970846676949 5.51184139877872" fill="red" stroke="none" /><path d="M 81.46374523516351 90.13048839642627 l -27.188984784050422 -14.476602971848623 a51.80280713168626,51.80280713168626 0 0,0 0.4246711500332795,-0.7813470843527679 l 26.93646828440179 14.94120488967601" fill="red" stroke="none" /><path d="M 81.63589988554816 89.8137432299009 l -34.508194282401774 -19.14111366428383 a60.46134443909659,60.46134443909659 0 0,0 0.5112341656349689,-0.9033017851653651 l 34.17452675174544 19.7306722195483" fill="red" stroke="none" /><line stroke="#e1ed5e" stroke-width="0.3" x1="26.387840678322718" x2="22.05771365940052" y1="57.49999999999999" y2="54.99999999999999" /><path d="M 25.521815274538284 56.99999999999999 a86.0,86.0 0 0,1 29.574782752854787,-30.34633250058573" fill="none" id="id23" stroke="none" /><text fill="#e1ed5e" style="font-size:6.75px; font-family:Arial;" text-anchor="middle"><textPath startOffset="21.40746469413373" xlink:href="#id23">November</textPath></text><path d="M 81.81346652052679 89.5 l -5.559572524464101 -3.209820693578597 a27.419641387157192,27.419641387157192 0 0,0 0.23884634612021977,-0.4056133125109324 l 5.503652468214102 3.304785174383102" fill="red" stroke="none" /><path d="M 82.18462484594161 88.88188828441811 l -19.41640766813741 -12.117274416219967 a43.88722844761428,43.88722844761428 0 0,0 0.4043524889612534,-0.6357092738103542 l 19.205537487550266 12.448797364708994" fill="red" stroke="none" /><path d="M 82.37810715431573 88.57770195909679 l -27.748846575184388 -17.986467097981315 a54.06828518263212,54.06828518263212 0 0,0 0.5115260426311176,-0.7745156250779874 l 27.435996093632543 18.460162601398363" fill="red" stroke="none" /><path d="M 82.576782715395 88.27688183743585 l -5.631706983359736 -3.7892637935015374 a27.78783055498327,27.78783055498327 0 0,0 0.2696878599401246,-0.3934826473719802 l 5.565829386604299 3.8853811759435524" fill="red" stroke="none" /><path d="M 82.78059297857968 87.97951657250589 l -14.335430134420406 -10.007243579435807 a38.48283390062972,38.48283390062972 0 0,0 0.3827849032200229,-0.5384349038457101 l 14.16153013267041 10.251855709991036" fill="red" stroke="none" /><path d="M 82.98947788004972 87.6856937992154 l -19.37172583783122 -14.023635601692007 a44.9149768435,44.9149768435 0 0,0 0.4574868017744856,-0.6206687094913715 l 19.128137016472916 14.354110620452241" fill="red" stroke="none" /><path d="M 83.2033758604659 87.39550010848427 l -35.303875719964445 -26.492686505677778 a65.13871406304013,65.13871406304013 0 0,0 0.6788323223990259,-0.8886133008306144 l 34.84389142021111 27.094820719749276" fill="red" stroke="none" /><path d="M 83.42222388311158 87.10902102172516 l -36.255577545972606 -28.19255638964861 a66.9269761575433,66.9269761575433 0 0,0 0.7130386315282983,-0.9009010178016675 l 35.76627248380275 28.810777351364965" fill="red" stroke="none" /><path d="M 83.8745106332314 86.54754324733833 l -19.16727739938224 -15.990024514408223 a45.961278149891385,45.961278149891385 0 0,0 0.5106198124062538,-0.6015088550793113 l 18.889963023468873 16.31670015193709" fill="red" stroke="none" /><path d="M 84.83555147118756 85.47280134310135 l -16.694665844565197 -15.9931122304737 a44.119072353323766,44.119072353323766 0 0,0 0.5286162345275708,-0.5424068251738169 l 16.417662808886824 16.277341747715248" fill="red" stroke="none" /><path d="M 85.08716467003674 85.21462403516908 l -26.159612059780144 -25.936026975423424 a57.83751889565971,57.83751889565971 0 0,0 0.7050891503297164,-0.6990627835473932 l 25.71053098932045 26.38126976919949" fill="red" stroke="none" /><path d="M 85.34317274990677 84.96080404539775 l -4.526247919656088 -4.644329106245397 a27.48511473123716,27.48511473123716 0 0,0 0.3407205520804753,-0.3264025814823939 l 4.445854881710312 4.721343818033359" fill="red" stroke="none" /><path d="M 85.60350026404147 84.71141617570332 l -43.189499207875585 -45.86575147289003 a84.0,84.0 0 0,0 1.058280914744187,-0.9795290154705376 l 42.395788521817444 46.600398234492936" fill="red" stroke="none" /><path d="M 85.86807049272753 84.46653392183569 l -25.31003642149342 -27.82016369300807 a58.61062950235063,58.61062950235063 0 0,0 0.750034568913253,-0.6706855364648894 l 24.828736825756778 28.25054475935636" fill="red" stroke="none" /><path d="M 86.13680546590413 84.22622945171909 l -24.359585333602638 -27.71673648223651 a57.89995770798131,57.89995770798131 0 0,0 0.7522045992190727,-0.6497364173300427 l 23.880201254620715 28.130817032031263" fill="red" stroke="none" /><path d="M 86.40962598614128 83.9905735841838 l -24.26168982685255 -28.580209610880996 a58.48943817472189,58.48943817472189 0 0,0 0.7710179841530116,-0.6432106245852991 l 23.76749750853763 28.992482419378174" fill="red" stroke="none" /><path d="M 86.68645165197937 83.75963576809568 l -14.359771753412645 -17.516586672936402 a43.65025062732421,43.65025062732421 0 0,0 0.5835606779724635,-0.4700751740816728 l 14.056960305084935 17.760510140811476" fill="red" stroke="none" /><path d="M 88.12776184653039 82.6780497279521 l -22.991700641092564 -33.54557835065223 a61.668465981019786,61.668465981019786 0 0,0 0.8783460515375027,-0.5909904228132518 l 22.412458301458074 33.93531844752259" fill="red" stroke="none" /><path d="M 88.72937992617638 82.28071324371311 l -23.803465320235254 -37.423001133910766 a65.35184297321058,65.35184297321058 0 0,0 0.9517589443290797,-0.5939679730485191 l 23.157542247116474 37.82610490380082" fill="red" stroke="none" /><path d="M 89.03521579738668 82.08984904055464 l -19.54436355587567 -31.92424905257936 a58.43180231267732,58.43180231267732 0 0,0 0.8599693366742913,-0.5163868777469316 l 18.993461462643943 32.255049930862214" fill="red" stroke="none" /><line stroke="#e1ed5e" stroke-width="0.3" x1="56.869717070023135" x2="54.33264160355391" y1="26.7553504044142" y2="22.446841604673864" /><path d="M 56.362301976729285 25.89364864446614 a86.0,86.0 0 0,1 42.16139366436587,-11.88097634709845" fill="none" id="id24" stroke="none" /><text fill="#e1ed5e" style="font-size:6.75px; font-family:Arial;" text-anchor="middle"><textPath startOffset="22.145653131862474" xlink:href="#id24">December</textPath></text><path d="M 89.34428304082924 81.90426304109057 l -18.476417466491874 -31.37699618878165 a57.412825930252986,57.412825930252986 0 0,0 0.8535579379449875,-0.4928019052414777 l 17.93506706068649 31.689544991299304" fill="red" stroke="none" /><path d="M 89.65649057296885 81.72400993836675 l -11.137074115990957 -19.678142829125367 a43.61114161356153,43.61114161356153 0 0,0 0.6546983740391675,-0.36315015183789084 l 10.797631553795688 19.866425896396404" fill="red" stroke="none" /><path d="M 90.93487009805054 81.0573650232925 l -15.107206656588529 -31.568251564922548 a55.996888430703486,55.996888430703486 0 0,0 0.8706483838429455,-0.40750740525257023 l 14.56306955887406 31.82293520174566" fill="red" stroke="none" /><path d="M 91.26138138417902 80.90454125486306 l -9.875419764126725 -21.579574414127876 a44.73187618821123,44.73187618821123 0 0,0 0.700983853269629,-0.3135411614128517 l 9.503522508001478 21.745919326450572" fill="red" stroke="none" /><path d="M 92.25597844496254 80.48000691201159 l -9.067097997590428 -22.855010020723313 a45.587878093590575,45.587878093590575 0 0,0 0.7299004337680359,-0.2823411678286552 l 8.673425301328862 23.007291076690006" fill="red" stroke="none" /><path d="M 92.93061703081487 80.22567764915836 l -8.449092803650775 -23.633616314158356 a46.098505718260505,46.098505718260505 0 0,0 0.7474416721151459,-0.2599990130246088 l 8.042145359490625 23.77517375975155" fill="red" stroke="none" /><path d="M 97.84075906011542 79.11130261209362 l -2.2842112112242057 -22.097671399226105 a43.21541586659268,43.21541586659268 0 0,0 0.7385729344294399,-0.06994362478185312 l 1.90453871340975 22.133626779513143" fill="red" stroke="none" /><path d="M 98.1996594967304 79.07731436759882 l -2.131839953358002 -24.775211734501024 a45.86676211484098,45.86676211484098 0 0,0 0.7850445911115848,-0.060767416321026266 l 1.7062263674712002 24.808156917817104" fill="red" stroke="none" /></svg>