<?xml version="1.0" encoding="utf-8" ?>
<svg baseProfile="full" height="200mm" version="1.1" viewBox="0,0,200,200" width="200mm" xmlns="http://www.w3.org/2000/svg" xmlns:ev="http://www.w3.org/2001/xml-events" xmlns:xlink="http://www.w3.org/1999/xlink"><defs /><rect fill="#1a1a1a" height="200" width="200" x="0" y="0" /><rect fill="#1a1a1a" height="200" width="180" x="10" y="0" /><text alignment-baseline="middle" fill="#e1ed5e" style="dominant-baseline: central; font-size:9.0px; font-family:Arial;" text-anchor="middle" x="100.0" y="100.0">2021</text><line stroke="#e1ed5e" stroke-width="0.3" x1="100.0" x2="100.0" y1="15.0" y2="10.0" /><path d="M 100.0 14.0 a86.0,86.0 0 0,1 42.46469731375804,11.215312516191453" fill="none" id="id25" stroke="none" /><text fill="#e1ed5e" style="font-size:6.75px; font-family:Arial;" text-anchor="middle"><textPath startOffset="22.20632615414155" xlink:href="#id25">January</textPath></text><path d="M 100.0 79.0 l 0.0 -8.304312556432556 a29.304312556432556,29.304312556432556 0 0,0 0.504425568935772,0.0043417501246658195 l -0.14294508966324362 8.30308218291645" fill="#ff6008" stroke="none" /><path d="M 100.36148047927253 79.00311137660856 l 0.10706168902656754 -6.2187655744149275 a27.21968708817296,27.21968708817296 0 0,0 0.46840332914266064,0.01209747606732608 l -0.214091653364096 6.216001306205242" fill="#ff4206" stroke="none" /><path d="M 100.72285384407766 79.0124445844662 l 0.20456944800053287 -5.939530738353625 a26.94305258692053,26.94305258692053 0 0,0 0.46336811643727077,0.019953605814513796 l -0.30677839682713515 5.935129406014917" fill="#ff3e05" stroke="none" /><path d="M 101.08401301168833 79.027996857942 l 0.3155370497651708 -6.104579859981877 a27.112729251052336,27.112729251052336 0 0,0 0.46587150825314516,0.028102641617733622 l -0.42057060685792785 6.098243948983839" fill="#ff4106" stroke="none" /><path d="M 106.40334571778207 80.00007090966166 l 0.6375356582504581 -1.991250905313886 a23.09082086354958,23.09082086354958 0 0,0 0.3774988309990356,0.12445542939725258 l -0.6717173114919112 1.9799817516573972" fill="#ff0701" stroke="none" /><path d="M 107.08798089147638 80.2323363322302 l 1.8961608248822726 -5.288201255077919 a26.617873119609047,26.617873119609047 0 0,0 0.4299644291673541,0.1583595278814202 l -1.9869075798222031 5.254778459390174" fill="#ff3a05" stroke="none" /><path d="M 107.76421540070413 80.48803036053334 l 2.332086586448235 -5.860682673391402 a27.30763261809706,27.30763261809706 0 0,0 0.43525262479197047,0.17755047419520747 l -2.432623080828593 5.8196713130126145" fill="#ff4406" stroke="none" /><path d="M 108.09893153111575 80.62456947434976 l 6.048063458315291 -14.469048528327047 a36.68223316083815,36.68223316083815 0 0,0 0.5804810418985343,0.24853168807157236 l -6.29622825800414 14.362797312292683" fill="#ffc212" stroke="none" /><path d="M 108.43124777332544 80.76684994638697 l 7.170669511963991 -16.357550675334455 a38.86023419068027,38.86023419068027 0 0,0 0.6103238150788077,0.27383450531366943 l -7.4511754455095796 16.231695839504255" fill="#ffde14" stroke="none" /><path d="M 108.76106565485865 80.91482961587045 l 3.008705252331346 -6.554185830638622 a28.211772264703754,28.211772264703754 0 0,0 0.4395955515649883,0.20639600579257358 l -3.121079015195932 6.501424842206045" fill="#ff5007" stroke="none" /><path d="M 109.08828744355905 81.06846463323043 l 5.170070531561548 -10.769616797971885 a32.946308018650754,32.946308018650754 0 0,0 0.5091439808560372,0.24983474021802574 l -5.354685779428016 10.679026897619028" fill="#ff910d" stroke="none" /><path d="M 109.41281617654863 81.2277094730956 l 2.899736190353858 -5.783039761503238 a27.46931363104119,27.46931363104119 0 0,0 0.4208554082820353,0.21557848623480022 l -2.9988520862246486 5.732268749955937" fill="#ff4606" stroke="none" /><path d="M 109.73455568895987 81.39251694778311 l 1.9945447668266711 -3.812547704432593 a25.302758281085506,25.302758281085506 0 0,0 0.3841861816390909,0.20521895302156049 l -2.0598759949940733 3.7776500249092786" fill="#ff2703" stroke="none" /><path d="M 110.05341064243156 81.56283822128135 l 6.707016789011518 -12.300139523762551 a35.00990744123986,35.00990744123986 0 0,0 0.526608876405018,0.2930572695720594 l -6.917749754488571 12.182866856630312" fill="#ffad10" stroke="none" /><path d="M 110.36928655335952 81.73862282372117 l 5.545519069899318 -9.76622787426668 a32.23084986306559,32.23084986306559 0 0,0 0.4800911977422068,0.27809980947490365 l -5.712807000106853 9.669323907401726" fill="#ff880c" stroke="none" /><line stroke="#e1ed5e" stroke-width="0.3" x1="143.23703022742887" x2="145.7803849466894" y1="26.81831364943548" y2="22.513508569990506" /><path d="M 143.74570117128098 25.957352633546492 a86.0,86.0 0 0,1 28.547481713284135,27.462654790039103" fill="none" id="id26" stroke="none" /><text fill="#e1ed5e" style="font-size:6.75px; font-family:Arial;" text-anchor="middle"><textPath startOffset="19.985693538727396" xlink:href="#id26">February</textPath></text><path d="M 111.2981086023043 82.29822771554956 l 7.245469147233847 -11.352134189273613 a34.467285317197096,34.467285317197096 0 0,0 0.49736780870533553,0.3235018579676215 l -7.439803981723463 11.225733407146464" fill="#ffa60f" stroke="none" /><path d="M 111.60114157652 82.49532879139004 l 5.559024417131757 -8.387872350379139 a31.06276080588831,31.06276080588831 0 0,0 0.44315511029602866,0.2992203086736651 l -5.702584221834328 8.290940129406804" fill="#ff780b" stroke="none" /><path d="M 111.90073688211348 82.69761687909136 l 1.1940160811149811 -1.7359701245918486 a23.10695673316673,23.10695673316673 0 0,0 0.32577382607993133,0.22822538400270068 l -1.2237210467785635 1.7151598978252125" fill="#ff0701" stroke="none" /><path d="M 112.19680574252982 82.90503203632743 l 0.9477452337024797 -1.3283538944440687 a22.63179198946756,22.63179198946756 0 0,0 0.31517969364888543,0.22899145139961502 l -0.9704702437051538 1.311843208227779" fill="#ff0000" stroke="none" /><path d="M 112.48926042617603 83.11751280151076 l 9.844754312671606 -13.30774865640612 a37.55340937024591,37.55340937024591 0 0,0 0.5163662569116423,0.3889163593106738 l -10.07236672334163 13.136315707589599" fill="#ffce13" stroke="none" /><path d="M 112.77801427241765 83.33499621200491 l 5.023863195868889 -6.552089973028613 a29.256457135204425,29.256457135204425 0 0,0 0.39700656356699326,0.3098699200778032 l -5.135902314595312 6.464641663727585" fill="#ff5f08" stroke="none" /><path d="M 113.06298171725822 83.55741782278167 l 6.758622883936331 -8.507185769626588 a31.865136584792893,31.865136584792893 0 0,0 0.42653245706017046,0.3448929169318638 l -6.904058739560992 8.389586755430594" fill="#ff830c" stroke="none" /><path d="M 113.34407831869373 83.78471172551755 l 5.579667614860929 -6.780229903478317 a29.780900195102404,29.780900195102404 0 0,0 0.3930262872212087,0.3291482127168308 l -5.695551439041255 6.6831805333676675" fill="#ff6609" stroke="none" /><path d="M 113.89432698308785 84.25364557470407 l 7.700005322595125 -8.72636818133255 a32.63785133107338,32.63785133107338 0 0,0 0.4180582569778252,0.3753368308616441 l -7.84907456716894 8.592532341701608" fill="#ff8d0d" stroke="none" /><path d="M 114.16331599549186 84.49514656593476 l 3.9823933341412205 -4.359602298099664 a26.904709041553893,26.904709041553893 0 0,0 0.33924546871414163,0.3152916908629794 l -4.056846686650209 4.290406021162044" fill="#ff3e05" stroke="none" /><path d="M 114.42810811169701 84.74124197986012 l 7.40005669786594 -7.8260901300365155 a31.77072540988236,31.77072540988236 0 0,0 0.3941336348506227,0.37915624445462937 l -7.533673576328981 7.697550798819584" fill="#ff810b" stroke="none" /><path d="M 115.4437574822437 85.77008943001954 l 5.908395319977422 -5.444007853142948 a29.03407472968812,29.03407472968812 0 0,0 0.3354906129518132,0.37045711419178823 l -6.001229573545271 5.341497951681611" fill="#ff5c08" stroke="none" /><path d="M 115.68641384162765 86.03803664274999 l 3.243792202980085 -2.8871932319134768 a25.34258823911747,25.34258823911747 0 0,0 0.2872258189955377,0.32834876311514255 l -3.293009885553471 2.8309289125953865" fill="#ff2803" stroke="none" /><path d="M 115.9244219780498 86.31012108654704 l 8.30767583497728 -7.141928064316865 a31.955574574386425,31.955574574386425 0 0,0 0.354995066101204,0.420202187056023 l -8.429381514565602 6.997866927631735" fill="#ff840c" stroke="none" /><path d="M 116.15771136456269 86.58626213691792 l 9.117062843361518 -7.568763193178067 a32.84934644460235,32.84934644460235 0 0,0 0.35743453318552826,0.4381724741505222 l -9.245995868623456 7.410706549419444" fill="#ff900d" stroke="none" /><path d="M 116.38621287248628 86.86637796730983 l 5.75715908703189 -4.614388450799601 a28.37817467455648,28.37817467455648 0 0,0 0.3022220460074414,0.38379130730015715 l -5.835735213633296 4.514604749546406" fill="#ff5307" stroke="none" /><path d="M 116.60985879189232 87.15038557335679 l 6.4166656147776795 -4.964020470471391 a29.11265042036998,29.11265042036998 0 0,0 0.3032208138466424,0.3990030478779004 l -6.501162368848435 4.852832646712457" fill="#ff5d08" stroke="none" /><path d="M 116.82858285166822 87.43820079747576 l 3.285460395922804 -2.452452125363418 a25.099850172918124,25.099850172918124 0 0,0 0.25546554296471063,0.3484547135059136 l -3.327188551401141 2.3955349681860105" fill="#ff2403" stroke="none" /><path d="M 117.04232023915458 87.72973835380427 l 5.568396641419355 -4.009177317477899 a27.86152635491183,27.86152635491183 0 0,0 0.27687375920341056,0.39161829715606206 l -5.636583020426649 3.912732519990044" fill="#ff4b07" stroke="none" /><path d="M 117.45458315368197 88.32363383020206 l 6.068979389887719 -4.05988644984269 a28.301725057854355,28.301725057854355 0 0,0 0.26738845126920147,0.40725095575019077 l -6.137964476514846 3.954817430114825" fill="#ff5207" stroke="none" /><line stroke="#e1ed5e" stroke-width="0.3" x1="172.23445277983987" x2="176.4835382374775" y1="55.19839476539836" y2="52.563006222186495" /><path d="M 173.08426987136738 54.67131705675599 a86.0,86.0 0 0,1 12.851231095245387,41.99856678651699" fill="none" id="id27" stroke="none" /><text fill="#e1ed5e" style="font-size:6.75px; font-family:Arial;" text-anchor="middle"><textPath startOffset="22.20632615414155" xlink:href="#id27">March</textPath></text><path d="M 117.84615892207809 88.93136811851018 l 2.119562910443093 -1.3146056643219617 a23.494140129181474,23.494140129181474 0 0,0 0.21019894110108825,0.34551179107999913 l -2.141877649830405 1.2779261000348812" fill="#ff0d01" stroke="none" /><path d="M 118.03404312379186 89.2402003453031 l 10.700858278202574 -6.384541193364697 a33.460767798974,33.460767798974 0 0,0 0.29085425935702397,0.49716421103455827 l -10.809172212029925 6.199397569976243" fill="#ff980e" stroke="none" /><path d="M 118.21658344932153 89.55222093294921 l 11.439994977960927 -6.561194111421478 a34.18797760323861,34.18797760323861 0 0,0 0.28838757105138857,0.5130093097504965 l -11.55124019030475 6.363301291736187" fill="#ffa20e" stroke="none" /><path d="M 118.3937258080291 89.86733742301442 l 5.465561141346671 -3.0108466015610422 a27.239996462172908,27.239996462172908 0 0,0 0.22270889380346476,0.4126457565987499 l -5.516578134368601 2.9163198616298334" fill="#ff4306" stroke="none" /><path d="M 118.56541770881063 90.18545643968196 l 3.589526187127402 -1.8975905458752622 a25.060239910136907,25.060239910136907 0 0,0 0.19832264170519653,0.3830962189454244 l -3.6216582619927147 1.835521604669493" fill="#ff2303" stroke="none" /><path d="M 118.89224826269711 90.83032412892265 l 13.221118158524352 -6.417095862870882 a35.69615884083106,35.69615884083106 0 0,0 0.2635427114092386,0.5550881619987315 l -13.329619063775347 6.18856528523161" fill="#ffb610" stroke="none" /><path d="M 119.04729006885535 91.15688171328212 l 3.2099699195064084 -1.490298283503135 a24.539052960602366,24.539052960602366 0 0,0 0.174575126487034,0.3846531504042533 l -3.2351473629567895 1.434823124256819" fill="#ff1c02" stroke="none" /><path d="M 119.196687751892 91.48605970444005 l 8.275092900170733 -3.6700939142650673 a30.05244452322032,30.05244452322032 0 0,0 0.20565787952020043,0.47468674074361167 l -8.337041489533615 3.527108028934853" fill="#ff6a09" stroke="none" /><path d="M 119.34039704204932 91.81776055985345 l 8.111022039660027 -3.4314871762204486 a29.807030303593606,29.807030303593606 0 0,0 0.19584398858199242,0.474251752557125 l -8.168887715128218 3.291360853210021" fill="#ff6709" stroke="none" /><path d="M 119.47837535516314 92.15188598940014 l 5.4716607107323 -2.2046097943052634 a26.899099531158818,26.899099531158818 0 0,0 0.1693444981139678,0.43096327641265353 l -5.508798758727968 2.110097512996825" fill="#ff3e05" stroke="none" /><path d="M 119.61058180528143 92.48833698450437 l 6.085440562660214 -2.3309751470617153 a27.516596656068998,27.516596656068998 0 0,0 0.16561769320850683,0.4437730778622184 l -6.124662844370346 2.2258789321701635" fill="#ff4706" stroke="none" /><path d="M 119.7369772167798 92.82701384747503 l 8.342922284908042 -3.0320583219987713 a29.876808543616182,29.876808543616182 0 0,0 0.17150272500800437,0.48486129840295217 l -8.393878090725856 2.887999397169205" fill="#ff6809" stroke="none" /><path d="M 119.85752413597 93.16781622104841 l 8.942413571658953 -3.076728625916404 a30.456903273488827,30.456903273488827 0 0,0 0.16629861679379354,0.49721169732597104 l -8.994049482224517 2.922343825668119" fill="#ff700a" stroke="none" /><path d="M 119.97218684219823 93.5106431181261 l 8.413730167350227 -2.733786650161076 a29.846719435902678,29.846719435902678 0 0,0 0.15455557457920546,0.4899834075354671 l -8.459541225697638 2.5885530761991897" fill="#ff6709" stroke="none" /><path d="M 120.08093135843002 93.85539295169968 l 2.9284853791978014 -0.8960934919141162 a24.06251696524707,24.06251696524707 0 0,0 0.11778499260366745,0.39711244100322407 l -2.943476268913171 0.8455516641643622" fill="#ff1502" stroke="none" /><path d="M 120.18372546131832 94.20196356495316 l 12.841319268089665 -3.6888352020613504 a34.36065064631876,34.36065064631876 0 0,0 0.15840788354814772,0.5698774393944338 l -12.902913922204176 3.467246459247965" fill="#ffa40f" stroke="none" /><path d="M 120.28053869075195 94.5502522615342 l 2.2314005524113294 -0.59961770737679 a23.31056049916495,23.31056049916495 0 0,0 0.1007944952134955,0.38840230671988524 l -2.2413913794951275 0.5611189751080544" fill="#ff0a01" stroke="none" /><path d="M 120.37134235888165 94.90015583598534 l 3.4904106527253265 -0.8738035070897033 a24.598124385518197,24.598124385518197 0 0,0 0.09929114871411568,0.41162591345476146 l -3.5049346017002616 0.8135923619755357" fill="#ff1d02" stroke="none" /><path d="M 120.45610955862082 95.25157060432595 l 4.478329958422034 -1.0395443746114086 a25.597400539792734,25.597400539792734 0 0,0 0.09593614764946481,0.4300629387244007 l -4.495560493073536 0.962303266337044" fill="#ff2b04" stroke="none" /><path d="M 120.53481517161879 95.60439243477599 l 9.24682053262176 -1.9793406440607784 a30.456293108176496,30.456293108176496 0 0,0 0.10532178330166687,0.5135864196489431 l -9.279521611838423 1.8198785682484235" fill="#ff700a" stroke="none" /><path d="M 120.6074358757038 95.95851677861258 l 12.105905171846464 -2.374182451753176 a33.33651824235476,33.33651824235476 0 0,0 0.10558830372647603,0.5640569405989447 l -12.1449791994828 2.1654474336916683" fill="#ff960d" stroke="none" /><path d="M 120.67395015179393 96.31383870115 l 21.08514969069107 -3.7594780968135417 a42.41768458632423,42.41768458632423 0 0,0 0.12197738146621184,0.7199174101572469 l -21.146738933677504 3.395974898340457" fill="#f4ff19" stroke="none" /><path d="M 120.73433829027371 96.67025291283417 l 16.95423505308791 -2.722696716568284 a38.171463643084316,38.171463643084316 0 0,0 0.09859890197301693,0.6496435708253191 l -16.998589848500227 2.4304540333508826" fill="#ffd513" stroke="none" /><path d="M 120.78858239683441 97.02765380044208 l 9.177011593371285 -1.3121267728678647 a30.270340794865504,30.270340794865504 0 0,0 0.06931043310952059,0.5164432326786685 l -9.198238025538641 1.1539651981245318" fill="#ff6d0a" stroke="none" /><path d="M 120.83666639777658 97.38593545837742 l 5.608553204548294 -0.7036211926576613 a26.652517300372104,26.652517300372104 0 0,0 0.05319036150592068,0.4557025345763712 l -5.619833919057804 0.6069749197564374" fill="#ff3a05" stroke="none" /><path d="M 120.87857604477298 97.74499172005257 l 1.9661604889182815 -0.21235682800916889 a22.977595128074878,22.977595128074878 0 0,0 0.03908694013737398,0.39360015300643314 l -1.9695245547378843 0.17848114429830078" fill="#ff0500" stroke="none" /><path d="M 120.91429891909075 98.10471618934814 l 7.431565640484179 -0.6734591535052351 a28.46201816536686,28.46201816536686 0 0,0 0.040016941803398744,0.48830804919815973 l -7.442057066107072 0.5454371870993067" fill="#ff5407" stroke="none" /><path d="M 120.94382443527127 98.46500227214037 l 14.910857669625635 -1.0928344397677476 a35.95085159971084,35.95085159971084 0 0,0 0.0399215529615819,0.617568754618093 l -14.927459813591632 0.8360066208966194" fill="#ffb911" stroke="none" /><path d="M 120.96714384426684 98.82574320788733 l 12.470239403309696 -0.69839094095839 a33.48978064988615,33.48978064988615 0 0,0 0.027280443236724836,0.5758470397288508 l -12.480413454779917 0.4836327946065395" fill="#ff990e" stroke="none" /><path d="M 120.98425023603335 99.18683210126433 l 6.450838765954844 -0.24997867187966152 a27.45568045373534,27.45568045373534 0 0,0 0.014235516081354475,0.47240747479497736 l -6.454185976491843 0.13890104965968506" fill="#ff4606" stroke="none" /><line stroke="#e1ed5e" stroke-width="0.3" x1="184.98032266829074" x2="189.97916517819016" y1="98.17113171792111" y2="98.06355123074" /><path d="M 185.9800911702706 98.14961562048488 a86.0,86.0 0 0,1 -9.607161424134198,41.387399972396054" fill="none" id="id28" stroke="none" /><text fill="#e1ed5e" style="font-size:6.75px; font-family:Arial;" text-anchor="middle"><textPath startOffset="21.466115282336823" xlink:href="#id28">April</textPath></text><path d="M 120.99513854157772 99.54816195383933 l 3.812759023755629 -0.08205469015427314 a24.813641874298934,24.813641874298934 0 0,0 0.005514528095757546,0.4271062782396041 l -3.8136065589691017 0.016412153854206312" fill="#ff2003" stroke="none" /><path d="M 120.99980553446 99.90962569577887 l 2.5943467987431803 -0.011164974192736507 a23.594370823301425,23.594370823301425 0 0,0 -0.0017478965067752878,0.4061495914462376 l -2.594154604946902 -0.033494095457185784" fill="#ff0e01" stroke="none" /><path d="M 120.9764740272857 100.99374915477107 l 18.201577447944118 0.862289924458531 a39.221991260763204,39.221991260763204 0 0,0 -0.037753312801783796,0.6741107613168709 l -18.184037784254805 -1.1754724021108254" fill="#ffe315" stroke="none" /><path d="M 120.95626037817324 101.35467743843564 l 18.03021631727568 1.165528907083405 a39.06784873970892,39.06784873970892 0 0,0 -0.049157476632582284,0.670714712854565 l -18.00748228197876 -1.4757167564347402" fill="#ffe115" stroke="none" /><path d="M 120.92983693683757 101.71520430193887 l 3.437861818217726 0.28173346012553274 a24.449386557594494,24.449386557594494 0 0,0 -0.0379843384390175,0.4191540094906864 l -3.4325028835016327 -0.3408688581647897" fill="#ff1b02" stroke="none" /><path d="M 120.5718875245553 104.21870165774334 l 5.144172794409072 1.054921687161074 a26.2512259049465,26.2512259049465 0 0,0 -0.09458686870283707,0.44187836098966005 l -5.125251886981792 -1.1433138675669032" fill="#ff3505" stroke="none" /><path d="M 120.49622156327973 104.57218783832717 l 12.116514898257083 2.7028875487944433 a33.41432778611528,33.41432778611528 0 0,0 -0.1300603925260984,0.5602967670057108 l -12.068193939800432 -2.911052973148719" fill="#ff980e" stroke="none" /><path d="M 120.41448212921028 104.9243191809786 l 10.768801343878827 2.597617450110748 a32.07766666771691,32.07766666771691 0 0,0 -0.13409791415428582,0.5356545084504012 l -10.72249211542948 -2.782599797958545" fill="#ff860c" stroke="none" /><path d="M 120.02730092923936 106.31721596034902 l 5.462457321251101 1.723024120646866 a26.72776152670663,26.72776152670663 0 0,0 -0.14217609883442645,0.43757303876251913 l -5.431988971400427 -1.8167960593871804" fill="#ff3b05" stroke="none" /><path d="M 118.97047184881838 109.00673069616215 l 5.314107332058639 2.5230122904578236 a26.88262932322279,26.88262932322279 0 0,0 -0.20206359487164308,0.41631085469541834 l -5.269890480572283 -2.6141121011185176" fill="#ff3e05" stroke="none" /><path d="M 118.81262510543309 109.33194174019688 l 3.087524150374478 1.5315563527827072 a24.4465156667125,24.4465156667125 0 0,0 -0.19024200520690338,0.37536552453693073 l -3.0607034753813056 -1.5844760890223322" fill="#ff1b02" stroke="none" /><line stroke="#e1ed5e" stroke-width="0.3" x1="174.80103733775053" x2="179.2010983576182" y1="140.37084112569926" y2="142.7455964860345" /><path d="M 175.68104954172406 140.8457921977663 a86.0,86.0 0 0,1 -30.038265399797805,32.042727171017184" fill="none" id="id29" stroke="none" /><text fill="#e1ed5e" style="font-size:6.75px; font-family:Arial;" text-anchor="middle"><textPath startOffset="22.206326154141568" xlink:href="#id29">May</textPath></text><path d="M 117.75023020441432 111.22182372390056 l 5.076455015322996 3.2093715218464216 a27.005868887000183,27.005868887000183 0 0,0 -0.25179132325484127,0.39078572524345845 l -5.020458828691105 -3.296278847011333" fill="#ff3f05" stroke="none" /><path d="M 116.93607887273984 112.41649034213515 l 4.0501089817579565 2.969290556241787 a26.02195869870543,26.02195869870543 0 0,0 -0.2679502565295568,0.35896315642645277 l -3.9983974585333075 -3.0385665921775544" fill="#ff3104" stroke="none" /><path d="M 116.71984013943494 112.70617746262583 l 4.819454737556513 3.6625258769104123 a27.053200786889057,27.053200786889057 0 0,0 -0.28495159935669745,0.3683383540306786 l -4.755696320981747 -3.744942225054343" fill="#ff4006" stroke="none" /><path d="M 116.27256486870786 113.27417163493432 l 6.343058609187171 5.174282563820821 a29.185816548753316,29.185816548753316 0 0,0 -0.3209105613085885,0.38655744404658865 l -6.253052047985038 -5.2827012649811795" fill="#ff5e08" stroke="none" /><path d="M 115.07121518719521 114.62390073753431 l 5.158896170301977 5.005779863978058 a28.188326769322927,28.188326769322927 0 0,0 -0.3408899927175031,0.3453197628660773 l -5.071965552528939 -5.0938401208248" fill="#ff5007" stroke="none" /><path d="M 114.81725581225074 114.88116024355365 l 4.276424806832338 4.294868336373371 a27.06083353634412,27.06083353634412 0 0,0 -0.33291274442215274,0.32582518926162013 l -4.201862110034391 -4.367843628557564" fill="#ff4006" stroke="none" /><path d="M 114.29624159901734 115.38237550388516 l 4.0660060980782395 4.374914355534215 a26.972627663589016,26.972627663589016 0 0,0 -0.34280983216544936,0.3131486537404684 l -3.990096716445926 -4.444255775861267" fill="#ff3f05" stroke="none" /><path d="M 113.20401910651253 116.32954008644616 l 4.090120589950402 5.058292296703178 a27.505029392648655,27.505029392648655 0 0,0 -0.37071868962753474,0.2945213478428033 l -4.002444407605516 -5.127947558551107" fill="#ff4606" stroke="none" /><path d="M 112.34349029814194 116.9893568818739 l 5.252500303541285 7.229446455063574 a29.936087258153457,29.936087258153457 0 0,0 -0.4194939233907512,0.29929777608483193 l -5.127279052301649 -7.318788492992625" fill="#ff6809" stroke="none" /><line stroke="#e1ed5e" stroke-width="0.3" x1="143.8653032363475" x2="146.44561519142675" y1="172.8068346515853" y2="177.08958963109032" /><path d="M 144.38136562736335 173.6633856474863 a86.0,86.0 0 0,1 -40.68145358897372,12.25698825130547" fill="none" id="id30" stroke="none" /><text fill="#e1ed5e" style="font-size:6.75px; font-family:Arial;" text-anchor="middle"><textPath startOffset="21.466115282336833" xlink:href="#id30">June</textPath></text><path d="M 110.8373102113329 117.98757091392108 l 5.258653923711149 8.728218397366488 a31.189957678101,31.189957678101 0 0,0 -0.4622531871757159,0.2731073308546067 l -5.1076328655070515 -8.817444300514845" fill="#ff7a0b" stroke="none" /><path d="M 110.21172684928248 118.3499491758327 l 2.77683283166634 4.989826116866921 a26.71044352494509,26.71044352494509 0 0,0 -0.40368025998515866,0.22011866417306933 l -2.6905297598125326 -5.036885432799761" fill="#ff3b05" stroke="none" /><path d="M 109.89434966115114 118.52300852407294 l 5.38485474012276 10.08087581984483 a32.428942114970866,32.428942114970866 0 0,0 -0.49463262766032545,0.25876841301018155 l -5.210531209935939 -10.172073651799728" fill="#ff8a0c" stroke="none" /><path d="M 109.2508944713604 118.85261126421891 l 5.370902297606974 10.945485700691844 a33.19222082782663,33.19222082782663 0 0,0 -0.5150916327965489,0.24727528580931948 l -5.1816979968101915 -11.036315263000724" fill="#ff950d" stroke="none" /><path d="M 108.92500713936063 119.00905698771935 l 0.815669646055909 1.7372659251609746 a22.9192211613627,22.9192211613627 0 0,0 -0.3585570315996314,0.16459594709554223 l -0.7856446186888582 -1.751048942590591" fill="#ff0400" stroke="none" /><path d="M 108.59647513512805 119.15986991738527 l 7.402663887917393 16.499097002565822 a39.083684208079745,39.083684208079745 0 0,0 -0.6161809428333545,0.2701156174494346 l -7.117562270426285 -16.62407717330971" fill="#ffe115" stroke="none" /><path d="M 108.2653958097858 119.30500536409082 l 1.853084952818878 4.328142992490459 a25.708157347180318,25.708157347180318 0 0,0 -0.4083049618578416,0.1706715071710907 l -1.7783085314635751 -4.359399542681523" fill="#ff2d04" stroke="none" /><path d="M 107.93186726928326 119.44442032107085 l 3.733749909363622 9.153027924783563 a30.885282422750528,30.885282422750528 0 0,0 -0.49398644887126236,0.19656740272430387 l -3.5756423844504934 -9.215942171913936" fill="#ff750a" stroke="none" /><path d="M 107.59598834532513 119.57807347666477 l 2.4852689226766005 6.40558876151769 a27.870817200282936,27.870817200282936 0 0,0 -0.44875967938868594,0.16968251190544686 l -2.37463902252764 -6.447419523529767" fill="#ff4c07" stroke="none" /><path d="M 107.2578585660854 119.70592522655815 l 3.3365833759151493 9.059209671734349 a30.654121839964446,30.654121839964446 0 0,0 -0.49671419277203543,0.17810403728355828 l -3.180149622513379 -9.115301250057868" fill="#ff720a" stroke="none" /><path d="M 106.57524785965236 119.94407469862006 l 0.6719093230036463 2.0380387195612806 a23.145941276170017,23.145941276170017 0 0,0 -0.37945969186494743,0.12149101039303901 l -0.6367282860477584 -2.049302576614026" fill="#ff0801" stroke="none" /><path d="M 106.2309692047433 120.05430185196036 l 2.053290766384405 6.608492429647987 a27.9201282621086,27.9201282621086 0 0,0 -0.4601835765882835,0.1386495366826093 l -1.9392322153558756 -6.642857335436322" fill="#ff4c07" stroke="none" /><path d="M 105.88484417918355 120.15858648285463 l 1.3673365749608066 4.68382369324548 a25.879325127375022,25.879325127375022 0 0,0 -0.4286957429667178,0.12115369908842967 l -1.286509663889483 -4.706666185672428" fill="#ff2f04" stroke="none" /><path d="M 105.53697534728816 120.25689768951611 l 4.14982780229295 15.182050117187014 a36.73898715132145,36.73898715132145 0 0,0 -0.6114584348005927,0.16149173009006898 l -3.8878789246808596 -15.251233196580667" fill="#ffc312" stroke="none" /><path d="M 105.18746579009965 120.34920634021253 l 0.6360591953966742 2.495110394061574 a23.574907217474596,23.574907217474596 0 0,0 -0.39409017815133435,0.09685777762320008 l -0.5930157325021288 -2.505689429998804" fill="#ff0e01" stroke="none" /><path d="M 104.83641907484287 120.43548508189849 l 1.6627857690767294 7.025824944556654 a28.219908078736086,28.219908078736086 0 0,0 -0.47366423732095525,0.10780443829589052 l -1.541601382362912 -7.053406116430229" fill="#ff5007" stroke="none" /><path d="M 104.48393922423573 120.51570834832081 l 2.4568762367645336 11.241132807720527 a32.506489805478864,32.506489805478864 0 0,0 -0.5476701739112999,0.11476960984047226 l -2.2630146014238557 -11.28175839828754" fill="#ff8b0c" stroke="none" /><path d="M 104.13013068566511 120.58985236759428 l 3.402483982627058 16.962330787388527 a38.30021858222671,38.30021858222671 0 0,0 -0.6475151412225278,0.12409781791432226 l -3.110001226832826 -17.01838580365132" fill="#ffd714" stroke="none" /><path d="M 103.7750983002368 120.6578951692458 l 2.545050160996537 13.92689017476461 a35.15752627622296,35.15752627622296 0 0,0 -0.5962566258940589,0.10366685727184771 l -2.304944563630428 -13.968635610557465" fill="#ffaf10" stroke="none" /><path d="M 103.41894727170886 120.7198165907248 l 0.6987386136116263 4.2345595788185255 a25.29182134725056,25.29182134725056 0 0,0 -0.43015864425040085,0.06718193357258287 l -0.6257441057527083 -4.245959819738214" fill="#ff2703" stroke="none" /><path d="M 103.06178313531738 120.77559828337769 l 0.6729884092349244 4.566534016846646 a25.615858135383075,25.615858135383075 0 0,0 -0.43677649573785277,0.060533242392773155 l -0.5942833223102413 -4.577441824732022" fill="#ff2b04" stroke="none" /><path d="M 102.70371172650421 120.8252237178851 l 0.5579299874474065 4.297431820711149 a25.333498139442753,25.333498139442753 0 0,0 -0.4329284647821373,0.052421607961275755 l -0.48387409961388894 -4.306398957397776" fill="#ff2703" stroke="none" /><path d="M 102.34483914955558 120.86867818915974 l 0.19544276759522086 1.7394081048657069 a22.750353801572068,22.750353801572068 0 0,0 -0.3895374115588155,0.040377145430453745 l -0.16547275943080275 -1.7425146187519192" fill="#ff0200" stroke="none" /><path d="M 101.62511606390274 120.93702456842531 l 0.8903157326684259 11.470296049974992 a32.50479698116872,32.50479698116872 0 0,0 -0.5582114402252403,0.03849752914684393 l -0.6927415316642553 -11.483921923638121" fill="#ff8b0c" stroke="none" /><path d="M 101.26447882468166 120.96189622390904 l 0.2770812927681701 4.593314803871991 a25.601664365234786,25.601664365234786 0 0,0 -0.4401193478249142,0.022749143060215755 l -0.19797387652977633 -4.597403753694409" fill="#ff2b04" stroke="none" /><path d="M 100.90346689309514 120.98055641714683 l 0.7097593508497438 16.482226650370908 a37.49750143780311,37.49750143780311 0 0,0 -0.6450992444061299,0.022218522328972486 l -0.4259397547689616 -16.492001971125973" fill="#ffcd13" stroke="none" /><line stroke="#e1ed5e" stroke-width="0.3" x1="102.19456741930631" x2="102.32365962044197" y1="184.97166512339345" y2="189.96999836594603" /><path d="M 102.22038585953345 185.97133177190398 a86.0,86.0 0 0,1 -42.740103519485714,-10.115201625700543" fill="none" id="id31" stroke="none" /><text fill="#e1ed5e" style="font-size:6.75px; font-family:Arial;" text-anchor="middle"><textPath startOffset="22.20632615414155" xlink:href="#id31">July</textPath></text><path d="M 100.54218724476979 120.99299961872073 l 0.37175645322235135 14.394073553071848 a35.39887343897969,35.39887343897969 0 0,0 -0.6092657044397628,0.010489061631723941 l -0.12393105888992054 -14.398340091982732" fill="#ffb210" stroke="none" /><path d="M 99.81925306533755 120.99922214144158 l -0.016244091882065447 1.8872424838325594 a22.887312391551426,22.887312391551426 0 0,0 -0.39392368039646336,-0.006781753398828543 l 0.048727462171196764 -1.8866832531545714" fill="#ff0400" stroke="none" /><path d="M 99.45781275523022 120.99299961872073 l -0.1739429503901055 6.734913678703664 a27.737159520864868,27.737159520864868 0 0,0 -0.4771843446305898,-0.016435193666938738 l 0.28984764669533836 -6.730921686610632" fill="#ff4a06" stroke="none" /><path d="M 99.09653310690486 120.98055641714683 l -0.7946583448372948 18.453774414575857 a39.47087632000913,39.47087632000913 0 0,0 -0.6785455857951799,-0.03507305616174285 l 1.1121919990459637 -18.437361551651914" fill="#ffe615" stroke="none" /><path d="M 98.73552117531835 120.96189622390904 l -0.11350316850756387 1.8815986419855024 a22.885018943879064,22.885018943879064 0 0,0 -0.3930090500686872,-0.0271042050909737 l 0.14587497935518112 -1.8793660923782436" fill="#ff0400" stroke="none" /><path d="M 98.37488393609728 120.93702456842531 l -0.7991129394031626 10.29529374354405 a31.32626044392542,31.32626044392542 0 0,0 -0.5372538429899102,-0.046356522219443426 l 0.9762111001346145 -10.280012969045943" fill="#ff7b0b" stroke="none" /><path d="M 92.7421414339146 119.70592522655815 l -1.89260126848082 5.1386312837021615 a26.476081722481663,26.476081722481663 0 0,0 -0.4263024603788301,-0.161191113263765 l 1.980773949619933 -5.105291920331763" fill="#ff3805" stroke="none" /><path d="M 92.40401165467489 119.57807347666478 l -0.9569210749101809 2.4663901870637615 a23.645520458898716,23.645520458898716 0 0,0 -0.3781919984840538,-0.15049040119012982 l 0.9992341494360928 -2.449552941467565" fill="#ff0f01" stroke="none" /><path d="M 91.7346041902142 119.30500536409082 l -0.8636647031051758 2.0172115298436535 a23.194324286773476,23.194324286773476 0 0,0 -0.365674344601642,-0.16030088649496213 l 0.8982597223645612 -2.002046090054239" fill="#ff0801" stroke="none" /><path d="M 90.7491055286396 118.85261126421891 l -2.5045296050305117 5.104038662374285 a26.68540932646769,26.68540932646769 0 0,0 -0.41063265455876435,-0.20589973758983837 l 2.5920161672720363 -5.060171083875145" fill="#ff3b05" stroke="none" /><path d="M 90.10565033884886 118.52300852407294 l -6.929665384589148 12.972884058433849 a35.707684492670495,35.707684492670495 0 0,0 -0.5396573570935957,-0.2942642193080701 l 7.151945553551385 -12.851679187366013" fill="#ffb610" stroke="none" /><line stroke="#e1ed5e" stroke-width="0.3" x1="58.666819895761336" x2="56.23545636021788" y1="174.27360380694188" y2="178.64263932499728" /><path d="M 58.180547188652646 175.14741091055294 a86.0,86.0 0 0,1 -31.652253787137756,-30.449443065178592" fill="none" id="id32" stroke="none" /><text fill="#e1ed5e" style="font-size:6.75px; font-family:Arial;" text-anchor="middle"><textPath startOffset="22.20632615414155" xlink:href="#id32">August</textPath></text><path d="M 89.7882731507175 118.34994917583269 l -9.363404709871977 16.82555781943734 a40.25546010086702,40.25546010086702 0 0,0 -0.6025882628981757,-0.34216534226120104 l 9.65164173969136 -16.661889311381504" fill="#fff016" stroke="none" /><path d="M 89.4739219176387 118.17145234162733 l -9.70098275072601 16.74706802880013 a40.353897640814964,40.353897640814964 0 0,0 -0.5980680702406471,-0.35334915770023567 l 9.98781869199504 -16.577600298806143" fill="#fff116" stroke="none" /><path d="M 88.8546689885994 117.79835938074946 l -5.90285207416457 9.426465887815805 a32.12213656379133,32.12213656379133 0 0,0 -0.4661047413391011,-0.29749009890517714 l 6.064238617550594 -9.323461360086824" fill="#ff860c" stroke="none" /><path d="M 88.54995079064634 117.60387380957326 l -10.138708701801779 15.587753844126548 a39.59493167626795,39.59493167626795 0 0,0 -0.56814070074867,-0.37653267669070234 l 10.40552410129041 -15.410923146344528" fill="#ffe715" stroke="none" /><path d="M 88.24862548938628 117.40417183066458 l -6.208036478200147 9.194306036289069 a32.09391636905585,32.09391636905585 0 0,0 -0.45518819219104817,-0.31308258921653526 l 6.3653815550140855 -9.086082657707433" fill="#ff860c" stroke="none" /><path d="M 87.95078237400918 117.19931262002967 l -10.260166175871793 14.645582067637546 a38.88194855311943,38.88194855311943 0 0,0 -0.5448521380556457,-0.3887375337812038 l 10.510745641776326 -14.466800272012122" fill="#ffde14" stroke="none" /><path d="M 87.65650970185807 116.9893568818739 l -6.856718835699909 9.437463839211514 a32.665346840461574,32.665346840461574 0 0,0 -0.45204955896802845,-0.3344154567459111 l 7.018153365086502 -9.318038433725835" fill="#ff8e0d" stroke="none" /><path d="M 87.36589467227662 116.77436683061367 l -9.454230362039526 12.552430431775868 a36.7145149935683,36.7145149935683 0 0,0 -0.5015399809023754,-0.384559470594014 l 9.668899071435387 -12.387831619354486" fill="#ffc312" stroke="none" /><path d="M 87.07902340077011 116.55440617244103 l -7.063852856544182 9.050236135909415 a32.48062678143611,32.48062678143611 0 0,0 -0.43778085915854303,-0.34779959119055565 l 7.218591208420084 -8.92730263071373" fill="#ff8b0c" stroke="none" /><path d="M 86.79598089348748 116.32954008644616 l -12.27312895158016 15.178299090926199 a40.51948917250977,40.51948917250977 0 0,0 -0.5385809430551203,-0.4432154497304338 l 12.53258002317997 -14.964788522338583" fill="#fff316" stroke="none" /><path d="M 86.51685102203217 116.09983520530335 l -3.715429164698099 4.436485673069595 a26.78677967484861,26.78677967484861 0 0,0 -0.3509508504702314,-0.299087928486837 l 3.791245491745387 -4.371873354359806" fill="#ff3c05" stroke="none" /><path d="M 85.70375840098266 115.38237550388516 l -6.129480867253424 6.595158293243495 a30.00370193947824,30.00370193947824 0 0,0 -0.37528082548188946,-0.3548514443412064 l 6.24209752712613 -6.488672212156358" fill="#ff6909" stroke="none" /><path d="M 85.44109423537348 115.13401014063109 l -1.316152342235313 1.3681428546917695 a22.898439321868267,22.898439321868267 0 0,0 -0.28170537568212634,-0.27570800122705597 l 1.3395076702932336 -1.3452847505421441" fill="#ff0400" stroke="none" /><path d="M 85.18274418774928 114.88116024355367 l -9.933410199128621 9.976251393052618 a35.0782893151667,35.0782893151667 0 0,0 -0.4242124013619477,-0.4297249229153864 l 10.103663225546104 -9.803785976156567" fill="#ffae10" stroke="none" /><path d="M 84.9287848128048 114.62390073753433 l -8.71724942550085 8.45852100971674 a33.14648159831539,33.14648159831539 0 0,0 -0.3938014287436967,-0.41289922364040105 l 8.861557405623504 -8.307214669493838" fill="#ff940d" stroke="none" /><path d="M 84.67929136418377 114.36230785411682 l -8.056239778741423 7.552274414929626 a32.04263773792187,32.04263773792187 0 0,0 -0.3737599624378844,-0.4056426207372203 l 8.185046149175037 -7.412480539391062" fill="#ff850c" stroke="none" /><path d="M 84.43433777217949 114.09645910891817 l -23.913384819698816 21.656261476895004 a53.262108342305346,53.262108342305346 0 0,0 -0.6095750661497383,-0.6848640488801451 l 24.282618735496893 -21.241423258273993" fill="#78ff26" stroke="none" /><path d="M 84.19399662182784 113.82643327865904 l -47.4180101345165 41.4792998359771 a84.0,84.0 0 0,0 -0.942629961716885,-1.0964916033538787 l 48.12498260580416 -40.65693113346169" fill="#4dd2ff" stroke="none" /><path d="M 83.95833913139862 113.55231037782056 l -9.098157096203373 7.686301926208774 a32.910319048960716,32.910319048960716 0 0,0 -0.3618630625326179,-0.43588736991728444 l 9.229116158629527 -7.528553299177728" fill="#ff910d" stroke="none" /><path d="M 83.72743513129214 113.27417163493432 l -5.149181565534285 4.200390069532379 a27.645099512502753,27.645099512502753 0 0,0 -0.2976219913922747,-0.37132919573505957 l 5.22072146898142 -4.11113304021906" fill="#ff4806" stroke="none" /><path d="M 83.50135304334701 112.99209946851258 l -14.854955439056969 11.697750680502024 a39.90785741641696,39.90785741641696 0 0,0 -0.42034980952118,-0.5433587925306782 l 15.054112065796218 -11.440313893858093" fill="#ffeb16" stroke="none" /><path d="M 83.28015986056508 112.70617746262583 l -8.407036240089942 6.388894481674136 a31.559177574042018,31.559177574042018 0 0,0 -0.32496745632170115,-0.4353470131656502 l 8.51576496310673 -6.243234588999178" fill="#ff7f0b" stroke="none" /><path d="M 83.06392112726016 112.41649034213515 l -9.461733601399757 6.936760555049899 a32.732137475411434,32.732137475411434 0 0,0 -0.32922327969269344,-0.45726234081138745 l 9.579736673468059 -6.772864608787374" fill="#ff8e0d" stroke="none" /><path d="M 82.85270091963577 112.12312394758628 l -4.775299775344478 3.376132345511778 a26.84822687306297,26.84822687306297 0 0,0 -0.2635461491389724,-0.37965788403531 l 4.832706831645584 -3.2934331992894554" fill="#ff3d05" stroke="none" /><path d="M 82.44556493220864 111.52570212397912 l -31.065093605812592 20.396384957500796 a58.162515524012406,58.162515524012406 0 0,0 -0.5422827463504148,-0.8416348648562294 l 31.411581215540053 -19.858628492723117" fill="#45ff2d" stroke="none" /><path d="M 82.24976979558568 111.22182372390057 l -17.56746803505915 11.1062801605618 a41.783777139098504,41.783777139098504 0 0,0 -0.37910890634437905,-0.6112442679308222 l 17.756041581071482 -10.802239561265713" fill="#fcff18" stroke="none" /><path d="M 82.05923443525364 110.91462005526583 l -9.461213061546275 5.755916349055526 a32.07452597691199,32.07452597691199 0 0,0 -0.2828959816113311,-0.4741499373270522 l 9.558889918855838 -5.592204317842362" fill="#ff860c" stroke="none" /><line stroke="#e1ed5e" stroke-width="0.3" x1="26.63291911575756" x2="22.317208475507996" y1="142.92168965132927" y2="145.44649492493687" /><path d="M 25.769776987707644 143.4266507060508 a86.0,86.0 0 0,1 -11.730757126820373,-40.83630448921669" fill="none" id="id33" stroke="none" /><text fill="#e1ed5e" style="font-size:6.75px; font-family:Arial;" text-anchor="middle"><textPath startOffset="21.46611528233685" xlink:href="#id33">September</textPath></text><path d="M 81.69416730710424 110.29060199501025 l -4.346682080205085 2.4434821423661774 a25.98640653040227,25.98640653040227 0 0,0 -0.21584011107072962,-0.39181249659165285 l 4.38809860072733 -2.368299127376702" fill="#ff3104" stroke="none" /><path d="M 81.51974371655577 109.97397251340807 l -4.499702128386433 2.428532627399561 a26.113226962158986,26.113226962158986 0 0,0 -0.21008400940052563,-0.3973997735597211 l 4.540838646011845 -2.3507178387537135" fill="#ff3304" stroke="none" /><path d="M 81.35079622478065 109.6543875284942 l -28.392775810975223 14.69847528037892 a52.97178277513173,52.97178277513173 0 0,0 -0.4122247240430929,-0.8133584883067373 l 28.641579204804586 -14.207562580369498" fill="#7bff26" stroke="none" /><path d="M 81.18737489456691 109.33194174019688 l -19.28820268799461 9.567850459396633 a42.53087377108832,42.53087377108832 0 0,0 -0.3196838056236551,-0.6586433268002057 l 19.450039750232985 -9.234418176631142" fill="#f2ff19" stroke="none" /><path d="M 81.02952815118164 109.00673069616217 l -10.107113942361755 4.7986183011019 a32.18840872705111,32.18840872705111 0 0,0 -0.2333282310376963,-0.502568251801292 l 10.188216790239277 -4.623929982021782" fill="#ff870c" stroke="none" /><path d="M 80.87730276802145 108.67885076344099 l -9.271161906364991 4.20772392162775 a31.18132524255422,31.18132524255422 0 0,0 -0.21761434305666227,-0.490662895084016 l 9.342217334152933 -4.047512690051038" fill="#ff790b" stroke="none" /><path d="M 80.73074385275274 108.34839909993369 l -10.250930162337736 4.441212233974531 a32.17165767915982,32.17165767915982 0 0,0 -0.21577840083460265,-0.5100363996638213 l 10.325859544364645 -4.26410130864455" fill="#ff870c" stroke="none" /><path d="M 80.58989483394504 108.01547362559985 l -17.917368752550207 7.399042686660651 a40.38499253788582,40.38499253788582 0 0,0 -0.25980509119539413,-0.6448149298865097 l 18.042076458002988 -7.089528388931336" fill="#fff116" stroke="none" /><path d="M 80.45479744820244 107.68017299344265 l -7.5758850613240645 2.9768997121012464 a29.1397768002754,29.1397768002754 0 0,0 -0.17942570626876006,-0.46842390073880313 l 7.626005047186334 -2.8460522445292855" fill="#ff5d08" stroke="none" /><path d="M 80.32549172779594 107.34259656027581 l -11.875193844860307 4.431864637809913 a33.67523778952009,33.67523778952009 0 0,0 -0.1980035653278946,-0.5448207726348716 l 11.949721671193426 -4.226796068168925" fill="#ff9b0e" stroke="none" /><path d="M 80.20201598880116 107.00284435728193 l -5.482520761803196 1.939249953871929 a26.815386856194124,26.815386856194124 0 0,0 -0.1501778745758507,-0.43648720022226833 l 5.515089467322275 -1.8445900505603638" fill="#ff3d05" stroke="none" /><path d="M 79.50377843672027 104.57218783832718 l -27.856152614448064 6.214002020477035 a49.540831445315575,49.540831445315575 0 0,0 -0.1785026016047741,-0.8339047281215339 l 27.95898925477728 -5.733583472939338" fill="#a1ff22" stroke="none" /><path d="M 79.4281124754447 104.21870165774334 l -8.48533232992931 1.740097281984813 a29.661916837520117,29.661916837520117 0 0,0 -0.09826578773602297,-0.5010551346172458 l 8.514028050641 -1.5937784202996124" fill="#ff6509" stroke="none" /><path d="M 79.35854240842038 103.8639653848113 l -3.1330776705108656 0.5864946122660301 a24.18749927367378,24.18749927367378 0 0,0 -0.07308489903966145,-0.40989892657878624 l 3.142709011889716 -0.5324769349540301" fill="#ff1702" stroke="none" /><path d="M 79.29508885075956 103.50808413554451 l -11.228065993040511 1.9023988994261982 a32.38808972201268,32.38808972201268 0 0,0 -0.08840135630737508,-0.5504753301117178 l 11.259149103709177 -1.7088443396212667" fill="#ff8a0c" stroke="none" /><path d="M 79.23777060512086 103.15116336523772 l -9.986353669990994 1.5156672840222265 a31.1007181397165,31.1007181397165 0 0,0 -0.0757760836992318,-0.529977752902802 l 10.010963804706826 -1.343544059139024" fill="#ff780b" stroke="none" /><path d="M 79.18660465613746 102.79330883721812 l -17.596612745321128 2.361593246779159 a38.754377003207715,38.754377003207715 0 0,0 -0.08304230834395257,-0.6619289035572834 l 17.634656562911932 -2.0583465889344668" fill="#ffdd14" stroke="none" /><path d="M 79.1416061653843 102.43462659150553 l -2.9155870747935837 0.34031219653941636 a23.935380789917534,23.935380789917534 0 0,0 -0.0442436378552635,-0.4096411377611758 l 2.921013014149899 -0.2900747368934585" fill="#ff1302" stroke="none" /><path d="M 79.10278846688536 102.07522291339032 l -16.123101746487166 1.601124156024975 a37.20240749057325,37.20240749057325 0 0,0 -0.057797312564033754,-0.637788527971743 l 16.148273655328275 -1.3233542395046658" fill="#ffc912" stroke="none" /><path d="M 79.07016306316243 101.71520430193888 l -17.315508694494177 1.4190093832400406 a38.37355545013244,38.37355545013244 0 0,0 -0.048283875775116634,-0.6587951232335184 l 17.337369128933627 -1.1207411235097615" fill="#ffd814" stroke="none" /><path d="M 79.04373962182676 101.35467743843564 l -9.947831579255936 0.6430585781331243 a30.968594558118625,30.968594558118625 0 0,0 -0.029808966852576536,-0.5322591276840696 l 9.957426896996045 -0.47172773411361707" fill="#ff770a" stroke="none" /><path d="M 79.0095281055655 100.63252640178507 l -2.1248861660291576 0.06403127131018306 a23.12585070555006,23.12585070555006 0 0,0 -0.008565305578268786,-0.3979960935001346 l 2.1256735342924338 -0.02744536201991962" fill="#ff0701" stroke="none" /><line stroke="#e1ed5e" stroke-width="0.3" x1="15.007084014347285" x2="10.007500721073583" y1="101.09737516637583" y2="101.16192664675087" /><path d="M 14.007167355692545 101.11028546245083 a86.0,86.0 0 0,1 10.666146001902534,-42.60595125391555" fill="none" id="id34" stroke="none" /><text fill="#e1ed5e" style="font-size:6.75px; font-family:Arial;" text-anchor="middle"><textPath startOffset="22.20632615414155" xlink:href="#id34">October</textPath></text><path d="M 79.05617556472873 98.46500227214037 l -4.935361967291887 -0.36171853089064404 a25.948599604310388,25.948599604310388 0 0,0 0.036483133213259904,-0.445186633589561 l 4.92840435025913 0.4466190816879834" fill="#ff3004" stroke="none" /><path d="M 79.08570108090925 98.10471618934814 l -9.190463755801417 -0.8328530273062734 a30.228123764438397,30.228123764438397 0 0,0 0.05142073648090807,-0.5177997989982572 l 9.17476589363828 0.990928357008961" fill="#ff6c0a" stroke="none" /><path d="M 79.12142395522702 97.74499172005258 l -17.286883501087313 -1.8670844863099598 a38.38741917764635,38.38741917764635 0 0,0 0.07660967556373427,-0.6563449154896289 l 17.25218347251999 2.1643731401244506" fill="#ffd814" stroke="none" /><line stroke="#e1ed5e" stroke-width="0.3" x1="26.266209847984243" x2="21.928928074336255" y1="57.711370442889674" y2="55.22380399835377" /><path d="M 25.398753493254645 57.213857153982495 a86.0,86.0 0 0,1 29.58750427330803,-30.492523968695096" fill="none" id="id35" stroke="none" /><text fill="#e1ed5e" style="font-size:6.75px; font-family:Arial;" text-anchor="middle"><textPath startOffset="21.46611528233685" xlink:href="#id35">November</textPath></text><path d="M 84.07557802195018 86.31012108654704 l -3.4371473146176355 -2.954840722613025 a25.532666473324007,25.532666473324007 0 0,0 0.28938011262877716,-0.330811493145244 l 3.385775338411015 3.013567771961212" fill="#ff2a04" stroke="none" /><path d="M 84.5562425177563 85.77008943001954 l -6.253318713665539 -5.761820992291189 a29.50309214826507,29.50309214826507 0 0,0 0.3473394515222851,-0.37051750934107464 l 6.153211940172798 5.868607918510314" fill="#ff6209" stroke="none" /><path d="M 84.80347519578584 85.50635884689758 l -7.322653161236039 -6.983959067941285 a31.11913699790844,31.11913699790844 0 0,0 0.3730380411948577,-0.3844484924208708 l 7.201350856338063 7.10897175591228" fill="#ff790b" stroke="none" /><path d="M 85.05521093208273 85.24692304244772 l -7.67174062088665 -7.573327349349728 a31.78011555107694,31.78011555107694 0 0,0 0.38766323193961666,-0.3859984828226986 l 7.540241588779721 7.704261682822536" fill="#ff820b" stroke="none" /><path d="M 85.31137513191541 84.99185889309783 l -3.3491276981648856 -3.4219800376485203 a25.78817331731843,25.78817331731843 0 0,0 0.319916726942302,-0.3077596378488006 l 3.289727727610156 3.4791227622596343" fill="#ff2e04" stroke="none" /><path d="M 85.57189188830299 84.74124197986013 l -4.8756396386840635 -5.156338229803568 a28.096455863770384,28.096455863770384 0 0,0 0.3542723812396278,-0.3292575683633319 l 4.78615937364958 5.2395003842415475" fill="#ff4f07" stroke="none" /><path d="M 85.83668400450813 84.49514656593479 l -2.983609201875399 -3.2662141686544928 a25.42380818583208,25.42380818583208 0 0,0 0.3256535740693538,-0.29237499417800816 l 2.926944640210074 3.3170881716017795" fill="#ff2904" stroke="none" /><path d="M 86.37877921826538 84.01681056812374 l -2.9675864377111454 -3.4821765941131635 a25.575163723614345,25.575163723614345 0 0,0 0.33752208890649954,-0.28266504284355454 l 2.9072068118455356 3.5327427943505305" fill="#ff2b04" stroke="none" /><path d="M 86.65592168130627 83.78471172551755 l -6.266177165958083 -7.614453894702282 a30.86128208650991,30.86128208650991 0 0,0 0.41309531002191413,-0.3340276785178713 l 6.134178457371668 7.721187670484288" fill="#ff750a" stroke="none" /><path d="M 86.93701828274178 83.55741782278169 l -10.074898858740026 -12.681434912607799 a37.19636929859742,37.19636929859742 0 0,0 0.5047502055413187,-0.39396554164009234 l 9.855116098039282 12.852978843471112" fill="#ffc912" stroke="none" /><path d="M 87.22198572758235 83.33499621200491 l -10.59649753560117 -13.819883731970698 a38.41479102335684,38.41479102335684 0 0,0 0.5282104124077125,-0.39783713167521606 l 10.357040969435067 14.000237453151769" fill="#ffd914" stroke="none" /><path d="M 87.51073957382395 83.11751280151077 l -10.245933200285416 -13.850046374872203 a38.2279694604681,38.2279694604681 0 0,0 0.5323785102380235,-0.38679562868406264 l 10.00600937369361 14.024361238372933" fill="#ffd614" stroke="none" /><path d="M 87.80319425747018 82.90503203632743 l -6.002013076831048 -8.412384638397029 a31.334039688272405,31.334039688272405 0 0,0 0.4417634963212939,-0.3094835604182802 l 5.856318440926094 8.514453041579252" fill="#ff7c0b" stroke="none" /><path d="M 88.39885842347998 82.49532879139004 l -3.849922844072153 -5.809051904029512 a27.969002075549806,27.969002075549806 0 0,0 0.4035966611809192,-0.2625104952035745 l 3.7493591571069467 5.874461323392621" fill="#ff4d07" stroke="none" /><path d="M 88.70189139769569 82.29822771554957 l -5.045172368764564 -7.904729503968184 a30.37755366614612,30.37755366614612 0 0,0 0.4431952686234071,-0.2775288365531666 l 4.9083579477689145 7.990402681844281" fill="#ff6e0a" stroke="none" /><line stroke="#e1ed5e" stroke-width="0.3" x1="56.762969772571076" x2="54.21961505331055" y1="26.818313649435495" y2="22.513508569990535" /><path d="M 56.25429882871897 25.957352633546506 a86.0,86.0 0 0,1 42.265352541879196,-11.944610805530505" fill="none" id="id36" stroke="none" /><text fill="#e1ed5e" style="font-size:6.75px; font-family:Arial;" text-anchor="middle"><textPath startOffset="22.20632615414155" xlink:href="#id36">December</textPath></text><path d="M 89.63071344664047 81.73862282372117 l -4.293809893058426 -7.561839628684309 a29.69587384727187,29.69587384727187 0 0,0 0.4466767239194581,-0.24857511325455225 l 4.163009080066923 7.634630139499046" fill="#ff6509" stroke="none" /><path d="M 89.94658935756843 81.56283822128135 l -6.770686776034964 -12.416905255607366 a35.14290407044835,35.14290407044835 0 0,0 0.5335947162972876,-0.2850278178907436 l 6.555947013209371 12.53161179999986" fill="#ffae10" stroke="none" /><path d="M 90.58718382345135 81.22770947309562 l -5.0898682671558895 -10.150892576949925 a32.35549994873751,32.35549994873751 0 0,0 0.500013781124191,-0.2453545908616301 l 4.914383219021272 10.237002327946385" fill="#ff890c" stroke="none" /><path d="M 90.91171255644093 81.06846463323043 l -4.040941076147909 -8.417561545364958 a30.337266578121582,30.337266578121582 0 0,0 0.4727149825701691,-0.22194602273259176 l 3.8954478822781318 8.485872550737557" fill="#ff6e0a" stroke="none" /><path d="M 91.23893434514133 80.91482961587045 l -0.8884365479816863 -1.9353767637062516 a23.12955458189822,23.12955458189822 0 0,0 0.3632638425242277,-0.16298589725377155 l 0.8549905869906841 1.950382991476552" fill="#ff0701" stroke="none" /><path d="M 91.56875222667455 80.76684994638697 l -2.7016655081282748 -6.162971307390144 a27.72913158242014,27.72913158242014 0 0,0 0.4388019432003783,-0.1878720919394644 l 2.595179807137588 6.208562927292395" fill="#ff4a06" stroke="none" /><path d="M 91.90106846888425 80.62456947434976 l -2.3026928996337874 -5.508833619268297 a26.970732152324747,26.970732152324747 0 0,0 0.4298828143044947,-0.17535999366945373 l 2.2075262157409123 5.547654499121328" fill="#ff3f05" stroke="none" /><path d="M 92.23578459929587 80.48803036053334 l -0.8296037846834301 -2.0848473444028492 a23.243842884211077,23.243842884211077 0 0,0 0.37302696962293386,-0.1447286688920136 l 0.7935936500608198 2.0988187171854142" fill="#ff0901" stroke="none" /><path d="M 92.57280143429618 80.3572730644239 l -2.394435272371394 -6.332567764821318 a27.770135506002102,27.770135506002102 0 0,0 0.44857717996793445,-0.16521476108073918 l 2.2850757666308903 6.37284579370838" fill="#ff4a06" stroke="none" /><path d="M 93.94186890950719 79.89281104454417 l -2.480251025442717 -8.232056269598312 a29.597580797819962,29.597580797819962 0 0,0 0.48907857469356913,-0.14277544737061873 l 2.3381822330257265 8.273530045887629" fill="#ff6409" stroke="none" /><path d="M 94.63758080256005 79.69619591428918 l -1.183610554099631 -4.481521477412929 a25.63518809718542,25.63518809718542 0 0,0 0.4276085013015313,-0.10900692808220377 l 1.1062931641131002 4.501231401663996" fill="#ff2c04" stroke="none" /><path d="M 95.33964822691252 79.52364482259891 l -2.005399409696793 -8.8111955030162 a30.036525492952762,30.036525492952762 0 0,0 0.5051246437611675,-0.11040068248358578 l 1.8534320417821044 8.844409683595655" fill="#ff6a09" stroke="none" /><path d="M 95.692805502759 79.44645832069477 l -1.8372604311822767 -8.767240223823647 a29.957679779620356,29.957679779620356 0 0,0 0.5056194289678385,-0.10142250083032128 l 1.6860745927473018 8.79756668073118" fill="#ff6909" stroke="none" /><path d="M 96.04723909329186 79.375362276772 l -0.8563746397516848 -4.468374666998935 a25.549697757905207,25.549697757905207 0 0,0 0.4326474846217886,-0.07906356240150687 l 0.779332034027003 4.4824537107511775" fill="#ff2b04" stroke="none" /><path d="M 96.40284397218896 79.31037775812273 l -0.3213594592328314 -1.8483506870362856 a22.87607893338898,22.87607893338898 0 0,0 0.3885347254095886,-0.06411155878657204 l 0.2894955276843571 1.8536085087624845" fill="#ff0400" stroke="none" /><path d="M 96.75951476605007 79.25152402106235 l -0.7936405324182821 -5.081594370581384 a26.143196150432296,26.143196150432296 0 0,0 0.44521989972061554,-0.06561383994235738 l 0.7060516522690178 5.09450269468471" fill="#ff3304" stroke="none" /><path d="M 97.11714578562143 79.19881850522333 l -2.077723073831186 -14.991772577013277 a36.13506452488452,36.13506452488452 0 0,0 0.6168518293613955,-0.08008507121715445 l 1.8193565159619327 15.02531597139457" fill="#ffbb11" stroke="none" /><path d="M 97.47563105711357 79.15227682838746 l -0.5533911612418854 -4.570229628160611 a25.60361169425243,25.60361169425243 0 0,0 0.43798427766587783,-0.04921263684512065 l 0.4746401800662896 4.57907821847633" fill="#ff2b04" stroke="none" /><path d="M 98.19473922651362 79.07773832637324 l -0.5964651789379356 -6.9127966087943395 a27.93848165409724,27.93848165409724 0 0,0 0.4794906134503375,-0.03721769995837283 l 0.47738437612526397 6.922039570941175" fill="#ff4d07" stroke="none" /><path d="M 98.55514903715128 79.0497635885617 l -0.7694932306491583 -11.157597228794087 a32.18410013152638,32.18410013152638 0 0,0 0.5530116548285904,-0.03335917322857998 l 0.5773195269809449 11.169189671402972" fill="#ff870c" stroke="none" /><path d="M 98.91598698831166 79.02799685794201 l -0.47753500457965614 -9.23869502349348 a30.25102834379628,30.25102834379628 0 0,0 0.5202588674291632,-0.022403441225101225 l 0.3184353047611688 9.245546191242775" fill="#ff6d0a" stroke="none" /><path d="M 99.27714615592234 79.0124445844662 l -0.06602889698525342 -1.9171028083454353 a22.918239555687205,22.918239555687205 0 0,0 0.39438292112611933,-0.010185747309734471 l 0.033019340664255076 1.9179553477975293" fill="#ff0400" stroke="none" /><path d="M 99.63851952072746 79.00311137660856 l -0.11581508202857148 -6.727213550111009 a27.728210407086156,27.728210407086156 0 0,0 0.47729556130110556,-0.00410823358370507 l 1.6479362678055943e-15 6.728210407086156" fill="#ff4a06" stroke="none" /></svg>